G04 EAGLE Gerber RS-274X export*
G75*
%MOMM*%
%FSLAX34Y34*%
%LPD*%
%IN*%
%IPPOS*%
%AMOC8*
5,1,8,0,0,1.08239X$1,22.5*%
G01*
%ADD10C,0.203200*%
%ADD11C,0.381000*%
%ADD12C,0.279400*%
%ADD13C,0.254000*%


D10*
X0Y0D02*
X177800Y0D01*
X177800Y609600D01*
X0Y609600D02*
X0Y0D01*
X0Y609600D02*
X177800Y609600D01*
X182880Y0D02*
X360680Y0D01*
X360680Y609600D01*
X182880Y609600D02*
X182880Y0D01*
X182880Y609600D02*
X360680Y609600D01*
X365760Y0D02*
X543560Y0D01*
X543560Y609600D01*
X365760Y609600D02*
X365760Y0D01*
X365760Y609600D02*
X543560Y609600D01*
X548640Y0D02*
X726440Y0D01*
X726440Y609600D01*
X548640Y609600D02*
X548640Y0D01*
X548640Y609600D02*
X726440Y609600D01*
X731520Y0D02*
X909320Y0D01*
X909320Y609600D01*
X731520Y609600D02*
X731520Y0D01*
X731520Y609600D02*
X909320Y609600D01*
X914400Y0D02*
X1092200Y0D01*
X1092200Y609600D01*
X914400Y609600D02*
X914400Y0D01*
X914400Y609600D02*
X1092200Y609600D01*
X1097280Y0D02*
X1275080Y0D01*
X1275080Y609600D01*
X1097280Y609600D02*
X1097280Y0D01*
X1097280Y609600D02*
X1275080Y609600D01*
X1280160Y0D02*
X1457960Y0D01*
X1457960Y609600D01*
X1280160Y609600D02*
X1280160Y0D01*
X1280160Y609600D02*
X1457960Y609600D01*
X1463040Y0D02*
X1640840Y0D01*
X1640840Y609600D01*
X1463040Y609600D02*
X1463040Y0D01*
X1463040Y609600D02*
X1640840Y609600D01*
X177800Y614680D02*
X0Y614680D01*
X177800Y614680D02*
X177800Y1224280D01*
X0Y1224280D02*
X0Y614680D01*
X0Y1224280D02*
X177800Y1224280D01*
X182880Y614680D02*
X360680Y614680D01*
X360680Y1224280D01*
X182880Y1224280D02*
X182880Y614680D01*
X182880Y1224280D02*
X360680Y1224280D01*
X365760Y614680D02*
X543560Y614680D01*
X543560Y1224280D01*
X365760Y1224280D02*
X365760Y614680D01*
X365760Y1224280D02*
X543560Y1224280D01*
X548640Y614680D02*
X726440Y614680D01*
X726440Y1224280D01*
X548640Y1224280D02*
X548640Y614680D01*
X548640Y1224280D02*
X726440Y1224280D01*
X731520Y614680D02*
X909320Y614680D01*
X909320Y1224280D01*
X731520Y1224280D02*
X731520Y614680D01*
X731520Y1224280D02*
X909320Y1224280D01*
X914400Y614680D02*
X1092200Y614680D01*
X1092200Y1224280D01*
X914400Y1224280D02*
X914400Y614680D01*
X914400Y1224280D02*
X1092200Y1224280D01*
X1097280Y614680D02*
X1275080Y614680D01*
X1275080Y1224280D01*
X1097280Y1224280D02*
X1097280Y614680D01*
X1097280Y1224280D02*
X1275080Y1224280D01*
X1280160Y614680D02*
X1457960Y614680D01*
X1457960Y1224280D01*
X1280160Y1224280D02*
X1280160Y614680D01*
X1280160Y1224280D02*
X1457960Y1224280D01*
X1463040Y614680D02*
X1640840Y614680D01*
X1640840Y1224280D01*
X1463040Y1224280D02*
X1463040Y614680D01*
X1463040Y1224280D02*
X1640840Y1224280D01*
D11*
X-2540Y1356360D02*
X-2540Y-68580D01*
D12*
X-42921Y1371727D02*
X-46251Y1381718D01*
X-39590Y1381718D02*
X-42921Y1371727D01*
X-32806Y1377555D02*
X-22815Y1377555D01*
X-14261Y1377555D02*
X-10098Y1375890D01*
X-14261Y1377554D02*
X-14346Y1377590D01*
X-14429Y1377630D01*
X-14510Y1377673D01*
X-14590Y1377720D01*
X-14667Y1377770D01*
X-14743Y1377823D01*
X-14816Y1377879D01*
X-14886Y1377939D01*
X-14954Y1378001D01*
X-15019Y1378066D01*
X-15081Y1378134D01*
X-15141Y1378205D01*
X-15197Y1378278D01*
X-15250Y1378353D01*
X-15300Y1378431D01*
X-15346Y1378510D01*
X-15389Y1378592D01*
X-15429Y1378675D01*
X-15465Y1378760D01*
X-15497Y1378846D01*
X-15526Y1378934D01*
X-15550Y1379023D01*
X-15571Y1379113D01*
X-15588Y1379203D01*
X-15602Y1379294D01*
X-15611Y1379386D01*
X-15616Y1379478D01*
X-15618Y1379570D01*
X-15616Y1379662D01*
X-15609Y1379754D01*
X-15599Y1379846D01*
X-15585Y1379937D01*
X-15567Y1380028D01*
X-15545Y1380117D01*
X-15519Y1380206D01*
X-15489Y1380293D01*
X-15456Y1380379D01*
X-15419Y1380463D01*
X-15379Y1380546D01*
X-15335Y1380627D01*
X-15288Y1380706D01*
X-15237Y1380783D01*
X-15183Y1380858D01*
X-15126Y1380931D01*
X-15066Y1381001D01*
X-15003Y1381068D01*
X-14937Y1381132D01*
X-14869Y1381194D01*
X-14798Y1381253D01*
X-14724Y1381308D01*
X-14648Y1381361D01*
X-14570Y1381410D01*
X-14490Y1381456D01*
X-14409Y1381498D01*
X-14325Y1381537D01*
X-14240Y1381572D01*
X-14153Y1381603D01*
X-14065Y1381631D01*
X-13976Y1381655D01*
X-13886Y1381675D01*
X-13796Y1381692D01*
X-13704Y1381704D01*
X-13612Y1381713D01*
X-13520Y1381717D01*
X-13428Y1381718D01*
X-13201Y1381712D01*
X-12974Y1381701D01*
X-12747Y1381684D01*
X-12521Y1381661D01*
X-12295Y1381634D01*
X-12070Y1381600D01*
X-11846Y1381562D01*
X-11623Y1381518D01*
X-11401Y1381469D01*
X-11180Y1381414D01*
X-10961Y1381354D01*
X-10743Y1381289D01*
X-10527Y1381218D01*
X-10313Y1381143D01*
X-10100Y1381062D01*
X-9890Y1380976D01*
X-9681Y1380885D01*
X-10098Y1375890D02*
X-10013Y1375854D01*
X-9930Y1375814D01*
X-9849Y1375771D01*
X-9769Y1375724D01*
X-9692Y1375674D01*
X-9616Y1375621D01*
X-9543Y1375565D01*
X-9473Y1375505D01*
X-9405Y1375443D01*
X-9340Y1375378D01*
X-9278Y1375310D01*
X-9218Y1375239D01*
X-9162Y1375166D01*
X-9109Y1375091D01*
X-9059Y1375013D01*
X-9013Y1374934D01*
X-8970Y1374852D01*
X-8930Y1374769D01*
X-8894Y1374684D01*
X-8862Y1374598D01*
X-8833Y1374510D01*
X-8809Y1374421D01*
X-8788Y1374331D01*
X-8771Y1374241D01*
X-8757Y1374150D01*
X-8748Y1374058D01*
X-8743Y1373966D01*
X-8741Y1373874D01*
X-8743Y1373782D01*
X-8750Y1373690D01*
X-8760Y1373598D01*
X-8774Y1373507D01*
X-8792Y1373416D01*
X-8814Y1373327D01*
X-8840Y1373238D01*
X-8870Y1373151D01*
X-8903Y1373065D01*
X-8940Y1372981D01*
X-8980Y1372898D01*
X-9024Y1372817D01*
X-9071Y1372738D01*
X-9122Y1372661D01*
X-9176Y1372586D01*
X-9233Y1372513D01*
X-9293Y1372443D01*
X-9356Y1372376D01*
X-9422Y1372312D01*
X-9490Y1372250D01*
X-9561Y1372191D01*
X-9635Y1372136D01*
X-9711Y1372083D01*
X-9789Y1372034D01*
X-9869Y1371988D01*
X-9950Y1371946D01*
X-10034Y1371907D01*
X-10119Y1371872D01*
X-10206Y1371841D01*
X-10294Y1371813D01*
X-10383Y1371789D01*
X-10473Y1371769D01*
X-10563Y1371752D01*
X-10655Y1371740D01*
X-10747Y1371731D01*
X-10839Y1371727D01*
X-10931Y1371726D01*
X-10931Y1371727D02*
X-11265Y1371736D01*
X-11598Y1371753D01*
X-11931Y1371777D01*
X-12264Y1371810D01*
X-12595Y1371850D01*
X-12926Y1371898D01*
X-13255Y1371954D01*
X-13583Y1372017D01*
X-13909Y1372089D01*
X-14233Y1372168D01*
X-14556Y1372254D01*
X-14876Y1372349D01*
X-15194Y1372451D01*
X-15510Y1372560D01*
X562Y1371727D02*
X3892Y1371727D01*
X562Y1371727D02*
X464Y1371729D01*
X366Y1371735D01*
X268Y1371744D01*
X171Y1371758D01*
X75Y1371775D01*
X-21Y1371796D01*
X-116Y1371821D01*
X-210Y1371849D01*
X-303Y1371881D01*
X-394Y1371917D01*
X-484Y1371956D01*
X-572Y1371999D01*
X-659Y1372046D01*
X-743Y1372095D01*
X-826Y1372148D01*
X-906Y1372204D01*
X-985Y1372263D01*
X-1060Y1372326D01*
X-1134Y1372391D01*
X-1204Y1372459D01*
X-1272Y1372529D01*
X-1338Y1372603D01*
X-1400Y1372679D01*
X-1459Y1372757D01*
X-1515Y1372837D01*
X-1568Y1372920D01*
X-1618Y1373004D01*
X-1664Y1373091D01*
X-1707Y1373179D01*
X-1746Y1373269D01*
X-1782Y1373360D01*
X-1814Y1373453D01*
X-1842Y1373547D01*
X-1867Y1373642D01*
X-1888Y1373738D01*
X-1905Y1373834D01*
X-1919Y1373931D01*
X-1928Y1374029D01*
X-1934Y1374127D01*
X-1936Y1374225D01*
X-1936Y1379220D01*
X-1934Y1379318D01*
X-1928Y1379416D01*
X-1919Y1379514D01*
X-1905Y1379611D01*
X-1888Y1379707D01*
X-1867Y1379803D01*
X-1842Y1379898D01*
X-1814Y1379992D01*
X-1782Y1380085D01*
X-1746Y1380176D01*
X-1707Y1380266D01*
X-1664Y1380354D01*
X-1617Y1380441D01*
X-1568Y1380525D01*
X-1515Y1380608D01*
X-1459Y1380688D01*
X-1400Y1380766D01*
X-1337Y1380842D01*
X-1272Y1380916D01*
X-1204Y1380986D01*
X-1134Y1381054D01*
X-1060Y1381119D01*
X-984Y1381182D01*
X-906Y1381241D01*
X-826Y1381297D01*
X-743Y1381350D01*
X-659Y1381399D01*
X-572Y1381446D01*
X-484Y1381489D01*
X-394Y1381528D01*
X-303Y1381564D01*
X-210Y1381596D01*
X-116Y1381624D01*
X-21Y1381649D01*
X75Y1381670D01*
X171Y1381687D01*
X268Y1381701D01*
X366Y1381710D01*
X464Y1381716D01*
X562Y1381718D01*
X3892Y1381718D01*
X10022Y1378387D02*
X10022Y1375057D01*
X10022Y1378387D02*
X10024Y1378501D01*
X10030Y1378614D01*
X10039Y1378728D01*
X10053Y1378840D01*
X10070Y1378953D01*
X10092Y1379065D01*
X10117Y1379175D01*
X10145Y1379285D01*
X10178Y1379394D01*
X10214Y1379502D01*
X10254Y1379609D01*
X10298Y1379714D01*
X10345Y1379817D01*
X10395Y1379919D01*
X10449Y1380019D01*
X10507Y1380117D01*
X10568Y1380213D01*
X10631Y1380307D01*
X10699Y1380399D01*
X10769Y1380489D01*
X10842Y1380575D01*
X10918Y1380660D01*
X10997Y1380742D01*
X11079Y1380821D01*
X11164Y1380897D01*
X11250Y1380970D01*
X11340Y1381040D01*
X11432Y1381108D01*
X11526Y1381171D01*
X11622Y1381232D01*
X11720Y1381290D01*
X11820Y1381344D01*
X11922Y1381394D01*
X12025Y1381441D01*
X12130Y1381485D01*
X12237Y1381525D01*
X12345Y1381561D01*
X12454Y1381594D01*
X12564Y1381622D01*
X12674Y1381647D01*
X12786Y1381669D01*
X12899Y1381686D01*
X13011Y1381700D01*
X13125Y1381709D01*
X13238Y1381715D01*
X13352Y1381717D01*
X13466Y1381715D01*
X13579Y1381709D01*
X13693Y1381700D01*
X13805Y1381686D01*
X13918Y1381669D01*
X14030Y1381647D01*
X14140Y1381622D01*
X14250Y1381594D01*
X14359Y1381561D01*
X14467Y1381525D01*
X14574Y1381485D01*
X14679Y1381441D01*
X14782Y1381394D01*
X14884Y1381344D01*
X14984Y1381290D01*
X15082Y1381232D01*
X15178Y1381171D01*
X15272Y1381108D01*
X15364Y1381040D01*
X15454Y1380970D01*
X15540Y1380897D01*
X15625Y1380821D01*
X15707Y1380742D01*
X15786Y1380660D01*
X15862Y1380575D01*
X15935Y1380489D01*
X16005Y1380399D01*
X16073Y1380307D01*
X16136Y1380213D01*
X16197Y1380117D01*
X16255Y1380019D01*
X16309Y1379919D01*
X16359Y1379817D01*
X16406Y1379714D01*
X16450Y1379609D01*
X16490Y1379502D01*
X16526Y1379394D01*
X16559Y1379285D01*
X16587Y1379175D01*
X16612Y1379065D01*
X16634Y1378953D01*
X16651Y1378840D01*
X16665Y1378728D01*
X16674Y1378614D01*
X16680Y1378501D01*
X16682Y1378387D01*
X16682Y1375057D01*
X16680Y1374943D01*
X16674Y1374830D01*
X16665Y1374716D01*
X16651Y1374604D01*
X16634Y1374491D01*
X16612Y1374379D01*
X16587Y1374269D01*
X16559Y1374159D01*
X16526Y1374050D01*
X16490Y1373942D01*
X16450Y1373835D01*
X16406Y1373730D01*
X16359Y1373627D01*
X16309Y1373525D01*
X16255Y1373425D01*
X16197Y1373327D01*
X16136Y1373231D01*
X16073Y1373137D01*
X16005Y1373045D01*
X15935Y1372955D01*
X15862Y1372869D01*
X15786Y1372784D01*
X15707Y1372702D01*
X15625Y1372623D01*
X15540Y1372547D01*
X15454Y1372474D01*
X15364Y1372404D01*
X15272Y1372336D01*
X15178Y1372273D01*
X15082Y1372212D01*
X14984Y1372154D01*
X14884Y1372100D01*
X14782Y1372050D01*
X14679Y1372003D01*
X14574Y1371959D01*
X14467Y1371919D01*
X14359Y1371883D01*
X14250Y1371850D01*
X14140Y1371822D01*
X14030Y1371797D01*
X13918Y1371775D01*
X13805Y1371758D01*
X13693Y1371744D01*
X13579Y1371735D01*
X13466Y1371729D01*
X13352Y1371727D01*
X13238Y1371729D01*
X13125Y1371735D01*
X13011Y1371744D01*
X12899Y1371758D01*
X12786Y1371775D01*
X12674Y1371797D01*
X12564Y1371822D01*
X12454Y1371850D01*
X12345Y1371883D01*
X12237Y1371919D01*
X12130Y1371959D01*
X12025Y1372003D01*
X11922Y1372050D01*
X11820Y1372100D01*
X11720Y1372154D01*
X11622Y1372212D01*
X11526Y1372273D01*
X11432Y1372336D01*
X11340Y1372404D01*
X11250Y1372474D01*
X11164Y1372547D01*
X11079Y1372623D01*
X10997Y1372702D01*
X10918Y1372784D01*
X10842Y1372869D01*
X10769Y1372955D01*
X10699Y1373045D01*
X10631Y1373137D01*
X10568Y1373231D01*
X10507Y1373327D01*
X10449Y1373425D01*
X10395Y1373525D01*
X10345Y1373627D01*
X10298Y1373730D01*
X10254Y1373835D01*
X10214Y1373942D01*
X10178Y1374050D01*
X10145Y1374159D01*
X10117Y1374269D01*
X10092Y1374379D01*
X10070Y1374491D01*
X10053Y1374604D01*
X10039Y1374716D01*
X10030Y1374830D01*
X10024Y1374943D01*
X10022Y1375057D01*
X24218Y1371727D02*
X24218Y1381718D01*
X29213Y1381718D01*
X29213Y1380053D01*
X37008Y1371727D02*
X41171Y1371727D01*
X37008Y1371727D02*
X36910Y1371729D01*
X36812Y1371735D01*
X36714Y1371744D01*
X36617Y1371758D01*
X36521Y1371775D01*
X36425Y1371796D01*
X36330Y1371821D01*
X36236Y1371849D01*
X36143Y1371881D01*
X36052Y1371917D01*
X35962Y1371956D01*
X35874Y1371999D01*
X35787Y1372046D01*
X35703Y1372095D01*
X35620Y1372148D01*
X35540Y1372204D01*
X35462Y1372263D01*
X35386Y1372326D01*
X35312Y1372391D01*
X35242Y1372459D01*
X35174Y1372529D01*
X35109Y1372603D01*
X35046Y1372679D01*
X34987Y1372757D01*
X34931Y1372837D01*
X34878Y1372920D01*
X34829Y1373004D01*
X34782Y1373091D01*
X34739Y1373179D01*
X34700Y1373269D01*
X34664Y1373360D01*
X34632Y1373453D01*
X34604Y1373547D01*
X34579Y1373642D01*
X34558Y1373738D01*
X34541Y1373834D01*
X34527Y1373931D01*
X34518Y1374029D01*
X34512Y1374127D01*
X34510Y1374225D01*
X34510Y1378387D01*
X34511Y1378387D02*
X34513Y1378501D01*
X34519Y1378614D01*
X34528Y1378728D01*
X34542Y1378840D01*
X34559Y1378953D01*
X34581Y1379065D01*
X34606Y1379175D01*
X34634Y1379285D01*
X34667Y1379394D01*
X34703Y1379502D01*
X34743Y1379609D01*
X34787Y1379714D01*
X34834Y1379817D01*
X34884Y1379919D01*
X34938Y1380019D01*
X34996Y1380117D01*
X35057Y1380213D01*
X35120Y1380307D01*
X35188Y1380399D01*
X35258Y1380489D01*
X35331Y1380575D01*
X35407Y1380660D01*
X35486Y1380742D01*
X35568Y1380821D01*
X35653Y1380897D01*
X35739Y1380970D01*
X35829Y1381040D01*
X35921Y1381108D01*
X36015Y1381171D01*
X36111Y1381232D01*
X36209Y1381290D01*
X36309Y1381344D01*
X36411Y1381394D01*
X36514Y1381441D01*
X36619Y1381485D01*
X36726Y1381525D01*
X36834Y1381561D01*
X36943Y1381594D01*
X37053Y1381622D01*
X37163Y1381647D01*
X37275Y1381669D01*
X37388Y1381686D01*
X37500Y1381700D01*
X37614Y1381709D01*
X37727Y1381715D01*
X37841Y1381717D01*
X37955Y1381715D01*
X38068Y1381709D01*
X38182Y1381700D01*
X38294Y1381686D01*
X38407Y1381669D01*
X38519Y1381647D01*
X38629Y1381622D01*
X38739Y1381594D01*
X38848Y1381561D01*
X38956Y1381525D01*
X39063Y1381485D01*
X39168Y1381441D01*
X39271Y1381394D01*
X39373Y1381344D01*
X39473Y1381290D01*
X39571Y1381232D01*
X39667Y1381171D01*
X39761Y1381108D01*
X39853Y1381040D01*
X39943Y1380970D01*
X40029Y1380897D01*
X40114Y1380821D01*
X40196Y1380742D01*
X40275Y1380660D01*
X40351Y1380575D01*
X40424Y1380489D01*
X40494Y1380399D01*
X40562Y1380307D01*
X40625Y1380213D01*
X40686Y1380117D01*
X40744Y1380019D01*
X40798Y1379919D01*
X40848Y1379817D01*
X40895Y1379714D01*
X40939Y1379609D01*
X40979Y1379502D01*
X41015Y1379394D01*
X41048Y1379285D01*
X41076Y1379175D01*
X41101Y1379065D01*
X41123Y1378953D01*
X41140Y1378840D01*
X41154Y1378728D01*
X41163Y1378614D01*
X41169Y1378501D01*
X41171Y1378387D01*
X41171Y1376722D01*
X34510Y1376722D01*
D11*
X180340Y1356360D02*
X180340Y-68580D01*
D12*
X139959Y1371727D02*
X136629Y1381718D01*
X143290Y1381718D02*
X139959Y1371727D01*
X150074Y1377555D02*
X160065Y1377555D01*
X168619Y1377555D02*
X172782Y1375890D01*
X168619Y1377554D02*
X168534Y1377590D01*
X168451Y1377630D01*
X168370Y1377673D01*
X168290Y1377720D01*
X168213Y1377770D01*
X168137Y1377823D01*
X168064Y1377879D01*
X167994Y1377939D01*
X167926Y1378001D01*
X167861Y1378066D01*
X167799Y1378134D01*
X167739Y1378205D01*
X167683Y1378278D01*
X167630Y1378353D01*
X167580Y1378431D01*
X167534Y1378510D01*
X167491Y1378592D01*
X167451Y1378675D01*
X167415Y1378760D01*
X167383Y1378846D01*
X167354Y1378934D01*
X167330Y1379023D01*
X167309Y1379113D01*
X167292Y1379203D01*
X167278Y1379294D01*
X167269Y1379386D01*
X167264Y1379478D01*
X167262Y1379570D01*
X167264Y1379662D01*
X167271Y1379754D01*
X167281Y1379846D01*
X167295Y1379937D01*
X167313Y1380028D01*
X167335Y1380117D01*
X167361Y1380206D01*
X167391Y1380293D01*
X167424Y1380379D01*
X167461Y1380463D01*
X167501Y1380546D01*
X167545Y1380627D01*
X167592Y1380706D01*
X167643Y1380783D01*
X167697Y1380858D01*
X167754Y1380931D01*
X167814Y1381001D01*
X167877Y1381068D01*
X167943Y1381132D01*
X168011Y1381194D01*
X168082Y1381253D01*
X168156Y1381308D01*
X168232Y1381361D01*
X168310Y1381410D01*
X168390Y1381456D01*
X168471Y1381498D01*
X168555Y1381537D01*
X168640Y1381572D01*
X168727Y1381603D01*
X168815Y1381631D01*
X168904Y1381655D01*
X168994Y1381675D01*
X169084Y1381692D01*
X169176Y1381704D01*
X169268Y1381713D01*
X169360Y1381717D01*
X169452Y1381718D01*
X169679Y1381712D01*
X169906Y1381701D01*
X170133Y1381684D01*
X170359Y1381661D01*
X170585Y1381634D01*
X170810Y1381600D01*
X171034Y1381562D01*
X171257Y1381518D01*
X171479Y1381469D01*
X171700Y1381414D01*
X171919Y1381354D01*
X172137Y1381289D01*
X172353Y1381218D01*
X172567Y1381143D01*
X172780Y1381062D01*
X172990Y1380976D01*
X173199Y1380885D01*
X172782Y1375890D02*
X172867Y1375854D01*
X172950Y1375814D01*
X173031Y1375771D01*
X173111Y1375724D01*
X173188Y1375674D01*
X173264Y1375621D01*
X173337Y1375565D01*
X173407Y1375505D01*
X173475Y1375443D01*
X173540Y1375378D01*
X173602Y1375310D01*
X173662Y1375239D01*
X173718Y1375166D01*
X173771Y1375091D01*
X173821Y1375013D01*
X173867Y1374934D01*
X173910Y1374852D01*
X173950Y1374769D01*
X173986Y1374684D01*
X174018Y1374598D01*
X174047Y1374510D01*
X174071Y1374421D01*
X174092Y1374331D01*
X174109Y1374241D01*
X174123Y1374150D01*
X174132Y1374058D01*
X174137Y1373966D01*
X174139Y1373874D01*
X174137Y1373782D01*
X174130Y1373690D01*
X174120Y1373598D01*
X174106Y1373507D01*
X174088Y1373416D01*
X174066Y1373327D01*
X174040Y1373238D01*
X174010Y1373151D01*
X173977Y1373065D01*
X173940Y1372981D01*
X173900Y1372898D01*
X173856Y1372817D01*
X173809Y1372738D01*
X173758Y1372661D01*
X173704Y1372586D01*
X173647Y1372513D01*
X173587Y1372443D01*
X173524Y1372376D01*
X173458Y1372312D01*
X173390Y1372250D01*
X173319Y1372191D01*
X173245Y1372136D01*
X173169Y1372083D01*
X173091Y1372034D01*
X173011Y1371988D01*
X172930Y1371946D01*
X172846Y1371907D01*
X172761Y1371872D01*
X172674Y1371841D01*
X172586Y1371813D01*
X172497Y1371789D01*
X172407Y1371769D01*
X172317Y1371752D01*
X172225Y1371740D01*
X172133Y1371731D01*
X172041Y1371727D01*
X171949Y1371726D01*
X171949Y1371727D02*
X171615Y1371736D01*
X171282Y1371753D01*
X170949Y1371777D01*
X170616Y1371810D01*
X170285Y1371850D01*
X169954Y1371898D01*
X169625Y1371954D01*
X169297Y1372017D01*
X168971Y1372089D01*
X168647Y1372168D01*
X168324Y1372254D01*
X168004Y1372349D01*
X167686Y1372451D01*
X167370Y1372560D01*
X183442Y1371727D02*
X186772Y1371727D01*
X183442Y1371727D02*
X183344Y1371729D01*
X183246Y1371735D01*
X183148Y1371744D01*
X183051Y1371758D01*
X182955Y1371775D01*
X182859Y1371796D01*
X182764Y1371821D01*
X182670Y1371849D01*
X182577Y1371881D01*
X182486Y1371917D01*
X182396Y1371956D01*
X182308Y1371999D01*
X182221Y1372046D01*
X182137Y1372095D01*
X182054Y1372148D01*
X181974Y1372204D01*
X181896Y1372263D01*
X181820Y1372326D01*
X181746Y1372391D01*
X181676Y1372459D01*
X181608Y1372529D01*
X181543Y1372603D01*
X181480Y1372679D01*
X181421Y1372757D01*
X181365Y1372837D01*
X181312Y1372920D01*
X181263Y1373004D01*
X181216Y1373091D01*
X181173Y1373179D01*
X181134Y1373269D01*
X181098Y1373360D01*
X181066Y1373453D01*
X181038Y1373547D01*
X181013Y1373642D01*
X180992Y1373738D01*
X180975Y1373834D01*
X180961Y1373931D01*
X180952Y1374029D01*
X180946Y1374127D01*
X180944Y1374225D01*
X180944Y1379220D01*
X180946Y1379318D01*
X180952Y1379416D01*
X180961Y1379514D01*
X180975Y1379611D01*
X180992Y1379707D01*
X181013Y1379803D01*
X181038Y1379898D01*
X181066Y1379992D01*
X181098Y1380085D01*
X181134Y1380176D01*
X181173Y1380266D01*
X181216Y1380354D01*
X181263Y1380441D01*
X181312Y1380525D01*
X181365Y1380608D01*
X181421Y1380688D01*
X181480Y1380767D01*
X181543Y1380842D01*
X181608Y1380916D01*
X181676Y1380986D01*
X181746Y1381054D01*
X181820Y1381120D01*
X181896Y1381182D01*
X181974Y1381241D01*
X182054Y1381297D01*
X182137Y1381350D01*
X182221Y1381400D01*
X182308Y1381446D01*
X182396Y1381489D01*
X182486Y1381528D01*
X182577Y1381564D01*
X182670Y1381596D01*
X182764Y1381624D01*
X182859Y1381649D01*
X182955Y1381670D01*
X183051Y1381687D01*
X183148Y1381701D01*
X183246Y1381710D01*
X183344Y1381716D01*
X183442Y1381718D01*
X186772Y1381718D01*
X192902Y1378387D02*
X192902Y1375057D01*
X192902Y1378387D02*
X192904Y1378501D01*
X192910Y1378614D01*
X192919Y1378728D01*
X192933Y1378840D01*
X192950Y1378953D01*
X192972Y1379065D01*
X192997Y1379175D01*
X193025Y1379285D01*
X193058Y1379394D01*
X193094Y1379502D01*
X193134Y1379609D01*
X193178Y1379714D01*
X193225Y1379817D01*
X193275Y1379919D01*
X193329Y1380019D01*
X193387Y1380117D01*
X193448Y1380213D01*
X193511Y1380307D01*
X193579Y1380399D01*
X193649Y1380489D01*
X193722Y1380575D01*
X193798Y1380660D01*
X193877Y1380742D01*
X193959Y1380821D01*
X194044Y1380897D01*
X194130Y1380970D01*
X194220Y1381040D01*
X194312Y1381108D01*
X194406Y1381171D01*
X194502Y1381232D01*
X194600Y1381290D01*
X194700Y1381344D01*
X194802Y1381394D01*
X194905Y1381441D01*
X195010Y1381485D01*
X195117Y1381525D01*
X195225Y1381561D01*
X195334Y1381594D01*
X195444Y1381622D01*
X195554Y1381647D01*
X195666Y1381669D01*
X195779Y1381686D01*
X195891Y1381700D01*
X196005Y1381709D01*
X196118Y1381715D01*
X196232Y1381717D01*
X196346Y1381715D01*
X196459Y1381709D01*
X196573Y1381700D01*
X196685Y1381686D01*
X196798Y1381669D01*
X196910Y1381647D01*
X197020Y1381622D01*
X197130Y1381594D01*
X197239Y1381561D01*
X197347Y1381525D01*
X197454Y1381485D01*
X197559Y1381441D01*
X197662Y1381394D01*
X197764Y1381344D01*
X197864Y1381290D01*
X197962Y1381232D01*
X198058Y1381171D01*
X198152Y1381108D01*
X198244Y1381040D01*
X198334Y1380970D01*
X198420Y1380897D01*
X198505Y1380821D01*
X198587Y1380742D01*
X198666Y1380660D01*
X198742Y1380575D01*
X198815Y1380489D01*
X198885Y1380399D01*
X198953Y1380307D01*
X199016Y1380213D01*
X199077Y1380117D01*
X199135Y1380019D01*
X199189Y1379919D01*
X199239Y1379817D01*
X199286Y1379714D01*
X199330Y1379609D01*
X199370Y1379502D01*
X199406Y1379394D01*
X199439Y1379285D01*
X199467Y1379175D01*
X199492Y1379065D01*
X199514Y1378953D01*
X199531Y1378840D01*
X199545Y1378728D01*
X199554Y1378614D01*
X199560Y1378501D01*
X199562Y1378387D01*
X199562Y1375057D01*
X199560Y1374943D01*
X199554Y1374830D01*
X199545Y1374716D01*
X199531Y1374604D01*
X199514Y1374491D01*
X199492Y1374379D01*
X199467Y1374269D01*
X199439Y1374159D01*
X199406Y1374050D01*
X199370Y1373942D01*
X199330Y1373835D01*
X199286Y1373730D01*
X199239Y1373627D01*
X199189Y1373525D01*
X199135Y1373425D01*
X199077Y1373327D01*
X199016Y1373231D01*
X198953Y1373137D01*
X198885Y1373045D01*
X198815Y1372955D01*
X198742Y1372869D01*
X198666Y1372784D01*
X198587Y1372702D01*
X198505Y1372623D01*
X198420Y1372547D01*
X198334Y1372474D01*
X198244Y1372404D01*
X198152Y1372336D01*
X198058Y1372273D01*
X197962Y1372212D01*
X197864Y1372154D01*
X197764Y1372100D01*
X197662Y1372050D01*
X197559Y1372003D01*
X197454Y1371959D01*
X197347Y1371919D01*
X197239Y1371883D01*
X197130Y1371850D01*
X197020Y1371822D01*
X196910Y1371797D01*
X196798Y1371775D01*
X196685Y1371758D01*
X196573Y1371744D01*
X196459Y1371735D01*
X196346Y1371729D01*
X196232Y1371727D01*
X196118Y1371729D01*
X196005Y1371735D01*
X195891Y1371744D01*
X195779Y1371758D01*
X195666Y1371775D01*
X195554Y1371797D01*
X195444Y1371822D01*
X195334Y1371850D01*
X195225Y1371883D01*
X195117Y1371919D01*
X195010Y1371959D01*
X194905Y1372003D01*
X194802Y1372050D01*
X194700Y1372100D01*
X194600Y1372154D01*
X194502Y1372212D01*
X194406Y1372273D01*
X194312Y1372336D01*
X194220Y1372404D01*
X194130Y1372474D01*
X194044Y1372547D01*
X193959Y1372623D01*
X193877Y1372702D01*
X193798Y1372784D01*
X193722Y1372869D01*
X193649Y1372955D01*
X193579Y1373045D01*
X193511Y1373137D01*
X193448Y1373231D01*
X193387Y1373327D01*
X193329Y1373425D01*
X193275Y1373525D01*
X193225Y1373627D01*
X193178Y1373730D01*
X193134Y1373835D01*
X193094Y1373942D01*
X193058Y1374050D01*
X193025Y1374159D01*
X192997Y1374269D01*
X192972Y1374379D01*
X192950Y1374491D01*
X192933Y1374604D01*
X192919Y1374716D01*
X192910Y1374830D01*
X192904Y1374943D01*
X192902Y1375057D01*
X207098Y1371727D02*
X207098Y1381718D01*
X212093Y1381718D01*
X212093Y1380053D01*
X219888Y1371727D02*
X224051Y1371727D01*
X219888Y1371727D02*
X219790Y1371729D01*
X219692Y1371735D01*
X219594Y1371744D01*
X219497Y1371758D01*
X219401Y1371775D01*
X219305Y1371796D01*
X219210Y1371821D01*
X219116Y1371849D01*
X219023Y1371881D01*
X218932Y1371917D01*
X218842Y1371956D01*
X218754Y1371999D01*
X218667Y1372046D01*
X218583Y1372095D01*
X218500Y1372148D01*
X218420Y1372204D01*
X218342Y1372263D01*
X218266Y1372326D01*
X218192Y1372391D01*
X218122Y1372459D01*
X218054Y1372529D01*
X217989Y1372603D01*
X217926Y1372679D01*
X217867Y1372757D01*
X217811Y1372837D01*
X217758Y1372920D01*
X217709Y1373004D01*
X217662Y1373091D01*
X217619Y1373179D01*
X217580Y1373269D01*
X217544Y1373360D01*
X217512Y1373453D01*
X217484Y1373547D01*
X217459Y1373642D01*
X217438Y1373738D01*
X217421Y1373834D01*
X217407Y1373931D01*
X217398Y1374029D01*
X217392Y1374127D01*
X217390Y1374225D01*
X217390Y1378387D01*
X217391Y1378387D02*
X217393Y1378501D01*
X217399Y1378614D01*
X217408Y1378728D01*
X217422Y1378840D01*
X217439Y1378953D01*
X217461Y1379065D01*
X217486Y1379175D01*
X217514Y1379285D01*
X217547Y1379394D01*
X217583Y1379502D01*
X217623Y1379609D01*
X217667Y1379714D01*
X217714Y1379817D01*
X217764Y1379919D01*
X217818Y1380019D01*
X217876Y1380117D01*
X217937Y1380213D01*
X218000Y1380307D01*
X218068Y1380399D01*
X218138Y1380489D01*
X218211Y1380575D01*
X218287Y1380660D01*
X218366Y1380742D01*
X218448Y1380821D01*
X218533Y1380897D01*
X218619Y1380970D01*
X218709Y1381040D01*
X218801Y1381108D01*
X218895Y1381171D01*
X218991Y1381232D01*
X219089Y1381290D01*
X219189Y1381344D01*
X219291Y1381394D01*
X219394Y1381441D01*
X219499Y1381485D01*
X219606Y1381525D01*
X219714Y1381561D01*
X219823Y1381594D01*
X219933Y1381622D01*
X220043Y1381647D01*
X220155Y1381669D01*
X220268Y1381686D01*
X220380Y1381700D01*
X220494Y1381709D01*
X220607Y1381715D01*
X220721Y1381717D01*
X220835Y1381715D01*
X220948Y1381709D01*
X221062Y1381700D01*
X221174Y1381686D01*
X221287Y1381669D01*
X221399Y1381647D01*
X221509Y1381622D01*
X221619Y1381594D01*
X221728Y1381561D01*
X221836Y1381525D01*
X221943Y1381485D01*
X222048Y1381441D01*
X222151Y1381394D01*
X222253Y1381344D01*
X222353Y1381290D01*
X222451Y1381232D01*
X222547Y1381171D01*
X222641Y1381108D01*
X222733Y1381040D01*
X222823Y1380970D01*
X222909Y1380897D01*
X222994Y1380821D01*
X223076Y1380742D01*
X223155Y1380660D01*
X223231Y1380575D01*
X223304Y1380489D01*
X223374Y1380399D01*
X223442Y1380307D01*
X223505Y1380213D01*
X223566Y1380117D01*
X223624Y1380019D01*
X223678Y1379919D01*
X223728Y1379817D01*
X223775Y1379714D01*
X223819Y1379609D01*
X223859Y1379502D01*
X223895Y1379394D01*
X223928Y1379285D01*
X223956Y1379175D01*
X223981Y1379065D01*
X224003Y1378953D01*
X224020Y1378840D01*
X224034Y1378728D01*
X224043Y1378614D01*
X224049Y1378501D01*
X224051Y1378387D01*
X224051Y1376722D01*
X217390Y1376722D01*
D11*
X363220Y1356360D02*
X363220Y-68580D01*
D12*
X322839Y1371727D02*
X319509Y1381718D01*
X326170Y1381718D02*
X322839Y1371727D01*
X332954Y1377555D02*
X342945Y1377555D01*
X351499Y1377555D02*
X355662Y1375890D01*
X351499Y1377554D02*
X351414Y1377590D01*
X351331Y1377630D01*
X351250Y1377673D01*
X351170Y1377720D01*
X351093Y1377770D01*
X351017Y1377823D01*
X350944Y1377879D01*
X350874Y1377939D01*
X350806Y1378001D01*
X350741Y1378066D01*
X350679Y1378134D01*
X350619Y1378205D01*
X350563Y1378278D01*
X350510Y1378353D01*
X350460Y1378431D01*
X350414Y1378510D01*
X350371Y1378592D01*
X350331Y1378675D01*
X350295Y1378760D01*
X350263Y1378846D01*
X350234Y1378934D01*
X350210Y1379023D01*
X350189Y1379113D01*
X350172Y1379203D01*
X350158Y1379294D01*
X350149Y1379386D01*
X350144Y1379478D01*
X350142Y1379570D01*
X350144Y1379662D01*
X350151Y1379754D01*
X350161Y1379846D01*
X350175Y1379937D01*
X350193Y1380028D01*
X350215Y1380117D01*
X350241Y1380206D01*
X350271Y1380293D01*
X350304Y1380379D01*
X350341Y1380463D01*
X350381Y1380546D01*
X350425Y1380627D01*
X350472Y1380706D01*
X350523Y1380783D01*
X350577Y1380858D01*
X350634Y1380931D01*
X350694Y1381001D01*
X350757Y1381068D01*
X350823Y1381132D01*
X350891Y1381194D01*
X350962Y1381253D01*
X351036Y1381308D01*
X351112Y1381361D01*
X351190Y1381410D01*
X351270Y1381456D01*
X351351Y1381498D01*
X351435Y1381537D01*
X351520Y1381572D01*
X351607Y1381603D01*
X351695Y1381631D01*
X351784Y1381655D01*
X351874Y1381675D01*
X351964Y1381692D01*
X352056Y1381704D01*
X352148Y1381713D01*
X352240Y1381717D01*
X352332Y1381718D01*
X352559Y1381712D01*
X352786Y1381701D01*
X353013Y1381684D01*
X353239Y1381661D01*
X353465Y1381634D01*
X353690Y1381600D01*
X353914Y1381562D01*
X354137Y1381518D01*
X354359Y1381469D01*
X354580Y1381414D01*
X354799Y1381354D01*
X355017Y1381289D01*
X355233Y1381218D01*
X355447Y1381143D01*
X355660Y1381062D01*
X355870Y1380976D01*
X356079Y1380885D01*
X355662Y1375890D02*
X355747Y1375854D01*
X355830Y1375814D01*
X355911Y1375771D01*
X355991Y1375724D01*
X356068Y1375674D01*
X356144Y1375621D01*
X356217Y1375565D01*
X356287Y1375505D01*
X356355Y1375443D01*
X356420Y1375378D01*
X356482Y1375310D01*
X356542Y1375239D01*
X356598Y1375166D01*
X356651Y1375091D01*
X356701Y1375013D01*
X356747Y1374934D01*
X356790Y1374852D01*
X356830Y1374769D01*
X356866Y1374684D01*
X356898Y1374598D01*
X356927Y1374510D01*
X356951Y1374421D01*
X356972Y1374331D01*
X356989Y1374241D01*
X357003Y1374150D01*
X357012Y1374058D01*
X357017Y1373966D01*
X357019Y1373874D01*
X357017Y1373782D01*
X357010Y1373690D01*
X357000Y1373598D01*
X356986Y1373507D01*
X356968Y1373416D01*
X356946Y1373327D01*
X356920Y1373238D01*
X356890Y1373151D01*
X356857Y1373065D01*
X356820Y1372981D01*
X356780Y1372898D01*
X356736Y1372817D01*
X356689Y1372738D01*
X356638Y1372661D01*
X356584Y1372586D01*
X356527Y1372513D01*
X356467Y1372443D01*
X356404Y1372376D01*
X356338Y1372312D01*
X356270Y1372250D01*
X356199Y1372191D01*
X356125Y1372136D01*
X356049Y1372083D01*
X355971Y1372034D01*
X355891Y1371988D01*
X355810Y1371946D01*
X355726Y1371907D01*
X355641Y1371872D01*
X355554Y1371841D01*
X355466Y1371813D01*
X355377Y1371789D01*
X355287Y1371769D01*
X355197Y1371752D01*
X355105Y1371740D01*
X355013Y1371731D01*
X354921Y1371727D01*
X354829Y1371726D01*
X354829Y1371727D02*
X354495Y1371736D01*
X354162Y1371753D01*
X353829Y1371777D01*
X353496Y1371810D01*
X353165Y1371850D01*
X352834Y1371898D01*
X352505Y1371954D01*
X352177Y1372017D01*
X351851Y1372089D01*
X351527Y1372168D01*
X351204Y1372254D01*
X350884Y1372349D01*
X350566Y1372451D01*
X350250Y1372560D01*
X366322Y1371727D02*
X369652Y1371727D01*
X366322Y1371727D02*
X366224Y1371729D01*
X366126Y1371735D01*
X366028Y1371744D01*
X365931Y1371758D01*
X365835Y1371775D01*
X365739Y1371796D01*
X365644Y1371821D01*
X365550Y1371849D01*
X365457Y1371881D01*
X365366Y1371917D01*
X365276Y1371956D01*
X365188Y1371999D01*
X365101Y1372046D01*
X365017Y1372095D01*
X364934Y1372148D01*
X364854Y1372204D01*
X364776Y1372263D01*
X364700Y1372326D01*
X364626Y1372391D01*
X364556Y1372459D01*
X364488Y1372529D01*
X364423Y1372603D01*
X364360Y1372679D01*
X364301Y1372757D01*
X364245Y1372837D01*
X364192Y1372920D01*
X364143Y1373004D01*
X364096Y1373091D01*
X364053Y1373179D01*
X364014Y1373269D01*
X363978Y1373360D01*
X363946Y1373453D01*
X363918Y1373547D01*
X363893Y1373642D01*
X363872Y1373738D01*
X363855Y1373834D01*
X363841Y1373931D01*
X363832Y1374029D01*
X363826Y1374127D01*
X363824Y1374225D01*
X363824Y1379220D01*
X363826Y1379318D01*
X363832Y1379416D01*
X363841Y1379514D01*
X363855Y1379611D01*
X363872Y1379707D01*
X363893Y1379803D01*
X363918Y1379898D01*
X363946Y1379992D01*
X363978Y1380085D01*
X364014Y1380176D01*
X364053Y1380266D01*
X364096Y1380354D01*
X364143Y1380441D01*
X364192Y1380525D01*
X364245Y1380608D01*
X364301Y1380688D01*
X364360Y1380767D01*
X364423Y1380842D01*
X364488Y1380916D01*
X364556Y1380986D01*
X364626Y1381054D01*
X364700Y1381120D01*
X364776Y1381182D01*
X364854Y1381241D01*
X364934Y1381297D01*
X365017Y1381350D01*
X365101Y1381400D01*
X365188Y1381446D01*
X365276Y1381489D01*
X365366Y1381528D01*
X365457Y1381564D01*
X365550Y1381596D01*
X365644Y1381624D01*
X365739Y1381649D01*
X365835Y1381670D01*
X365931Y1381687D01*
X366028Y1381701D01*
X366126Y1381710D01*
X366224Y1381716D01*
X366322Y1381718D01*
X369652Y1381718D01*
X375782Y1378387D02*
X375782Y1375057D01*
X375782Y1378387D02*
X375784Y1378501D01*
X375790Y1378614D01*
X375799Y1378728D01*
X375813Y1378840D01*
X375830Y1378953D01*
X375852Y1379065D01*
X375877Y1379175D01*
X375905Y1379285D01*
X375938Y1379394D01*
X375974Y1379502D01*
X376014Y1379609D01*
X376058Y1379714D01*
X376105Y1379817D01*
X376155Y1379919D01*
X376209Y1380019D01*
X376267Y1380117D01*
X376328Y1380213D01*
X376391Y1380307D01*
X376459Y1380399D01*
X376529Y1380489D01*
X376602Y1380575D01*
X376678Y1380660D01*
X376757Y1380742D01*
X376839Y1380821D01*
X376924Y1380897D01*
X377010Y1380970D01*
X377100Y1381040D01*
X377192Y1381108D01*
X377286Y1381171D01*
X377382Y1381232D01*
X377480Y1381290D01*
X377580Y1381344D01*
X377682Y1381394D01*
X377785Y1381441D01*
X377890Y1381485D01*
X377997Y1381525D01*
X378105Y1381561D01*
X378214Y1381594D01*
X378324Y1381622D01*
X378434Y1381647D01*
X378546Y1381669D01*
X378659Y1381686D01*
X378771Y1381700D01*
X378885Y1381709D01*
X378998Y1381715D01*
X379112Y1381717D01*
X379226Y1381715D01*
X379339Y1381709D01*
X379453Y1381700D01*
X379565Y1381686D01*
X379678Y1381669D01*
X379790Y1381647D01*
X379900Y1381622D01*
X380010Y1381594D01*
X380119Y1381561D01*
X380227Y1381525D01*
X380334Y1381485D01*
X380439Y1381441D01*
X380542Y1381394D01*
X380644Y1381344D01*
X380744Y1381290D01*
X380842Y1381232D01*
X380938Y1381171D01*
X381032Y1381108D01*
X381124Y1381040D01*
X381214Y1380970D01*
X381300Y1380897D01*
X381385Y1380821D01*
X381467Y1380742D01*
X381546Y1380660D01*
X381622Y1380575D01*
X381695Y1380489D01*
X381765Y1380399D01*
X381833Y1380307D01*
X381896Y1380213D01*
X381957Y1380117D01*
X382015Y1380019D01*
X382069Y1379919D01*
X382119Y1379817D01*
X382166Y1379714D01*
X382210Y1379609D01*
X382250Y1379502D01*
X382286Y1379394D01*
X382319Y1379285D01*
X382347Y1379175D01*
X382372Y1379065D01*
X382394Y1378953D01*
X382411Y1378840D01*
X382425Y1378728D01*
X382434Y1378614D01*
X382440Y1378501D01*
X382442Y1378387D01*
X382442Y1375057D01*
X382440Y1374943D01*
X382434Y1374830D01*
X382425Y1374716D01*
X382411Y1374604D01*
X382394Y1374491D01*
X382372Y1374379D01*
X382347Y1374269D01*
X382319Y1374159D01*
X382286Y1374050D01*
X382250Y1373942D01*
X382210Y1373835D01*
X382166Y1373730D01*
X382119Y1373627D01*
X382069Y1373525D01*
X382015Y1373425D01*
X381957Y1373327D01*
X381896Y1373231D01*
X381833Y1373137D01*
X381765Y1373045D01*
X381695Y1372955D01*
X381622Y1372869D01*
X381546Y1372784D01*
X381467Y1372702D01*
X381385Y1372623D01*
X381300Y1372547D01*
X381214Y1372474D01*
X381124Y1372404D01*
X381032Y1372336D01*
X380938Y1372273D01*
X380842Y1372212D01*
X380744Y1372154D01*
X380644Y1372100D01*
X380542Y1372050D01*
X380439Y1372003D01*
X380334Y1371959D01*
X380227Y1371919D01*
X380119Y1371883D01*
X380010Y1371850D01*
X379900Y1371822D01*
X379790Y1371797D01*
X379678Y1371775D01*
X379565Y1371758D01*
X379453Y1371744D01*
X379339Y1371735D01*
X379226Y1371729D01*
X379112Y1371727D01*
X378998Y1371729D01*
X378885Y1371735D01*
X378771Y1371744D01*
X378659Y1371758D01*
X378546Y1371775D01*
X378434Y1371797D01*
X378324Y1371822D01*
X378214Y1371850D01*
X378105Y1371883D01*
X377997Y1371919D01*
X377890Y1371959D01*
X377785Y1372003D01*
X377682Y1372050D01*
X377580Y1372100D01*
X377480Y1372154D01*
X377382Y1372212D01*
X377286Y1372273D01*
X377192Y1372336D01*
X377100Y1372404D01*
X377010Y1372474D01*
X376924Y1372547D01*
X376839Y1372623D01*
X376757Y1372702D01*
X376678Y1372784D01*
X376602Y1372869D01*
X376529Y1372955D01*
X376459Y1373045D01*
X376391Y1373137D01*
X376328Y1373231D01*
X376267Y1373327D01*
X376209Y1373425D01*
X376155Y1373525D01*
X376105Y1373627D01*
X376058Y1373730D01*
X376014Y1373835D01*
X375974Y1373942D01*
X375938Y1374050D01*
X375905Y1374159D01*
X375877Y1374269D01*
X375852Y1374379D01*
X375830Y1374491D01*
X375813Y1374604D01*
X375799Y1374716D01*
X375790Y1374830D01*
X375784Y1374943D01*
X375782Y1375057D01*
X389978Y1371727D02*
X389978Y1381718D01*
X394973Y1381718D01*
X394973Y1380053D01*
X402768Y1371727D02*
X406931Y1371727D01*
X402768Y1371727D02*
X402670Y1371729D01*
X402572Y1371735D01*
X402474Y1371744D01*
X402377Y1371758D01*
X402281Y1371775D01*
X402185Y1371796D01*
X402090Y1371821D01*
X401996Y1371849D01*
X401903Y1371881D01*
X401812Y1371917D01*
X401722Y1371956D01*
X401634Y1371999D01*
X401547Y1372046D01*
X401463Y1372095D01*
X401380Y1372148D01*
X401300Y1372204D01*
X401222Y1372263D01*
X401146Y1372326D01*
X401072Y1372391D01*
X401002Y1372459D01*
X400934Y1372529D01*
X400869Y1372603D01*
X400806Y1372679D01*
X400747Y1372757D01*
X400691Y1372837D01*
X400638Y1372920D01*
X400589Y1373004D01*
X400542Y1373091D01*
X400499Y1373179D01*
X400460Y1373269D01*
X400424Y1373360D01*
X400392Y1373453D01*
X400364Y1373547D01*
X400339Y1373642D01*
X400318Y1373738D01*
X400301Y1373834D01*
X400287Y1373931D01*
X400278Y1374029D01*
X400272Y1374127D01*
X400270Y1374225D01*
X400270Y1378387D01*
X400271Y1378387D02*
X400273Y1378501D01*
X400279Y1378614D01*
X400288Y1378728D01*
X400302Y1378840D01*
X400319Y1378953D01*
X400341Y1379065D01*
X400366Y1379175D01*
X400394Y1379285D01*
X400427Y1379394D01*
X400463Y1379502D01*
X400503Y1379609D01*
X400547Y1379714D01*
X400594Y1379817D01*
X400644Y1379919D01*
X400698Y1380019D01*
X400756Y1380117D01*
X400817Y1380213D01*
X400880Y1380307D01*
X400948Y1380399D01*
X401018Y1380489D01*
X401091Y1380575D01*
X401167Y1380660D01*
X401246Y1380742D01*
X401328Y1380821D01*
X401413Y1380897D01*
X401499Y1380970D01*
X401589Y1381040D01*
X401681Y1381108D01*
X401775Y1381171D01*
X401871Y1381232D01*
X401969Y1381290D01*
X402069Y1381344D01*
X402171Y1381394D01*
X402274Y1381441D01*
X402379Y1381485D01*
X402486Y1381525D01*
X402594Y1381561D01*
X402703Y1381594D01*
X402813Y1381622D01*
X402923Y1381647D01*
X403035Y1381669D01*
X403148Y1381686D01*
X403260Y1381700D01*
X403374Y1381709D01*
X403487Y1381715D01*
X403601Y1381717D01*
X403715Y1381715D01*
X403828Y1381709D01*
X403942Y1381700D01*
X404054Y1381686D01*
X404167Y1381669D01*
X404279Y1381647D01*
X404389Y1381622D01*
X404499Y1381594D01*
X404608Y1381561D01*
X404716Y1381525D01*
X404823Y1381485D01*
X404928Y1381441D01*
X405031Y1381394D01*
X405133Y1381344D01*
X405233Y1381290D01*
X405331Y1381232D01*
X405427Y1381171D01*
X405521Y1381108D01*
X405613Y1381040D01*
X405703Y1380970D01*
X405789Y1380897D01*
X405874Y1380821D01*
X405956Y1380742D01*
X406035Y1380660D01*
X406111Y1380575D01*
X406184Y1380489D01*
X406254Y1380399D01*
X406322Y1380307D01*
X406385Y1380213D01*
X406446Y1380117D01*
X406504Y1380019D01*
X406558Y1379919D01*
X406608Y1379817D01*
X406655Y1379714D01*
X406699Y1379609D01*
X406739Y1379502D01*
X406775Y1379394D01*
X406808Y1379285D01*
X406836Y1379175D01*
X406861Y1379065D01*
X406883Y1378953D01*
X406900Y1378840D01*
X406914Y1378728D01*
X406923Y1378614D01*
X406929Y1378501D01*
X406931Y1378387D01*
X406931Y1376722D01*
X400270Y1376722D01*
D11*
X546100Y1356360D02*
X546100Y-68580D01*
D12*
X505719Y1371727D02*
X502389Y1381718D01*
X509050Y1381718D02*
X505719Y1371727D01*
X515834Y1377555D02*
X525825Y1377555D01*
X534379Y1377555D02*
X538542Y1375890D01*
X534379Y1377554D02*
X534294Y1377590D01*
X534211Y1377630D01*
X534130Y1377673D01*
X534050Y1377720D01*
X533973Y1377770D01*
X533897Y1377823D01*
X533824Y1377879D01*
X533754Y1377939D01*
X533686Y1378001D01*
X533621Y1378066D01*
X533559Y1378134D01*
X533499Y1378205D01*
X533443Y1378278D01*
X533390Y1378353D01*
X533340Y1378431D01*
X533294Y1378510D01*
X533251Y1378592D01*
X533211Y1378675D01*
X533175Y1378760D01*
X533143Y1378846D01*
X533114Y1378934D01*
X533090Y1379023D01*
X533069Y1379113D01*
X533052Y1379203D01*
X533038Y1379294D01*
X533029Y1379386D01*
X533024Y1379478D01*
X533022Y1379570D01*
X533024Y1379662D01*
X533031Y1379754D01*
X533041Y1379846D01*
X533055Y1379937D01*
X533073Y1380028D01*
X533095Y1380117D01*
X533121Y1380206D01*
X533151Y1380293D01*
X533184Y1380379D01*
X533221Y1380463D01*
X533261Y1380546D01*
X533305Y1380627D01*
X533352Y1380706D01*
X533403Y1380783D01*
X533457Y1380858D01*
X533514Y1380931D01*
X533574Y1381001D01*
X533637Y1381068D01*
X533703Y1381132D01*
X533771Y1381194D01*
X533842Y1381253D01*
X533916Y1381308D01*
X533992Y1381361D01*
X534070Y1381410D01*
X534150Y1381456D01*
X534231Y1381498D01*
X534315Y1381537D01*
X534400Y1381572D01*
X534487Y1381603D01*
X534575Y1381631D01*
X534664Y1381655D01*
X534754Y1381675D01*
X534844Y1381692D01*
X534936Y1381704D01*
X535028Y1381713D01*
X535120Y1381717D01*
X535212Y1381718D01*
X535439Y1381712D01*
X535666Y1381701D01*
X535893Y1381684D01*
X536119Y1381661D01*
X536345Y1381634D01*
X536570Y1381600D01*
X536794Y1381562D01*
X537017Y1381518D01*
X537239Y1381469D01*
X537460Y1381414D01*
X537679Y1381354D01*
X537897Y1381289D01*
X538113Y1381218D01*
X538327Y1381143D01*
X538540Y1381062D01*
X538750Y1380976D01*
X538959Y1380885D01*
X538542Y1375890D02*
X538627Y1375854D01*
X538710Y1375814D01*
X538791Y1375771D01*
X538871Y1375724D01*
X538948Y1375674D01*
X539024Y1375621D01*
X539097Y1375565D01*
X539167Y1375505D01*
X539235Y1375443D01*
X539300Y1375378D01*
X539362Y1375310D01*
X539422Y1375239D01*
X539478Y1375166D01*
X539531Y1375091D01*
X539581Y1375013D01*
X539627Y1374934D01*
X539670Y1374852D01*
X539710Y1374769D01*
X539746Y1374684D01*
X539778Y1374598D01*
X539807Y1374510D01*
X539831Y1374421D01*
X539852Y1374331D01*
X539869Y1374241D01*
X539883Y1374150D01*
X539892Y1374058D01*
X539897Y1373966D01*
X539899Y1373874D01*
X539897Y1373782D01*
X539890Y1373690D01*
X539880Y1373598D01*
X539866Y1373507D01*
X539848Y1373416D01*
X539826Y1373327D01*
X539800Y1373238D01*
X539770Y1373151D01*
X539737Y1373065D01*
X539700Y1372981D01*
X539660Y1372898D01*
X539616Y1372817D01*
X539569Y1372738D01*
X539518Y1372661D01*
X539464Y1372586D01*
X539407Y1372513D01*
X539347Y1372443D01*
X539284Y1372376D01*
X539218Y1372312D01*
X539150Y1372250D01*
X539079Y1372191D01*
X539005Y1372136D01*
X538929Y1372083D01*
X538851Y1372034D01*
X538771Y1371988D01*
X538690Y1371946D01*
X538606Y1371907D01*
X538521Y1371872D01*
X538434Y1371841D01*
X538346Y1371813D01*
X538257Y1371789D01*
X538167Y1371769D01*
X538077Y1371752D01*
X537985Y1371740D01*
X537893Y1371731D01*
X537801Y1371727D01*
X537709Y1371726D01*
X537709Y1371727D02*
X537375Y1371736D01*
X537042Y1371753D01*
X536709Y1371777D01*
X536376Y1371810D01*
X536045Y1371850D01*
X535714Y1371898D01*
X535385Y1371954D01*
X535057Y1372017D01*
X534731Y1372089D01*
X534407Y1372168D01*
X534084Y1372254D01*
X533764Y1372349D01*
X533446Y1372451D01*
X533130Y1372560D01*
X549202Y1371727D02*
X552532Y1371727D01*
X549202Y1371727D02*
X549104Y1371729D01*
X549006Y1371735D01*
X548908Y1371744D01*
X548811Y1371758D01*
X548715Y1371775D01*
X548619Y1371796D01*
X548524Y1371821D01*
X548430Y1371849D01*
X548337Y1371881D01*
X548246Y1371917D01*
X548156Y1371956D01*
X548068Y1371999D01*
X547981Y1372046D01*
X547897Y1372095D01*
X547814Y1372148D01*
X547734Y1372204D01*
X547656Y1372263D01*
X547580Y1372326D01*
X547506Y1372391D01*
X547436Y1372459D01*
X547368Y1372529D01*
X547303Y1372603D01*
X547240Y1372679D01*
X547181Y1372757D01*
X547125Y1372837D01*
X547072Y1372920D01*
X547023Y1373004D01*
X546976Y1373091D01*
X546933Y1373179D01*
X546894Y1373269D01*
X546858Y1373360D01*
X546826Y1373453D01*
X546798Y1373547D01*
X546773Y1373642D01*
X546752Y1373738D01*
X546735Y1373834D01*
X546721Y1373931D01*
X546712Y1374029D01*
X546706Y1374127D01*
X546704Y1374225D01*
X546704Y1379220D01*
X546706Y1379318D01*
X546712Y1379416D01*
X546721Y1379514D01*
X546735Y1379611D01*
X546752Y1379707D01*
X546773Y1379803D01*
X546798Y1379898D01*
X546826Y1379992D01*
X546858Y1380085D01*
X546894Y1380176D01*
X546933Y1380266D01*
X546976Y1380354D01*
X547023Y1380441D01*
X547072Y1380525D01*
X547125Y1380608D01*
X547181Y1380688D01*
X547240Y1380767D01*
X547303Y1380842D01*
X547368Y1380916D01*
X547436Y1380986D01*
X547506Y1381054D01*
X547580Y1381120D01*
X547656Y1381182D01*
X547734Y1381241D01*
X547814Y1381297D01*
X547897Y1381350D01*
X547981Y1381400D01*
X548068Y1381446D01*
X548156Y1381489D01*
X548246Y1381528D01*
X548337Y1381564D01*
X548430Y1381596D01*
X548524Y1381624D01*
X548619Y1381649D01*
X548715Y1381670D01*
X548811Y1381687D01*
X548908Y1381701D01*
X549006Y1381710D01*
X549104Y1381716D01*
X549202Y1381718D01*
X552532Y1381718D01*
X558662Y1378387D02*
X558662Y1375057D01*
X558662Y1378387D02*
X558664Y1378501D01*
X558670Y1378614D01*
X558679Y1378728D01*
X558693Y1378840D01*
X558710Y1378953D01*
X558732Y1379065D01*
X558757Y1379175D01*
X558785Y1379285D01*
X558818Y1379394D01*
X558854Y1379502D01*
X558894Y1379609D01*
X558938Y1379714D01*
X558985Y1379817D01*
X559035Y1379919D01*
X559089Y1380019D01*
X559147Y1380117D01*
X559208Y1380213D01*
X559271Y1380307D01*
X559339Y1380399D01*
X559409Y1380489D01*
X559482Y1380575D01*
X559558Y1380660D01*
X559637Y1380742D01*
X559719Y1380821D01*
X559804Y1380897D01*
X559890Y1380970D01*
X559980Y1381040D01*
X560072Y1381108D01*
X560166Y1381171D01*
X560262Y1381232D01*
X560360Y1381290D01*
X560460Y1381344D01*
X560562Y1381394D01*
X560665Y1381441D01*
X560770Y1381485D01*
X560877Y1381525D01*
X560985Y1381561D01*
X561094Y1381594D01*
X561204Y1381622D01*
X561314Y1381647D01*
X561426Y1381669D01*
X561539Y1381686D01*
X561651Y1381700D01*
X561765Y1381709D01*
X561878Y1381715D01*
X561992Y1381717D01*
X562106Y1381715D01*
X562219Y1381709D01*
X562333Y1381700D01*
X562445Y1381686D01*
X562558Y1381669D01*
X562670Y1381647D01*
X562780Y1381622D01*
X562890Y1381594D01*
X562999Y1381561D01*
X563107Y1381525D01*
X563214Y1381485D01*
X563319Y1381441D01*
X563422Y1381394D01*
X563524Y1381344D01*
X563624Y1381290D01*
X563722Y1381232D01*
X563818Y1381171D01*
X563912Y1381108D01*
X564004Y1381040D01*
X564094Y1380970D01*
X564180Y1380897D01*
X564265Y1380821D01*
X564347Y1380742D01*
X564426Y1380660D01*
X564502Y1380575D01*
X564575Y1380489D01*
X564645Y1380399D01*
X564713Y1380307D01*
X564776Y1380213D01*
X564837Y1380117D01*
X564895Y1380019D01*
X564949Y1379919D01*
X564999Y1379817D01*
X565046Y1379714D01*
X565090Y1379609D01*
X565130Y1379502D01*
X565166Y1379394D01*
X565199Y1379285D01*
X565227Y1379175D01*
X565252Y1379065D01*
X565274Y1378953D01*
X565291Y1378840D01*
X565305Y1378728D01*
X565314Y1378614D01*
X565320Y1378501D01*
X565322Y1378387D01*
X565322Y1375057D01*
X565320Y1374943D01*
X565314Y1374830D01*
X565305Y1374716D01*
X565291Y1374604D01*
X565274Y1374491D01*
X565252Y1374379D01*
X565227Y1374269D01*
X565199Y1374159D01*
X565166Y1374050D01*
X565130Y1373942D01*
X565090Y1373835D01*
X565046Y1373730D01*
X564999Y1373627D01*
X564949Y1373525D01*
X564895Y1373425D01*
X564837Y1373327D01*
X564776Y1373231D01*
X564713Y1373137D01*
X564645Y1373045D01*
X564575Y1372955D01*
X564502Y1372869D01*
X564426Y1372784D01*
X564347Y1372702D01*
X564265Y1372623D01*
X564180Y1372547D01*
X564094Y1372474D01*
X564004Y1372404D01*
X563912Y1372336D01*
X563818Y1372273D01*
X563722Y1372212D01*
X563624Y1372154D01*
X563524Y1372100D01*
X563422Y1372050D01*
X563319Y1372003D01*
X563214Y1371959D01*
X563107Y1371919D01*
X562999Y1371883D01*
X562890Y1371850D01*
X562780Y1371822D01*
X562670Y1371797D01*
X562558Y1371775D01*
X562445Y1371758D01*
X562333Y1371744D01*
X562219Y1371735D01*
X562106Y1371729D01*
X561992Y1371727D01*
X561878Y1371729D01*
X561765Y1371735D01*
X561651Y1371744D01*
X561539Y1371758D01*
X561426Y1371775D01*
X561314Y1371797D01*
X561204Y1371822D01*
X561094Y1371850D01*
X560985Y1371883D01*
X560877Y1371919D01*
X560770Y1371959D01*
X560665Y1372003D01*
X560562Y1372050D01*
X560460Y1372100D01*
X560360Y1372154D01*
X560262Y1372212D01*
X560166Y1372273D01*
X560072Y1372336D01*
X559980Y1372404D01*
X559890Y1372474D01*
X559804Y1372547D01*
X559719Y1372623D01*
X559637Y1372702D01*
X559558Y1372784D01*
X559482Y1372869D01*
X559409Y1372955D01*
X559339Y1373045D01*
X559271Y1373137D01*
X559208Y1373231D01*
X559147Y1373327D01*
X559089Y1373425D01*
X559035Y1373525D01*
X558985Y1373627D01*
X558938Y1373730D01*
X558894Y1373835D01*
X558854Y1373942D01*
X558818Y1374050D01*
X558785Y1374159D01*
X558757Y1374269D01*
X558732Y1374379D01*
X558710Y1374491D01*
X558693Y1374604D01*
X558679Y1374716D01*
X558670Y1374830D01*
X558664Y1374943D01*
X558662Y1375057D01*
X572858Y1371727D02*
X572858Y1381718D01*
X577853Y1381718D01*
X577853Y1380053D01*
X585648Y1371727D02*
X589811Y1371727D01*
X585648Y1371727D02*
X585550Y1371729D01*
X585452Y1371735D01*
X585354Y1371744D01*
X585257Y1371758D01*
X585161Y1371775D01*
X585065Y1371796D01*
X584970Y1371821D01*
X584876Y1371849D01*
X584783Y1371881D01*
X584692Y1371917D01*
X584602Y1371956D01*
X584514Y1371999D01*
X584427Y1372046D01*
X584343Y1372095D01*
X584260Y1372148D01*
X584180Y1372204D01*
X584102Y1372263D01*
X584026Y1372326D01*
X583952Y1372391D01*
X583882Y1372459D01*
X583814Y1372529D01*
X583749Y1372603D01*
X583686Y1372679D01*
X583627Y1372757D01*
X583571Y1372837D01*
X583518Y1372920D01*
X583469Y1373004D01*
X583422Y1373091D01*
X583379Y1373179D01*
X583340Y1373269D01*
X583304Y1373360D01*
X583272Y1373453D01*
X583244Y1373547D01*
X583219Y1373642D01*
X583198Y1373738D01*
X583181Y1373834D01*
X583167Y1373931D01*
X583158Y1374029D01*
X583152Y1374127D01*
X583150Y1374225D01*
X583150Y1378387D01*
X583151Y1378387D02*
X583153Y1378501D01*
X583159Y1378614D01*
X583168Y1378728D01*
X583182Y1378840D01*
X583199Y1378953D01*
X583221Y1379065D01*
X583246Y1379175D01*
X583274Y1379285D01*
X583307Y1379394D01*
X583343Y1379502D01*
X583383Y1379609D01*
X583427Y1379714D01*
X583474Y1379817D01*
X583524Y1379919D01*
X583578Y1380019D01*
X583636Y1380117D01*
X583697Y1380213D01*
X583760Y1380307D01*
X583828Y1380399D01*
X583898Y1380489D01*
X583971Y1380575D01*
X584047Y1380660D01*
X584126Y1380742D01*
X584208Y1380821D01*
X584293Y1380897D01*
X584379Y1380970D01*
X584469Y1381040D01*
X584561Y1381108D01*
X584655Y1381171D01*
X584751Y1381232D01*
X584849Y1381290D01*
X584949Y1381344D01*
X585051Y1381394D01*
X585154Y1381441D01*
X585259Y1381485D01*
X585366Y1381525D01*
X585474Y1381561D01*
X585583Y1381594D01*
X585693Y1381622D01*
X585803Y1381647D01*
X585915Y1381669D01*
X586028Y1381686D01*
X586140Y1381700D01*
X586254Y1381709D01*
X586367Y1381715D01*
X586481Y1381717D01*
X586595Y1381715D01*
X586708Y1381709D01*
X586822Y1381700D01*
X586934Y1381686D01*
X587047Y1381669D01*
X587159Y1381647D01*
X587269Y1381622D01*
X587379Y1381594D01*
X587488Y1381561D01*
X587596Y1381525D01*
X587703Y1381485D01*
X587808Y1381441D01*
X587911Y1381394D01*
X588013Y1381344D01*
X588113Y1381290D01*
X588211Y1381232D01*
X588307Y1381171D01*
X588401Y1381108D01*
X588493Y1381040D01*
X588583Y1380970D01*
X588669Y1380897D01*
X588754Y1380821D01*
X588836Y1380742D01*
X588915Y1380660D01*
X588991Y1380575D01*
X589064Y1380489D01*
X589134Y1380399D01*
X589202Y1380307D01*
X589265Y1380213D01*
X589326Y1380117D01*
X589384Y1380019D01*
X589438Y1379919D01*
X589488Y1379817D01*
X589535Y1379714D01*
X589579Y1379609D01*
X589619Y1379502D01*
X589655Y1379394D01*
X589688Y1379285D01*
X589716Y1379175D01*
X589741Y1379065D01*
X589763Y1378953D01*
X589780Y1378840D01*
X589794Y1378728D01*
X589803Y1378614D01*
X589809Y1378501D01*
X589811Y1378387D01*
X589811Y1376722D01*
X583150Y1376722D01*
D11*
X728980Y1356360D02*
X728980Y-68580D01*
D12*
X688599Y1371727D02*
X685269Y1381718D01*
X691930Y1381718D02*
X688599Y1371727D01*
X698714Y1377555D02*
X708705Y1377555D01*
X717259Y1377555D02*
X721422Y1375890D01*
X717259Y1377554D02*
X717174Y1377590D01*
X717091Y1377630D01*
X717010Y1377673D01*
X716930Y1377720D01*
X716853Y1377770D01*
X716777Y1377823D01*
X716704Y1377879D01*
X716634Y1377939D01*
X716566Y1378001D01*
X716501Y1378066D01*
X716439Y1378134D01*
X716379Y1378205D01*
X716323Y1378278D01*
X716270Y1378353D01*
X716220Y1378431D01*
X716174Y1378510D01*
X716131Y1378592D01*
X716091Y1378675D01*
X716055Y1378760D01*
X716023Y1378846D01*
X715994Y1378934D01*
X715970Y1379023D01*
X715949Y1379113D01*
X715932Y1379203D01*
X715918Y1379294D01*
X715909Y1379386D01*
X715904Y1379478D01*
X715902Y1379570D01*
X715904Y1379662D01*
X715911Y1379754D01*
X715921Y1379846D01*
X715935Y1379937D01*
X715953Y1380028D01*
X715975Y1380117D01*
X716001Y1380206D01*
X716031Y1380293D01*
X716064Y1380379D01*
X716101Y1380463D01*
X716141Y1380546D01*
X716185Y1380627D01*
X716232Y1380706D01*
X716283Y1380783D01*
X716337Y1380858D01*
X716394Y1380931D01*
X716454Y1381001D01*
X716517Y1381068D01*
X716583Y1381132D01*
X716651Y1381194D01*
X716722Y1381253D01*
X716796Y1381308D01*
X716872Y1381361D01*
X716950Y1381410D01*
X717030Y1381456D01*
X717111Y1381498D01*
X717195Y1381537D01*
X717280Y1381572D01*
X717367Y1381603D01*
X717455Y1381631D01*
X717544Y1381655D01*
X717634Y1381675D01*
X717724Y1381692D01*
X717816Y1381704D01*
X717908Y1381713D01*
X718000Y1381717D01*
X718092Y1381718D01*
X718319Y1381712D01*
X718546Y1381701D01*
X718773Y1381684D01*
X718999Y1381661D01*
X719225Y1381634D01*
X719450Y1381600D01*
X719674Y1381562D01*
X719897Y1381518D01*
X720119Y1381469D01*
X720340Y1381414D01*
X720559Y1381354D01*
X720777Y1381289D01*
X720993Y1381218D01*
X721207Y1381143D01*
X721420Y1381062D01*
X721630Y1380976D01*
X721839Y1380885D01*
X721422Y1375890D02*
X721507Y1375854D01*
X721590Y1375814D01*
X721671Y1375771D01*
X721751Y1375724D01*
X721828Y1375674D01*
X721904Y1375621D01*
X721977Y1375565D01*
X722047Y1375505D01*
X722115Y1375443D01*
X722180Y1375378D01*
X722242Y1375310D01*
X722302Y1375239D01*
X722358Y1375166D01*
X722411Y1375091D01*
X722461Y1375013D01*
X722507Y1374934D01*
X722550Y1374852D01*
X722590Y1374769D01*
X722626Y1374684D01*
X722658Y1374598D01*
X722687Y1374510D01*
X722711Y1374421D01*
X722732Y1374331D01*
X722749Y1374241D01*
X722763Y1374150D01*
X722772Y1374058D01*
X722777Y1373966D01*
X722779Y1373874D01*
X722777Y1373782D01*
X722770Y1373690D01*
X722760Y1373598D01*
X722746Y1373507D01*
X722728Y1373416D01*
X722706Y1373327D01*
X722680Y1373238D01*
X722650Y1373151D01*
X722617Y1373065D01*
X722580Y1372981D01*
X722540Y1372898D01*
X722496Y1372817D01*
X722449Y1372738D01*
X722398Y1372661D01*
X722344Y1372586D01*
X722287Y1372513D01*
X722227Y1372443D01*
X722164Y1372376D01*
X722098Y1372312D01*
X722030Y1372250D01*
X721959Y1372191D01*
X721885Y1372136D01*
X721809Y1372083D01*
X721731Y1372034D01*
X721651Y1371988D01*
X721570Y1371946D01*
X721486Y1371907D01*
X721401Y1371872D01*
X721314Y1371841D01*
X721226Y1371813D01*
X721137Y1371789D01*
X721047Y1371769D01*
X720957Y1371752D01*
X720865Y1371740D01*
X720773Y1371731D01*
X720681Y1371727D01*
X720589Y1371726D01*
X720589Y1371727D02*
X720255Y1371736D01*
X719922Y1371753D01*
X719589Y1371777D01*
X719256Y1371810D01*
X718925Y1371850D01*
X718594Y1371898D01*
X718265Y1371954D01*
X717937Y1372017D01*
X717611Y1372089D01*
X717287Y1372168D01*
X716964Y1372254D01*
X716644Y1372349D01*
X716326Y1372451D01*
X716010Y1372560D01*
X732082Y1371727D02*
X735412Y1371727D01*
X732082Y1371727D02*
X731984Y1371729D01*
X731886Y1371735D01*
X731788Y1371744D01*
X731691Y1371758D01*
X731595Y1371775D01*
X731499Y1371796D01*
X731404Y1371821D01*
X731310Y1371849D01*
X731217Y1371881D01*
X731126Y1371917D01*
X731036Y1371956D01*
X730948Y1371999D01*
X730861Y1372046D01*
X730777Y1372095D01*
X730694Y1372148D01*
X730614Y1372204D01*
X730536Y1372263D01*
X730460Y1372326D01*
X730386Y1372391D01*
X730316Y1372459D01*
X730248Y1372529D01*
X730183Y1372603D01*
X730120Y1372679D01*
X730061Y1372757D01*
X730005Y1372837D01*
X729952Y1372920D01*
X729903Y1373004D01*
X729856Y1373091D01*
X729813Y1373179D01*
X729774Y1373269D01*
X729738Y1373360D01*
X729706Y1373453D01*
X729678Y1373547D01*
X729653Y1373642D01*
X729632Y1373738D01*
X729615Y1373834D01*
X729601Y1373931D01*
X729592Y1374029D01*
X729586Y1374127D01*
X729584Y1374225D01*
X729584Y1379220D01*
X729586Y1379318D01*
X729592Y1379416D01*
X729601Y1379514D01*
X729615Y1379611D01*
X729632Y1379707D01*
X729653Y1379803D01*
X729678Y1379898D01*
X729706Y1379992D01*
X729738Y1380085D01*
X729774Y1380176D01*
X729813Y1380266D01*
X729856Y1380354D01*
X729903Y1380441D01*
X729952Y1380525D01*
X730005Y1380608D01*
X730061Y1380688D01*
X730120Y1380767D01*
X730183Y1380842D01*
X730248Y1380916D01*
X730316Y1380986D01*
X730386Y1381054D01*
X730460Y1381120D01*
X730536Y1381182D01*
X730614Y1381241D01*
X730694Y1381297D01*
X730777Y1381350D01*
X730861Y1381400D01*
X730948Y1381446D01*
X731036Y1381489D01*
X731126Y1381528D01*
X731217Y1381564D01*
X731310Y1381596D01*
X731404Y1381624D01*
X731499Y1381649D01*
X731595Y1381670D01*
X731691Y1381687D01*
X731788Y1381701D01*
X731886Y1381710D01*
X731984Y1381716D01*
X732082Y1381718D01*
X735412Y1381718D01*
X741542Y1378387D02*
X741542Y1375057D01*
X741542Y1378387D02*
X741544Y1378501D01*
X741550Y1378614D01*
X741559Y1378728D01*
X741573Y1378840D01*
X741590Y1378953D01*
X741612Y1379065D01*
X741637Y1379175D01*
X741665Y1379285D01*
X741698Y1379394D01*
X741734Y1379502D01*
X741774Y1379609D01*
X741818Y1379714D01*
X741865Y1379817D01*
X741915Y1379919D01*
X741969Y1380019D01*
X742027Y1380117D01*
X742088Y1380213D01*
X742151Y1380307D01*
X742219Y1380399D01*
X742289Y1380489D01*
X742362Y1380575D01*
X742438Y1380660D01*
X742517Y1380742D01*
X742599Y1380821D01*
X742684Y1380897D01*
X742770Y1380970D01*
X742860Y1381040D01*
X742952Y1381108D01*
X743046Y1381171D01*
X743142Y1381232D01*
X743240Y1381290D01*
X743340Y1381344D01*
X743442Y1381394D01*
X743545Y1381441D01*
X743650Y1381485D01*
X743757Y1381525D01*
X743865Y1381561D01*
X743974Y1381594D01*
X744084Y1381622D01*
X744194Y1381647D01*
X744306Y1381669D01*
X744419Y1381686D01*
X744531Y1381700D01*
X744645Y1381709D01*
X744758Y1381715D01*
X744872Y1381717D01*
X744986Y1381715D01*
X745099Y1381709D01*
X745213Y1381700D01*
X745325Y1381686D01*
X745438Y1381669D01*
X745550Y1381647D01*
X745660Y1381622D01*
X745770Y1381594D01*
X745879Y1381561D01*
X745987Y1381525D01*
X746094Y1381485D01*
X746199Y1381441D01*
X746302Y1381394D01*
X746404Y1381344D01*
X746504Y1381290D01*
X746602Y1381232D01*
X746698Y1381171D01*
X746792Y1381108D01*
X746884Y1381040D01*
X746974Y1380970D01*
X747060Y1380897D01*
X747145Y1380821D01*
X747227Y1380742D01*
X747306Y1380660D01*
X747382Y1380575D01*
X747455Y1380489D01*
X747525Y1380399D01*
X747593Y1380307D01*
X747656Y1380213D01*
X747717Y1380117D01*
X747775Y1380019D01*
X747829Y1379919D01*
X747879Y1379817D01*
X747926Y1379714D01*
X747970Y1379609D01*
X748010Y1379502D01*
X748046Y1379394D01*
X748079Y1379285D01*
X748107Y1379175D01*
X748132Y1379065D01*
X748154Y1378953D01*
X748171Y1378840D01*
X748185Y1378728D01*
X748194Y1378614D01*
X748200Y1378501D01*
X748202Y1378387D01*
X748202Y1375057D01*
X748200Y1374943D01*
X748194Y1374830D01*
X748185Y1374716D01*
X748171Y1374604D01*
X748154Y1374491D01*
X748132Y1374379D01*
X748107Y1374269D01*
X748079Y1374159D01*
X748046Y1374050D01*
X748010Y1373942D01*
X747970Y1373835D01*
X747926Y1373730D01*
X747879Y1373627D01*
X747829Y1373525D01*
X747775Y1373425D01*
X747717Y1373327D01*
X747656Y1373231D01*
X747593Y1373137D01*
X747525Y1373045D01*
X747455Y1372955D01*
X747382Y1372869D01*
X747306Y1372784D01*
X747227Y1372702D01*
X747145Y1372623D01*
X747060Y1372547D01*
X746974Y1372474D01*
X746884Y1372404D01*
X746792Y1372336D01*
X746698Y1372273D01*
X746602Y1372212D01*
X746504Y1372154D01*
X746404Y1372100D01*
X746302Y1372050D01*
X746199Y1372003D01*
X746094Y1371959D01*
X745987Y1371919D01*
X745879Y1371883D01*
X745770Y1371850D01*
X745660Y1371822D01*
X745550Y1371797D01*
X745438Y1371775D01*
X745325Y1371758D01*
X745213Y1371744D01*
X745099Y1371735D01*
X744986Y1371729D01*
X744872Y1371727D01*
X744758Y1371729D01*
X744645Y1371735D01*
X744531Y1371744D01*
X744419Y1371758D01*
X744306Y1371775D01*
X744194Y1371797D01*
X744084Y1371822D01*
X743974Y1371850D01*
X743865Y1371883D01*
X743757Y1371919D01*
X743650Y1371959D01*
X743545Y1372003D01*
X743442Y1372050D01*
X743340Y1372100D01*
X743240Y1372154D01*
X743142Y1372212D01*
X743046Y1372273D01*
X742952Y1372336D01*
X742860Y1372404D01*
X742770Y1372474D01*
X742684Y1372547D01*
X742599Y1372623D01*
X742517Y1372702D01*
X742438Y1372784D01*
X742362Y1372869D01*
X742289Y1372955D01*
X742219Y1373045D01*
X742151Y1373137D01*
X742088Y1373231D01*
X742027Y1373327D01*
X741969Y1373425D01*
X741915Y1373525D01*
X741865Y1373627D01*
X741818Y1373730D01*
X741774Y1373835D01*
X741734Y1373942D01*
X741698Y1374050D01*
X741665Y1374159D01*
X741637Y1374269D01*
X741612Y1374379D01*
X741590Y1374491D01*
X741573Y1374604D01*
X741559Y1374716D01*
X741550Y1374830D01*
X741544Y1374943D01*
X741542Y1375057D01*
X755738Y1371727D02*
X755738Y1381718D01*
X760733Y1381718D01*
X760733Y1380053D01*
X768528Y1371727D02*
X772691Y1371727D01*
X768528Y1371727D02*
X768430Y1371729D01*
X768332Y1371735D01*
X768234Y1371744D01*
X768137Y1371758D01*
X768041Y1371775D01*
X767945Y1371796D01*
X767850Y1371821D01*
X767756Y1371849D01*
X767663Y1371881D01*
X767572Y1371917D01*
X767482Y1371956D01*
X767394Y1371999D01*
X767307Y1372046D01*
X767223Y1372095D01*
X767140Y1372148D01*
X767060Y1372204D01*
X766982Y1372263D01*
X766906Y1372326D01*
X766832Y1372391D01*
X766762Y1372459D01*
X766694Y1372529D01*
X766629Y1372603D01*
X766566Y1372679D01*
X766507Y1372757D01*
X766451Y1372837D01*
X766398Y1372920D01*
X766349Y1373004D01*
X766302Y1373091D01*
X766259Y1373179D01*
X766220Y1373269D01*
X766184Y1373360D01*
X766152Y1373453D01*
X766124Y1373547D01*
X766099Y1373642D01*
X766078Y1373738D01*
X766061Y1373834D01*
X766047Y1373931D01*
X766038Y1374029D01*
X766032Y1374127D01*
X766030Y1374225D01*
X766030Y1378387D01*
X766031Y1378387D02*
X766033Y1378501D01*
X766039Y1378614D01*
X766048Y1378728D01*
X766062Y1378840D01*
X766079Y1378953D01*
X766101Y1379065D01*
X766126Y1379175D01*
X766154Y1379285D01*
X766187Y1379394D01*
X766223Y1379502D01*
X766263Y1379609D01*
X766307Y1379714D01*
X766354Y1379817D01*
X766404Y1379919D01*
X766458Y1380019D01*
X766516Y1380117D01*
X766577Y1380213D01*
X766640Y1380307D01*
X766708Y1380399D01*
X766778Y1380489D01*
X766851Y1380575D01*
X766927Y1380660D01*
X767006Y1380742D01*
X767088Y1380821D01*
X767173Y1380897D01*
X767259Y1380970D01*
X767349Y1381040D01*
X767441Y1381108D01*
X767535Y1381171D01*
X767631Y1381232D01*
X767729Y1381290D01*
X767829Y1381344D01*
X767931Y1381394D01*
X768034Y1381441D01*
X768139Y1381485D01*
X768246Y1381525D01*
X768354Y1381561D01*
X768463Y1381594D01*
X768573Y1381622D01*
X768683Y1381647D01*
X768795Y1381669D01*
X768908Y1381686D01*
X769020Y1381700D01*
X769134Y1381709D01*
X769247Y1381715D01*
X769361Y1381717D01*
X769475Y1381715D01*
X769588Y1381709D01*
X769702Y1381700D01*
X769814Y1381686D01*
X769927Y1381669D01*
X770039Y1381647D01*
X770149Y1381622D01*
X770259Y1381594D01*
X770368Y1381561D01*
X770476Y1381525D01*
X770583Y1381485D01*
X770688Y1381441D01*
X770791Y1381394D01*
X770893Y1381344D01*
X770993Y1381290D01*
X771091Y1381232D01*
X771187Y1381171D01*
X771281Y1381108D01*
X771373Y1381040D01*
X771463Y1380970D01*
X771549Y1380897D01*
X771634Y1380821D01*
X771716Y1380742D01*
X771795Y1380660D01*
X771871Y1380575D01*
X771944Y1380489D01*
X772014Y1380399D01*
X772082Y1380307D01*
X772145Y1380213D01*
X772206Y1380117D01*
X772264Y1380019D01*
X772318Y1379919D01*
X772368Y1379817D01*
X772415Y1379714D01*
X772459Y1379609D01*
X772499Y1379502D01*
X772535Y1379394D01*
X772568Y1379285D01*
X772596Y1379175D01*
X772621Y1379065D01*
X772643Y1378953D01*
X772660Y1378840D01*
X772674Y1378728D01*
X772683Y1378614D01*
X772689Y1378501D01*
X772691Y1378387D01*
X772691Y1376722D01*
X766030Y1376722D01*
D11*
X911860Y1356360D02*
X911860Y-68580D01*
D12*
X871479Y1371727D02*
X868149Y1381718D01*
X874810Y1381718D02*
X871479Y1371727D01*
X881594Y1377555D02*
X891585Y1377555D01*
X900139Y1377555D02*
X904302Y1375890D01*
X900139Y1377554D02*
X900054Y1377590D01*
X899971Y1377630D01*
X899890Y1377673D01*
X899810Y1377720D01*
X899733Y1377770D01*
X899657Y1377823D01*
X899584Y1377879D01*
X899514Y1377939D01*
X899446Y1378001D01*
X899381Y1378066D01*
X899319Y1378134D01*
X899259Y1378205D01*
X899203Y1378278D01*
X899150Y1378353D01*
X899100Y1378431D01*
X899054Y1378510D01*
X899011Y1378592D01*
X898971Y1378675D01*
X898935Y1378760D01*
X898903Y1378846D01*
X898874Y1378934D01*
X898850Y1379023D01*
X898829Y1379113D01*
X898812Y1379203D01*
X898798Y1379294D01*
X898789Y1379386D01*
X898784Y1379478D01*
X898782Y1379570D01*
X898784Y1379662D01*
X898791Y1379754D01*
X898801Y1379846D01*
X898815Y1379937D01*
X898833Y1380028D01*
X898855Y1380117D01*
X898881Y1380206D01*
X898911Y1380293D01*
X898944Y1380379D01*
X898981Y1380463D01*
X899021Y1380546D01*
X899065Y1380627D01*
X899112Y1380706D01*
X899163Y1380783D01*
X899217Y1380858D01*
X899274Y1380931D01*
X899334Y1381001D01*
X899397Y1381068D01*
X899463Y1381132D01*
X899531Y1381194D01*
X899602Y1381253D01*
X899676Y1381308D01*
X899752Y1381361D01*
X899830Y1381410D01*
X899910Y1381456D01*
X899991Y1381498D01*
X900075Y1381537D01*
X900160Y1381572D01*
X900247Y1381603D01*
X900335Y1381631D01*
X900424Y1381655D01*
X900514Y1381675D01*
X900604Y1381692D01*
X900696Y1381704D01*
X900788Y1381713D01*
X900880Y1381717D01*
X900972Y1381718D01*
X901199Y1381712D01*
X901426Y1381701D01*
X901653Y1381684D01*
X901879Y1381661D01*
X902105Y1381634D01*
X902330Y1381600D01*
X902554Y1381562D01*
X902777Y1381518D01*
X902999Y1381469D01*
X903220Y1381414D01*
X903439Y1381354D01*
X903657Y1381289D01*
X903873Y1381218D01*
X904087Y1381143D01*
X904300Y1381062D01*
X904510Y1380976D01*
X904719Y1380885D01*
X904302Y1375890D02*
X904387Y1375854D01*
X904470Y1375814D01*
X904551Y1375771D01*
X904631Y1375724D01*
X904708Y1375674D01*
X904784Y1375621D01*
X904857Y1375565D01*
X904927Y1375505D01*
X904995Y1375443D01*
X905060Y1375378D01*
X905122Y1375310D01*
X905182Y1375239D01*
X905238Y1375166D01*
X905291Y1375091D01*
X905341Y1375013D01*
X905387Y1374934D01*
X905430Y1374852D01*
X905470Y1374769D01*
X905506Y1374684D01*
X905538Y1374598D01*
X905567Y1374510D01*
X905591Y1374421D01*
X905612Y1374331D01*
X905629Y1374241D01*
X905643Y1374150D01*
X905652Y1374058D01*
X905657Y1373966D01*
X905659Y1373874D01*
X905657Y1373782D01*
X905650Y1373690D01*
X905640Y1373598D01*
X905626Y1373507D01*
X905608Y1373416D01*
X905586Y1373327D01*
X905560Y1373238D01*
X905530Y1373151D01*
X905497Y1373065D01*
X905460Y1372981D01*
X905420Y1372898D01*
X905376Y1372817D01*
X905329Y1372738D01*
X905278Y1372661D01*
X905224Y1372586D01*
X905167Y1372513D01*
X905107Y1372443D01*
X905044Y1372376D01*
X904978Y1372312D01*
X904910Y1372250D01*
X904839Y1372191D01*
X904765Y1372136D01*
X904689Y1372083D01*
X904611Y1372034D01*
X904531Y1371988D01*
X904450Y1371946D01*
X904366Y1371907D01*
X904281Y1371872D01*
X904194Y1371841D01*
X904106Y1371813D01*
X904017Y1371789D01*
X903927Y1371769D01*
X903837Y1371752D01*
X903745Y1371740D01*
X903653Y1371731D01*
X903561Y1371727D01*
X903469Y1371726D01*
X903469Y1371727D02*
X903135Y1371736D01*
X902802Y1371753D01*
X902469Y1371777D01*
X902136Y1371810D01*
X901805Y1371850D01*
X901474Y1371898D01*
X901145Y1371954D01*
X900817Y1372017D01*
X900491Y1372089D01*
X900167Y1372168D01*
X899844Y1372254D01*
X899524Y1372349D01*
X899206Y1372451D01*
X898890Y1372560D01*
X914962Y1371727D02*
X918292Y1371727D01*
X914962Y1371727D02*
X914864Y1371729D01*
X914766Y1371735D01*
X914668Y1371744D01*
X914571Y1371758D01*
X914475Y1371775D01*
X914379Y1371796D01*
X914284Y1371821D01*
X914190Y1371849D01*
X914097Y1371881D01*
X914006Y1371917D01*
X913916Y1371956D01*
X913828Y1371999D01*
X913741Y1372046D01*
X913657Y1372095D01*
X913574Y1372148D01*
X913494Y1372204D01*
X913416Y1372263D01*
X913340Y1372326D01*
X913266Y1372391D01*
X913196Y1372459D01*
X913128Y1372529D01*
X913063Y1372603D01*
X913000Y1372679D01*
X912941Y1372757D01*
X912885Y1372837D01*
X912832Y1372920D01*
X912783Y1373004D01*
X912736Y1373091D01*
X912693Y1373179D01*
X912654Y1373269D01*
X912618Y1373360D01*
X912586Y1373453D01*
X912558Y1373547D01*
X912533Y1373642D01*
X912512Y1373738D01*
X912495Y1373834D01*
X912481Y1373931D01*
X912472Y1374029D01*
X912466Y1374127D01*
X912464Y1374225D01*
X912464Y1379220D01*
X912466Y1379318D01*
X912472Y1379416D01*
X912481Y1379514D01*
X912495Y1379611D01*
X912512Y1379707D01*
X912533Y1379803D01*
X912558Y1379898D01*
X912586Y1379992D01*
X912618Y1380085D01*
X912654Y1380176D01*
X912693Y1380266D01*
X912736Y1380354D01*
X912783Y1380441D01*
X912832Y1380525D01*
X912885Y1380608D01*
X912941Y1380688D01*
X913000Y1380767D01*
X913063Y1380842D01*
X913128Y1380916D01*
X913196Y1380986D01*
X913266Y1381054D01*
X913340Y1381120D01*
X913416Y1381182D01*
X913494Y1381241D01*
X913574Y1381297D01*
X913657Y1381350D01*
X913741Y1381400D01*
X913828Y1381446D01*
X913916Y1381489D01*
X914006Y1381528D01*
X914097Y1381564D01*
X914190Y1381596D01*
X914284Y1381624D01*
X914379Y1381649D01*
X914475Y1381670D01*
X914571Y1381687D01*
X914668Y1381701D01*
X914766Y1381710D01*
X914864Y1381716D01*
X914962Y1381718D01*
X918292Y1381718D01*
X924422Y1378387D02*
X924422Y1375057D01*
X924422Y1378387D02*
X924424Y1378501D01*
X924430Y1378614D01*
X924439Y1378728D01*
X924453Y1378840D01*
X924470Y1378953D01*
X924492Y1379065D01*
X924517Y1379175D01*
X924545Y1379285D01*
X924578Y1379394D01*
X924614Y1379502D01*
X924654Y1379609D01*
X924698Y1379714D01*
X924745Y1379817D01*
X924795Y1379919D01*
X924849Y1380019D01*
X924907Y1380117D01*
X924968Y1380213D01*
X925031Y1380307D01*
X925099Y1380399D01*
X925169Y1380489D01*
X925242Y1380575D01*
X925318Y1380660D01*
X925397Y1380742D01*
X925479Y1380821D01*
X925564Y1380897D01*
X925650Y1380970D01*
X925740Y1381040D01*
X925832Y1381108D01*
X925926Y1381171D01*
X926022Y1381232D01*
X926120Y1381290D01*
X926220Y1381344D01*
X926322Y1381394D01*
X926425Y1381441D01*
X926530Y1381485D01*
X926637Y1381525D01*
X926745Y1381561D01*
X926854Y1381594D01*
X926964Y1381622D01*
X927074Y1381647D01*
X927186Y1381669D01*
X927299Y1381686D01*
X927411Y1381700D01*
X927525Y1381709D01*
X927638Y1381715D01*
X927752Y1381717D01*
X927866Y1381715D01*
X927979Y1381709D01*
X928093Y1381700D01*
X928205Y1381686D01*
X928318Y1381669D01*
X928430Y1381647D01*
X928540Y1381622D01*
X928650Y1381594D01*
X928759Y1381561D01*
X928867Y1381525D01*
X928974Y1381485D01*
X929079Y1381441D01*
X929182Y1381394D01*
X929284Y1381344D01*
X929384Y1381290D01*
X929482Y1381232D01*
X929578Y1381171D01*
X929672Y1381108D01*
X929764Y1381040D01*
X929854Y1380970D01*
X929940Y1380897D01*
X930025Y1380821D01*
X930107Y1380742D01*
X930186Y1380660D01*
X930262Y1380575D01*
X930335Y1380489D01*
X930405Y1380399D01*
X930473Y1380307D01*
X930536Y1380213D01*
X930597Y1380117D01*
X930655Y1380019D01*
X930709Y1379919D01*
X930759Y1379817D01*
X930806Y1379714D01*
X930850Y1379609D01*
X930890Y1379502D01*
X930926Y1379394D01*
X930959Y1379285D01*
X930987Y1379175D01*
X931012Y1379065D01*
X931034Y1378953D01*
X931051Y1378840D01*
X931065Y1378728D01*
X931074Y1378614D01*
X931080Y1378501D01*
X931082Y1378387D01*
X931082Y1375057D01*
X931080Y1374943D01*
X931074Y1374830D01*
X931065Y1374716D01*
X931051Y1374604D01*
X931034Y1374491D01*
X931012Y1374379D01*
X930987Y1374269D01*
X930959Y1374159D01*
X930926Y1374050D01*
X930890Y1373942D01*
X930850Y1373835D01*
X930806Y1373730D01*
X930759Y1373627D01*
X930709Y1373525D01*
X930655Y1373425D01*
X930597Y1373327D01*
X930536Y1373231D01*
X930473Y1373137D01*
X930405Y1373045D01*
X930335Y1372955D01*
X930262Y1372869D01*
X930186Y1372784D01*
X930107Y1372702D01*
X930025Y1372623D01*
X929940Y1372547D01*
X929854Y1372474D01*
X929764Y1372404D01*
X929672Y1372336D01*
X929578Y1372273D01*
X929482Y1372212D01*
X929384Y1372154D01*
X929284Y1372100D01*
X929182Y1372050D01*
X929079Y1372003D01*
X928974Y1371959D01*
X928867Y1371919D01*
X928759Y1371883D01*
X928650Y1371850D01*
X928540Y1371822D01*
X928430Y1371797D01*
X928318Y1371775D01*
X928205Y1371758D01*
X928093Y1371744D01*
X927979Y1371735D01*
X927866Y1371729D01*
X927752Y1371727D01*
X927638Y1371729D01*
X927525Y1371735D01*
X927411Y1371744D01*
X927299Y1371758D01*
X927186Y1371775D01*
X927074Y1371797D01*
X926964Y1371822D01*
X926854Y1371850D01*
X926745Y1371883D01*
X926637Y1371919D01*
X926530Y1371959D01*
X926425Y1372003D01*
X926322Y1372050D01*
X926220Y1372100D01*
X926120Y1372154D01*
X926022Y1372212D01*
X925926Y1372273D01*
X925832Y1372336D01*
X925740Y1372404D01*
X925650Y1372474D01*
X925564Y1372547D01*
X925479Y1372623D01*
X925397Y1372702D01*
X925318Y1372784D01*
X925242Y1372869D01*
X925169Y1372955D01*
X925099Y1373045D01*
X925031Y1373137D01*
X924968Y1373231D01*
X924907Y1373327D01*
X924849Y1373425D01*
X924795Y1373525D01*
X924745Y1373627D01*
X924698Y1373730D01*
X924654Y1373835D01*
X924614Y1373942D01*
X924578Y1374050D01*
X924545Y1374159D01*
X924517Y1374269D01*
X924492Y1374379D01*
X924470Y1374491D01*
X924453Y1374604D01*
X924439Y1374716D01*
X924430Y1374830D01*
X924424Y1374943D01*
X924422Y1375057D01*
X938618Y1371727D02*
X938618Y1381718D01*
X943613Y1381718D01*
X943613Y1380053D01*
X951408Y1371727D02*
X955571Y1371727D01*
X951408Y1371727D02*
X951310Y1371729D01*
X951212Y1371735D01*
X951114Y1371744D01*
X951017Y1371758D01*
X950921Y1371775D01*
X950825Y1371796D01*
X950730Y1371821D01*
X950636Y1371849D01*
X950543Y1371881D01*
X950452Y1371917D01*
X950362Y1371956D01*
X950274Y1371999D01*
X950187Y1372046D01*
X950103Y1372095D01*
X950020Y1372148D01*
X949940Y1372204D01*
X949862Y1372263D01*
X949786Y1372326D01*
X949712Y1372391D01*
X949642Y1372459D01*
X949574Y1372529D01*
X949509Y1372603D01*
X949446Y1372679D01*
X949387Y1372757D01*
X949331Y1372837D01*
X949278Y1372920D01*
X949229Y1373004D01*
X949182Y1373091D01*
X949139Y1373179D01*
X949100Y1373269D01*
X949064Y1373360D01*
X949032Y1373453D01*
X949004Y1373547D01*
X948979Y1373642D01*
X948958Y1373738D01*
X948941Y1373834D01*
X948927Y1373931D01*
X948918Y1374029D01*
X948912Y1374127D01*
X948910Y1374225D01*
X948910Y1378387D01*
X948911Y1378387D02*
X948913Y1378501D01*
X948919Y1378614D01*
X948928Y1378728D01*
X948942Y1378840D01*
X948959Y1378953D01*
X948981Y1379065D01*
X949006Y1379175D01*
X949034Y1379285D01*
X949067Y1379394D01*
X949103Y1379502D01*
X949143Y1379609D01*
X949187Y1379714D01*
X949234Y1379817D01*
X949284Y1379919D01*
X949338Y1380019D01*
X949396Y1380117D01*
X949457Y1380213D01*
X949520Y1380307D01*
X949588Y1380399D01*
X949658Y1380489D01*
X949731Y1380575D01*
X949807Y1380660D01*
X949886Y1380742D01*
X949968Y1380821D01*
X950053Y1380897D01*
X950139Y1380970D01*
X950229Y1381040D01*
X950321Y1381108D01*
X950415Y1381171D01*
X950511Y1381232D01*
X950609Y1381290D01*
X950709Y1381344D01*
X950811Y1381394D01*
X950914Y1381441D01*
X951019Y1381485D01*
X951126Y1381525D01*
X951234Y1381561D01*
X951343Y1381594D01*
X951453Y1381622D01*
X951563Y1381647D01*
X951675Y1381669D01*
X951788Y1381686D01*
X951900Y1381700D01*
X952014Y1381709D01*
X952127Y1381715D01*
X952241Y1381717D01*
X952355Y1381715D01*
X952468Y1381709D01*
X952582Y1381700D01*
X952694Y1381686D01*
X952807Y1381669D01*
X952919Y1381647D01*
X953029Y1381622D01*
X953139Y1381594D01*
X953248Y1381561D01*
X953356Y1381525D01*
X953463Y1381485D01*
X953568Y1381441D01*
X953671Y1381394D01*
X953773Y1381344D01*
X953873Y1381290D01*
X953971Y1381232D01*
X954067Y1381171D01*
X954161Y1381108D01*
X954253Y1381040D01*
X954343Y1380970D01*
X954429Y1380897D01*
X954514Y1380821D01*
X954596Y1380742D01*
X954675Y1380660D01*
X954751Y1380575D01*
X954824Y1380489D01*
X954894Y1380399D01*
X954962Y1380307D01*
X955025Y1380213D01*
X955086Y1380117D01*
X955144Y1380019D01*
X955198Y1379919D01*
X955248Y1379817D01*
X955295Y1379714D01*
X955339Y1379609D01*
X955379Y1379502D01*
X955415Y1379394D01*
X955448Y1379285D01*
X955476Y1379175D01*
X955501Y1379065D01*
X955523Y1378953D01*
X955540Y1378840D01*
X955554Y1378728D01*
X955563Y1378614D01*
X955569Y1378501D01*
X955571Y1378387D01*
X955571Y1376722D01*
X948910Y1376722D01*
D11*
X1094740Y1356360D02*
X1094740Y-68580D01*
D12*
X1054359Y1371727D02*
X1051029Y1381718D01*
X1057690Y1381718D02*
X1054359Y1371727D01*
X1064474Y1377555D02*
X1074465Y1377555D01*
X1083019Y1377555D02*
X1087182Y1375890D01*
X1083019Y1377554D02*
X1082934Y1377590D01*
X1082851Y1377630D01*
X1082770Y1377673D01*
X1082690Y1377720D01*
X1082613Y1377770D01*
X1082537Y1377823D01*
X1082464Y1377879D01*
X1082394Y1377939D01*
X1082326Y1378001D01*
X1082261Y1378066D01*
X1082199Y1378134D01*
X1082139Y1378205D01*
X1082083Y1378278D01*
X1082030Y1378353D01*
X1081980Y1378431D01*
X1081934Y1378510D01*
X1081891Y1378592D01*
X1081851Y1378675D01*
X1081815Y1378760D01*
X1081783Y1378846D01*
X1081754Y1378934D01*
X1081730Y1379023D01*
X1081709Y1379113D01*
X1081692Y1379203D01*
X1081678Y1379294D01*
X1081669Y1379386D01*
X1081664Y1379478D01*
X1081662Y1379570D01*
X1081664Y1379662D01*
X1081671Y1379754D01*
X1081681Y1379846D01*
X1081695Y1379937D01*
X1081713Y1380028D01*
X1081735Y1380117D01*
X1081761Y1380206D01*
X1081791Y1380293D01*
X1081824Y1380379D01*
X1081861Y1380463D01*
X1081901Y1380546D01*
X1081945Y1380627D01*
X1081992Y1380706D01*
X1082043Y1380783D01*
X1082097Y1380858D01*
X1082154Y1380931D01*
X1082214Y1381001D01*
X1082277Y1381068D01*
X1082343Y1381132D01*
X1082411Y1381194D01*
X1082482Y1381253D01*
X1082556Y1381308D01*
X1082632Y1381361D01*
X1082710Y1381410D01*
X1082790Y1381456D01*
X1082871Y1381498D01*
X1082955Y1381537D01*
X1083040Y1381572D01*
X1083127Y1381603D01*
X1083215Y1381631D01*
X1083304Y1381655D01*
X1083394Y1381675D01*
X1083484Y1381692D01*
X1083576Y1381704D01*
X1083668Y1381713D01*
X1083760Y1381717D01*
X1083852Y1381718D01*
X1084079Y1381712D01*
X1084306Y1381701D01*
X1084533Y1381684D01*
X1084759Y1381661D01*
X1084985Y1381634D01*
X1085210Y1381600D01*
X1085434Y1381562D01*
X1085657Y1381518D01*
X1085879Y1381469D01*
X1086100Y1381414D01*
X1086319Y1381354D01*
X1086537Y1381289D01*
X1086753Y1381218D01*
X1086967Y1381143D01*
X1087180Y1381062D01*
X1087390Y1380976D01*
X1087599Y1380885D01*
X1087182Y1375890D02*
X1087267Y1375854D01*
X1087350Y1375814D01*
X1087431Y1375771D01*
X1087511Y1375724D01*
X1087588Y1375674D01*
X1087664Y1375621D01*
X1087737Y1375565D01*
X1087807Y1375505D01*
X1087875Y1375443D01*
X1087940Y1375378D01*
X1088002Y1375310D01*
X1088062Y1375239D01*
X1088118Y1375166D01*
X1088171Y1375091D01*
X1088221Y1375013D01*
X1088267Y1374934D01*
X1088310Y1374852D01*
X1088350Y1374769D01*
X1088386Y1374684D01*
X1088418Y1374598D01*
X1088447Y1374510D01*
X1088471Y1374421D01*
X1088492Y1374331D01*
X1088509Y1374241D01*
X1088523Y1374150D01*
X1088532Y1374058D01*
X1088537Y1373966D01*
X1088539Y1373874D01*
X1088537Y1373782D01*
X1088530Y1373690D01*
X1088520Y1373598D01*
X1088506Y1373507D01*
X1088488Y1373416D01*
X1088466Y1373327D01*
X1088440Y1373238D01*
X1088410Y1373151D01*
X1088377Y1373065D01*
X1088340Y1372981D01*
X1088300Y1372898D01*
X1088256Y1372817D01*
X1088209Y1372738D01*
X1088158Y1372661D01*
X1088104Y1372586D01*
X1088047Y1372513D01*
X1087987Y1372443D01*
X1087924Y1372376D01*
X1087858Y1372312D01*
X1087790Y1372250D01*
X1087719Y1372191D01*
X1087645Y1372136D01*
X1087569Y1372083D01*
X1087491Y1372034D01*
X1087411Y1371988D01*
X1087330Y1371946D01*
X1087246Y1371907D01*
X1087161Y1371872D01*
X1087074Y1371841D01*
X1086986Y1371813D01*
X1086897Y1371789D01*
X1086807Y1371769D01*
X1086717Y1371752D01*
X1086625Y1371740D01*
X1086533Y1371731D01*
X1086441Y1371727D01*
X1086349Y1371726D01*
X1086349Y1371727D02*
X1086015Y1371736D01*
X1085682Y1371753D01*
X1085349Y1371777D01*
X1085016Y1371810D01*
X1084685Y1371850D01*
X1084354Y1371898D01*
X1084025Y1371954D01*
X1083697Y1372017D01*
X1083371Y1372089D01*
X1083047Y1372168D01*
X1082724Y1372254D01*
X1082404Y1372349D01*
X1082086Y1372451D01*
X1081770Y1372560D01*
X1097842Y1371727D02*
X1101172Y1371727D01*
X1097842Y1371727D02*
X1097744Y1371729D01*
X1097646Y1371735D01*
X1097548Y1371744D01*
X1097451Y1371758D01*
X1097355Y1371775D01*
X1097259Y1371796D01*
X1097164Y1371821D01*
X1097070Y1371849D01*
X1096977Y1371881D01*
X1096886Y1371917D01*
X1096796Y1371956D01*
X1096708Y1371999D01*
X1096621Y1372046D01*
X1096537Y1372095D01*
X1096454Y1372148D01*
X1096374Y1372204D01*
X1096296Y1372263D01*
X1096220Y1372326D01*
X1096146Y1372391D01*
X1096076Y1372459D01*
X1096008Y1372529D01*
X1095943Y1372603D01*
X1095880Y1372679D01*
X1095821Y1372757D01*
X1095765Y1372837D01*
X1095712Y1372920D01*
X1095663Y1373004D01*
X1095616Y1373091D01*
X1095573Y1373179D01*
X1095534Y1373269D01*
X1095498Y1373360D01*
X1095466Y1373453D01*
X1095438Y1373547D01*
X1095413Y1373642D01*
X1095392Y1373738D01*
X1095375Y1373834D01*
X1095361Y1373931D01*
X1095352Y1374029D01*
X1095346Y1374127D01*
X1095344Y1374225D01*
X1095344Y1379220D01*
X1095346Y1379318D01*
X1095352Y1379416D01*
X1095361Y1379514D01*
X1095375Y1379611D01*
X1095392Y1379707D01*
X1095413Y1379803D01*
X1095438Y1379898D01*
X1095466Y1379992D01*
X1095498Y1380085D01*
X1095534Y1380176D01*
X1095573Y1380266D01*
X1095616Y1380354D01*
X1095663Y1380441D01*
X1095712Y1380525D01*
X1095765Y1380608D01*
X1095821Y1380688D01*
X1095880Y1380767D01*
X1095943Y1380842D01*
X1096008Y1380916D01*
X1096076Y1380986D01*
X1096146Y1381054D01*
X1096220Y1381120D01*
X1096296Y1381182D01*
X1096374Y1381241D01*
X1096454Y1381297D01*
X1096537Y1381350D01*
X1096621Y1381400D01*
X1096708Y1381446D01*
X1096796Y1381489D01*
X1096886Y1381528D01*
X1096977Y1381564D01*
X1097070Y1381596D01*
X1097164Y1381624D01*
X1097259Y1381649D01*
X1097355Y1381670D01*
X1097451Y1381687D01*
X1097548Y1381701D01*
X1097646Y1381710D01*
X1097744Y1381716D01*
X1097842Y1381718D01*
X1101172Y1381718D01*
X1107302Y1378387D02*
X1107302Y1375057D01*
X1107302Y1378387D02*
X1107304Y1378501D01*
X1107310Y1378614D01*
X1107319Y1378728D01*
X1107333Y1378840D01*
X1107350Y1378953D01*
X1107372Y1379065D01*
X1107397Y1379175D01*
X1107425Y1379285D01*
X1107458Y1379394D01*
X1107494Y1379502D01*
X1107534Y1379609D01*
X1107578Y1379714D01*
X1107625Y1379817D01*
X1107675Y1379919D01*
X1107729Y1380019D01*
X1107787Y1380117D01*
X1107848Y1380213D01*
X1107911Y1380307D01*
X1107979Y1380399D01*
X1108049Y1380489D01*
X1108122Y1380575D01*
X1108198Y1380660D01*
X1108277Y1380742D01*
X1108359Y1380821D01*
X1108444Y1380897D01*
X1108530Y1380970D01*
X1108620Y1381040D01*
X1108712Y1381108D01*
X1108806Y1381171D01*
X1108902Y1381232D01*
X1109000Y1381290D01*
X1109100Y1381344D01*
X1109202Y1381394D01*
X1109305Y1381441D01*
X1109410Y1381485D01*
X1109517Y1381525D01*
X1109625Y1381561D01*
X1109734Y1381594D01*
X1109844Y1381622D01*
X1109954Y1381647D01*
X1110066Y1381669D01*
X1110179Y1381686D01*
X1110291Y1381700D01*
X1110405Y1381709D01*
X1110518Y1381715D01*
X1110632Y1381717D01*
X1110746Y1381715D01*
X1110859Y1381709D01*
X1110973Y1381700D01*
X1111085Y1381686D01*
X1111198Y1381669D01*
X1111310Y1381647D01*
X1111420Y1381622D01*
X1111530Y1381594D01*
X1111639Y1381561D01*
X1111747Y1381525D01*
X1111854Y1381485D01*
X1111959Y1381441D01*
X1112062Y1381394D01*
X1112164Y1381344D01*
X1112264Y1381290D01*
X1112362Y1381232D01*
X1112458Y1381171D01*
X1112552Y1381108D01*
X1112644Y1381040D01*
X1112734Y1380970D01*
X1112820Y1380897D01*
X1112905Y1380821D01*
X1112987Y1380742D01*
X1113066Y1380660D01*
X1113142Y1380575D01*
X1113215Y1380489D01*
X1113285Y1380399D01*
X1113353Y1380307D01*
X1113416Y1380213D01*
X1113477Y1380117D01*
X1113535Y1380019D01*
X1113589Y1379919D01*
X1113639Y1379817D01*
X1113686Y1379714D01*
X1113730Y1379609D01*
X1113770Y1379502D01*
X1113806Y1379394D01*
X1113839Y1379285D01*
X1113867Y1379175D01*
X1113892Y1379065D01*
X1113914Y1378953D01*
X1113931Y1378840D01*
X1113945Y1378728D01*
X1113954Y1378614D01*
X1113960Y1378501D01*
X1113962Y1378387D01*
X1113962Y1375057D01*
X1113960Y1374943D01*
X1113954Y1374830D01*
X1113945Y1374716D01*
X1113931Y1374604D01*
X1113914Y1374491D01*
X1113892Y1374379D01*
X1113867Y1374269D01*
X1113839Y1374159D01*
X1113806Y1374050D01*
X1113770Y1373942D01*
X1113730Y1373835D01*
X1113686Y1373730D01*
X1113639Y1373627D01*
X1113589Y1373525D01*
X1113535Y1373425D01*
X1113477Y1373327D01*
X1113416Y1373231D01*
X1113353Y1373137D01*
X1113285Y1373045D01*
X1113215Y1372955D01*
X1113142Y1372869D01*
X1113066Y1372784D01*
X1112987Y1372702D01*
X1112905Y1372623D01*
X1112820Y1372547D01*
X1112734Y1372474D01*
X1112644Y1372404D01*
X1112552Y1372336D01*
X1112458Y1372273D01*
X1112362Y1372212D01*
X1112264Y1372154D01*
X1112164Y1372100D01*
X1112062Y1372050D01*
X1111959Y1372003D01*
X1111854Y1371959D01*
X1111747Y1371919D01*
X1111639Y1371883D01*
X1111530Y1371850D01*
X1111420Y1371822D01*
X1111310Y1371797D01*
X1111198Y1371775D01*
X1111085Y1371758D01*
X1110973Y1371744D01*
X1110859Y1371735D01*
X1110746Y1371729D01*
X1110632Y1371727D01*
X1110518Y1371729D01*
X1110405Y1371735D01*
X1110291Y1371744D01*
X1110179Y1371758D01*
X1110066Y1371775D01*
X1109954Y1371797D01*
X1109844Y1371822D01*
X1109734Y1371850D01*
X1109625Y1371883D01*
X1109517Y1371919D01*
X1109410Y1371959D01*
X1109305Y1372003D01*
X1109202Y1372050D01*
X1109100Y1372100D01*
X1109000Y1372154D01*
X1108902Y1372212D01*
X1108806Y1372273D01*
X1108712Y1372336D01*
X1108620Y1372404D01*
X1108530Y1372474D01*
X1108444Y1372547D01*
X1108359Y1372623D01*
X1108277Y1372702D01*
X1108198Y1372784D01*
X1108122Y1372869D01*
X1108049Y1372955D01*
X1107979Y1373045D01*
X1107911Y1373137D01*
X1107848Y1373231D01*
X1107787Y1373327D01*
X1107729Y1373425D01*
X1107675Y1373525D01*
X1107625Y1373627D01*
X1107578Y1373730D01*
X1107534Y1373835D01*
X1107494Y1373942D01*
X1107458Y1374050D01*
X1107425Y1374159D01*
X1107397Y1374269D01*
X1107372Y1374379D01*
X1107350Y1374491D01*
X1107333Y1374604D01*
X1107319Y1374716D01*
X1107310Y1374830D01*
X1107304Y1374943D01*
X1107302Y1375057D01*
X1121498Y1371727D02*
X1121498Y1381718D01*
X1126493Y1381718D01*
X1126493Y1380053D01*
X1134288Y1371727D02*
X1138451Y1371727D01*
X1134288Y1371727D02*
X1134190Y1371729D01*
X1134092Y1371735D01*
X1133994Y1371744D01*
X1133897Y1371758D01*
X1133801Y1371775D01*
X1133705Y1371796D01*
X1133610Y1371821D01*
X1133516Y1371849D01*
X1133423Y1371881D01*
X1133332Y1371917D01*
X1133242Y1371956D01*
X1133154Y1371999D01*
X1133067Y1372046D01*
X1132983Y1372095D01*
X1132900Y1372148D01*
X1132820Y1372204D01*
X1132742Y1372263D01*
X1132666Y1372326D01*
X1132592Y1372391D01*
X1132522Y1372459D01*
X1132454Y1372529D01*
X1132389Y1372603D01*
X1132326Y1372679D01*
X1132267Y1372757D01*
X1132211Y1372837D01*
X1132158Y1372920D01*
X1132109Y1373004D01*
X1132062Y1373091D01*
X1132019Y1373179D01*
X1131980Y1373269D01*
X1131944Y1373360D01*
X1131912Y1373453D01*
X1131884Y1373547D01*
X1131859Y1373642D01*
X1131838Y1373738D01*
X1131821Y1373834D01*
X1131807Y1373931D01*
X1131798Y1374029D01*
X1131792Y1374127D01*
X1131790Y1374225D01*
X1131790Y1378387D01*
X1131791Y1378387D02*
X1131793Y1378501D01*
X1131799Y1378614D01*
X1131808Y1378728D01*
X1131822Y1378840D01*
X1131839Y1378953D01*
X1131861Y1379065D01*
X1131886Y1379175D01*
X1131914Y1379285D01*
X1131947Y1379394D01*
X1131983Y1379502D01*
X1132023Y1379609D01*
X1132067Y1379714D01*
X1132114Y1379817D01*
X1132164Y1379919D01*
X1132218Y1380019D01*
X1132276Y1380117D01*
X1132337Y1380213D01*
X1132400Y1380307D01*
X1132468Y1380399D01*
X1132538Y1380489D01*
X1132611Y1380575D01*
X1132687Y1380660D01*
X1132766Y1380742D01*
X1132848Y1380821D01*
X1132933Y1380897D01*
X1133019Y1380970D01*
X1133109Y1381040D01*
X1133201Y1381108D01*
X1133295Y1381171D01*
X1133391Y1381232D01*
X1133489Y1381290D01*
X1133589Y1381344D01*
X1133691Y1381394D01*
X1133794Y1381441D01*
X1133899Y1381485D01*
X1134006Y1381525D01*
X1134114Y1381561D01*
X1134223Y1381594D01*
X1134333Y1381622D01*
X1134443Y1381647D01*
X1134555Y1381669D01*
X1134668Y1381686D01*
X1134780Y1381700D01*
X1134894Y1381709D01*
X1135007Y1381715D01*
X1135121Y1381717D01*
X1135235Y1381715D01*
X1135348Y1381709D01*
X1135462Y1381700D01*
X1135574Y1381686D01*
X1135687Y1381669D01*
X1135799Y1381647D01*
X1135909Y1381622D01*
X1136019Y1381594D01*
X1136128Y1381561D01*
X1136236Y1381525D01*
X1136343Y1381485D01*
X1136448Y1381441D01*
X1136551Y1381394D01*
X1136653Y1381344D01*
X1136753Y1381290D01*
X1136851Y1381232D01*
X1136947Y1381171D01*
X1137041Y1381108D01*
X1137133Y1381040D01*
X1137223Y1380970D01*
X1137309Y1380897D01*
X1137394Y1380821D01*
X1137476Y1380742D01*
X1137555Y1380660D01*
X1137631Y1380575D01*
X1137704Y1380489D01*
X1137774Y1380399D01*
X1137842Y1380307D01*
X1137905Y1380213D01*
X1137966Y1380117D01*
X1138024Y1380019D01*
X1138078Y1379919D01*
X1138128Y1379817D01*
X1138175Y1379714D01*
X1138219Y1379609D01*
X1138259Y1379502D01*
X1138295Y1379394D01*
X1138328Y1379285D01*
X1138356Y1379175D01*
X1138381Y1379065D01*
X1138403Y1378953D01*
X1138420Y1378840D01*
X1138434Y1378728D01*
X1138443Y1378614D01*
X1138449Y1378501D01*
X1138451Y1378387D01*
X1138451Y1376722D01*
X1131790Y1376722D01*
D11*
X1277620Y1356360D02*
X1277620Y-68580D01*
D12*
X1237239Y1371727D02*
X1233909Y1381718D01*
X1240570Y1381718D02*
X1237239Y1371727D01*
X1247354Y1377555D02*
X1257345Y1377555D01*
X1265899Y1377555D02*
X1270062Y1375890D01*
X1265899Y1377554D02*
X1265814Y1377590D01*
X1265731Y1377630D01*
X1265650Y1377673D01*
X1265570Y1377720D01*
X1265493Y1377770D01*
X1265417Y1377823D01*
X1265344Y1377879D01*
X1265274Y1377939D01*
X1265206Y1378001D01*
X1265141Y1378066D01*
X1265079Y1378134D01*
X1265019Y1378205D01*
X1264963Y1378278D01*
X1264910Y1378353D01*
X1264860Y1378431D01*
X1264814Y1378510D01*
X1264771Y1378592D01*
X1264731Y1378675D01*
X1264695Y1378760D01*
X1264663Y1378846D01*
X1264634Y1378934D01*
X1264610Y1379023D01*
X1264589Y1379113D01*
X1264572Y1379203D01*
X1264558Y1379294D01*
X1264549Y1379386D01*
X1264544Y1379478D01*
X1264542Y1379570D01*
X1264544Y1379662D01*
X1264551Y1379754D01*
X1264561Y1379846D01*
X1264575Y1379937D01*
X1264593Y1380028D01*
X1264615Y1380117D01*
X1264641Y1380206D01*
X1264671Y1380293D01*
X1264704Y1380379D01*
X1264741Y1380463D01*
X1264781Y1380546D01*
X1264825Y1380627D01*
X1264872Y1380706D01*
X1264923Y1380783D01*
X1264977Y1380858D01*
X1265034Y1380931D01*
X1265094Y1381001D01*
X1265157Y1381068D01*
X1265223Y1381132D01*
X1265291Y1381194D01*
X1265362Y1381253D01*
X1265436Y1381308D01*
X1265512Y1381361D01*
X1265590Y1381410D01*
X1265670Y1381456D01*
X1265751Y1381498D01*
X1265835Y1381537D01*
X1265920Y1381572D01*
X1266007Y1381603D01*
X1266095Y1381631D01*
X1266184Y1381655D01*
X1266274Y1381675D01*
X1266364Y1381692D01*
X1266456Y1381704D01*
X1266548Y1381713D01*
X1266640Y1381717D01*
X1266732Y1381718D01*
X1266959Y1381712D01*
X1267186Y1381701D01*
X1267413Y1381684D01*
X1267639Y1381661D01*
X1267865Y1381634D01*
X1268090Y1381600D01*
X1268314Y1381562D01*
X1268537Y1381518D01*
X1268759Y1381469D01*
X1268980Y1381414D01*
X1269199Y1381354D01*
X1269417Y1381289D01*
X1269633Y1381218D01*
X1269847Y1381143D01*
X1270060Y1381062D01*
X1270270Y1380976D01*
X1270479Y1380885D01*
X1270062Y1375890D02*
X1270147Y1375854D01*
X1270230Y1375814D01*
X1270311Y1375771D01*
X1270391Y1375724D01*
X1270468Y1375674D01*
X1270544Y1375621D01*
X1270617Y1375565D01*
X1270687Y1375505D01*
X1270755Y1375443D01*
X1270820Y1375378D01*
X1270882Y1375310D01*
X1270942Y1375239D01*
X1270998Y1375166D01*
X1271051Y1375091D01*
X1271101Y1375013D01*
X1271147Y1374934D01*
X1271190Y1374852D01*
X1271230Y1374769D01*
X1271266Y1374684D01*
X1271298Y1374598D01*
X1271327Y1374510D01*
X1271351Y1374421D01*
X1271372Y1374331D01*
X1271389Y1374241D01*
X1271403Y1374150D01*
X1271412Y1374058D01*
X1271417Y1373966D01*
X1271419Y1373874D01*
X1271417Y1373782D01*
X1271410Y1373690D01*
X1271400Y1373598D01*
X1271386Y1373507D01*
X1271368Y1373416D01*
X1271346Y1373327D01*
X1271320Y1373238D01*
X1271290Y1373151D01*
X1271257Y1373065D01*
X1271220Y1372981D01*
X1271180Y1372898D01*
X1271136Y1372817D01*
X1271089Y1372738D01*
X1271038Y1372661D01*
X1270984Y1372586D01*
X1270927Y1372513D01*
X1270867Y1372443D01*
X1270804Y1372376D01*
X1270738Y1372312D01*
X1270670Y1372250D01*
X1270599Y1372191D01*
X1270525Y1372136D01*
X1270449Y1372083D01*
X1270371Y1372034D01*
X1270291Y1371988D01*
X1270210Y1371946D01*
X1270126Y1371907D01*
X1270041Y1371872D01*
X1269954Y1371841D01*
X1269866Y1371813D01*
X1269777Y1371789D01*
X1269687Y1371769D01*
X1269597Y1371752D01*
X1269505Y1371740D01*
X1269413Y1371731D01*
X1269321Y1371727D01*
X1269229Y1371726D01*
X1269229Y1371727D02*
X1268895Y1371736D01*
X1268562Y1371753D01*
X1268229Y1371777D01*
X1267896Y1371810D01*
X1267565Y1371850D01*
X1267234Y1371898D01*
X1266905Y1371954D01*
X1266577Y1372017D01*
X1266251Y1372089D01*
X1265927Y1372168D01*
X1265604Y1372254D01*
X1265284Y1372349D01*
X1264966Y1372451D01*
X1264650Y1372560D01*
X1280722Y1371727D02*
X1284052Y1371727D01*
X1280722Y1371727D02*
X1280624Y1371729D01*
X1280526Y1371735D01*
X1280428Y1371744D01*
X1280331Y1371758D01*
X1280235Y1371775D01*
X1280139Y1371796D01*
X1280044Y1371821D01*
X1279950Y1371849D01*
X1279857Y1371881D01*
X1279766Y1371917D01*
X1279676Y1371956D01*
X1279588Y1371999D01*
X1279501Y1372046D01*
X1279417Y1372095D01*
X1279334Y1372148D01*
X1279254Y1372204D01*
X1279176Y1372263D01*
X1279100Y1372326D01*
X1279026Y1372391D01*
X1278956Y1372459D01*
X1278888Y1372529D01*
X1278823Y1372603D01*
X1278760Y1372679D01*
X1278701Y1372757D01*
X1278645Y1372837D01*
X1278592Y1372920D01*
X1278543Y1373004D01*
X1278496Y1373091D01*
X1278453Y1373179D01*
X1278414Y1373269D01*
X1278378Y1373360D01*
X1278346Y1373453D01*
X1278318Y1373547D01*
X1278293Y1373642D01*
X1278272Y1373738D01*
X1278255Y1373834D01*
X1278241Y1373931D01*
X1278232Y1374029D01*
X1278226Y1374127D01*
X1278224Y1374225D01*
X1278224Y1379220D01*
X1278226Y1379318D01*
X1278232Y1379416D01*
X1278241Y1379514D01*
X1278255Y1379611D01*
X1278272Y1379707D01*
X1278293Y1379803D01*
X1278318Y1379898D01*
X1278346Y1379992D01*
X1278378Y1380085D01*
X1278414Y1380176D01*
X1278453Y1380266D01*
X1278496Y1380354D01*
X1278543Y1380441D01*
X1278592Y1380525D01*
X1278645Y1380608D01*
X1278701Y1380688D01*
X1278760Y1380767D01*
X1278823Y1380842D01*
X1278888Y1380916D01*
X1278956Y1380986D01*
X1279026Y1381054D01*
X1279100Y1381120D01*
X1279176Y1381182D01*
X1279254Y1381241D01*
X1279334Y1381297D01*
X1279417Y1381350D01*
X1279501Y1381400D01*
X1279588Y1381446D01*
X1279676Y1381489D01*
X1279766Y1381528D01*
X1279857Y1381564D01*
X1279950Y1381596D01*
X1280044Y1381624D01*
X1280139Y1381649D01*
X1280235Y1381670D01*
X1280331Y1381687D01*
X1280428Y1381701D01*
X1280526Y1381710D01*
X1280624Y1381716D01*
X1280722Y1381718D01*
X1284052Y1381718D01*
X1290182Y1378387D02*
X1290182Y1375057D01*
X1290182Y1378387D02*
X1290184Y1378501D01*
X1290190Y1378614D01*
X1290199Y1378728D01*
X1290213Y1378840D01*
X1290230Y1378953D01*
X1290252Y1379065D01*
X1290277Y1379175D01*
X1290305Y1379285D01*
X1290338Y1379394D01*
X1290374Y1379502D01*
X1290414Y1379609D01*
X1290458Y1379714D01*
X1290505Y1379817D01*
X1290555Y1379919D01*
X1290609Y1380019D01*
X1290667Y1380117D01*
X1290728Y1380213D01*
X1290791Y1380307D01*
X1290859Y1380399D01*
X1290929Y1380489D01*
X1291002Y1380575D01*
X1291078Y1380660D01*
X1291157Y1380742D01*
X1291239Y1380821D01*
X1291324Y1380897D01*
X1291410Y1380970D01*
X1291500Y1381040D01*
X1291592Y1381108D01*
X1291686Y1381171D01*
X1291782Y1381232D01*
X1291880Y1381290D01*
X1291980Y1381344D01*
X1292082Y1381394D01*
X1292185Y1381441D01*
X1292290Y1381485D01*
X1292397Y1381525D01*
X1292505Y1381561D01*
X1292614Y1381594D01*
X1292724Y1381622D01*
X1292834Y1381647D01*
X1292946Y1381669D01*
X1293059Y1381686D01*
X1293171Y1381700D01*
X1293285Y1381709D01*
X1293398Y1381715D01*
X1293512Y1381717D01*
X1293626Y1381715D01*
X1293739Y1381709D01*
X1293853Y1381700D01*
X1293965Y1381686D01*
X1294078Y1381669D01*
X1294190Y1381647D01*
X1294300Y1381622D01*
X1294410Y1381594D01*
X1294519Y1381561D01*
X1294627Y1381525D01*
X1294734Y1381485D01*
X1294839Y1381441D01*
X1294942Y1381394D01*
X1295044Y1381344D01*
X1295144Y1381290D01*
X1295242Y1381232D01*
X1295338Y1381171D01*
X1295432Y1381108D01*
X1295524Y1381040D01*
X1295614Y1380970D01*
X1295700Y1380897D01*
X1295785Y1380821D01*
X1295867Y1380742D01*
X1295946Y1380660D01*
X1296022Y1380575D01*
X1296095Y1380489D01*
X1296165Y1380399D01*
X1296233Y1380307D01*
X1296296Y1380213D01*
X1296357Y1380117D01*
X1296415Y1380019D01*
X1296469Y1379919D01*
X1296519Y1379817D01*
X1296566Y1379714D01*
X1296610Y1379609D01*
X1296650Y1379502D01*
X1296686Y1379394D01*
X1296719Y1379285D01*
X1296747Y1379175D01*
X1296772Y1379065D01*
X1296794Y1378953D01*
X1296811Y1378840D01*
X1296825Y1378728D01*
X1296834Y1378614D01*
X1296840Y1378501D01*
X1296842Y1378387D01*
X1296842Y1375057D01*
X1296840Y1374943D01*
X1296834Y1374830D01*
X1296825Y1374716D01*
X1296811Y1374604D01*
X1296794Y1374491D01*
X1296772Y1374379D01*
X1296747Y1374269D01*
X1296719Y1374159D01*
X1296686Y1374050D01*
X1296650Y1373942D01*
X1296610Y1373835D01*
X1296566Y1373730D01*
X1296519Y1373627D01*
X1296469Y1373525D01*
X1296415Y1373425D01*
X1296357Y1373327D01*
X1296296Y1373231D01*
X1296233Y1373137D01*
X1296165Y1373045D01*
X1296095Y1372955D01*
X1296022Y1372869D01*
X1295946Y1372784D01*
X1295867Y1372702D01*
X1295785Y1372623D01*
X1295700Y1372547D01*
X1295614Y1372474D01*
X1295524Y1372404D01*
X1295432Y1372336D01*
X1295338Y1372273D01*
X1295242Y1372212D01*
X1295144Y1372154D01*
X1295044Y1372100D01*
X1294942Y1372050D01*
X1294839Y1372003D01*
X1294734Y1371959D01*
X1294627Y1371919D01*
X1294519Y1371883D01*
X1294410Y1371850D01*
X1294300Y1371822D01*
X1294190Y1371797D01*
X1294078Y1371775D01*
X1293965Y1371758D01*
X1293853Y1371744D01*
X1293739Y1371735D01*
X1293626Y1371729D01*
X1293512Y1371727D01*
X1293398Y1371729D01*
X1293285Y1371735D01*
X1293171Y1371744D01*
X1293059Y1371758D01*
X1292946Y1371775D01*
X1292834Y1371797D01*
X1292724Y1371822D01*
X1292614Y1371850D01*
X1292505Y1371883D01*
X1292397Y1371919D01*
X1292290Y1371959D01*
X1292185Y1372003D01*
X1292082Y1372050D01*
X1291980Y1372100D01*
X1291880Y1372154D01*
X1291782Y1372212D01*
X1291686Y1372273D01*
X1291592Y1372336D01*
X1291500Y1372404D01*
X1291410Y1372474D01*
X1291324Y1372547D01*
X1291239Y1372623D01*
X1291157Y1372702D01*
X1291078Y1372784D01*
X1291002Y1372869D01*
X1290929Y1372955D01*
X1290859Y1373045D01*
X1290791Y1373137D01*
X1290728Y1373231D01*
X1290667Y1373327D01*
X1290609Y1373425D01*
X1290555Y1373525D01*
X1290505Y1373627D01*
X1290458Y1373730D01*
X1290414Y1373835D01*
X1290374Y1373942D01*
X1290338Y1374050D01*
X1290305Y1374159D01*
X1290277Y1374269D01*
X1290252Y1374379D01*
X1290230Y1374491D01*
X1290213Y1374604D01*
X1290199Y1374716D01*
X1290190Y1374830D01*
X1290184Y1374943D01*
X1290182Y1375057D01*
X1304378Y1371727D02*
X1304378Y1381718D01*
X1309373Y1381718D01*
X1309373Y1380053D01*
X1317168Y1371727D02*
X1321331Y1371727D01*
X1317168Y1371727D02*
X1317070Y1371729D01*
X1316972Y1371735D01*
X1316874Y1371744D01*
X1316777Y1371758D01*
X1316681Y1371775D01*
X1316585Y1371796D01*
X1316490Y1371821D01*
X1316396Y1371849D01*
X1316303Y1371881D01*
X1316212Y1371917D01*
X1316122Y1371956D01*
X1316034Y1371999D01*
X1315947Y1372046D01*
X1315863Y1372095D01*
X1315780Y1372148D01*
X1315700Y1372204D01*
X1315622Y1372263D01*
X1315546Y1372326D01*
X1315472Y1372391D01*
X1315402Y1372459D01*
X1315334Y1372529D01*
X1315269Y1372603D01*
X1315206Y1372679D01*
X1315147Y1372757D01*
X1315091Y1372837D01*
X1315038Y1372920D01*
X1314989Y1373004D01*
X1314942Y1373091D01*
X1314899Y1373179D01*
X1314860Y1373269D01*
X1314824Y1373360D01*
X1314792Y1373453D01*
X1314764Y1373547D01*
X1314739Y1373642D01*
X1314718Y1373738D01*
X1314701Y1373834D01*
X1314687Y1373931D01*
X1314678Y1374029D01*
X1314672Y1374127D01*
X1314670Y1374225D01*
X1314670Y1378387D01*
X1314671Y1378387D02*
X1314673Y1378501D01*
X1314679Y1378614D01*
X1314688Y1378728D01*
X1314702Y1378840D01*
X1314719Y1378953D01*
X1314741Y1379065D01*
X1314766Y1379175D01*
X1314794Y1379285D01*
X1314827Y1379394D01*
X1314863Y1379502D01*
X1314903Y1379609D01*
X1314947Y1379714D01*
X1314994Y1379817D01*
X1315044Y1379919D01*
X1315098Y1380019D01*
X1315156Y1380117D01*
X1315217Y1380213D01*
X1315280Y1380307D01*
X1315348Y1380399D01*
X1315418Y1380489D01*
X1315491Y1380575D01*
X1315567Y1380660D01*
X1315646Y1380742D01*
X1315728Y1380821D01*
X1315813Y1380897D01*
X1315899Y1380970D01*
X1315989Y1381040D01*
X1316081Y1381108D01*
X1316175Y1381171D01*
X1316271Y1381232D01*
X1316369Y1381290D01*
X1316469Y1381344D01*
X1316571Y1381394D01*
X1316674Y1381441D01*
X1316779Y1381485D01*
X1316886Y1381525D01*
X1316994Y1381561D01*
X1317103Y1381594D01*
X1317213Y1381622D01*
X1317323Y1381647D01*
X1317435Y1381669D01*
X1317548Y1381686D01*
X1317660Y1381700D01*
X1317774Y1381709D01*
X1317887Y1381715D01*
X1318001Y1381717D01*
X1318115Y1381715D01*
X1318228Y1381709D01*
X1318342Y1381700D01*
X1318454Y1381686D01*
X1318567Y1381669D01*
X1318679Y1381647D01*
X1318789Y1381622D01*
X1318899Y1381594D01*
X1319008Y1381561D01*
X1319116Y1381525D01*
X1319223Y1381485D01*
X1319328Y1381441D01*
X1319431Y1381394D01*
X1319533Y1381344D01*
X1319633Y1381290D01*
X1319731Y1381232D01*
X1319827Y1381171D01*
X1319921Y1381108D01*
X1320013Y1381040D01*
X1320103Y1380970D01*
X1320189Y1380897D01*
X1320274Y1380821D01*
X1320356Y1380742D01*
X1320435Y1380660D01*
X1320511Y1380575D01*
X1320584Y1380489D01*
X1320654Y1380399D01*
X1320722Y1380307D01*
X1320785Y1380213D01*
X1320846Y1380117D01*
X1320904Y1380019D01*
X1320958Y1379919D01*
X1321008Y1379817D01*
X1321055Y1379714D01*
X1321099Y1379609D01*
X1321139Y1379502D01*
X1321175Y1379394D01*
X1321208Y1379285D01*
X1321236Y1379175D01*
X1321261Y1379065D01*
X1321283Y1378953D01*
X1321300Y1378840D01*
X1321314Y1378728D01*
X1321323Y1378614D01*
X1321329Y1378501D01*
X1321331Y1378387D01*
X1321331Y1376722D01*
X1314670Y1376722D01*
D11*
X1460500Y1356360D02*
X1460500Y-68580D01*
D12*
X1420119Y1371727D02*
X1416789Y1381718D01*
X1423450Y1381718D02*
X1420119Y1371727D01*
X1430234Y1377555D02*
X1440225Y1377555D01*
X1448779Y1377555D02*
X1452942Y1375890D01*
X1448779Y1377554D02*
X1448694Y1377590D01*
X1448611Y1377630D01*
X1448530Y1377673D01*
X1448450Y1377720D01*
X1448373Y1377770D01*
X1448297Y1377823D01*
X1448224Y1377879D01*
X1448154Y1377939D01*
X1448086Y1378001D01*
X1448021Y1378066D01*
X1447959Y1378134D01*
X1447899Y1378205D01*
X1447843Y1378278D01*
X1447790Y1378353D01*
X1447740Y1378431D01*
X1447694Y1378510D01*
X1447651Y1378592D01*
X1447611Y1378675D01*
X1447575Y1378760D01*
X1447543Y1378846D01*
X1447514Y1378934D01*
X1447490Y1379023D01*
X1447469Y1379113D01*
X1447452Y1379203D01*
X1447438Y1379294D01*
X1447429Y1379386D01*
X1447424Y1379478D01*
X1447422Y1379570D01*
X1447424Y1379662D01*
X1447431Y1379754D01*
X1447441Y1379846D01*
X1447455Y1379937D01*
X1447473Y1380028D01*
X1447495Y1380117D01*
X1447521Y1380206D01*
X1447551Y1380293D01*
X1447584Y1380379D01*
X1447621Y1380463D01*
X1447661Y1380546D01*
X1447705Y1380627D01*
X1447752Y1380706D01*
X1447803Y1380783D01*
X1447857Y1380858D01*
X1447914Y1380931D01*
X1447974Y1381001D01*
X1448037Y1381068D01*
X1448103Y1381132D01*
X1448171Y1381194D01*
X1448242Y1381253D01*
X1448316Y1381308D01*
X1448392Y1381361D01*
X1448470Y1381410D01*
X1448550Y1381456D01*
X1448631Y1381498D01*
X1448715Y1381537D01*
X1448800Y1381572D01*
X1448887Y1381603D01*
X1448975Y1381631D01*
X1449064Y1381655D01*
X1449154Y1381675D01*
X1449244Y1381692D01*
X1449336Y1381704D01*
X1449428Y1381713D01*
X1449520Y1381717D01*
X1449612Y1381718D01*
X1449839Y1381712D01*
X1450066Y1381701D01*
X1450293Y1381684D01*
X1450519Y1381661D01*
X1450745Y1381634D01*
X1450970Y1381600D01*
X1451194Y1381562D01*
X1451417Y1381518D01*
X1451639Y1381469D01*
X1451860Y1381414D01*
X1452079Y1381354D01*
X1452297Y1381289D01*
X1452513Y1381218D01*
X1452727Y1381143D01*
X1452940Y1381062D01*
X1453150Y1380976D01*
X1453359Y1380885D01*
X1452942Y1375890D02*
X1453027Y1375854D01*
X1453110Y1375814D01*
X1453191Y1375771D01*
X1453271Y1375724D01*
X1453348Y1375674D01*
X1453424Y1375621D01*
X1453497Y1375565D01*
X1453567Y1375505D01*
X1453635Y1375443D01*
X1453700Y1375378D01*
X1453762Y1375310D01*
X1453822Y1375239D01*
X1453878Y1375166D01*
X1453931Y1375091D01*
X1453981Y1375013D01*
X1454027Y1374934D01*
X1454070Y1374852D01*
X1454110Y1374769D01*
X1454146Y1374684D01*
X1454178Y1374598D01*
X1454207Y1374510D01*
X1454231Y1374421D01*
X1454252Y1374331D01*
X1454269Y1374241D01*
X1454283Y1374150D01*
X1454292Y1374058D01*
X1454297Y1373966D01*
X1454299Y1373874D01*
X1454297Y1373782D01*
X1454290Y1373690D01*
X1454280Y1373598D01*
X1454266Y1373507D01*
X1454248Y1373416D01*
X1454226Y1373327D01*
X1454200Y1373238D01*
X1454170Y1373151D01*
X1454137Y1373065D01*
X1454100Y1372981D01*
X1454060Y1372898D01*
X1454016Y1372817D01*
X1453969Y1372738D01*
X1453918Y1372661D01*
X1453864Y1372586D01*
X1453807Y1372513D01*
X1453747Y1372443D01*
X1453684Y1372376D01*
X1453618Y1372312D01*
X1453550Y1372250D01*
X1453479Y1372191D01*
X1453405Y1372136D01*
X1453329Y1372083D01*
X1453251Y1372034D01*
X1453171Y1371988D01*
X1453090Y1371946D01*
X1453006Y1371907D01*
X1452921Y1371872D01*
X1452834Y1371841D01*
X1452746Y1371813D01*
X1452657Y1371789D01*
X1452567Y1371769D01*
X1452477Y1371752D01*
X1452385Y1371740D01*
X1452293Y1371731D01*
X1452201Y1371727D01*
X1452109Y1371726D01*
X1452109Y1371727D02*
X1451775Y1371736D01*
X1451442Y1371753D01*
X1451109Y1371777D01*
X1450776Y1371810D01*
X1450445Y1371850D01*
X1450114Y1371898D01*
X1449785Y1371954D01*
X1449457Y1372017D01*
X1449131Y1372089D01*
X1448807Y1372168D01*
X1448484Y1372254D01*
X1448164Y1372349D01*
X1447846Y1372451D01*
X1447530Y1372560D01*
X1463602Y1371727D02*
X1466932Y1371727D01*
X1463602Y1371727D02*
X1463504Y1371729D01*
X1463406Y1371735D01*
X1463308Y1371744D01*
X1463211Y1371758D01*
X1463115Y1371775D01*
X1463019Y1371796D01*
X1462924Y1371821D01*
X1462830Y1371849D01*
X1462737Y1371881D01*
X1462646Y1371917D01*
X1462556Y1371956D01*
X1462468Y1371999D01*
X1462381Y1372046D01*
X1462297Y1372095D01*
X1462214Y1372148D01*
X1462134Y1372204D01*
X1462056Y1372263D01*
X1461980Y1372326D01*
X1461906Y1372391D01*
X1461836Y1372459D01*
X1461768Y1372529D01*
X1461703Y1372603D01*
X1461640Y1372679D01*
X1461581Y1372757D01*
X1461525Y1372837D01*
X1461472Y1372920D01*
X1461423Y1373004D01*
X1461376Y1373091D01*
X1461333Y1373179D01*
X1461294Y1373269D01*
X1461258Y1373360D01*
X1461226Y1373453D01*
X1461198Y1373547D01*
X1461173Y1373642D01*
X1461152Y1373738D01*
X1461135Y1373834D01*
X1461121Y1373931D01*
X1461112Y1374029D01*
X1461106Y1374127D01*
X1461104Y1374225D01*
X1461104Y1379220D01*
X1461106Y1379318D01*
X1461112Y1379416D01*
X1461121Y1379514D01*
X1461135Y1379611D01*
X1461152Y1379707D01*
X1461173Y1379803D01*
X1461198Y1379898D01*
X1461226Y1379992D01*
X1461258Y1380085D01*
X1461294Y1380176D01*
X1461333Y1380266D01*
X1461376Y1380354D01*
X1461423Y1380441D01*
X1461472Y1380525D01*
X1461525Y1380608D01*
X1461581Y1380688D01*
X1461640Y1380767D01*
X1461703Y1380842D01*
X1461768Y1380916D01*
X1461836Y1380986D01*
X1461906Y1381054D01*
X1461980Y1381120D01*
X1462056Y1381182D01*
X1462134Y1381241D01*
X1462214Y1381297D01*
X1462297Y1381350D01*
X1462381Y1381400D01*
X1462468Y1381446D01*
X1462556Y1381489D01*
X1462646Y1381528D01*
X1462737Y1381564D01*
X1462830Y1381596D01*
X1462924Y1381624D01*
X1463019Y1381649D01*
X1463115Y1381670D01*
X1463211Y1381687D01*
X1463308Y1381701D01*
X1463406Y1381710D01*
X1463504Y1381716D01*
X1463602Y1381718D01*
X1466932Y1381718D01*
X1473062Y1378387D02*
X1473062Y1375057D01*
X1473062Y1378387D02*
X1473064Y1378501D01*
X1473070Y1378614D01*
X1473079Y1378728D01*
X1473093Y1378840D01*
X1473110Y1378953D01*
X1473132Y1379065D01*
X1473157Y1379175D01*
X1473185Y1379285D01*
X1473218Y1379394D01*
X1473254Y1379502D01*
X1473294Y1379609D01*
X1473338Y1379714D01*
X1473385Y1379817D01*
X1473435Y1379919D01*
X1473489Y1380019D01*
X1473547Y1380117D01*
X1473608Y1380213D01*
X1473671Y1380307D01*
X1473739Y1380399D01*
X1473809Y1380489D01*
X1473882Y1380575D01*
X1473958Y1380660D01*
X1474037Y1380742D01*
X1474119Y1380821D01*
X1474204Y1380897D01*
X1474290Y1380970D01*
X1474380Y1381040D01*
X1474472Y1381108D01*
X1474566Y1381171D01*
X1474662Y1381232D01*
X1474760Y1381290D01*
X1474860Y1381344D01*
X1474962Y1381394D01*
X1475065Y1381441D01*
X1475170Y1381485D01*
X1475277Y1381525D01*
X1475385Y1381561D01*
X1475494Y1381594D01*
X1475604Y1381622D01*
X1475714Y1381647D01*
X1475826Y1381669D01*
X1475939Y1381686D01*
X1476051Y1381700D01*
X1476165Y1381709D01*
X1476278Y1381715D01*
X1476392Y1381717D01*
X1476506Y1381715D01*
X1476619Y1381709D01*
X1476733Y1381700D01*
X1476845Y1381686D01*
X1476958Y1381669D01*
X1477070Y1381647D01*
X1477180Y1381622D01*
X1477290Y1381594D01*
X1477399Y1381561D01*
X1477507Y1381525D01*
X1477614Y1381485D01*
X1477719Y1381441D01*
X1477822Y1381394D01*
X1477924Y1381344D01*
X1478024Y1381290D01*
X1478122Y1381232D01*
X1478218Y1381171D01*
X1478312Y1381108D01*
X1478404Y1381040D01*
X1478494Y1380970D01*
X1478580Y1380897D01*
X1478665Y1380821D01*
X1478747Y1380742D01*
X1478826Y1380660D01*
X1478902Y1380575D01*
X1478975Y1380489D01*
X1479045Y1380399D01*
X1479113Y1380307D01*
X1479176Y1380213D01*
X1479237Y1380117D01*
X1479295Y1380019D01*
X1479349Y1379919D01*
X1479399Y1379817D01*
X1479446Y1379714D01*
X1479490Y1379609D01*
X1479530Y1379502D01*
X1479566Y1379394D01*
X1479599Y1379285D01*
X1479627Y1379175D01*
X1479652Y1379065D01*
X1479674Y1378953D01*
X1479691Y1378840D01*
X1479705Y1378728D01*
X1479714Y1378614D01*
X1479720Y1378501D01*
X1479722Y1378387D01*
X1479722Y1375057D01*
X1479720Y1374943D01*
X1479714Y1374830D01*
X1479705Y1374716D01*
X1479691Y1374604D01*
X1479674Y1374491D01*
X1479652Y1374379D01*
X1479627Y1374269D01*
X1479599Y1374159D01*
X1479566Y1374050D01*
X1479530Y1373942D01*
X1479490Y1373835D01*
X1479446Y1373730D01*
X1479399Y1373627D01*
X1479349Y1373525D01*
X1479295Y1373425D01*
X1479237Y1373327D01*
X1479176Y1373231D01*
X1479113Y1373137D01*
X1479045Y1373045D01*
X1478975Y1372955D01*
X1478902Y1372869D01*
X1478826Y1372784D01*
X1478747Y1372702D01*
X1478665Y1372623D01*
X1478580Y1372547D01*
X1478494Y1372474D01*
X1478404Y1372404D01*
X1478312Y1372336D01*
X1478218Y1372273D01*
X1478122Y1372212D01*
X1478024Y1372154D01*
X1477924Y1372100D01*
X1477822Y1372050D01*
X1477719Y1372003D01*
X1477614Y1371959D01*
X1477507Y1371919D01*
X1477399Y1371883D01*
X1477290Y1371850D01*
X1477180Y1371822D01*
X1477070Y1371797D01*
X1476958Y1371775D01*
X1476845Y1371758D01*
X1476733Y1371744D01*
X1476619Y1371735D01*
X1476506Y1371729D01*
X1476392Y1371727D01*
X1476278Y1371729D01*
X1476165Y1371735D01*
X1476051Y1371744D01*
X1475939Y1371758D01*
X1475826Y1371775D01*
X1475714Y1371797D01*
X1475604Y1371822D01*
X1475494Y1371850D01*
X1475385Y1371883D01*
X1475277Y1371919D01*
X1475170Y1371959D01*
X1475065Y1372003D01*
X1474962Y1372050D01*
X1474860Y1372100D01*
X1474760Y1372154D01*
X1474662Y1372212D01*
X1474566Y1372273D01*
X1474472Y1372336D01*
X1474380Y1372404D01*
X1474290Y1372474D01*
X1474204Y1372547D01*
X1474119Y1372623D01*
X1474037Y1372702D01*
X1473958Y1372784D01*
X1473882Y1372869D01*
X1473809Y1372955D01*
X1473739Y1373045D01*
X1473671Y1373137D01*
X1473608Y1373231D01*
X1473547Y1373327D01*
X1473489Y1373425D01*
X1473435Y1373525D01*
X1473385Y1373627D01*
X1473338Y1373730D01*
X1473294Y1373835D01*
X1473254Y1373942D01*
X1473218Y1374050D01*
X1473185Y1374159D01*
X1473157Y1374269D01*
X1473132Y1374379D01*
X1473110Y1374491D01*
X1473093Y1374604D01*
X1473079Y1374716D01*
X1473070Y1374830D01*
X1473064Y1374943D01*
X1473062Y1375057D01*
X1487258Y1371727D02*
X1487258Y1381718D01*
X1492253Y1381718D01*
X1492253Y1380053D01*
X1500048Y1371727D02*
X1504211Y1371727D01*
X1500048Y1371727D02*
X1499950Y1371729D01*
X1499852Y1371735D01*
X1499754Y1371744D01*
X1499657Y1371758D01*
X1499561Y1371775D01*
X1499465Y1371796D01*
X1499370Y1371821D01*
X1499276Y1371849D01*
X1499183Y1371881D01*
X1499092Y1371917D01*
X1499002Y1371956D01*
X1498914Y1371999D01*
X1498827Y1372046D01*
X1498743Y1372095D01*
X1498660Y1372148D01*
X1498580Y1372204D01*
X1498502Y1372263D01*
X1498426Y1372326D01*
X1498352Y1372391D01*
X1498282Y1372459D01*
X1498214Y1372529D01*
X1498149Y1372603D01*
X1498086Y1372679D01*
X1498027Y1372757D01*
X1497971Y1372837D01*
X1497918Y1372920D01*
X1497869Y1373004D01*
X1497822Y1373091D01*
X1497779Y1373179D01*
X1497740Y1373269D01*
X1497704Y1373360D01*
X1497672Y1373453D01*
X1497644Y1373547D01*
X1497619Y1373642D01*
X1497598Y1373738D01*
X1497581Y1373834D01*
X1497567Y1373931D01*
X1497558Y1374029D01*
X1497552Y1374127D01*
X1497550Y1374225D01*
X1497550Y1378387D01*
X1497551Y1378387D02*
X1497553Y1378501D01*
X1497559Y1378614D01*
X1497568Y1378728D01*
X1497582Y1378840D01*
X1497599Y1378953D01*
X1497621Y1379065D01*
X1497646Y1379175D01*
X1497674Y1379285D01*
X1497707Y1379394D01*
X1497743Y1379502D01*
X1497783Y1379609D01*
X1497827Y1379714D01*
X1497874Y1379817D01*
X1497924Y1379919D01*
X1497978Y1380019D01*
X1498036Y1380117D01*
X1498097Y1380213D01*
X1498160Y1380307D01*
X1498228Y1380399D01*
X1498298Y1380489D01*
X1498371Y1380575D01*
X1498447Y1380660D01*
X1498526Y1380742D01*
X1498608Y1380821D01*
X1498693Y1380897D01*
X1498779Y1380970D01*
X1498869Y1381040D01*
X1498961Y1381108D01*
X1499055Y1381171D01*
X1499151Y1381232D01*
X1499249Y1381290D01*
X1499349Y1381344D01*
X1499451Y1381394D01*
X1499554Y1381441D01*
X1499659Y1381485D01*
X1499766Y1381525D01*
X1499874Y1381561D01*
X1499983Y1381594D01*
X1500093Y1381622D01*
X1500203Y1381647D01*
X1500315Y1381669D01*
X1500428Y1381686D01*
X1500540Y1381700D01*
X1500654Y1381709D01*
X1500767Y1381715D01*
X1500881Y1381717D01*
X1500995Y1381715D01*
X1501108Y1381709D01*
X1501222Y1381700D01*
X1501334Y1381686D01*
X1501447Y1381669D01*
X1501559Y1381647D01*
X1501669Y1381622D01*
X1501779Y1381594D01*
X1501888Y1381561D01*
X1501996Y1381525D01*
X1502103Y1381485D01*
X1502208Y1381441D01*
X1502311Y1381394D01*
X1502413Y1381344D01*
X1502513Y1381290D01*
X1502611Y1381232D01*
X1502707Y1381171D01*
X1502801Y1381108D01*
X1502893Y1381040D01*
X1502983Y1380970D01*
X1503069Y1380897D01*
X1503154Y1380821D01*
X1503236Y1380742D01*
X1503315Y1380660D01*
X1503391Y1380575D01*
X1503464Y1380489D01*
X1503534Y1380399D01*
X1503602Y1380307D01*
X1503665Y1380213D01*
X1503726Y1380117D01*
X1503784Y1380019D01*
X1503838Y1379919D01*
X1503888Y1379817D01*
X1503935Y1379714D01*
X1503979Y1379609D01*
X1504019Y1379502D01*
X1504055Y1379394D01*
X1504088Y1379285D01*
X1504116Y1379175D01*
X1504141Y1379065D01*
X1504163Y1378953D01*
X1504180Y1378840D01*
X1504194Y1378728D01*
X1504203Y1378614D01*
X1504209Y1378501D01*
X1504211Y1378387D01*
X1504211Y1376722D01*
X1497550Y1376722D01*
D11*
X1643380Y1356360D02*
X1643380Y-68580D01*
D12*
X1602999Y1371727D02*
X1599669Y1381718D01*
X1606330Y1381718D02*
X1602999Y1371727D01*
X1613114Y1377555D02*
X1623105Y1377555D01*
X1631659Y1377555D02*
X1635822Y1375890D01*
X1631659Y1377554D02*
X1631574Y1377590D01*
X1631491Y1377630D01*
X1631410Y1377673D01*
X1631330Y1377720D01*
X1631253Y1377770D01*
X1631177Y1377823D01*
X1631104Y1377879D01*
X1631034Y1377939D01*
X1630966Y1378001D01*
X1630901Y1378066D01*
X1630839Y1378134D01*
X1630779Y1378205D01*
X1630723Y1378278D01*
X1630670Y1378353D01*
X1630620Y1378431D01*
X1630574Y1378510D01*
X1630531Y1378592D01*
X1630491Y1378675D01*
X1630455Y1378760D01*
X1630423Y1378846D01*
X1630394Y1378934D01*
X1630370Y1379023D01*
X1630349Y1379113D01*
X1630332Y1379203D01*
X1630318Y1379294D01*
X1630309Y1379386D01*
X1630304Y1379478D01*
X1630302Y1379570D01*
X1630304Y1379662D01*
X1630311Y1379754D01*
X1630321Y1379846D01*
X1630335Y1379937D01*
X1630353Y1380028D01*
X1630375Y1380117D01*
X1630401Y1380206D01*
X1630431Y1380293D01*
X1630464Y1380379D01*
X1630501Y1380463D01*
X1630541Y1380546D01*
X1630585Y1380627D01*
X1630632Y1380706D01*
X1630683Y1380783D01*
X1630737Y1380858D01*
X1630794Y1380931D01*
X1630854Y1381001D01*
X1630917Y1381068D01*
X1630983Y1381132D01*
X1631051Y1381194D01*
X1631122Y1381253D01*
X1631196Y1381308D01*
X1631272Y1381361D01*
X1631350Y1381410D01*
X1631430Y1381456D01*
X1631511Y1381498D01*
X1631595Y1381537D01*
X1631680Y1381572D01*
X1631767Y1381603D01*
X1631855Y1381631D01*
X1631944Y1381655D01*
X1632034Y1381675D01*
X1632124Y1381692D01*
X1632216Y1381704D01*
X1632308Y1381713D01*
X1632400Y1381717D01*
X1632492Y1381718D01*
X1632719Y1381712D01*
X1632946Y1381701D01*
X1633173Y1381684D01*
X1633399Y1381661D01*
X1633625Y1381634D01*
X1633850Y1381600D01*
X1634074Y1381562D01*
X1634297Y1381518D01*
X1634519Y1381469D01*
X1634740Y1381414D01*
X1634959Y1381354D01*
X1635177Y1381289D01*
X1635393Y1381218D01*
X1635607Y1381143D01*
X1635820Y1381062D01*
X1636030Y1380976D01*
X1636239Y1380885D01*
X1635822Y1375890D02*
X1635907Y1375854D01*
X1635990Y1375814D01*
X1636071Y1375771D01*
X1636151Y1375724D01*
X1636228Y1375674D01*
X1636304Y1375621D01*
X1636377Y1375565D01*
X1636447Y1375505D01*
X1636515Y1375443D01*
X1636580Y1375378D01*
X1636642Y1375310D01*
X1636702Y1375239D01*
X1636758Y1375166D01*
X1636811Y1375091D01*
X1636861Y1375013D01*
X1636907Y1374934D01*
X1636950Y1374852D01*
X1636990Y1374769D01*
X1637026Y1374684D01*
X1637058Y1374598D01*
X1637087Y1374510D01*
X1637111Y1374421D01*
X1637132Y1374331D01*
X1637149Y1374241D01*
X1637163Y1374150D01*
X1637172Y1374058D01*
X1637177Y1373966D01*
X1637179Y1373874D01*
X1637177Y1373782D01*
X1637170Y1373690D01*
X1637160Y1373598D01*
X1637146Y1373507D01*
X1637128Y1373416D01*
X1637106Y1373327D01*
X1637080Y1373238D01*
X1637050Y1373151D01*
X1637017Y1373065D01*
X1636980Y1372981D01*
X1636940Y1372898D01*
X1636896Y1372817D01*
X1636849Y1372738D01*
X1636798Y1372661D01*
X1636744Y1372586D01*
X1636687Y1372513D01*
X1636627Y1372443D01*
X1636564Y1372376D01*
X1636498Y1372312D01*
X1636430Y1372250D01*
X1636359Y1372191D01*
X1636285Y1372136D01*
X1636209Y1372083D01*
X1636131Y1372034D01*
X1636051Y1371988D01*
X1635970Y1371946D01*
X1635886Y1371907D01*
X1635801Y1371872D01*
X1635714Y1371841D01*
X1635626Y1371813D01*
X1635537Y1371789D01*
X1635447Y1371769D01*
X1635357Y1371752D01*
X1635265Y1371740D01*
X1635173Y1371731D01*
X1635081Y1371727D01*
X1634989Y1371726D01*
X1634989Y1371727D02*
X1634655Y1371736D01*
X1634322Y1371753D01*
X1633989Y1371777D01*
X1633656Y1371810D01*
X1633325Y1371850D01*
X1632994Y1371898D01*
X1632665Y1371954D01*
X1632337Y1372017D01*
X1632011Y1372089D01*
X1631687Y1372168D01*
X1631364Y1372254D01*
X1631044Y1372349D01*
X1630726Y1372451D01*
X1630410Y1372560D01*
X1646482Y1371727D02*
X1649812Y1371727D01*
X1646482Y1371727D02*
X1646384Y1371729D01*
X1646286Y1371735D01*
X1646188Y1371744D01*
X1646091Y1371758D01*
X1645995Y1371775D01*
X1645899Y1371796D01*
X1645804Y1371821D01*
X1645710Y1371849D01*
X1645617Y1371881D01*
X1645526Y1371917D01*
X1645436Y1371956D01*
X1645348Y1371999D01*
X1645261Y1372046D01*
X1645177Y1372095D01*
X1645094Y1372148D01*
X1645014Y1372204D01*
X1644936Y1372263D01*
X1644860Y1372326D01*
X1644786Y1372391D01*
X1644716Y1372459D01*
X1644648Y1372529D01*
X1644583Y1372603D01*
X1644520Y1372679D01*
X1644461Y1372757D01*
X1644405Y1372837D01*
X1644352Y1372920D01*
X1644303Y1373004D01*
X1644256Y1373091D01*
X1644213Y1373179D01*
X1644174Y1373269D01*
X1644138Y1373360D01*
X1644106Y1373453D01*
X1644078Y1373547D01*
X1644053Y1373642D01*
X1644032Y1373738D01*
X1644015Y1373834D01*
X1644001Y1373931D01*
X1643992Y1374029D01*
X1643986Y1374127D01*
X1643984Y1374225D01*
X1643984Y1379220D01*
X1643986Y1379318D01*
X1643992Y1379416D01*
X1644001Y1379514D01*
X1644015Y1379611D01*
X1644032Y1379707D01*
X1644053Y1379803D01*
X1644078Y1379898D01*
X1644106Y1379992D01*
X1644138Y1380085D01*
X1644174Y1380176D01*
X1644213Y1380266D01*
X1644256Y1380354D01*
X1644303Y1380441D01*
X1644352Y1380525D01*
X1644405Y1380608D01*
X1644461Y1380688D01*
X1644520Y1380767D01*
X1644583Y1380842D01*
X1644648Y1380916D01*
X1644716Y1380986D01*
X1644786Y1381054D01*
X1644860Y1381120D01*
X1644936Y1381182D01*
X1645014Y1381241D01*
X1645094Y1381297D01*
X1645177Y1381350D01*
X1645261Y1381400D01*
X1645348Y1381446D01*
X1645436Y1381489D01*
X1645526Y1381528D01*
X1645617Y1381564D01*
X1645710Y1381596D01*
X1645804Y1381624D01*
X1645899Y1381649D01*
X1645995Y1381670D01*
X1646091Y1381687D01*
X1646188Y1381701D01*
X1646286Y1381710D01*
X1646384Y1381716D01*
X1646482Y1381718D01*
X1649812Y1381718D01*
X1655942Y1378387D02*
X1655942Y1375057D01*
X1655942Y1378387D02*
X1655944Y1378501D01*
X1655950Y1378614D01*
X1655959Y1378728D01*
X1655973Y1378840D01*
X1655990Y1378953D01*
X1656012Y1379065D01*
X1656037Y1379175D01*
X1656065Y1379285D01*
X1656098Y1379394D01*
X1656134Y1379502D01*
X1656174Y1379609D01*
X1656218Y1379714D01*
X1656265Y1379817D01*
X1656315Y1379919D01*
X1656369Y1380019D01*
X1656427Y1380117D01*
X1656488Y1380213D01*
X1656551Y1380307D01*
X1656619Y1380399D01*
X1656689Y1380489D01*
X1656762Y1380575D01*
X1656838Y1380660D01*
X1656917Y1380742D01*
X1656999Y1380821D01*
X1657084Y1380897D01*
X1657170Y1380970D01*
X1657260Y1381040D01*
X1657352Y1381108D01*
X1657446Y1381171D01*
X1657542Y1381232D01*
X1657640Y1381290D01*
X1657740Y1381344D01*
X1657842Y1381394D01*
X1657945Y1381441D01*
X1658050Y1381485D01*
X1658157Y1381525D01*
X1658265Y1381561D01*
X1658374Y1381594D01*
X1658484Y1381622D01*
X1658594Y1381647D01*
X1658706Y1381669D01*
X1658819Y1381686D01*
X1658931Y1381700D01*
X1659045Y1381709D01*
X1659158Y1381715D01*
X1659272Y1381717D01*
X1659386Y1381715D01*
X1659499Y1381709D01*
X1659613Y1381700D01*
X1659725Y1381686D01*
X1659838Y1381669D01*
X1659950Y1381647D01*
X1660060Y1381622D01*
X1660170Y1381594D01*
X1660279Y1381561D01*
X1660387Y1381525D01*
X1660494Y1381485D01*
X1660599Y1381441D01*
X1660702Y1381394D01*
X1660804Y1381344D01*
X1660904Y1381290D01*
X1661002Y1381232D01*
X1661098Y1381171D01*
X1661192Y1381108D01*
X1661284Y1381040D01*
X1661374Y1380970D01*
X1661460Y1380897D01*
X1661545Y1380821D01*
X1661627Y1380742D01*
X1661706Y1380660D01*
X1661782Y1380575D01*
X1661855Y1380489D01*
X1661925Y1380399D01*
X1661993Y1380307D01*
X1662056Y1380213D01*
X1662117Y1380117D01*
X1662175Y1380019D01*
X1662229Y1379919D01*
X1662279Y1379817D01*
X1662326Y1379714D01*
X1662370Y1379609D01*
X1662410Y1379502D01*
X1662446Y1379394D01*
X1662479Y1379285D01*
X1662507Y1379175D01*
X1662532Y1379065D01*
X1662554Y1378953D01*
X1662571Y1378840D01*
X1662585Y1378728D01*
X1662594Y1378614D01*
X1662600Y1378501D01*
X1662602Y1378387D01*
X1662602Y1375057D01*
X1662600Y1374943D01*
X1662594Y1374830D01*
X1662585Y1374716D01*
X1662571Y1374604D01*
X1662554Y1374491D01*
X1662532Y1374379D01*
X1662507Y1374269D01*
X1662479Y1374159D01*
X1662446Y1374050D01*
X1662410Y1373942D01*
X1662370Y1373835D01*
X1662326Y1373730D01*
X1662279Y1373627D01*
X1662229Y1373525D01*
X1662175Y1373425D01*
X1662117Y1373327D01*
X1662056Y1373231D01*
X1661993Y1373137D01*
X1661925Y1373045D01*
X1661855Y1372955D01*
X1661782Y1372869D01*
X1661706Y1372784D01*
X1661627Y1372702D01*
X1661545Y1372623D01*
X1661460Y1372547D01*
X1661374Y1372474D01*
X1661284Y1372404D01*
X1661192Y1372336D01*
X1661098Y1372273D01*
X1661002Y1372212D01*
X1660904Y1372154D01*
X1660804Y1372100D01*
X1660702Y1372050D01*
X1660599Y1372003D01*
X1660494Y1371959D01*
X1660387Y1371919D01*
X1660279Y1371883D01*
X1660170Y1371850D01*
X1660060Y1371822D01*
X1659950Y1371797D01*
X1659838Y1371775D01*
X1659725Y1371758D01*
X1659613Y1371744D01*
X1659499Y1371735D01*
X1659386Y1371729D01*
X1659272Y1371727D01*
X1659158Y1371729D01*
X1659045Y1371735D01*
X1658931Y1371744D01*
X1658819Y1371758D01*
X1658706Y1371775D01*
X1658594Y1371797D01*
X1658484Y1371822D01*
X1658374Y1371850D01*
X1658265Y1371883D01*
X1658157Y1371919D01*
X1658050Y1371959D01*
X1657945Y1372003D01*
X1657842Y1372050D01*
X1657740Y1372100D01*
X1657640Y1372154D01*
X1657542Y1372212D01*
X1657446Y1372273D01*
X1657352Y1372336D01*
X1657260Y1372404D01*
X1657170Y1372474D01*
X1657084Y1372547D01*
X1656999Y1372623D01*
X1656917Y1372702D01*
X1656838Y1372784D01*
X1656762Y1372869D01*
X1656689Y1372955D01*
X1656619Y1373045D01*
X1656551Y1373137D01*
X1656488Y1373231D01*
X1656427Y1373327D01*
X1656369Y1373425D01*
X1656315Y1373525D01*
X1656265Y1373627D01*
X1656218Y1373730D01*
X1656174Y1373835D01*
X1656134Y1373942D01*
X1656098Y1374050D01*
X1656065Y1374159D01*
X1656037Y1374269D01*
X1656012Y1374379D01*
X1655990Y1374491D01*
X1655973Y1374604D01*
X1655959Y1374716D01*
X1655950Y1374830D01*
X1655944Y1374943D01*
X1655942Y1375057D01*
X1670138Y1371727D02*
X1670138Y1381718D01*
X1675133Y1381718D01*
X1675133Y1380053D01*
X1682928Y1371727D02*
X1687091Y1371727D01*
X1682928Y1371727D02*
X1682830Y1371729D01*
X1682732Y1371735D01*
X1682634Y1371744D01*
X1682537Y1371758D01*
X1682441Y1371775D01*
X1682345Y1371796D01*
X1682250Y1371821D01*
X1682156Y1371849D01*
X1682063Y1371881D01*
X1681972Y1371917D01*
X1681882Y1371956D01*
X1681794Y1371999D01*
X1681707Y1372046D01*
X1681623Y1372095D01*
X1681540Y1372148D01*
X1681460Y1372204D01*
X1681382Y1372263D01*
X1681306Y1372326D01*
X1681232Y1372391D01*
X1681162Y1372459D01*
X1681094Y1372529D01*
X1681029Y1372603D01*
X1680966Y1372679D01*
X1680907Y1372757D01*
X1680851Y1372837D01*
X1680798Y1372920D01*
X1680749Y1373004D01*
X1680702Y1373091D01*
X1680659Y1373179D01*
X1680620Y1373269D01*
X1680584Y1373360D01*
X1680552Y1373453D01*
X1680524Y1373547D01*
X1680499Y1373642D01*
X1680478Y1373738D01*
X1680461Y1373834D01*
X1680447Y1373931D01*
X1680438Y1374029D01*
X1680432Y1374127D01*
X1680430Y1374225D01*
X1680430Y1378387D01*
X1680431Y1378387D02*
X1680433Y1378501D01*
X1680439Y1378614D01*
X1680448Y1378728D01*
X1680462Y1378840D01*
X1680479Y1378953D01*
X1680501Y1379065D01*
X1680526Y1379175D01*
X1680554Y1379285D01*
X1680587Y1379394D01*
X1680623Y1379502D01*
X1680663Y1379609D01*
X1680707Y1379714D01*
X1680754Y1379817D01*
X1680804Y1379919D01*
X1680858Y1380019D01*
X1680916Y1380117D01*
X1680977Y1380213D01*
X1681040Y1380307D01*
X1681108Y1380399D01*
X1681178Y1380489D01*
X1681251Y1380575D01*
X1681327Y1380660D01*
X1681406Y1380742D01*
X1681488Y1380821D01*
X1681573Y1380897D01*
X1681659Y1380970D01*
X1681749Y1381040D01*
X1681841Y1381108D01*
X1681935Y1381171D01*
X1682031Y1381232D01*
X1682129Y1381290D01*
X1682229Y1381344D01*
X1682331Y1381394D01*
X1682434Y1381441D01*
X1682539Y1381485D01*
X1682646Y1381525D01*
X1682754Y1381561D01*
X1682863Y1381594D01*
X1682973Y1381622D01*
X1683083Y1381647D01*
X1683195Y1381669D01*
X1683308Y1381686D01*
X1683420Y1381700D01*
X1683534Y1381709D01*
X1683647Y1381715D01*
X1683761Y1381717D01*
X1683875Y1381715D01*
X1683988Y1381709D01*
X1684102Y1381700D01*
X1684214Y1381686D01*
X1684327Y1381669D01*
X1684439Y1381647D01*
X1684549Y1381622D01*
X1684659Y1381594D01*
X1684768Y1381561D01*
X1684876Y1381525D01*
X1684983Y1381485D01*
X1685088Y1381441D01*
X1685191Y1381394D01*
X1685293Y1381344D01*
X1685393Y1381290D01*
X1685491Y1381232D01*
X1685587Y1381171D01*
X1685681Y1381108D01*
X1685773Y1381040D01*
X1685863Y1380970D01*
X1685949Y1380897D01*
X1686034Y1380821D01*
X1686116Y1380742D01*
X1686195Y1380660D01*
X1686271Y1380575D01*
X1686344Y1380489D01*
X1686414Y1380399D01*
X1686482Y1380307D01*
X1686545Y1380213D01*
X1686606Y1380117D01*
X1686664Y1380019D01*
X1686718Y1379919D01*
X1686768Y1379817D01*
X1686815Y1379714D01*
X1686859Y1379609D01*
X1686899Y1379502D01*
X1686935Y1379394D01*
X1686968Y1379285D01*
X1686996Y1379175D01*
X1687021Y1379065D01*
X1687043Y1378953D01*
X1687060Y1378840D01*
X1687074Y1378728D01*
X1687083Y1378614D01*
X1687089Y1378501D01*
X1687091Y1378387D01*
X1687091Y1376722D01*
X1680430Y1376722D01*
D11*
X1772920Y-2540D02*
X-68580Y-2540D01*
D12*
X1805409Y-42D02*
X1808739Y-10033D01*
X1812070Y-42D01*
X1818854Y-4205D02*
X1828845Y-4205D01*
X1837399Y-4205D02*
X1841562Y-5870D01*
X1837399Y-4206D02*
X1837314Y-4170D01*
X1837231Y-4130D01*
X1837150Y-4087D01*
X1837070Y-4040D01*
X1836993Y-3990D01*
X1836917Y-3937D01*
X1836844Y-3881D01*
X1836774Y-3821D01*
X1836706Y-3759D01*
X1836641Y-3694D01*
X1836579Y-3626D01*
X1836519Y-3555D01*
X1836463Y-3482D01*
X1836410Y-3407D01*
X1836360Y-3329D01*
X1836314Y-3250D01*
X1836271Y-3168D01*
X1836231Y-3085D01*
X1836195Y-3000D01*
X1836163Y-2914D01*
X1836134Y-2826D01*
X1836110Y-2737D01*
X1836089Y-2647D01*
X1836072Y-2557D01*
X1836058Y-2466D01*
X1836049Y-2374D01*
X1836044Y-2282D01*
X1836042Y-2190D01*
X1836044Y-2098D01*
X1836051Y-2006D01*
X1836061Y-1914D01*
X1836075Y-1823D01*
X1836093Y-1732D01*
X1836115Y-1643D01*
X1836141Y-1554D01*
X1836171Y-1467D01*
X1836204Y-1381D01*
X1836241Y-1297D01*
X1836281Y-1214D01*
X1836325Y-1133D01*
X1836372Y-1054D01*
X1836423Y-977D01*
X1836477Y-902D01*
X1836534Y-829D01*
X1836594Y-759D01*
X1836657Y-692D01*
X1836723Y-628D01*
X1836791Y-566D01*
X1836862Y-507D01*
X1836936Y-452D01*
X1837012Y-399D01*
X1837090Y-350D01*
X1837170Y-304D01*
X1837251Y-262D01*
X1837335Y-223D01*
X1837420Y-188D01*
X1837507Y-157D01*
X1837595Y-129D01*
X1837684Y-105D01*
X1837774Y-85D01*
X1837864Y-68D01*
X1837956Y-56D01*
X1838048Y-47D01*
X1838140Y-43D01*
X1838232Y-42D01*
X1838459Y-48D01*
X1838686Y-59D01*
X1838913Y-76D01*
X1839139Y-99D01*
X1839365Y-126D01*
X1839590Y-160D01*
X1839814Y-198D01*
X1840037Y-242D01*
X1840259Y-291D01*
X1840480Y-346D01*
X1840699Y-406D01*
X1840917Y-471D01*
X1841133Y-542D01*
X1841347Y-617D01*
X1841560Y-698D01*
X1841770Y-784D01*
X1841979Y-875D01*
X1841562Y-5870D02*
X1841647Y-5906D01*
X1841730Y-5946D01*
X1841811Y-5989D01*
X1841891Y-6036D01*
X1841968Y-6086D01*
X1842044Y-6139D01*
X1842117Y-6195D01*
X1842187Y-6255D01*
X1842255Y-6317D01*
X1842320Y-6382D01*
X1842382Y-6450D01*
X1842442Y-6521D01*
X1842498Y-6594D01*
X1842551Y-6669D01*
X1842601Y-6747D01*
X1842647Y-6826D01*
X1842690Y-6908D01*
X1842730Y-6991D01*
X1842766Y-7076D01*
X1842798Y-7162D01*
X1842827Y-7250D01*
X1842851Y-7339D01*
X1842872Y-7429D01*
X1842889Y-7519D01*
X1842903Y-7610D01*
X1842912Y-7702D01*
X1842917Y-7794D01*
X1842919Y-7886D01*
X1842917Y-7978D01*
X1842910Y-8070D01*
X1842900Y-8162D01*
X1842886Y-8253D01*
X1842868Y-8344D01*
X1842846Y-8433D01*
X1842820Y-8522D01*
X1842790Y-8609D01*
X1842757Y-8695D01*
X1842720Y-8779D01*
X1842680Y-8862D01*
X1842636Y-8943D01*
X1842589Y-9022D01*
X1842538Y-9099D01*
X1842484Y-9174D01*
X1842427Y-9247D01*
X1842367Y-9317D01*
X1842304Y-9384D01*
X1842238Y-9448D01*
X1842170Y-9510D01*
X1842099Y-9569D01*
X1842025Y-9624D01*
X1841949Y-9677D01*
X1841871Y-9726D01*
X1841791Y-9772D01*
X1841710Y-9814D01*
X1841626Y-9853D01*
X1841541Y-9888D01*
X1841454Y-9919D01*
X1841366Y-9947D01*
X1841277Y-9971D01*
X1841187Y-9991D01*
X1841097Y-10008D01*
X1841005Y-10020D01*
X1840913Y-10029D01*
X1840821Y-10033D01*
X1840729Y-10034D01*
X1840729Y-10033D02*
X1840395Y-10024D01*
X1840062Y-10007D01*
X1839729Y-9983D01*
X1839396Y-9950D01*
X1839065Y-9910D01*
X1838734Y-9862D01*
X1838405Y-9806D01*
X1838077Y-9743D01*
X1837751Y-9671D01*
X1837427Y-9592D01*
X1837104Y-9506D01*
X1836784Y-9411D01*
X1836466Y-9309D01*
X1836150Y-9200D01*
X1852222Y-10033D02*
X1855552Y-10033D01*
X1852222Y-10033D02*
X1852124Y-10031D01*
X1852026Y-10025D01*
X1851928Y-10016D01*
X1851831Y-10002D01*
X1851735Y-9985D01*
X1851639Y-9964D01*
X1851544Y-9939D01*
X1851450Y-9911D01*
X1851357Y-9879D01*
X1851266Y-9843D01*
X1851176Y-9804D01*
X1851088Y-9761D01*
X1851001Y-9714D01*
X1850917Y-9665D01*
X1850834Y-9612D01*
X1850754Y-9556D01*
X1850676Y-9497D01*
X1850600Y-9435D01*
X1850526Y-9369D01*
X1850456Y-9301D01*
X1850388Y-9231D01*
X1850323Y-9157D01*
X1850260Y-9082D01*
X1850201Y-9003D01*
X1850145Y-8923D01*
X1850092Y-8840D01*
X1850043Y-8756D01*
X1849996Y-8669D01*
X1849953Y-8581D01*
X1849914Y-8491D01*
X1849878Y-8400D01*
X1849846Y-8307D01*
X1849818Y-8213D01*
X1849793Y-8118D01*
X1849772Y-8022D01*
X1849755Y-7926D01*
X1849741Y-7829D01*
X1849732Y-7731D01*
X1849726Y-7633D01*
X1849724Y-7535D01*
X1849724Y-2540D01*
X1849726Y-2442D01*
X1849732Y-2344D01*
X1849741Y-2246D01*
X1849755Y-2149D01*
X1849772Y-2053D01*
X1849793Y-1957D01*
X1849818Y-1862D01*
X1849846Y-1768D01*
X1849878Y-1675D01*
X1849914Y-1584D01*
X1849953Y-1494D01*
X1849996Y-1406D01*
X1850043Y-1319D01*
X1850092Y-1235D01*
X1850145Y-1152D01*
X1850201Y-1072D01*
X1850260Y-994D01*
X1850323Y-918D01*
X1850388Y-844D01*
X1850456Y-774D01*
X1850526Y-706D01*
X1850600Y-641D01*
X1850676Y-578D01*
X1850754Y-519D01*
X1850834Y-463D01*
X1850917Y-410D01*
X1851001Y-361D01*
X1851088Y-314D01*
X1851176Y-271D01*
X1851266Y-232D01*
X1851357Y-196D01*
X1851450Y-164D01*
X1851544Y-136D01*
X1851639Y-111D01*
X1851735Y-90D01*
X1851831Y-73D01*
X1851928Y-59D01*
X1852026Y-50D01*
X1852124Y-44D01*
X1852222Y-42D01*
X1855552Y-42D01*
X1861682Y-3373D02*
X1861682Y-6703D01*
X1861682Y-3373D02*
X1861684Y-3259D01*
X1861690Y-3146D01*
X1861699Y-3032D01*
X1861713Y-2920D01*
X1861730Y-2807D01*
X1861752Y-2695D01*
X1861777Y-2585D01*
X1861805Y-2475D01*
X1861838Y-2366D01*
X1861874Y-2258D01*
X1861914Y-2151D01*
X1861958Y-2046D01*
X1862005Y-1943D01*
X1862055Y-1841D01*
X1862109Y-1741D01*
X1862167Y-1643D01*
X1862228Y-1547D01*
X1862291Y-1453D01*
X1862359Y-1361D01*
X1862429Y-1271D01*
X1862502Y-1185D01*
X1862578Y-1100D01*
X1862657Y-1018D01*
X1862739Y-939D01*
X1862824Y-863D01*
X1862910Y-790D01*
X1863000Y-720D01*
X1863092Y-652D01*
X1863186Y-589D01*
X1863282Y-528D01*
X1863380Y-470D01*
X1863480Y-416D01*
X1863582Y-366D01*
X1863685Y-319D01*
X1863790Y-275D01*
X1863897Y-235D01*
X1864005Y-199D01*
X1864114Y-166D01*
X1864224Y-138D01*
X1864334Y-113D01*
X1864446Y-91D01*
X1864559Y-74D01*
X1864671Y-60D01*
X1864785Y-51D01*
X1864898Y-45D01*
X1865012Y-43D01*
X1865126Y-45D01*
X1865239Y-51D01*
X1865353Y-60D01*
X1865465Y-74D01*
X1865578Y-91D01*
X1865690Y-113D01*
X1865800Y-138D01*
X1865910Y-166D01*
X1866019Y-199D01*
X1866127Y-235D01*
X1866234Y-275D01*
X1866339Y-319D01*
X1866442Y-366D01*
X1866544Y-416D01*
X1866644Y-470D01*
X1866742Y-528D01*
X1866838Y-589D01*
X1866932Y-652D01*
X1867024Y-720D01*
X1867114Y-790D01*
X1867200Y-863D01*
X1867285Y-939D01*
X1867367Y-1018D01*
X1867446Y-1100D01*
X1867522Y-1185D01*
X1867595Y-1271D01*
X1867665Y-1361D01*
X1867733Y-1453D01*
X1867796Y-1547D01*
X1867857Y-1643D01*
X1867915Y-1741D01*
X1867969Y-1841D01*
X1868019Y-1943D01*
X1868066Y-2046D01*
X1868110Y-2151D01*
X1868150Y-2258D01*
X1868186Y-2366D01*
X1868219Y-2475D01*
X1868247Y-2585D01*
X1868272Y-2695D01*
X1868294Y-2807D01*
X1868311Y-2920D01*
X1868325Y-3032D01*
X1868334Y-3146D01*
X1868340Y-3259D01*
X1868342Y-3373D01*
X1868342Y-6703D01*
X1868340Y-6817D01*
X1868334Y-6930D01*
X1868325Y-7044D01*
X1868311Y-7156D01*
X1868294Y-7269D01*
X1868272Y-7381D01*
X1868247Y-7491D01*
X1868219Y-7601D01*
X1868186Y-7710D01*
X1868150Y-7818D01*
X1868110Y-7925D01*
X1868066Y-8030D01*
X1868019Y-8133D01*
X1867969Y-8235D01*
X1867915Y-8335D01*
X1867857Y-8433D01*
X1867796Y-8529D01*
X1867733Y-8623D01*
X1867665Y-8715D01*
X1867595Y-8805D01*
X1867522Y-8891D01*
X1867446Y-8976D01*
X1867367Y-9058D01*
X1867285Y-9137D01*
X1867200Y-9213D01*
X1867114Y-9286D01*
X1867024Y-9356D01*
X1866932Y-9424D01*
X1866838Y-9487D01*
X1866742Y-9548D01*
X1866644Y-9606D01*
X1866544Y-9660D01*
X1866442Y-9710D01*
X1866339Y-9757D01*
X1866234Y-9801D01*
X1866127Y-9841D01*
X1866019Y-9877D01*
X1865910Y-9910D01*
X1865800Y-9938D01*
X1865690Y-9963D01*
X1865578Y-9985D01*
X1865465Y-10002D01*
X1865353Y-10016D01*
X1865239Y-10025D01*
X1865126Y-10031D01*
X1865012Y-10033D01*
X1864898Y-10031D01*
X1864785Y-10025D01*
X1864671Y-10016D01*
X1864559Y-10002D01*
X1864446Y-9985D01*
X1864334Y-9963D01*
X1864224Y-9938D01*
X1864114Y-9910D01*
X1864005Y-9877D01*
X1863897Y-9841D01*
X1863790Y-9801D01*
X1863685Y-9757D01*
X1863582Y-9710D01*
X1863480Y-9660D01*
X1863380Y-9606D01*
X1863282Y-9548D01*
X1863186Y-9487D01*
X1863092Y-9424D01*
X1863000Y-9356D01*
X1862910Y-9286D01*
X1862824Y-9213D01*
X1862739Y-9137D01*
X1862657Y-9058D01*
X1862578Y-8976D01*
X1862502Y-8891D01*
X1862429Y-8805D01*
X1862359Y-8715D01*
X1862291Y-8623D01*
X1862228Y-8529D01*
X1862167Y-8433D01*
X1862109Y-8335D01*
X1862055Y-8235D01*
X1862005Y-8133D01*
X1861958Y-8030D01*
X1861914Y-7925D01*
X1861874Y-7818D01*
X1861838Y-7710D01*
X1861805Y-7601D01*
X1861777Y-7491D01*
X1861752Y-7381D01*
X1861730Y-7269D01*
X1861713Y-7156D01*
X1861699Y-7044D01*
X1861690Y-6930D01*
X1861684Y-6817D01*
X1861682Y-6703D01*
X1875878Y-10033D02*
X1875878Y-42D01*
X1880873Y-42D01*
X1880873Y-1707D01*
X1888668Y-10033D02*
X1892831Y-10033D01*
X1888668Y-10033D02*
X1888570Y-10031D01*
X1888472Y-10025D01*
X1888374Y-10016D01*
X1888277Y-10002D01*
X1888181Y-9985D01*
X1888085Y-9964D01*
X1887990Y-9939D01*
X1887896Y-9911D01*
X1887803Y-9879D01*
X1887712Y-9843D01*
X1887622Y-9804D01*
X1887534Y-9761D01*
X1887447Y-9714D01*
X1887363Y-9665D01*
X1887280Y-9612D01*
X1887200Y-9556D01*
X1887122Y-9497D01*
X1887046Y-9435D01*
X1886972Y-9369D01*
X1886902Y-9301D01*
X1886834Y-9231D01*
X1886769Y-9157D01*
X1886706Y-9082D01*
X1886647Y-9003D01*
X1886591Y-8923D01*
X1886538Y-8840D01*
X1886489Y-8756D01*
X1886442Y-8669D01*
X1886399Y-8581D01*
X1886360Y-8491D01*
X1886324Y-8400D01*
X1886292Y-8307D01*
X1886264Y-8213D01*
X1886239Y-8118D01*
X1886218Y-8022D01*
X1886201Y-7926D01*
X1886187Y-7829D01*
X1886178Y-7731D01*
X1886172Y-7633D01*
X1886170Y-7535D01*
X1886170Y-3373D01*
X1886171Y-3373D02*
X1886173Y-3259D01*
X1886179Y-3146D01*
X1886188Y-3032D01*
X1886202Y-2920D01*
X1886219Y-2807D01*
X1886241Y-2695D01*
X1886266Y-2585D01*
X1886294Y-2475D01*
X1886327Y-2366D01*
X1886363Y-2258D01*
X1886403Y-2151D01*
X1886447Y-2046D01*
X1886494Y-1943D01*
X1886544Y-1841D01*
X1886598Y-1741D01*
X1886656Y-1643D01*
X1886717Y-1547D01*
X1886780Y-1453D01*
X1886848Y-1361D01*
X1886918Y-1271D01*
X1886991Y-1185D01*
X1887067Y-1100D01*
X1887146Y-1018D01*
X1887228Y-939D01*
X1887313Y-863D01*
X1887399Y-790D01*
X1887489Y-720D01*
X1887581Y-652D01*
X1887675Y-589D01*
X1887771Y-528D01*
X1887869Y-470D01*
X1887969Y-416D01*
X1888071Y-366D01*
X1888174Y-319D01*
X1888279Y-275D01*
X1888386Y-235D01*
X1888494Y-199D01*
X1888603Y-166D01*
X1888713Y-138D01*
X1888823Y-113D01*
X1888935Y-91D01*
X1889048Y-74D01*
X1889160Y-60D01*
X1889274Y-51D01*
X1889387Y-45D01*
X1889501Y-43D01*
X1889615Y-45D01*
X1889728Y-51D01*
X1889842Y-60D01*
X1889954Y-74D01*
X1890067Y-91D01*
X1890179Y-113D01*
X1890289Y-138D01*
X1890399Y-166D01*
X1890508Y-199D01*
X1890616Y-235D01*
X1890723Y-275D01*
X1890828Y-319D01*
X1890931Y-366D01*
X1891033Y-416D01*
X1891133Y-470D01*
X1891231Y-528D01*
X1891327Y-589D01*
X1891421Y-652D01*
X1891513Y-720D01*
X1891603Y-790D01*
X1891689Y-863D01*
X1891774Y-939D01*
X1891856Y-1018D01*
X1891935Y-1100D01*
X1892011Y-1185D01*
X1892084Y-1271D01*
X1892154Y-1361D01*
X1892222Y-1453D01*
X1892285Y-1547D01*
X1892346Y-1643D01*
X1892404Y-1741D01*
X1892458Y-1841D01*
X1892508Y-1943D01*
X1892555Y-2046D01*
X1892599Y-2151D01*
X1892639Y-2258D01*
X1892675Y-2366D01*
X1892708Y-2475D01*
X1892736Y-2585D01*
X1892761Y-2695D01*
X1892783Y-2807D01*
X1892800Y-2920D01*
X1892814Y-3032D01*
X1892823Y-3146D01*
X1892829Y-3259D01*
X1892831Y-3373D01*
X1892831Y-5038D01*
X1886170Y-5038D01*
D11*
X1772920Y612140D02*
X-68580Y612140D01*
D12*
X1805409Y614638D02*
X1808739Y604647D01*
X1812070Y614638D01*
X1818854Y610475D02*
X1828845Y610475D01*
X1837399Y610475D02*
X1841562Y608810D01*
X1837399Y610474D02*
X1837314Y610510D01*
X1837231Y610550D01*
X1837150Y610593D01*
X1837070Y610640D01*
X1836993Y610690D01*
X1836917Y610743D01*
X1836844Y610799D01*
X1836774Y610859D01*
X1836706Y610921D01*
X1836641Y610986D01*
X1836579Y611054D01*
X1836519Y611125D01*
X1836463Y611198D01*
X1836410Y611273D01*
X1836360Y611351D01*
X1836314Y611430D01*
X1836271Y611512D01*
X1836231Y611595D01*
X1836195Y611680D01*
X1836163Y611766D01*
X1836134Y611854D01*
X1836110Y611943D01*
X1836089Y612033D01*
X1836072Y612123D01*
X1836058Y612214D01*
X1836049Y612306D01*
X1836044Y612398D01*
X1836042Y612490D01*
X1836044Y612582D01*
X1836051Y612674D01*
X1836061Y612766D01*
X1836075Y612857D01*
X1836093Y612948D01*
X1836115Y613037D01*
X1836141Y613126D01*
X1836171Y613213D01*
X1836204Y613299D01*
X1836241Y613383D01*
X1836281Y613466D01*
X1836325Y613547D01*
X1836372Y613626D01*
X1836423Y613703D01*
X1836477Y613778D01*
X1836534Y613851D01*
X1836594Y613921D01*
X1836657Y613988D01*
X1836723Y614052D01*
X1836791Y614114D01*
X1836862Y614173D01*
X1836936Y614228D01*
X1837012Y614281D01*
X1837090Y614330D01*
X1837170Y614376D01*
X1837251Y614418D01*
X1837335Y614457D01*
X1837420Y614492D01*
X1837507Y614523D01*
X1837595Y614551D01*
X1837684Y614575D01*
X1837774Y614595D01*
X1837864Y614612D01*
X1837956Y614624D01*
X1838048Y614633D01*
X1838140Y614637D01*
X1838232Y614638D01*
X1838459Y614632D01*
X1838686Y614621D01*
X1838913Y614604D01*
X1839139Y614581D01*
X1839365Y614554D01*
X1839590Y614520D01*
X1839814Y614482D01*
X1840037Y614438D01*
X1840259Y614389D01*
X1840480Y614334D01*
X1840699Y614274D01*
X1840917Y614209D01*
X1841133Y614138D01*
X1841347Y614063D01*
X1841560Y613982D01*
X1841770Y613896D01*
X1841979Y613805D01*
X1841562Y608810D02*
X1841647Y608774D01*
X1841730Y608734D01*
X1841811Y608691D01*
X1841891Y608644D01*
X1841968Y608594D01*
X1842044Y608541D01*
X1842117Y608485D01*
X1842187Y608425D01*
X1842255Y608363D01*
X1842320Y608298D01*
X1842382Y608230D01*
X1842442Y608159D01*
X1842498Y608086D01*
X1842551Y608011D01*
X1842601Y607933D01*
X1842647Y607854D01*
X1842690Y607772D01*
X1842730Y607689D01*
X1842766Y607604D01*
X1842798Y607518D01*
X1842827Y607430D01*
X1842851Y607341D01*
X1842872Y607251D01*
X1842889Y607161D01*
X1842903Y607070D01*
X1842912Y606978D01*
X1842917Y606886D01*
X1842919Y606794D01*
X1842917Y606702D01*
X1842910Y606610D01*
X1842900Y606518D01*
X1842886Y606427D01*
X1842868Y606336D01*
X1842846Y606247D01*
X1842820Y606158D01*
X1842790Y606071D01*
X1842757Y605985D01*
X1842720Y605901D01*
X1842680Y605818D01*
X1842636Y605737D01*
X1842589Y605658D01*
X1842538Y605581D01*
X1842484Y605506D01*
X1842427Y605433D01*
X1842367Y605363D01*
X1842304Y605296D01*
X1842238Y605232D01*
X1842170Y605170D01*
X1842099Y605111D01*
X1842025Y605056D01*
X1841949Y605003D01*
X1841871Y604954D01*
X1841791Y604908D01*
X1841710Y604866D01*
X1841626Y604827D01*
X1841541Y604792D01*
X1841454Y604761D01*
X1841366Y604733D01*
X1841277Y604709D01*
X1841187Y604689D01*
X1841097Y604672D01*
X1841005Y604660D01*
X1840913Y604651D01*
X1840821Y604647D01*
X1840729Y604646D01*
X1840729Y604647D02*
X1840395Y604656D01*
X1840062Y604673D01*
X1839729Y604697D01*
X1839396Y604730D01*
X1839065Y604770D01*
X1838734Y604818D01*
X1838405Y604874D01*
X1838077Y604937D01*
X1837751Y605009D01*
X1837427Y605088D01*
X1837104Y605174D01*
X1836784Y605269D01*
X1836466Y605371D01*
X1836150Y605480D01*
X1852222Y604647D02*
X1855552Y604647D01*
X1852222Y604647D02*
X1852124Y604649D01*
X1852026Y604655D01*
X1851928Y604664D01*
X1851831Y604678D01*
X1851735Y604695D01*
X1851639Y604716D01*
X1851544Y604741D01*
X1851450Y604769D01*
X1851357Y604801D01*
X1851266Y604837D01*
X1851176Y604876D01*
X1851088Y604919D01*
X1851001Y604966D01*
X1850917Y605015D01*
X1850834Y605068D01*
X1850754Y605124D01*
X1850676Y605183D01*
X1850600Y605246D01*
X1850526Y605311D01*
X1850456Y605379D01*
X1850388Y605449D01*
X1850323Y605523D01*
X1850260Y605599D01*
X1850201Y605677D01*
X1850145Y605757D01*
X1850092Y605840D01*
X1850043Y605924D01*
X1849996Y606011D01*
X1849953Y606099D01*
X1849914Y606189D01*
X1849878Y606280D01*
X1849846Y606373D01*
X1849818Y606467D01*
X1849793Y606562D01*
X1849772Y606658D01*
X1849755Y606754D01*
X1849741Y606851D01*
X1849732Y606949D01*
X1849726Y607047D01*
X1849724Y607145D01*
X1849724Y612140D01*
X1849726Y612238D01*
X1849732Y612336D01*
X1849741Y612434D01*
X1849755Y612531D01*
X1849772Y612627D01*
X1849793Y612723D01*
X1849818Y612818D01*
X1849846Y612912D01*
X1849878Y613005D01*
X1849914Y613096D01*
X1849953Y613186D01*
X1849996Y613274D01*
X1850043Y613361D01*
X1850092Y613445D01*
X1850145Y613528D01*
X1850201Y613608D01*
X1850260Y613687D01*
X1850323Y613762D01*
X1850388Y613836D01*
X1850456Y613906D01*
X1850526Y613974D01*
X1850600Y614040D01*
X1850676Y614102D01*
X1850754Y614161D01*
X1850834Y614217D01*
X1850917Y614270D01*
X1851001Y614320D01*
X1851088Y614366D01*
X1851176Y614409D01*
X1851266Y614448D01*
X1851357Y614484D01*
X1851450Y614516D01*
X1851544Y614544D01*
X1851639Y614569D01*
X1851735Y614590D01*
X1851831Y614607D01*
X1851928Y614621D01*
X1852026Y614630D01*
X1852124Y614636D01*
X1852222Y614638D01*
X1855552Y614638D01*
X1861682Y611307D02*
X1861682Y607977D01*
X1861682Y611307D02*
X1861684Y611421D01*
X1861690Y611534D01*
X1861699Y611648D01*
X1861713Y611760D01*
X1861730Y611873D01*
X1861752Y611985D01*
X1861777Y612095D01*
X1861805Y612205D01*
X1861838Y612314D01*
X1861874Y612422D01*
X1861914Y612529D01*
X1861958Y612634D01*
X1862005Y612737D01*
X1862055Y612839D01*
X1862109Y612939D01*
X1862167Y613037D01*
X1862228Y613133D01*
X1862291Y613227D01*
X1862359Y613319D01*
X1862429Y613409D01*
X1862502Y613495D01*
X1862578Y613580D01*
X1862657Y613662D01*
X1862739Y613741D01*
X1862824Y613817D01*
X1862910Y613890D01*
X1863000Y613960D01*
X1863092Y614028D01*
X1863186Y614091D01*
X1863282Y614152D01*
X1863380Y614210D01*
X1863480Y614264D01*
X1863582Y614314D01*
X1863685Y614361D01*
X1863790Y614405D01*
X1863897Y614445D01*
X1864005Y614481D01*
X1864114Y614514D01*
X1864224Y614542D01*
X1864334Y614567D01*
X1864446Y614589D01*
X1864559Y614606D01*
X1864671Y614620D01*
X1864785Y614629D01*
X1864898Y614635D01*
X1865012Y614637D01*
X1865126Y614635D01*
X1865239Y614629D01*
X1865353Y614620D01*
X1865465Y614606D01*
X1865578Y614589D01*
X1865690Y614567D01*
X1865800Y614542D01*
X1865910Y614514D01*
X1866019Y614481D01*
X1866127Y614445D01*
X1866234Y614405D01*
X1866339Y614361D01*
X1866442Y614314D01*
X1866544Y614264D01*
X1866644Y614210D01*
X1866742Y614152D01*
X1866838Y614091D01*
X1866932Y614028D01*
X1867024Y613960D01*
X1867114Y613890D01*
X1867200Y613817D01*
X1867285Y613741D01*
X1867367Y613662D01*
X1867446Y613580D01*
X1867522Y613495D01*
X1867595Y613409D01*
X1867665Y613319D01*
X1867733Y613227D01*
X1867796Y613133D01*
X1867857Y613037D01*
X1867915Y612939D01*
X1867969Y612839D01*
X1868019Y612737D01*
X1868066Y612634D01*
X1868110Y612529D01*
X1868150Y612422D01*
X1868186Y612314D01*
X1868219Y612205D01*
X1868247Y612095D01*
X1868272Y611985D01*
X1868294Y611873D01*
X1868311Y611760D01*
X1868325Y611648D01*
X1868334Y611534D01*
X1868340Y611421D01*
X1868342Y611307D01*
X1868342Y607977D01*
X1868340Y607863D01*
X1868334Y607750D01*
X1868325Y607636D01*
X1868311Y607524D01*
X1868294Y607411D01*
X1868272Y607299D01*
X1868247Y607189D01*
X1868219Y607079D01*
X1868186Y606970D01*
X1868150Y606862D01*
X1868110Y606755D01*
X1868066Y606650D01*
X1868019Y606547D01*
X1867969Y606445D01*
X1867915Y606345D01*
X1867857Y606247D01*
X1867796Y606151D01*
X1867733Y606057D01*
X1867665Y605965D01*
X1867595Y605875D01*
X1867522Y605789D01*
X1867446Y605704D01*
X1867367Y605622D01*
X1867285Y605543D01*
X1867200Y605467D01*
X1867114Y605394D01*
X1867024Y605324D01*
X1866932Y605256D01*
X1866838Y605193D01*
X1866742Y605132D01*
X1866644Y605074D01*
X1866544Y605020D01*
X1866442Y604970D01*
X1866339Y604923D01*
X1866234Y604879D01*
X1866127Y604839D01*
X1866019Y604803D01*
X1865910Y604770D01*
X1865800Y604742D01*
X1865690Y604717D01*
X1865578Y604695D01*
X1865465Y604678D01*
X1865353Y604664D01*
X1865239Y604655D01*
X1865126Y604649D01*
X1865012Y604647D01*
X1864898Y604649D01*
X1864785Y604655D01*
X1864671Y604664D01*
X1864559Y604678D01*
X1864446Y604695D01*
X1864334Y604717D01*
X1864224Y604742D01*
X1864114Y604770D01*
X1864005Y604803D01*
X1863897Y604839D01*
X1863790Y604879D01*
X1863685Y604923D01*
X1863582Y604970D01*
X1863480Y605020D01*
X1863380Y605074D01*
X1863282Y605132D01*
X1863186Y605193D01*
X1863092Y605256D01*
X1863000Y605324D01*
X1862910Y605394D01*
X1862824Y605467D01*
X1862739Y605543D01*
X1862657Y605622D01*
X1862578Y605704D01*
X1862502Y605789D01*
X1862429Y605875D01*
X1862359Y605965D01*
X1862291Y606057D01*
X1862228Y606151D01*
X1862167Y606247D01*
X1862109Y606345D01*
X1862055Y606445D01*
X1862005Y606547D01*
X1861958Y606650D01*
X1861914Y606755D01*
X1861874Y606862D01*
X1861838Y606970D01*
X1861805Y607079D01*
X1861777Y607189D01*
X1861752Y607299D01*
X1861730Y607411D01*
X1861713Y607524D01*
X1861699Y607636D01*
X1861690Y607750D01*
X1861684Y607863D01*
X1861682Y607977D01*
X1875878Y604647D02*
X1875878Y614638D01*
X1880873Y614638D01*
X1880873Y612973D01*
X1888668Y604647D02*
X1892831Y604647D01*
X1888668Y604647D02*
X1888570Y604649D01*
X1888472Y604655D01*
X1888374Y604664D01*
X1888277Y604678D01*
X1888181Y604695D01*
X1888085Y604716D01*
X1887990Y604741D01*
X1887896Y604769D01*
X1887803Y604801D01*
X1887712Y604837D01*
X1887622Y604876D01*
X1887534Y604919D01*
X1887447Y604966D01*
X1887363Y605015D01*
X1887280Y605068D01*
X1887200Y605124D01*
X1887122Y605183D01*
X1887046Y605246D01*
X1886972Y605311D01*
X1886902Y605379D01*
X1886834Y605449D01*
X1886769Y605523D01*
X1886706Y605599D01*
X1886647Y605677D01*
X1886591Y605757D01*
X1886538Y605840D01*
X1886489Y605924D01*
X1886442Y606011D01*
X1886399Y606099D01*
X1886360Y606189D01*
X1886324Y606280D01*
X1886292Y606373D01*
X1886264Y606467D01*
X1886239Y606562D01*
X1886218Y606658D01*
X1886201Y606754D01*
X1886187Y606851D01*
X1886178Y606949D01*
X1886172Y607047D01*
X1886170Y607145D01*
X1886170Y611307D01*
X1886171Y611307D02*
X1886173Y611421D01*
X1886179Y611534D01*
X1886188Y611648D01*
X1886202Y611760D01*
X1886219Y611873D01*
X1886241Y611985D01*
X1886266Y612095D01*
X1886294Y612205D01*
X1886327Y612314D01*
X1886363Y612422D01*
X1886403Y612529D01*
X1886447Y612634D01*
X1886494Y612737D01*
X1886544Y612839D01*
X1886598Y612939D01*
X1886656Y613037D01*
X1886717Y613133D01*
X1886780Y613227D01*
X1886848Y613319D01*
X1886918Y613409D01*
X1886991Y613495D01*
X1887067Y613580D01*
X1887146Y613662D01*
X1887228Y613741D01*
X1887313Y613817D01*
X1887399Y613890D01*
X1887489Y613960D01*
X1887581Y614028D01*
X1887675Y614091D01*
X1887771Y614152D01*
X1887869Y614210D01*
X1887969Y614264D01*
X1888071Y614314D01*
X1888174Y614361D01*
X1888279Y614405D01*
X1888386Y614445D01*
X1888494Y614481D01*
X1888603Y614514D01*
X1888713Y614542D01*
X1888823Y614567D01*
X1888935Y614589D01*
X1889048Y614606D01*
X1889160Y614620D01*
X1889274Y614629D01*
X1889387Y614635D01*
X1889501Y614637D01*
X1889615Y614635D01*
X1889728Y614629D01*
X1889842Y614620D01*
X1889954Y614606D01*
X1890067Y614589D01*
X1890179Y614567D01*
X1890289Y614542D01*
X1890399Y614514D01*
X1890508Y614481D01*
X1890616Y614445D01*
X1890723Y614405D01*
X1890828Y614361D01*
X1890931Y614314D01*
X1891033Y614264D01*
X1891133Y614210D01*
X1891231Y614152D01*
X1891327Y614091D01*
X1891421Y614028D01*
X1891513Y613960D01*
X1891603Y613890D01*
X1891689Y613817D01*
X1891774Y613741D01*
X1891856Y613662D01*
X1891935Y613580D01*
X1892011Y613495D01*
X1892084Y613409D01*
X1892154Y613319D01*
X1892222Y613227D01*
X1892285Y613133D01*
X1892346Y613037D01*
X1892404Y612939D01*
X1892458Y612839D01*
X1892508Y612737D01*
X1892555Y612634D01*
X1892599Y612529D01*
X1892639Y612422D01*
X1892675Y612314D01*
X1892708Y612205D01*
X1892736Y612095D01*
X1892761Y611985D01*
X1892783Y611873D01*
X1892800Y611760D01*
X1892814Y611648D01*
X1892823Y611534D01*
X1892829Y611421D01*
X1892831Y611307D01*
X1892831Y609642D01*
X1886170Y609642D01*
D11*
X1772920Y1226820D02*
X-68580Y1226820D01*
D12*
X1805409Y1229318D02*
X1808739Y1219327D01*
X1812070Y1229318D01*
X1818854Y1225155D02*
X1828845Y1225155D01*
X1837399Y1225155D02*
X1841562Y1223490D01*
X1837399Y1225154D02*
X1837314Y1225190D01*
X1837231Y1225230D01*
X1837150Y1225273D01*
X1837070Y1225320D01*
X1836993Y1225370D01*
X1836917Y1225423D01*
X1836844Y1225479D01*
X1836774Y1225539D01*
X1836706Y1225601D01*
X1836641Y1225666D01*
X1836579Y1225734D01*
X1836519Y1225805D01*
X1836463Y1225878D01*
X1836410Y1225953D01*
X1836360Y1226031D01*
X1836314Y1226110D01*
X1836271Y1226192D01*
X1836231Y1226275D01*
X1836195Y1226360D01*
X1836163Y1226446D01*
X1836134Y1226534D01*
X1836110Y1226623D01*
X1836089Y1226713D01*
X1836072Y1226803D01*
X1836058Y1226894D01*
X1836049Y1226986D01*
X1836044Y1227078D01*
X1836042Y1227170D01*
X1836044Y1227262D01*
X1836051Y1227354D01*
X1836061Y1227446D01*
X1836075Y1227537D01*
X1836093Y1227628D01*
X1836115Y1227717D01*
X1836141Y1227806D01*
X1836171Y1227893D01*
X1836204Y1227979D01*
X1836241Y1228063D01*
X1836281Y1228146D01*
X1836325Y1228227D01*
X1836372Y1228306D01*
X1836423Y1228383D01*
X1836477Y1228458D01*
X1836534Y1228531D01*
X1836594Y1228601D01*
X1836657Y1228668D01*
X1836723Y1228732D01*
X1836791Y1228794D01*
X1836862Y1228853D01*
X1836936Y1228908D01*
X1837012Y1228961D01*
X1837090Y1229010D01*
X1837170Y1229056D01*
X1837251Y1229098D01*
X1837335Y1229137D01*
X1837420Y1229172D01*
X1837507Y1229203D01*
X1837595Y1229231D01*
X1837684Y1229255D01*
X1837774Y1229275D01*
X1837864Y1229292D01*
X1837956Y1229304D01*
X1838048Y1229313D01*
X1838140Y1229317D01*
X1838232Y1229318D01*
X1838459Y1229312D01*
X1838686Y1229301D01*
X1838913Y1229284D01*
X1839139Y1229261D01*
X1839365Y1229234D01*
X1839590Y1229200D01*
X1839814Y1229162D01*
X1840037Y1229118D01*
X1840259Y1229069D01*
X1840480Y1229014D01*
X1840699Y1228954D01*
X1840917Y1228889D01*
X1841133Y1228818D01*
X1841347Y1228743D01*
X1841560Y1228662D01*
X1841770Y1228576D01*
X1841979Y1228485D01*
X1841562Y1223490D02*
X1841647Y1223454D01*
X1841730Y1223414D01*
X1841811Y1223371D01*
X1841891Y1223324D01*
X1841968Y1223274D01*
X1842044Y1223221D01*
X1842117Y1223165D01*
X1842187Y1223105D01*
X1842255Y1223043D01*
X1842320Y1222978D01*
X1842382Y1222910D01*
X1842442Y1222839D01*
X1842498Y1222766D01*
X1842551Y1222691D01*
X1842601Y1222613D01*
X1842647Y1222534D01*
X1842690Y1222452D01*
X1842730Y1222369D01*
X1842766Y1222284D01*
X1842798Y1222198D01*
X1842827Y1222110D01*
X1842851Y1222021D01*
X1842872Y1221931D01*
X1842889Y1221841D01*
X1842903Y1221750D01*
X1842912Y1221658D01*
X1842917Y1221566D01*
X1842919Y1221474D01*
X1842917Y1221382D01*
X1842910Y1221290D01*
X1842900Y1221198D01*
X1842886Y1221107D01*
X1842868Y1221016D01*
X1842846Y1220927D01*
X1842820Y1220838D01*
X1842790Y1220751D01*
X1842757Y1220665D01*
X1842720Y1220581D01*
X1842680Y1220498D01*
X1842636Y1220417D01*
X1842589Y1220338D01*
X1842538Y1220261D01*
X1842484Y1220186D01*
X1842427Y1220113D01*
X1842367Y1220043D01*
X1842304Y1219976D01*
X1842238Y1219912D01*
X1842170Y1219850D01*
X1842099Y1219791D01*
X1842025Y1219736D01*
X1841949Y1219683D01*
X1841871Y1219634D01*
X1841791Y1219588D01*
X1841710Y1219546D01*
X1841626Y1219507D01*
X1841541Y1219472D01*
X1841454Y1219441D01*
X1841366Y1219413D01*
X1841277Y1219389D01*
X1841187Y1219369D01*
X1841097Y1219352D01*
X1841005Y1219340D01*
X1840913Y1219331D01*
X1840821Y1219327D01*
X1840729Y1219326D01*
X1840729Y1219327D02*
X1840395Y1219336D01*
X1840062Y1219353D01*
X1839729Y1219377D01*
X1839396Y1219410D01*
X1839065Y1219450D01*
X1838734Y1219498D01*
X1838405Y1219554D01*
X1838077Y1219617D01*
X1837751Y1219689D01*
X1837427Y1219768D01*
X1837104Y1219854D01*
X1836784Y1219949D01*
X1836466Y1220051D01*
X1836150Y1220160D01*
X1852222Y1219327D02*
X1855552Y1219327D01*
X1852222Y1219327D02*
X1852124Y1219329D01*
X1852026Y1219335D01*
X1851928Y1219344D01*
X1851831Y1219358D01*
X1851735Y1219375D01*
X1851639Y1219396D01*
X1851544Y1219421D01*
X1851450Y1219449D01*
X1851357Y1219481D01*
X1851266Y1219517D01*
X1851176Y1219556D01*
X1851088Y1219599D01*
X1851001Y1219646D01*
X1850917Y1219695D01*
X1850834Y1219748D01*
X1850754Y1219804D01*
X1850676Y1219863D01*
X1850600Y1219926D01*
X1850526Y1219991D01*
X1850456Y1220059D01*
X1850388Y1220129D01*
X1850323Y1220203D01*
X1850260Y1220279D01*
X1850201Y1220357D01*
X1850145Y1220437D01*
X1850092Y1220520D01*
X1850043Y1220604D01*
X1849996Y1220691D01*
X1849953Y1220779D01*
X1849914Y1220869D01*
X1849878Y1220960D01*
X1849846Y1221053D01*
X1849818Y1221147D01*
X1849793Y1221242D01*
X1849772Y1221338D01*
X1849755Y1221434D01*
X1849741Y1221531D01*
X1849732Y1221629D01*
X1849726Y1221727D01*
X1849724Y1221825D01*
X1849724Y1226820D01*
X1849726Y1226918D01*
X1849732Y1227016D01*
X1849741Y1227114D01*
X1849755Y1227211D01*
X1849772Y1227307D01*
X1849793Y1227403D01*
X1849818Y1227498D01*
X1849846Y1227592D01*
X1849878Y1227685D01*
X1849914Y1227776D01*
X1849953Y1227866D01*
X1849996Y1227954D01*
X1850043Y1228041D01*
X1850092Y1228125D01*
X1850145Y1228208D01*
X1850201Y1228288D01*
X1850260Y1228367D01*
X1850323Y1228442D01*
X1850388Y1228516D01*
X1850456Y1228586D01*
X1850526Y1228654D01*
X1850600Y1228720D01*
X1850676Y1228782D01*
X1850754Y1228841D01*
X1850834Y1228897D01*
X1850917Y1228950D01*
X1851001Y1229000D01*
X1851088Y1229046D01*
X1851176Y1229089D01*
X1851266Y1229128D01*
X1851357Y1229164D01*
X1851450Y1229196D01*
X1851544Y1229224D01*
X1851639Y1229249D01*
X1851735Y1229270D01*
X1851831Y1229287D01*
X1851928Y1229301D01*
X1852026Y1229310D01*
X1852124Y1229316D01*
X1852222Y1229318D01*
X1855552Y1229318D01*
X1861682Y1225987D02*
X1861682Y1222657D01*
X1861682Y1225987D02*
X1861684Y1226101D01*
X1861690Y1226214D01*
X1861699Y1226328D01*
X1861713Y1226440D01*
X1861730Y1226553D01*
X1861752Y1226665D01*
X1861777Y1226775D01*
X1861805Y1226885D01*
X1861838Y1226994D01*
X1861874Y1227102D01*
X1861914Y1227209D01*
X1861958Y1227314D01*
X1862005Y1227417D01*
X1862055Y1227519D01*
X1862109Y1227619D01*
X1862167Y1227717D01*
X1862228Y1227813D01*
X1862291Y1227907D01*
X1862359Y1227999D01*
X1862429Y1228089D01*
X1862502Y1228175D01*
X1862578Y1228260D01*
X1862657Y1228342D01*
X1862739Y1228421D01*
X1862824Y1228497D01*
X1862910Y1228570D01*
X1863000Y1228640D01*
X1863092Y1228708D01*
X1863186Y1228771D01*
X1863282Y1228832D01*
X1863380Y1228890D01*
X1863480Y1228944D01*
X1863582Y1228994D01*
X1863685Y1229041D01*
X1863790Y1229085D01*
X1863897Y1229125D01*
X1864005Y1229161D01*
X1864114Y1229194D01*
X1864224Y1229222D01*
X1864334Y1229247D01*
X1864446Y1229269D01*
X1864559Y1229286D01*
X1864671Y1229300D01*
X1864785Y1229309D01*
X1864898Y1229315D01*
X1865012Y1229317D01*
X1865126Y1229315D01*
X1865239Y1229309D01*
X1865353Y1229300D01*
X1865465Y1229286D01*
X1865578Y1229269D01*
X1865690Y1229247D01*
X1865800Y1229222D01*
X1865910Y1229194D01*
X1866019Y1229161D01*
X1866127Y1229125D01*
X1866234Y1229085D01*
X1866339Y1229041D01*
X1866442Y1228994D01*
X1866544Y1228944D01*
X1866644Y1228890D01*
X1866742Y1228832D01*
X1866838Y1228771D01*
X1866932Y1228708D01*
X1867024Y1228640D01*
X1867114Y1228570D01*
X1867200Y1228497D01*
X1867285Y1228421D01*
X1867367Y1228342D01*
X1867446Y1228260D01*
X1867522Y1228175D01*
X1867595Y1228089D01*
X1867665Y1227999D01*
X1867733Y1227907D01*
X1867796Y1227813D01*
X1867857Y1227717D01*
X1867915Y1227619D01*
X1867969Y1227519D01*
X1868019Y1227417D01*
X1868066Y1227314D01*
X1868110Y1227209D01*
X1868150Y1227102D01*
X1868186Y1226994D01*
X1868219Y1226885D01*
X1868247Y1226775D01*
X1868272Y1226665D01*
X1868294Y1226553D01*
X1868311Y1226440D01*
X1868325Y1226328D01*
X1868334Y1226214D01*
X1868340Y1226101D01*
X1868342Y1225987D01*
X1868342Y1222657D01*
X1868340Y1222543D01*
X1868334Y1222430D01*
X1868325Y1222316D01*
X1868311Y1222204D01*
X1868294Y1222091D01*
X1868272Y1221979D01*
X1868247Y1221869D01*
X1868219Y1221759D01*
X1868186Y1221650D01*
X1868150Y1221542D01*
X1868110Y1221435D01*
X1868066Y1221330D01*
X1868019Y1221227D01*
X1867969Y1221125D01*
X1867915Y1221025D01*
X1867857Y1220927D01*
X1867796Y1220831D01*
X1867733Y1220737D01*
X1867665Y1220645D01*
X1867595Y1220555D01*
X1867522Y1220469D01*
X1867446Y1220384D01*
X1867367Y1220302D01*
X1867285Y1220223D01*
X1867200Y1220147D01*
X1867114Y1220074D01*
X1867024Y1220004D01*
X1866932Y1219936D01*
X1866838Y1219873D01*
X1866742Y1219812D01*
X1866644Y1219754D01*
X1866544Y1219700D01*
X1866442Y1219650D01*
X1866339Y1219603D01*
X1866234Y1219559D01*
X1866127Y1219519D01*
X1866019Y1219483D01*
X1865910Y1219450D01*
X1865800Y1219422D01*
X1865690Y1219397D01*
X1865578Y1219375D01*
X1865465Y1219358D01*
X1865353Y1219344D01*
X1865239Y1219335D01*
X1865126Y1219329D01*
X1865012Y1219327D01*
X1864898Y1219329D01*
X1864785Y1219335D01*
X1864671Y1219344D01*
X1864559Y1219358D01*
X1864446Y1219375D01*
X1864334Y1219397D01*
X1864224Y1219422D01*
X1864114Y1219450D01*
X1864005Y1219483D01*
X1863897Y1219519D01*
X1863790Y1219559D01*
X1863685Y1219603D01*
X1863582Y1219650D01*
X1863480Y1219700D01*
X1863380Y1219754D01*
X1863282Y1219812D01*
X1863186Y1219873D01*
X1863092Y1219936D01*
X1863000Y1220004D01*
X1862910Y1220074D01*
X1862824Y1220147D01*
X1862739Y1220223D01*
X1862657Y1220302D01*
X1862578Y1220384D01*
X1862502Y1220469D01*
X1862429Y1220555D01*
X1862359Y1220645D01*
X1862291Y1220737D01*
X1862228Y1220831D01*
X1862167Y1220927D01*
X1862109Y1221025D01*
X1862055Y1221125D01*
X1862005Y1221227D01*
X1861958Y1221330D01*
X1861914Y1221435D01*
X1861874Y1221542D01*
X1861838Y1221650D01*
X1861805Y1221759D01*
X1861777Y1221869D01*
X1861752Y1221979D01*
X1861730Y1222091D01*
X1861713Y1222204D01*
X1861699Y1222316D01*
X1861690Y1222430D01*
X1861684Y1222543D01*
X1861682Y1222657D01*
X1875878Y1219327D02*
X1875878Y1229318D01*
X1880873Y1229318D01*
X1880873Y1227653D01*
X1888668Y1219327D02*
X1892831Y1219327D01*
X1888668Y1219327D02*
X1888570Y1219329D01*
X1888472Y1219335D01*
X1888374Y1219344D01*
X1888277Y1219358D01*
X1888181Y1219375D01*
X1888085Y1219396D01*
X1887990Y1219421D01*
X1887896Y1219449D01*
X1887803Y1219481D01*
X1887712Y1219517D01*
X1887622Y1219556D01*
X1887534Y1219599D01*
X1887447Y1219646D01*
X1887363Y1219695D01*
X1887280Y1219748D01*
X1887200Y1219804D01*
X1887122Y1219863D01*
X1887046Y1219926D01*
X1886972Y1219991D01*
X1886902Y1220059D01*
X1886834Y1220129D01*
X1886769Y1220203D01*
X1886706Y1220279D01*
X1886647Y1220357D01*
X1886591Y1220437D01*
X1886538Y1220520D01*
X1886489Y1220604D01*
X1886442Y1220691D01*
X1886399Y1220779D01*
X1886360Y1220869D01*
X1886324Y1220960D01*
X1886292Y1221053D01*
X1886264Y1221147D01*
X1886239Y1221242D01*
X1886218Y1221338D01*
X1886201Y1221434D01*
X1886187Y1221531D01*
X1886178Y1221629D01*
X1886172Y1221727D01*
X1886170Y1221825D01*
X1886170Y1225987D01*
X1886171Y1225987D02*
X1886173Y1226101D01*
X1886179Y1226214D01*
X1886188Y1226328D01*
X1886202Y1226440D01*
X1886219Y1226553D01*
X1886241Y1226665D01*
X1886266Y1226775D01*
X1886294Y1226885D01*
X1886327Y1226994D01*
X1886363Y1227102D01*
X1886403Y1227209D01*
X1886447Y1227314D01*
X1886494Y1227417D01*
X1886544Y1227519D01*
X1886598Y1227619D01*
X1886656Y1227717D01*
X1886717Y1227813D01*
X1886780Y1227907D01*
X1886848Y1227999D01*
X1886918Y1228089D01*
X1886991Y1228175D01*
X1887067Y1228260D01*
X1887146Y1228342D01*
X1887228Y1228421D01*
X1887313Y1228497D01*
X1887399Y1228570D01*
X1887489Y1228640D01*
X1887581Y1228708D01*
X1887675Y1228771D01*
X1887771Y1228832D01*
X1887869Y1228890D01*
X1887969Y1228944D01*
X1888071Y1228994D01*
X1888174Y1229041D01*
X1888279Y1229085D01*
X1888386Y1229125D01*
X1888494Y1229161D01*
X1888603Y1229194D01*
X1888713Y1229222D01*
X1888823Y1229247D01*
X1888935Y1229269D01*
X1889048Y1229286D01*
X1889160Y1229300D01*
X1889274Y1229309D01*
X1889387Y1229315D01*
X1889501Y1229317D01*
X1889615Y1229315D01*
X1889728Y1229309D01*
X1889842Y1229300D01*
X1889954Y1229286D01*
X1890067Y1229269D01*
X1890179Y1229247D01*
X1890289Y1229222D01*
X1890399Y1229194D01*
X1890508Y1229161D01*
X1890616Y1229125D01*
X1890723Y1229085D01*
X1890828Y1229041D01*
X1890931Y1228994D01*
X1891033Y1228944D01*
X1891133Y1228890D01*
X1891231Y1228832D01*
X1891327Y1228771D01*
X1891421Y1228708D01*
X1891513Y1228640D01*
X1891603Y1228570D01*
X1891689Y1228497D01*
X1891774Y1228421D01*
X1891856Y1228342D01*
X1891935Y1228260D01*
X1892011Y1228175D01*
X1892084Y1228089D01*
X1892154Y1227999D01*
X1892222Y1227907D01*
X1892285Y1227813D01*
X1892346Y1227717D01*
X1892404Y1227619D01*
X1892458Y1227519D01*
X1892508Y1227417D01*
X1892555Y1227314D01*
X1892599Y1227209D01*
X1892639Y1227102D01*
X1892675Y1226994D01*
X1892708Y1226885D01*
X1892736Y1226775D01*
X1892761Y1226665D01*
X1892783Y1226553D01*
X1892800Y1226440D01*
X1892814Y1226328D01*
X1892823Y1226214D01*
X1892829Y1226101D01*
X1892831Y1225987D01*
X1892831Y1224322D01*
X1886170Y1224322D01*
D13*
X1709420Y-5080D02*
X-68580Y-5080D01*
X1709420Y-5080D02*
X1709420Y-68580D01*
X-68580Y-68580D01*
X-68580Y-5080D01*
X1645920Y1224280D02*
X1709420Y1224280D01*
X1709420Y0D01*
X1645920Y0D01*
X1645920Y1224280D01*
X1709420Y1292860D02*
X-68580Y1292860D01*
X1709420Y1292860D02*
X1709420Y1229360D01*
X-68580Y1229360D01*
X-68580Y1292860D01*
X-68580Y1224280D02*
X-5080Y1224280D01*
X-5080Y0D01*
X-68580Y0D01*
X-68580Y1224280D01*
M02*
