G04 EAGLE Gerber RS-274X export*
G75*
%MOMM*%
%FSLAX34Y34*%
%LPD*%
%INSolderpaste Top*%
%IPPOS*%
%AMOC8*
5,1,8,0,0,1.08239X$1,22.5*%
G01*
%ADD10R,1.200000X2.000000*%
%ADD11R,0.600000X1.350000*%
%ADD12R,0.600000X1.550000*%
%ADD13R,1.000000X1.100000*%
%ADD14R,0.830000X0.630000*%
%ADD15R,1.524000X0.762000*%


D10*
X60900Y14050D03*
X116900Y14050D03*
D11*
X73900Y50800D03*
X83900Y50800D03*
X93900Y50800D03*
X103900Y50800D03*
D10*
X116900Y595550D03*
X60900Y595550D03*
D11*
X103900Y558800D03*
X93900Y558800D03*
X83900Y558800D03*
X73900Y558800D03*
D12*
X103680Y525650D03*
X93680Y525650D03*
X83680Y525650D03*
X73680Y525650D03*
D10*
X116680Y501400D03*
X60680Y501400D03*
D13*
X41148Y536566D03*
X41148Y519566D03*
X40894Y556142D03*
X40894Y573142D03*
D14*
X63500Y138500D03*
X63500Y115500D03*
D15*
X60960Y438150D03*
X116840Y438150D03*
X60960Y400050D03*
X116840Y400050D03*
D12*
X74120Y198250D03*
X84120Y198250D03*
X94120Y198250D03*
X104120Y198250D03*
D10*
X61120Y222500D03*
X117120Y222500D03*
X243780Y14050D03*
X299780Y14050D03*
D11*
X256780Y50800D03*
X266780Y50800D03*
X276780Y50800D03*
X286780Y50800D03*
D10*
X299780Y595550D03*
X243780Y595550D03*
D11*
X286780Y558800D03*
X276780Y558800D03*
X266780Y558800D03*
X256780Y558800D03*
D12*
X286560Y525650D03*
X276560Y525650D03*
X266560Y525650D03*
X256560Y525650D03*
D10*
X299560Y501400D03*
X243560Y501400D03*
D13*
X224028Y536566D03*
X224028Y519566D03*
X223774Y556142D03*
X223774Y573142D03*
D14*
X246380Y138500D03*
X246380Y115500D03*
D15*
X243840Y438150D03*
X299720Y438150D03*
X243840Y400050D03*
X299720Y400050D03*
D12*
X257000Y198250D03*
X267000Y198250D03*
X277000Y198250D03*
X287000Y198250D03*
D10*
X244000Y222500D03*
X300000Y222500D03*
X426660Y14050D03*
X482660Y14050D03*
D11*
X439660Y50800D03*
X449660Y50800D03*
X459660Y50800D03*
X469660Y50800D03*
D10*
X482660Y595550D03*
X426660Y595550D03*
D11*
X469660Y558800D03*
X459660Y558800D03*
X449660Y558800D03*
X439660Y558800D03*
D12*
X469440Y525650D03*
X459440Y525650D03*
X449440Y525650D03*
X439440Y525650D03*
D10*
X482440Y501400D03*
X426440Y501400D03*
D13*
X406908Y536566D03*
X406908Y519566D03*
X406654Y556142D03*
X406654Y573142D03*
D14*
X429260Y138500D03*
X429260Y115500D03*
D15*
X426720Y438150D03*
X482600Y438150D03*
X426720Y400050D03*
X482600Y400050D03*
D12*
X439880Y198250D03*
X449880Y198250D03*
X459880Y198250D03*
X469880Y198250D03*
D10*
X426880Y222500D03*
X482880Y222500D03*
X609540Y14050D03*
X665540Y14050D03*
D11*
X622540Y50800D03*
X632540Y50800D03*
X642540Y50800D03*
X652540Y50800D03*
D10*
X665540Y595550D03*
X609540Y595550D03*
D11*
X652540Y558800D03*
X642540Y558800D03*
X632540Y558800D03*
X622540Y558800D03*
D12*
X652320Y525650D03*
X642320Y525650D03*
X632320Y525650D03*
X622320Y525650D03*
D10*
X665320Y501400D03*
X609320Y501400D03*
D13*
X589788Y536566D03*
X589788Y519566D03*
X589534Y556142D03*
X589534Y573142D03*
D14*
X612140Y138500D03*
X612140Y115500D03*
D15*
X609600Y438150D03*
X665480Y438150D03*
X609600Y400050D03*
X665480Y400050D03*
D12*
X622760Y198250D03*
X632760Y198250D03*
X642760Y198250D03*
X652760Y198250D03*
D10*
X609760Y222500D03*
X665760Y222500D03*
X792420Y14050D03*
X848420Y14050D03*
D11*
X805420Y50800D03*
X815420Y50800D03*
X825420Y50800D03*
X835420Y50800D03*
D10*
X848420Y595550D03*
X792420Y595550D03*
D11*
X835420Y558800D03*
X825420Y558800D03*
X815420Y558800D03*
X805420Y558800D03*
D12*
X835200Y525650D03*
X825200Y525650D03*
X815200Y525650D03*
X805200Y525650D03*
D10*
X848200Y501400D03*
X792200Y501400D03*
D13*
X772668Y536566D03*
X772668Y519566D03*
X772414Y556142D03*
X772414Y573142D03*
D14*
X795020Y138500D03*
X795020Y115500D03*
D15*
X792480Y438150D03*
X848360Y438150D03*
X792480Y400050D03*
X848360Y400050D03*
D12*
X805640Y198250D03*
X815640Y198250D03*
X825640Y198250D03*
X835640Y198250D03*
D10*
X792640Y222500D03*
X848640Y222500D03*
X975300Y14050D03*
X1031300Y14050D03*
D11*
X988300Y50800D03*
X998300Y50800D03*
X1008300Y50800D03*
X1018300Y50800D03*
D10*
X1031300Y595550D03*
X975300Y595550D03*
D11*
X1018300Y558800D03*
X1008300Y558800D03*
X998300Y558800D03*
X988300Y558800D03*
D12*
X1018080Y525650D03*
X1008080Y525650D03*
X998080Y525650D03*
X988080Y525650D03*
D10*
X1031080Y501400D03*
X975080Y501400D03*
D13*
X955548Y536566D03*
X955548Y519566D03*
X955294Y556142D03*
X955294Y573142D03*
D14*
X977900Y138500D03*
X977900Y115500D03*
D15*
X975360Y438150D03*
X1031240Y438150D03*
X975360Y400050D03*
X1031240Y400050D03*
D12*
X988520Y198250D03*
X998520Y198250D03*
X1008520Y198250D03*
X1018520Y198250D03*
D10*
X975520Y222500D03*
X1031520Y222500D03*
X1158180Y14050D03*
X1214180Y14050D03*
D11*
X1171180Y50800D03*
X1181180Y50800D03*
X1191180Y50800D03*
X1201180Y50800D03*
D10*
X1214180Y595550D03*
X1158180Y595550D03*
D11*
X1201180Y558800D03*
X1191180Y558800D03*
X1181180Y558800D03*
X1171180Y558800D03*
D12*
X1200960Y525650D03*
X1190960Y525650D03*
X1180960Y525650D03*
X1170960Y525650D03*
D10*
X1213960Y501400D03*
X1157960Y501400D03*
D13*
X1138428Y536566D03*
X1138428Y519566D03*
X1138174Y556142D03*
X1138174Y573142D03*
D14*
X1160780Y138500D03*
X1160780Y115500D03*
D15*
X1158240Y438150D03*
X1214120Y438150D03*
X1158240Y400050D03*
X1214120Y400050D03*
D12*
X1171400Y198250D03*
X1181400Y198250D03*
X1191400Y198250D03*
X1201400Y198250D03*
D10*
X1158400Y222500D03*
X1214400Y222500D03*
X1341060Y14050D03*
X1397060Y14050D03*
D11*
X1354060Y50800D03*
X1364060Y50800D03*
X1374060Y50800D03*
X1384060Y50800D03*
D10*
X1397060Y595550D03*
X1341060Y595550D03*
D11*
X1384060Y558800D03*
X1374060Y558800D03*
X1364060Y558800D03*
X1354060Y558800D03*
D12*
X1383840Y525650D03*
X1373840Y525650D03*
X1363840Y525650D03*
X1353840Y525650D03*
D10*
X1396840Y501400D03*
X1340840Y501400D03*
D13*
X1321308Y536566D03*
X1321308Y519566D03*
X1321054Y556142D03*
X1321054Y573142D03*
D14*
X1343660Y138500D03*
X1343660Y115500D03*
D15*
X1341120Y438150D03*
X1397000Y438150D03*
X1341120Y400050D03*
X1397000Y400050D03*
D12*
X1354280Y198250D03*
X1364280Y198250D03*
X1374280Y198250D03*
X1384280Y198250D03*
D10*
X1341280Y222500D03*
X1397280Y222500D03*
X1523940Y14050D03*
X1579940Y14050D03*
D11*
X1536940Y50800D03*
X1546940Y50800D03*
X1556940Y50800D03*
X1566940Y50800D03*
D10*
X1579940Y595550D03*
X1523940Y595550D03*
D11*
X1566940Y558800D03*
X1556940Y558800D03*
X1546940Y558800D03*
X1536940Y558800D03*
D12*
X1566720Y525650D03*
X1556720Y525650D03*
X1546720Y525650D03*
X1536720Y525650D03*
D10*
X1579720Y501400D03*
X1523720Y501400D03*
D13*
X1504188Y536566D03*
X1504188Y519566D03*
X1503934Y556142D03*
X1503934Y573142D03*
D14*
X1526540Y138500D03*
X1526540Y115500D03*
D15*
X1524000Y438150D03*
X1579880Y438150D03*
X1524000Y400050D03*
X1579880Y400050D03*
D12*
X1537160Y198250D03*
X1547160Y198250D03*
X1557160Y198250D03*
X1567160Y198250D03*
D10*
X1524160Y222500D03*
X1580160Y222500D03*
X60900Y628730D03*
X116900Y628730D03*
D11*
X73900Y665480D03*
X83900Y665480D03*
X93900Y665480D03*
X103900Y665480D03*
D10*
X116900Y1210230D03*
X60900Y1210230D03*
D11*
X103900Y1173480D03*
X93900Y1173480D03*
X83900Y1173480D03*
X73900Y1173480D03*
D12*
X103680Y1140330D03*
X93680Y1140330D03*
X83680Y1140330D03*
X73680Y1140330D03*
D10*
X116680Y1116080D03*
X60680Y1116080D03*
D13*
X41148Y1151246D03*
X41148Y1134246D03*
X40894Y1170822D03*
X40894Y1187822D03*
D14*
X63500Y753180D03*
X63500Y730180D03*
D15*
X60960Y1052830D03*
X116840Y1052830D03*
X60960Y1014730D03*
X116840Y1014730D03*
D12*
X74120Y812930D03*
X84120Y812930D03*
X94120Y812930D03*
X104120Y812930D03*
D10*
X61120Y837180D03*
X117120Y837180D03*
X243780Y628730D03*
X299780Y628730D03*
D11*
X256780Y665480D03*
X266780Y665480D03*
X276780Y665480D03*
X286780Y665480D03*
D10*
X299780Y1210230D03*
X243780Y1210230D03*
D11*
X286780Y1173480D03*
X276780Y1173480D03*
X266780Y1173480D03*
X256780Y1173480D03*
D12*
X286560Y1140330D03*
X276560Y1140330D03*
X266560Y1140330D03*
X256560Y1140330D03*
D10*
X299560Y1116080D03*
X243560Y1116080D03*
D13*
X224028Y1151246D03*
X224028Y1134246D03*
X223774Y1170822D03*
X223774Y1187822D03*
D14*
X246380Y753180D03*
X246380Y730180D03*
D15*
X243840Y1052830D03*
X299720Y1052830D03*
X243840Y1014730D03*
X299720Y1014730D03*
D12*
X257000Y812930D03*
X267000Y812930D03*
X277000Y812930D03*
X287000Y812930D03*
D10*
X244000Y837180D03*
X300000Y837180D03*
X426660Y628730D03*
X482660Y628730D03*
D11*
X439660Y665480D03*
X449660Y665480D03*
X459660Y665480D03*
X469660Y665480D03*
D10*
X482660Y1210230D03*
X426660Y1210230D03*
D11*
X469660Y1173480D03*
X459660Y1173480D03*
X449660Y1173480D03*
X439660Y1173480D03*
D12*
X469440Y1140330D03*
X459440Y1140330D03*
X449440Y1140330D03*
X439440Y1140330D03*
D10*
X482440Y1116080D03*
X426440Y1116080D03*
D13*
X406908Y1151246D03*
X406908Y1134246D03*
X406654Y1170822D03*
X406654Y1187822D03*
D14*
X429260Y753180D03*
X429260Y730180D03*
D15*
X426720Y1052830D03*
X482600Y1052830D03*
X426720Y1014730D03*
X482600Y1014730D03*
D12*
X439880Y812930D03*
X449880Y812930D03*
X459880Y812930D03*
X469880Y812930D03*
D10*
X426880Y837180D03*
X482880Y837180D03*
X609540Y628730D03*
X665540Y628730D03*
D11*
X622540Y665480D03*
X632540Y665480D03*
X642540Y665480D03*
X652540Y665480D03*
D10*
X665540Y1210230D03*
X609540Y1210230D03*
D11*
X652540Y1173480D03*
X642540Y1173480D03*
X632540Y1173480D03*
X622540Y1173480D03*
D12*
X652320Y1140330D03*
X642320Y1140330D03*
X632320Y1140330D03*
X622320Y1140330D03*
D10*
X665320Y1116080D03*
X609320Y1116080D03*
D13*
X589788Y1151246D03*
X589788Y1134246D03*
X589534Y1170822D03*
X589534Y1187822D03*
D14*
X612140Y753180D03*
X612140Y730180D03*
D15*
X609600Y1052830D03*
X665480Y1052830D03*
X609600Y1014730D03*
X665480Y1014730D03*
D12*
X622760Y812930D03*
X632760Y812930D03*
X642760Y812930D03*
X652760Y812930D03*
D10*
X609760Y837180D03*
X665760Y837180D03*
X792420Y628730D03*
X848420Y628730D03*
D11*
X805420Y665480D03*
X815420Y665480D03*
X825420Y665480D03*
X835420Y665480D03*
D10*
X848420Y1210230D03*
X792420Y1210230D03*
D11*
X835420Y1173480D03*
X825420Y1173480D03*
X815420Y1173480D03*
X805420Y1173480D03*
D12*
X835200Y1140330D03*
X825200Y1140330D03*
X815200Y1140330D03*
X805200Y1140330D03*
D10*
X848200Y1116080D03*
X792200Y1116080D03*
D13*
X772668Y1151246D03*
X772668Y1134246D03*
X772414Y1170822D03*
X772414Y1187822D03*
D14*
X795020Y753180D03*
X795020Y730180D03*
D15*
X792480Y1052830D03*
X848360Y1052830D03*
X792480Y1014730D03*
X848360Y1014730D03*
D12*
X805640Y812930D03*
X815640Y812930D03*
X825640Y812930D03*
X835640Y812930D03*
D10*
X792640Y837180D03*
X848640Y837180D03*
X975300Y628730D03*
X1031300Y628730D03*
D11*
X988300Y665480D03*
X998300Y665480D03*
X1008300Y665480D03*
X1018300Y665480D03*
D10*
X1031300Y1210230D03*
X975300Y1210230D03*
D11*
X1018300Y1173480D03*
X1008300Y1173480D03*
X998300Y1173480D03*
X988300Y1173480D03*
D12*
X1018080Y1140330D03*
X1008080Y1140330D03*
X998080Y1140330D03*
X988080Y1140330D03*
D10*
X1031080Y1116080D03*
X975080Y1116080D03*
D13*
X955548Y1151246D03*
X955548Y1134246D03*
X955294Y1170822D03*
X955294Y1187822D03*
D14*
X977900Y753180D03*
X977900Y730180D03*
D15*
X975360Y1052830D03*
X1031240Y1052830D03*
X975360Y1014730D03*
X1031240Y1014730D03*
D12*
X988520Y812930D03*
X998520Y812930D03*
X1008520Y812930D03*
X1018520Y812930D03*
D10*
X975520Y837180D03*
X1031520Y837180D03*
X1158180Y628730D03*
X1214180Y628730D03*
D11*
X1171180Y665480D03*
X1181180Y665480D03*
X1191180Y665480D03*
X1201180Y665480D03*
D10*
X1214180Y1210230D03*
X1158180Y1210230D03*
D11*
X1201180Y1173480D03*
X1191180Y1173480D03*
X1181180Y1173480D03*
X1171180Y1173480D03*
D12*
X1200960Y1140330D03*
X1190960Y1140330D03*
X1180960Y1140330D03*
X1170960Y1140330D03*
D10*
X1213960Y1116080D03*
X1157960Y1116080D03*
D13*
X1138428Y1151246D03*
X1138428Y1134246D03*
X1138174Y1170822D03*
X1138174Y1187822D03*
D14*
X1160780Y753180D03*
X1160780Y730180D03*
D15*
X1158240Y1052830D03*
X1214120Y1052830D03*
X1158240Y1014730D03*
X1214120Y1014730D03*
D12*
X1171400Y812930D03*
X1181400Y812930D03*
X1191400Y812930D03*
X1201400Y812930D03*
D10*
X1158400Y837180D03*
X1214400Y837180D03*
X1341060Y628730D03*
X1397060Y628730D03*
D11*
X1354060Y665480D03*
X1364060Y665480D03*
X1374060Y665480D03*
X1384060Y665480D03*
D10*
X1397060Y1210230D03*
X1341060Y1210230D03*
D11*
X1384060Y1173480D03*
X1374060Y1173480D03*
X1364060Y1173480D03*
X1354060Y1173480D03*
D12*
X1383840Y1140330D03*
X1373840Y1140330D03*
X1363840Y1140330D03*
X1353840Y1140330D03*
D10*
X1396840Y1116080D03*
X1340840Y1116080D03*
D13*
X1321308Y1151246D03*
X1321308Y1134246D03*
X1321054Y1170822D03*
X1321054Y1187822D03*
D14*
X1343660Y753180D03*
X1343660Y730180D03*
D15*
X1341120Y1052830D03*
X1397000Y1052830D03*
X1341120Y1014730D03*
X1397000Y1014730D03*
D12*
X1354280Y812930D03*
X1364280Y812930D03*
X1374280Y812930D03*
X1384280Y812930D03*
D10*
X1341280Y837180D03*
X1397280Y837180D03*
X1523940Y628730D03*
X1579940Y628730D03*
D11*
X1536940Y665480D03*
X1546940Y665480D03*
X1556940Y665480D03*
X1566940Y665480D03*
D10*
X1579940Y1210230D03*
X1523940Y1210230D03*
D11*
X1566940Y1173480D03*
X1556940Y1173480D03*
X1546940Y1173480D03*
X1536940Y1173480D03*
D12*
X1566720Y1140330D03*
X1556720Y1140330D03*
X1546720Y1140330D03*
X1536720Y1140330D03*
D10*
X1579720Y1116080D03*
X1523720Y1116080D03*
D13*
X1504188Y1151246D03*
X1504188Y1134246D03*
X1503934Y1170822D03*
X1503934Y1187822D03*
D14*
X1526540Y753180D03*
X1526540Y730180D03*
D15*
X1524000Y1052830D03*
X1579880Y1052830D03*
X1524000Y1014730D03*
X1579880Y1014730D03*
D12*
X1537160Y812930D03*
X1547160Y812930D03*
X1557160Y812930D03*
X1567160Y812930D03*
D10*
X1524160Y837180D03*
X1580160Y837180D03*
M02*
