M48
;GenerationSoftware,Autodesk,EAGLE,9.6.2*%
;CreationDate,2020-09-04T20:46:59Z*%
FMAT,2
ICI,OFF
METRIC,TZ,000.000
T2C0.381
T1C1.016
%
G90
M71
T1
X37846Y85598
X37846Y83058
X37846Y80518
X37846Y77978
X37846Y75438
X37846Y72898
X37846Y70358
X37846Y67818
X37846Y65278
X37846Y62738
X53086Y95758
X53086Y93218
X53086Y90678
X53086Y88138
X53086Y85598
X53086Y83058
X53086Y80518
X53086Y77978
X53086Y75438
X53086Y72898
X53086Y70358
X53086Y67818
X53086Y65278
X53086Y62738
X40386Y108458
X42926Y108458
X45466Y108458
X48006Y108458
X50546Y108458
X49276Y76708
X49276Y74168
X49276Y71628
X49276Y69088
X53086Y100838
X53086Y103378
X53086Y105918
X53086Y108458
X53086Y110998
X53086Y113538
X53086Y116078
X53086Y118618
X53086Y121158
X37846Y121158
X37846Y118618
X37846Y116078
X37846Y113538
X37846Y110998
X37846Y108458
X37846Y105918
X37846Y103378
X37846Y100838
X37846Y98298
X53086Y98298
X49276Y79248
X63754Y70358
X61214Y70358
X56134Y95758
X56134Y93218
X56134Y90678
X56134Y88138
X56134Y85598
X56134Y83058
X56134Y80518
X56134Y77978
X56134Y75438
X56134Y72898
X56134Y70358
X56134Y67818
X56134Y65278
X56134Y62738
X71374Y95758
X71374Y93218
X71374Y90678
X71374Y88138
X71374Y85598
X71374Y83058
X71374Y80518
X71374Y77978
X71374Y75438
X71374Y72898
X71374Y70358
X71374Y67818
X71374Y65278
X71374Y62738
X58674Y108458
X61214Y108458
X63754Y108458
X66294Y108458
X68834Y108458
X67564Y76708
X67564Y74168
X67564Y71628
X67564Y69088
X71374Y100838
X71374Y103378
X71374Y105918
X71374Y108458
X71374Y110998
X71374Y113538
X71374Y116078
X71374Y118618
X71374Y121158
X56134Y121158
X56134Y118618
X56134Y116078
X56134Y113538
X56134Y110998
X56134Y108458
X56134Y105918
X56134Y103378
X56134Y100838
X56134Y98298
X71374Y98298
X67564Y79248
X82042Y70358
X79502Y70358
X74422Y95758
X74422Y93218
X74422Y90678
X74422Y88138
X74422Y85598
X74422Y83058
X74422Y80518
X74422Y77978
X74422Y75438
X74422Y72898
X74422Y70358
X74422Y67818
X74422Y65278
X74422Y62738
X89662Y95758
X89662Y93218
X89662Y90678
X89662Y88138
X89662Y85598
X89662Y83058
X89662Y80518
X89662Y77978
X89662Y75438
X89662Y72898
X89662Y70358
X89662Y67818
X89662Y65278
X89662Y62738
X76962Y108458
X79502Y108458
X82042Y108458
X84582Y108458
X87122Y108458
X85852Y76708
X85852Y74168
X85852Y71628
X85852Y69088
X89662Y100838
X89662Y103378
X89662Y105918
X89662Y108458
X89662Y110998
X89662Y113538
X89662Y116078
X89662Y118618
X89662Y121158
X74422Y121158
X74422Y118618
X74422Y116078
X74422Y113538
X74422Y110998
X74422Y108458
X74422Y105918
X74422Y103378
X74422Y100838
X74422Y98298
X89662Y98298
X85852Y79248
X100330Y70358
X97790Y70358
X92710Y95758
X92710Y93218
X92710Y90678
X92710Y88138
X92710Y85598
X92710Y83058
X92710Y80518
X92710Y77978
X92710Y75438
X92710Y72898
X102870Y46990
X92710Y70358
X92710Y67818
X92710Y65278
X92710Y62738
X107950Y95758
X107950Y93218
X107950Y90678
X107950Y88138
X107950Y85598
X107950Y83058
X107950Y80518
X107950Y77978
X107950Y75438
X107950Y72898
X107950Y70358
X107950Y67818
X107950Y65278
X107950Y62738
X95250Y108458
X97790Y108458
X100330Y108458
X102870Y108458
X105410Y108458
X104140Y76708
X104140Y74168
X104140Y71628
X104140Y69088
X107950Y100838
X107950Y103378
X107950Y105918
X107950Y108458
X107950Y110998
X107950Y113538
X107950Y116078
X107950Y118618
X107950Y121158
X92710Y121158
X92710Y118618
X92710Y116078
X92710Y113538
X92710Y110998
X92710Y105918
X92710Y103378
X92710Y100838
X92710Y98298
X107950Y98298
X104140Y79248
X118618Y70358
X116078Y70358
X110998Y95758
X110998Y93218
X110998Y90678
X110998Y88138
X110998Y85598
X110998Y83058
X110998Y80518
X110998Y77978
X110998Y75438
X110998Y72898
X110998Y70358
X110998Y67818
X110998Y65278
X110998Y62738
X126238Y95758
X126238Y93218
X126238Y90678
X126238Y88138
X126238Y85598
X126238Y83058
X126238Y80518
X126238Y77978
X126238Y75438
X126238Y72898
X126238Y70358
X126238Y67818
X126238Y65278
X126238Y62738
X113538Y108458
X116078Y108458
X118618Y108458
X121158Y108458
X123698Y108458
X122428Y76708
X122428Y74168
X122428Y71628
X122428Y69088
X126238Y100838
X126238Y103378
X126238Y105918
X126238Y108458
X126238Y110998
X126238Y113538
X126238Y116078
X126238Y118618
X126238Y121158
X110998Y121158
X110998Y118618
X110998Y116078
X110998Y113538
X110998Y110998
X110998Y108458
X110998Y105918
X110998Y103378
X110998Y100838
X110998Y98298
X126238Y98298
X122428Y79248
X136906Y70358
X134366Y70358
X129286Y95758
X129286Y93218
X129286Y90678
X129286Y88138
X129286Y85598
X129286Y83058
X129286Y80518
X129286Y77978
X129286Y75438
X129286Y72898
X129286Y70358
X129286Y67818
X129286Y65278
X129286Y62738
X144526Y95758
X144526Y93218
X144526Y90678
X144526Y88138
X144526Y85598
X144526Y83058
X144526Y80518
X144526Y77978
X144526Y75438
X144526Y72898
X144526Y70358
X144526Y67818
X144526Y65278
X144526Y62738
X131826Y108458
X134366Y108458
X136906Y108458
X139446Y108458
X141986Y108458
X140716Y76708
X140716Y74168
X140716Y71628
X140716Y69088
X144526Y100838
X144526Y103378
X144526Y105918
X144526Y108458
X144526Y110998
X144526Y113538
X144526Y116078
X144526Y118618
X144526Y121158
X129286Y121158
X129286Y118618
X129286Y116078
X129286Y113538
X129286Y110998
X129286Y108458
X129286Y105918
X129286Y103378
X129286Y100838
X129286Y98298
X144526Y98298
X140716Y79248
X155194Y70358
X152654Y70358
X147574Y95758
X147574Y93218
X147574Y90678
X147574Y88138
X147574Y85598
X147574Y83058
X147574Y80518
X147574Y77978
X147574Y75438
X147574Y72898
X147574Y70358
X147574Y67818
X147574Y65278
X147574Y62738
X162814Y95758
X162814Y93218
X162814Y90678
X162814Y88138
X162814Y85598
X162814Y83058
X162814Y80518
X162814Y77978
X162814Y75438
X162814Y72898
X162814Y70358
X162814Y67818
X162814Y65278
X162814Y62738
X150114Y108458
X152654Y108458
X155194Y108458
X157734Y108458
X160274Y108458
X159004Y76708
X159004Y74168
X159004Y71628
X159004Y69088
X162814Y100838
X162814Y103378
X162814Y105918
X162814Y108458
X162814Y110998
X162814Y113538
X162814Y116078
X162814Y118618
X162814Y121158
X147574Y121158
X147574Y118618
X147574Y116078
X147574Y113538
X147574Y110998
X147574Y108458
X147574Y105918
X147574Y103378
X147574Y100838
X147574Y98298
X162814Y98298
X159004Y79248
X8890Y8890
X6350Y8890
X1270Y34290
X1270Y31750
X1270Y29210
X1270Y26670
X1270Y24130
X1270Y21590
X1270Y19050
X1270Y16510
X1270Y13970
X1270Y11430
X1270Y8890
X1270Y6350
X1270Y3810
X1270Y1270
X16510Y34290
X16510Y31750
X16510Y29210
X16510Y26670
X16510Y24130
X16510Y21590
X16510Y19050
X16510Y16510
X16510Y13970
X16510Y11430
X16510Y8890
X16510Y6350
X16510Y3810
X16510Y1270
X3810Y46990
X6350Y46990
X8890Y46990
X11430Y46990
X13970Y46990
X12700Y15240
X12700Y12700
X12700Y10160
X12700Y7620
X16510Y39370
X16510Y41910
X16510Y44450
X16510Y46990
X16510Y49530
X16510Y52070
X16510Y54610
X16510Y57150
X16510Y59690
X1270Y59690
X1270Y57150
X1270Y54610
X1270Y52070
X1270Y49530
X1270Y46990
X1270Y44450
X1270Y41910
X1270Y39370
X1270Y36830
X16510Y36830
X12700Y17780
X27178Y8890
X24638Y8890
X19558Y34290
X19558Y31750
X19558Y29210
X19558Y26670
X19558Y24130
X19558Y21590
X19558Y19050
X19558Y16510
X19558Y13970
X19558Y11430
X19558Y8890
X19558Y6350
X19558Y3810
X19558Y1270
X34798Y34290
X34798Y31750
X34798Y29210
X34798Y26670
X34798Y24130
X34798Y21590
X34798Y19050
X34798Y16510
X34798Y13970
X34798Y11430
X34798Y8890
X34798Y6350
X34798Y3810
X34798Y1270
X22098Y46990
X24638Y46990
X27178Y46990
X29718Y46990
X32258Y46990
X30988Y15240
X30988Y12700
X30988Y10160
X30988Y7620
X34798Y39370
X34798Y41910
X34798Y44450
X34798Y46990
X34798Y49530
X34798Y52070
X34798Y54610
X34798Y57150
X34798Y59690
X19558Y59690
X19558Y57150
X19558Y54610
X19558Y52070
X19558Y49530
X19558Y46990
X19558Y44450
X19558Y41910
X19558Y39370
X19558Y36830
X34798Y36830
X30988Y17780
X45466Y8890
X42926Y8890
X37846Y34290
X37846Y31750
X37846Y29210
X37846Y26670
X37846Y24130
X37846Y21590
X37846Y19050
X37846Y16510
X37846Y13970
X37846Y11430
X37846Y8890
X37846Y6350
X37846Y3810
X37846Y1270
X53086Y34290
X53086Y31750
X53086Y29210
X53086Y26670
X53086Y24130
X53086Y21590
X53086Y19050
X53086Y16510
X53086Y13970
X53086Y11430
X53086Y8890
X53086Y6350
X53086Y3810
X53086Y1270
X40386Y46990
X42926Y46990
X45466Y46990
X48006Y46990
X50546Y46990
X49276Y15240
X49276Y12700
X49276Y10160
X49276Y7620
X53086Y39370
X53086Y41910
X53086Y44450
X53086Y46990
X53086Y49530
X53086Y52070
X53086Y54610
X53086Y57150
X53086Y59690
X37846Y59690
X37846Y57150
X37846Y54610
X37846Y52070
X37846Y49530
X37846Y46990
X37846Y44450
X37846Y41910
X37846Y39370
X37846Y36830
X53086Y36830
X49276Y17780
X63754Y8890
X61214Y8890
X56134Y34290
X56134Y31750
X56134Y29210
X56134Y26670
X56134Y24130
X56134Y21590
X56134Y19050
X56134Y16510
X56134Y13970
X56134Y11430
X56134Y8890
X56134Y6350
X56134Y3810
X56134Y1270
X71374Y34290
X71374Y31750
X71374Y29210
X71374Y26670
X71374Y24130
X71374Y21590
X71374Y19050
X71374Y16510
X71374Y13970
X71374Y11430
X71374Y8890
X71374Y6350
X71374Y3810
X71374Y1270
X58674Y46990
X61214Y46990
X63754Y46990
X66294Y46990
X68834Y46990
X67564Y15240
X67564Y12700
X67564Y10160
X67564Y7620
X71374Y39370
X71374Y41910
X71374Y44450
X71374Y46990
X71374Y49530
X71374Y52070
X71374Y54610
X71374Y57150
X71374Y59690
X56134Y59690
X56134Y57150
X56134Y54610
X56134Y52070
X56134Y49530
X56134Y46990
X56134Y44450
X56134Y41910
X56134Y39370
X56134Y36830
X71374Y36830
X67564Y17780
X82042Y8890
X79502Y8890
X74422Y34290
X74422Y31750
X74422Y29210
X74422Y26670
X74422Y24130
X74422Y21590
X74422Y19050
X74422Y16510
X74422Y13970
X74422Y11430
X74422Y8890
X74422Y6350
X74422Y3810
X74422Y1270
X89662Y34290
X89662Y31750
X89662Y29210
X89662Y26670
X89662Y24130
X89662Y21590
X89662Y19050
X89662Y16510
X89662Y13970
X89662Y11430
X89662Y8890
X89662Y6350
X89662Y3810
X89662Y1270
X76962Y46990
X79502Y46990
X82042Y46990
X84582Y46990
X87122Y46990
X85852Y15240
X85852Y12700
X85852Y10160
X85852Y7620
X89662Y39370
X89662Y41910
X89662Y44450
X89662Y46990
X89662Y49530
X89662Y52070
X89662Y54610
X89662Y57150
X89662Y59690
X74422Y59690
X74422Y57150
X74422Y54610
X74422Y52070
X74422Y49530
X74422Y46990
X74422Y44450
X74422Y41910
X74422Y39370
X74422Y36830
X89662Y36830
X85852Y17780
X100330Y8890
X97790Y8890
X92710Y34290
X92710Y31750
X92710Y29210
X92710Y26670
X92710Y24130
X92710Y21590
X92710Y19050
X92710Y16510
X92710Y13970
X92710Y11430
X92710Y8890
X92710Y6350
X92710Y3810
X92710Y1270
X107950Y34290
X107950Y31750
X107950Y29210
X107950Y26670
X107950Y24130
X107950Y21590
X107950Y19050
X107950Y16510
X107950Y13970
X107950Y11430
X107950Y8890
X107950Y6350
X107950Y3810
X107950Y1270
X95250Y46990
X97790Y46990
X100330Y46990
X92710Y108458
X105410Y46990
X104140Y15240
X104140Y12700
X104140Y10160
X104140Y7620
X107950Y39370
X107950Y41910
X107950Y44450
X107950Y46990
X107950Y49530
X107950Y52070
X107950Y54610
X107950Y57150
X107950Y59690
X92710Y59690
X92710Y57150
X92710Y54610
X92710Y52070
X92710Y49530
X92710Y46990
X92710Y44450
X92710Y41910
X92710Y39370
X92710Y36830
X107950Y36830
X104140Y17780
X118618Y8890
X116078Y8890
X110998Y34290
X110998Y31750
X110998Y29210
X110998Y26670
X110998Y24130
X110998Y21590
X110998Y19050
X110998Y16510
X110998Y13970
X110998Y11430
X110998Y8890
X110998Y6350
X110998Y3810
X110998Y1270
X126238Y34290
X126238Y31750
X126238Y29210
X126238Y26670
X126238Y24130
X126238Y21590
X126238Y19050
X126238Y16510
X126238Y13970
X126238Y11430
X126238Y8890
X126238Y6350
X126238Y3810
X126238Y1270
X113538Y46990
X116078Y46990
X118618Y46990
X121158Y46990
X123698Y46990
X122428Y15240
X122428Y12700
X122428Y10160
X122428Y7620
X126238Y39370
X126238Y41910
X126238Y44450
X126238Y46990
X126238Y49530
X126238Y52070
X126238Y54610
X126238Y57150
X126238Y59690
X110998Y59690
X110998Y57150
X110998Y54610
X110998Y52070
X110998Y49530
X110998Y46990
X110998Y44450
X110998Y41910
X110998Y39370
X110998Y36830
X126238Y36830
X122428Y17780
X136906Y8890
X134366Y8890
X129286Y34290
X129286Y31750
X129286Y29210
X129286Y26670
X129286Y24130
X129286Y21590
X129286Y19050
X129286Y16510
X129286Y13970
X129286Y11430
X129286Y8890
X129286Y6350
X129286Y3810
X129286Y1270
X144526Y34290
X144526Y31750
X144526Y29210
X144526Y26670
X144526Y24130
X144526Y21590
X144526Y19050
X144526Y16510
X144526Y13970
X144526Y11430
X144526Y8890
X144526Y6350
X144526Y3810
X144526Y1270
X131826Y46990
X134366Y46990
X136906Y46990
X139446Y46990
X141986Y46990
X140716Y15240
X140716Y12700
X140716Y10160
X140716Y7620
X144526Y39370
X144526Y41910
X144526Y44450
X144526Y46990
X144526Y49530
X144526Y52070
X144526Y54610
X144526Y57150
X144526Y59690
X129286Y59690
X129286Y57150
X129286Y54610
X129286Y52070
X129286Y49530
X129286Y46990
X129286Y44450
X129286Y41910
X129286Y39370
X129286Y36830
X144526Y36830
X140716Y17780
X155194Y8890
X152654Y8890
X147574Y34290
X147574Y31750
X147574Y29210
X147574Y26670
X147574Y24130
X147574Y21590
X147574Y19050
X147574Y16510
X147574Y13970
X147574Y11430
X147574Y8890
X147574Y6350
X147574Y3810
X147574Y1270
X162814Y34290
X162814Y31750
X162814Y29210
X162814Y26670
X162814Y24130
X162814Y21590
X162814Y19050
X162814Y16510
X162814Y13970
X162814Y11430
X162814Y8890
X162814Y6350
X162814Y3810
X162814Y1270
X150114Y46990
X152654Y46990
X155194Y46990
X157734Y46990
X160274Y46990
X159004Y15240
X159004Y12700
X159004Y10160
X159004Y7620
X162814Y39370
X162814Y41910
X162814Y44450
X162814Y46990
X162814Y49530
X162814Y52070
X162814Y54610
X162814Y57150
X162814Y59690
X147574Y59690
X147574Y57150
X147574Y54610
X147574Y52070
X147574Y49530
X147574Y46990
X147574Y44450
X147574Y41910
X147574Y39370
X147574Y36830
X162814Y36830
X159004Y17780
X8890Y70358
X6350Y70358
X1270Y95758
X1270Y93218
X1270Y90678
X1270Y88138
X1270Y85598
X1270Y83058
X1270Y80518
X1270Y77978
X1270Y75438
X1270Y72898
X1270Y70358
X1270Y67818
X1270Y65278
X1270Y62738
X16510Y95758
X16510Y93218
X16510Y90678
X16510Y88138
X16510Y85598
X16510Y83058
X16510Y80518
X16510Y77978
X16510Y75438
X16510Y72898
X16510Y70358
X16510Y67818
X16510Y65278
X16510Y62738
X3810Y108458
X6350Y108458
X8890Y108458
X11430Y108458
X13970Y108458
X12700Y76708
X12700Y74168
X12700Y71628
X12700Y69088
X16510Y100838
X16510Y103378
X16510Y105918
X16510Y108458
X16510Y110998
X16510Y113538
X16510Y116078
X16510Y118618
X16510Y121158
X1270Y121158
X1270Y118618
X1270Y116078
X1270Y113538
X1270Y110998
X1270Y108458
X1270Y105918
X1270Y103378
X1270Y100838
X1270Y98298
X16510Y98298
X12700Y79248
X27178Y70358
X24638Y70358
X19558Y95758
X19558Y93218
X19558Y90678
X19558Y88138
X19558Y85598
X19558Y83058
X19558Y80518
X19558Y77978
X19558Y75438
X19558Y72898
X19558Y70358
X19558Y67818
X19558Y65278
X19558Y62738
X34798Y95758
X34798Y93218
X34798Y90678
X34798Y88138
X34798Y85598
X34798Y83058
X34798Y80518
X34798Y77978
X34798Y75438
X34798Y72898
X34798Y70358
X34798Y67818
X34798Y65278
X34798Y62738
X22098Y108458
X24638Y108458
X27178Y108458
X29718Y108458
X32258Y108458
X30988Y76708
X30988Y74168
X30988Y71628
X30988Y69088
X34798Y100838
X34798Y103378
X34798Y105918
X34798Y108458
X34798Y110998
X34798Y113538
X34798Y116078
X34798Y118618
X34798Y121158
X19558Y121158
X19558Y118618
X19558Y116078
X19558Y113538
X19558Y110998
X19558Y108458
X19558Y105918
X19558Y103378
X19558Y100838
X19558Y98298
X34798Y98298
X30988Y79248
X45466Y70358
X42926Y70358
X37846Y95758
X37846Y93218
X37846Y90678
X37846Y88138
T2
X7366Y6477
X7417Y18212
X10338Y51003
X10516Y54458
X6299Y20345
X11074Y26721
X7341Y24384
X5283Y24384
X9601Y24359
X5283Y42367
X7239Y42393
X9449Y42367
X13843Y58953
X8890Y58420
X3327Y59182
X8382Y2642
X5105Y13843
X9390Y54331
X9373Y21590
X8357Y50800
X10414Y21488
X5613Y56896
X5207Y52019
X25654Y6477
X25705Y18212
X28626Y51003
X28804Y54458
X24587Y20345
X29362Y26721
X25629Y24384
X23571Y24384
X27889Y24359
X23571Y42367
X25527Y42393
X27737Y42367
X32131Y58953
X27178Y58420
X21615Y59182
X26670Y2642
X23393Y13843
X27678Y54331
X27661Y21590
X26645Y50800
X28702Y21488
X23901Y56896
X23495Y52019
X43942Y6477
X43993Y18212
X46914Y51003
X47092Y54458
X42875Y20345
X47650Y26721
X43917Y24384
X41859Y24384
X46177Y24359
X41859Y42367
X43815Y42393
X46025Y42367
X50419Y58953
X45466Y58420
X39903Y59182
X44958Y2642
X41681Y13843
X45966Y54331
X45949Y21590
X44933Y50800
X46990Y21488
X42189Y56896
X41783Y52019
X62230Y6477
X62281Y18212
X65202Y51003
X65380Y54458
X61163Y20345
X65938Y26721
X62205Y24384
X60147Y24384
X64465Y24359
X60147Y42367
X62103Y42393
X64313Y42367
X68707Y58953
X63754Y58420
X58191Y59182
X63246Y2642
X59969Y13843
X64254Y54331
X64237Y21590
X63221Y50800
X65278Y21488
X60477Y56896
X60071Y52019
X80518Y6477
X80569Y18212
X83490Y51003
X83668Y54458
X79451Y20345
X84226Y26721
X80493Y24384
X78435Y24384
X82753Y24359
X78435Y42367
X80391Y42393
X82601Y42367
X86995Y58953
X82042Y58420
X76479Y59182
X81534Y2642
X78257Y13843
X82542Y54331
X82525Y21590
X81509Y50800
X83566Y21488
X78765Y56896
X78359Y52019
X98806Y6477
X98857Y18212
X101778Y51003
X101956Y54458
X97739Y20345
X102514Y26721
X98781Y24384
X96723Y24384
X101041Y24359
X96723Y42367
X98679Y42393
X100889Y42367
X105283Y58953
X100330Y58420
X94767Y59182
X99822Y2642
X96545Y13843
X100830Y54331
X100813Y21590
X99797Y50800
X101854Y21488
X97053Y56896
X96647Y52019
X117094Y6477
X117145Y18212
X120066Y51003
X120244Y54458
X116027Y20345
X120802Y26721
X117069Y24384
X115011Y24384
X119329Y24359
X115011Y42367
X116967Y42393
X119177Y42367
X123571Y58953
X118618Y58420
X113055Y59182
X118110Y2642
X114833Y13843
X119118Y54331
X119101Y21590
X118085Y50800
X120142Y21488
X115341Y56896
X114935Y52019
X135382Y6477
X135433Y18212
X138354Y51003
X138532Y54458
X134315Y20345
X139090Y26721
X135357Y24384
X133299Y24384
X137617Y24359
X133299Y42367
X135255Y42393
X137465Y42367
X141859Y58953
X136906Y58420
X131343Y59182
X136398Y2642
X133121Y13843
X137406Y54331
X137389Y21590
X136373Y50800
X138430Y21488
X133629Y56896
X133223Y52019
X153670Y6477
X153721Y18212
X156820Y54458
X152603Y20345
X157378Y26721
X153645Y24384
X151587Y24384
X155905Y24359
X151587Y42367
X153543Y42393
X155753Y42367
X160147Y58953
X155194Y58420
X149631Y59182
X154686Y2642
X151409Y13843
X155694Y54331
X155677Y21590
X154661Y50800
X156718Y21488
X151917Y56896
X151511Y52019
X7366Y67945
X7417Y79680
X10338Y112471
X10516Y115926
X6299Y81813
X11074Y88189
X7341Y85852
X5283Y85852
X9601Y85827
X5283Y103835
X7239Y103861
X9449Y103835
X13843Y120421
X8890Y119888
X3327Y120650
X8382Y64110
X5105Y75311
X9390Y115799
X9373Y83058
X8357Y112268
X10414Y82956
X5613Y118364
X5207Y113487
X25654Y67945
X25705Y79680
X28626Y112471
X28804Y115926
X24587Y81813
X29362Y88189
X25629Y85852
X23571Y85852
X27889Y85827
X23571Y103835
X25527Y103861
X27737Y103835
X32131Y120421
X27178Y119888
X21615Y120650
X26670Y64110
X23393Y75311
X27678Y115799
X27661Y83058
X26645Y112268
X28702Y82956
X23901Y118364
X23495Y113487
X43942Y67945
X43993Y79680
X46914Y112471
X47092Y115926
X42875Y81813
X47650Y88189
X43917Y85852
X41859Y85852
X46177Y85827
X41859Y103835
X43815Y103861
X46025Y103835
X50419Y120421
X45466Y119888
X39903Y120650
X44958Y64110
X41681Y75311
X45966Y115799
X45949Y83058
X44933Y112268
X46990Y82956
X42189Y118364
X41783Y113487
X62230Y67945
X62281Y79680
X65202Y112471
X65380Y115926
X61163Y81813
X65938Y88189
X62205Y85852
X60147Y85852
X64465Y85827
X60147Y103835
X62103Y103861
X64313Y103835
X68707Y120421
X63754Y119888
X58191Y120650
X63246Y64110
X59969Y75311
X64254Y115799
X64237Y83058
X63221Y112268
X65278Y82956
X60477Y118364
X60071Y113487
X80518Y67945
X80569Y79680
X83490Y112471
X83668Y115926
X79451Y81813
X84226Y88189
X80493Y85852
X78435Y85852
X82753Y85827
X78435Y103835
X80391Y103861
X82601Y103835
X86995Y120421
X82042Y119888
X76479Y120650
X81534Y64110
X78257Y75311
X82542Y115799
X82525Y83058
X81509Y112268
X83566Y82956
X78765Y118364
X78359Y113487
X98806Y67945
X98857Y79680
X101778Y112471
X101956Y115926
X97739Y81813
X102514Y88189
X98781Y85852
X96723Y85852
X101041Y85827
X96723Y103835
X98679Y103861
X100889Y103835
X105283Y120421
X100330Y119888
X94767Y120650
X99822Y64110
X96545Y75311
X100830Y115799
X100813Y83058
X99797Y112268
X101854Y82956
X97053Y118364
X96647Y113487
X117094Y67945
X117145Y79680
X120066Y112471
X120244Y115926
X116027Y81813
X120802Y88189
X117069Y85852
X115011Y85852
X119329Y85827
X115011Y103835
X116967Y103861
X119177Y103835
X123571Y120421
X118618Y119888
X113055Y120650
X118110Y64110
X114833Y75311
X119118Y115799
X119101Y83058
X118085Y112268
X120142Y82956
X115341Y118364
X114935Y113487
X135382Y67945
X135433Y79680
X138354Y112471
X138532Y115926
X134315Y81813
X139090Y88189
X135357Y85852
X133299Y85852
X137617Y85827
X133299Y103835
X135255Y103861
X137465Y103835
X141859Y120421
X136906Y119888
X131343Y120650
X136398Y64110
X133121Y75311
X137406Y115799
X137389Y83058
X136373Y112268
X138430Y82956
X133629Y118364
X133223Y113487
X153670Y67945
X153721Y79680
X156642Y112471
X156820Y115926
X152603Y81813
X157378Y88189
X153645Y85852
X151587Y85852
X155905Y85827
X151587Y103835
X153543Y103861
X155753Y103835
X160147Y120421
X155194Y119888
X149631Y120650
X154686Y64110
X151409Y75311
X155694Y115799
X155677Y83058
X154661Y112268
X156718Y82956
X151917Y118364
X151511Y113487
X156642Y51003
M30