G04 EAGLE Gerber RS-274X export*
G75*
%MOMM*%
%FSLAX34Y34*%
%LPD*%
%INSoldermask Top*%
%IPPOS*%
%AMOC8*
5,1,8,0,0,1.08239X$1,22.5*%
G01*
%ADD10R,1.403200X2.203200*%
%ADD11R,0.803200X1.553200*%
%ADD12R,0.803200X1.753200*%
%ADD13C,1.203200*%
%ADD14R,1.203200X1.303200*%
%ADD15C,2.082800*%
%ADD16R,1.033200X0.833200*%
%ADD17R,1.727200X0.965200*%
%ADD18C,1.270000*%
%ADD19C,1.703200*%


D10*
X60900Y14050D03*
X116900Y14050D03*
D11*
X73900Y50800D03*
X83900Y50800D03*
X93900Y50800D03*
X103900Y50800D03*
D10*
X116900Y595550D03*
X60900Y595550D03*
D11*
X103900Y558800D03*
X93900Y558800D03*
X83900Y558800D03*
X73900Y558800D03*
D12*
X103680Y525650D03*
X93680Y525650D03*
X83680Y525650D03*
X73680Y525650D03*
D10*
X116680Y501400D03*
X60680Y501400D03*
D13*
X30226Y8128D03*
X147320Y600456D03*
D14*
X41148Y536566D03*
X41148Y519566D03*
X40894Y556142D03*
X40894Y573142D03*
D15*
X88900Y88900D03*
X63500Y88900D03*
D16*
X63500Y138500D03*
X63500Y115500D03*
D17*
X60960Y438150D03*
X116840Y438150D03*
X60960Y400050D03*
X116840Y400050D03*
D15*
X12700Y342900D03*
X12700Y317500D03*
X12700Y292100D03*
X12700Y266700D03*
X12700Y241300D03*
X12700Y215900D03*
X12700Y190500D03*
X12700Y165100D03*
X12700Y139700D03*
X12700Y114300D03*
X12700Y88900D03*
X12700Y63500D03*
X12700Y38100D03*
X12700Y12700D03*
X165100Y342900D03*
X165100Y317500D03*
X165100Y292100D03*
X165100Y266700D03*
X165100Y241300D03*
X165100Y215900D03*
X165100Y190500D03*
X165100Y165100D03*
X165100Y139700D03*
X165100Y114300D03*
X165100Y88900D03*
X165100Y63500D03*
X165100Y38100D03*
X165100Y12700D03*
X38100Y469900D03*
X63500Y469900D03*
X88900Y469900D03*
X114300Y469900D03*
X139700Y469900D03*
X127000Y152400D03*
X127000Y127000D03*
X127000Y101600D03*
X127000Y76200D03*
X165100Y393700D03*
X165100Y419100D03*
X165100Y444500D03*
X165100Y469900D03*
X165100Y495300D03*
X165100Y520700D03*
X165100Y546100D03*
X165100Y571500D03*
X165100Y596900D03*
X12700Y596900D03*
X12700Y571500D03*
X12700Y546100D03*
X12700Y520700D03*
X12700Y495300D03*
X12700Y469900D03*
X12700Y444500D03*
X12700Y419100D03*
X12700Y393700D03*
X12700Y368300D03*
X165100Y368300D03*
X127000Y177800D03*
D12*
X74120Y198250D03*
X84120Y198250D03*
X94120Y198250D03*
X104120Y198250D03*
D10*
X61120Y222500D03*
X117120Y222500D03*
X243780Y14050D03*
X299780Y14050D03*
D11*
X256780Y50800D03*
X266780Y50800D03*
X276780Y50800D03*
X286780Y50800D03*
D10*
X299780Y595550D03*
X243780Y595550D03*
D11*
X286780Y558800D03*
X276780Y558800D03*
X266780Y558800D03*
X256780Y558800D03*
D12*
X286560Y525650D03*
X276560Y525650D03*
X266560Y525650D03*
X256560Y525650D03*
D10*
X299560Y501400D03*
X243560Y501400D03*
D13*
X213106Y8128D03*
X330200Y600456D03*
D14*
X224028Y536566D03*
X224028Y519566D03*
X223774Y556142D03*
X223774Y573142D03*
D15*
X271780Y88900D03*
X246380Y88900D03*
D16*
X246380Y138500D03*
X246380Y115500D03*
D17*
X243840Y438150D03*
X299720Y438150D03*
X243840Y400050D03*
X299720Y400050D03*
D15*
X195580Y342900D03*
X195580Y317500D03*
X195580Y292100D03*
X195580Y266700D03*
X195580Y241300D03*
X195580Y215900D03*
X195580Y190500D03*
X195580Y165100D03*
X195580Y139700D03*
X195580Y114300D03*
X195580Y88900D03*
X195580Y63500D03*
X195580Y38100D03*
X195580Y12700D03*
X347980Y342900D03*
X347980Y317500D03*
X347980Y292100D03*
X347980Y266700D03*
X347980Y241300D03*
X347980Y215900D03*
X347980Y190500D03*
X347980Y165100D03*
X347980Y139700D03*
X347980Y114300D03*
X347980Y88900D03*
X347980Y63500D03*
X347980Y38100D03*
X347980Y12700D03*
X220980Y469900D03*
X246380Y469900D03*
X271780Y469900D03*
X297180Y469900D03*
X322580Y469900D03*
X309880Y152400D03*
X309880Y127000D03*
X309880Y101600D03*
X309880Y76200D03*
X347980Y393700D03*
X347980Y419100D03*
X347980Y444500D03*
X347980Y469900D03*
X347980Y495300D03*
X347980Y520700D03*
X347980Y546100D03*
X347980Y571500D03*
X347980Y596900D03*
X195580Y596900D03*
X195580Y571500D03*
X195580Y546100D03*
X195580Y520700D03*
X195580Y495300D03*
X195580Y469900D03*
X195580Y444500D03*
X195580Y419100D03*
X195580Y393700D03*
X195580Y368300D03*
X347980Y368300D03*
X309880Y177800D03*
D12*
X257000Y198250D03*
X267000Y198250D03*
X277000Y198250D03*
X287000Y198250D03*
D10*
X244000Y222500D03*
X300000Y222500D03*
X426660Y14050D03*
X482660Y14050D03*
D11*
X439660Y50800D03*
X449660Y50800D03*
X459660Y50800D03*
X469660Y50800D03*
D10*
X482660Y595550D03*
X426660Y595550D03*
D11*
X469660Y558800D03*
X459660Y558800D03*
X449660Y558800D03*
X439660Y558800D03*
D12*
X469440Y525650D03*
X459440Y525650D03*
X449440Y525650D03*
X439440Y525650D03*
D10*
X482440Y501400D03*
X426440Y501400D03*
D13*
X395986Y8128D03*
X513080Y600456D03*
D14*
X406908Y536566D03*
X406908Y519566D03*
X406654Y556142D03*
X406654Y573142D03*
D15*
X454660Y88900D03*
X429260Y88900D03*
D16*
X429260Y138500D03*
X429260Y115500D03*
D17*
X426720Y438150D03*
X482600Y438150D03*
X426720Y400050D03*
X482600Y400050D03*
D15*
X378460Y342900D03*
X378460Y317500D03*
X378460Y292100D03*
X378460Y266700D03*
X378460Y241300D03*
X378460Y215900D03*
X378460Y190500D03*
X378460Y165100D03*
X378460Y139700D03*
X378460Y114300D03*
X378460Y88900D03*
X378460Y63500D03*
X378460Y38100D03*
X378460Y12700D03*
X530860Y342900D03*
X530860Y317500D03*
X530860Y292100D03*
X530860Y266700D03*
X530860Y241300D03*
X530860Y215900D03*
X530860Y190500D03*
X530860Y165100D03*
X530860Y139700D03*
X530860Y114300D03*
X530860Y88900D03*
X530860Y63500D03*
X530860Y38100D03*
X530860Y12700D03*
X403860Y469900D03*
X429260Y469900D03*
X454660Y469900D03*
X480060Y469900D03*
X505460Y469900D03*
X492760Y152400D03*
X492760Y127000D03*
X492760Y101600D03*
X492760Y76200D03*
X530860Y393700D03*
X530860Y419100D03*
X530860Y444500D03*
X530860Y469900D03*
X530860Y495300D03*
X530860Y520700D03*
X530860Y546100D03*
X530860Y571500D03*
X530860Y596900D03*
X378460Y596900D03*
X378460Y571500D03*
X378460Y546100D03*
X378460Y520700D03*
X378460Y495300D03*
X378460Y469900D03*
X378460Y444500D03*
X378460Y419100D03*
X378460Y393700D03*
X378460Y368300D03*
X530860Y368300D03*
X492760Y177800D03*
D12*
X439880Y198250D03*
X449880Y198250D03*
X459880Y198250D03*
X469880Y198250D03*
D10*
X426880Y222500D03*
X482880Y222500D03*
X609540Y14050D03*
X665540Y14050D03*
D11*
X622540Y50800D03*
X632540Y50800D03*
X642540Y50800D03*
X652540Y50800D03*
D10*
X665540Y595550D03*
X609540Y595550D03*
D11*
X652540Y558800D03*
X642540Y558800D03*
X632540Y558800D03*
X622540Y558800D03*
D12*
X652320Y525650D03*
X642320Y525650D03*
X632320Y525650D03*
X622320Y525650D03*
D10*
X665320Y501400D03*
X609320Y501400D03*
D13*
X578866Y8128D03*
X695960Y600456D03*
D14*
X589788Y536566D03*
X589788Y519566D03*
X589534Y556142D03*
X589534Y573142D03*
D15*
X637540Y88900D03*
X612140Y88900D03*
D16*
X612140Y138500D03*
X612140Y115500D03*
D17*
X609600Y438150D03*
X665480Y438150D03*
X609600Y400050D03*
X665480Y400050D03*
D15*
X561340Y342900D03*
X561340Y317500D03*
X561340Y292100D03*
X561340Y266700D03*
X561340Y241300D03*
X561340Y215900D03*
X561340Y190500D03*
X561340Y165100D03*
X561340Y139700D03*
X561340Y114300D03*
X561340Y88900D03*
X561340Y63500D03*
X561340Y38100D03*
X561340Y12700D03*
X713740Y342900D03*
X713740Y317500D03*
X713740Y292100D03*
X713740Y266700D03*
X713740Y241300D03*
X713740Y215900D03*
X713740Y190500D03*
X713740Y165100D03*
X713740Y139700D03*
X713740Y114300D03*
X713740Y88900D03*
X713740Y63500D03*
X713740Y38100D03*
X713740Y12700D03*
X586740Y469900D03*
X612140Y469900D03*
X637540Y469900D03*
X662940Y469900D03*
X688340Y469900D03*
X675640Y152400D03*
X675640Y127000D03*
X675640Y101600D03*
X675640Y76200D03*
X713740Y393700D03*
X713740Y419100D03*
X713740Y444500D03*
X713740Y469900D03*
X713740Y495300D03*
X713740Y520700D03*
X713740Y546100D03*
X713740Y571500D03*
X713740Y596900D03*
X561340Y596900D03*
X561340Y571500D03*
X561340Y546100D03*
X561340Y520700D03*
X561340Y495300D03*
X561340Y469900D03*
X561340Y444500D03*
X561340Y419100D03*
X561340Y393700D03*
X561340Y368300D03*
X713740Y368300D03*
X675640Y177800D03*
D12*
X622760Y198250D03*
X632760Y198250D03*
X642760Y198250D03*
X652760Y198250D03*
D10*
X609760Y222500D03*
X665760Y222500D03*
X792420Y14050D03*
X848420Y14050D03*
D11*
X805420Y50800D03*
X815420Y50800D03*
X825420Y50800D03*
X835420Y50800D03*
D10*
X848420Y595550D03*
X792420Y595550D03*
D11*
X835420Y558800D03*
X825420Y558800D03*
X815420Y558800D03*
X805420Y558800D03*
D12*
X835200Y525650D03*
X825200Y525650D03*
X815200Y525650D03*
X805200Y525650D03*
D10*
X848200Y501400D03*
X792200Y501400D03*
D13*
X761746Y8128D03*
X878840Y600456D03*
D14*
X772668Y536566D03*
X772668Y519566D03*
X772414Y556142D03*
X772414Y573142D03*
D15*
X820420Y88900D03*
X795020Y88900D03*
D16*
X795020Y138500D03*
X795020Y115500D03*
D17*
X792480Y438150D03*
X848360Y438150D03*
X792480Y400050D03*
X848360Y400050D03*
D15*
X744220Y342900D03*
X744220Y317500D03*
X744220Y292100D03*
X744220Y266700D03*
X744220Y241300D03*
X744220Y215900D03*
X744220Y190500D03*
X744220Y165100D03*
X744220Y139700D03*
X744220Y114300D03*
X744220Y88900D03*
X744220Y63500D03*
X744220Y38100D03*
X744220Y12700D03*
X896620Y342900D03*
X896620Y317500D03*
X896620Y292100D03*
X896620Y266700D03*
X896620Y241300D03*
X896620Y215900D03*
X896620Y190500D03*
X896620Y165100D03*
X896620Y139700D03*
X896620Y114300D03*
X896620Y88900D03*
X896620Y63500D03*
X896620Y38100D03*
X896620Y12700D03*
X769620Y469900D03*
X795020Y469900D03*
X820420Y469900D03*
X845820Y469900D03*
X871220Y469900D03*
X858520Y152400D03*
X858520Y127000D03*
X858520Y101600D03*
X858520Y76200D03*
X896620Y393700D03*
X896620Y419100D03*
X896620Y444500D03*
X896620Y469900D03*
X896620Y495300D03*
X896620Y520700D03*
X896620Y546100D03*
X896620Y571500D03*
X896620Y596900D03*
X744220Y596900D03*
X744220Y571500D03*
X744220Y546100D03*
X744220Y520700D03*
X744220Y495300D03*
X744220Y469900D03*
X744220Y444500D03*
X744220Y419100D03*
X744220Y393700D03*
X744220Y368300D03*
X896620Y368300D03*
X858520Y177800D03*
D12*
X805640Y198250D03*
X815640Y198250D03*
X825640Y198250D03*
X835640Y198250D03*
D10*
X792640Y222500D03*
X848640Y222500D03*
X975300Y14050D03*
X1031300Y14050D03*
D11*
X988300Y50800D03*
X998300Y50800D03*
X1008300Y50800D03*
X1018300Y50800D03*
D10*
X1031300Y595550D03*
X975300Y595550D03*
D11*
X1018300Y558800D03*
X1008300Y558800D03*
X998300Y558800D03*
X988300Y558800D03*
D12*
X1018080Y525650D03*
X1008080Y525650D03*
X998080Y525650D03*
X988080Y525650D03*
D10*
X1031080Y501400D03*
X975080Y501400D03*
D13*
X944626Y8128D03*
X1061720Y600456D03*
D14*
X955548Y536566D03*
X955548Y519566D03*
X955294Y556142D03*
X955294Y573142D03*
D15*
X1003300Y88900D03*
X977900Y88900D03*
D16*
X977900Y138500D03*
X977900Y115500D03*
D17*
X975360Y438150D03*
X1031240Y438150D03*
X975360Y400050D03*
X1031240Y400050D03*
D15*
X927100Y342900D03*
X927100Y317500D03*
X927100Y292100D03*
X927100Y266700D03*
X927100Y241300D03*
X927100Y215900D03*
X927100Y190500D03*
X927100Y165100D03*
X927100Y139700D03*
X927100Y114300D03*
X927100Y88900D03*
X927100Y63500D03*
X927100Y38100D03*
X927100Y12700D03*
X1079500Y342900D03*
X1079500Y317500D03*
X1079500Y292100D03*
X1079500Y266700D03*
X1079500Y241300D03*
X1079500Y215900D03*
X1079500Y190500D03*
X1079500Y165100D03*
X1079500Y139700D03*
X1079500Y114300D03*
X1079500Y88900D03*
X1079500Y63500D03*
X1079500Y38100D03*
X1079500Y12700D03*
X952500Y469900D03*
X977900Y469900D03*
X1003300Y469900D03*
X1028700Y469900D03*
X1054100Y469900D03*
X1041400Y152400D03*
X1041400Y127000D03*
X1041400Y101600D03*
X1041400Y76200D03*
X1079500Y393700D03*
X1079500Y419100D03*
X1079500Y444500D03*
X1079500Y469900D03*
X1079500Y495300D03*
X1079500Y520700D03*
X1079500Y546100D03*
X1079500Y571500D03*
X1079500Y596900D03*
X927100Y596900D03*
X927100Y571500D03*
X927100Y546100D03*
X927100Y520700D03*
X927100Y495300D03*
X927100Y469900D03*
X927100Y444500D03*
X927100Y419100D03*
X927100Y393700D03*
X927100Y368300D03*
X1079500Y368300D03*
X1041400Y177800D03*
D12*
X988520Y198250D03*
X998520Y198250D03*
X1008520Y198250D03*
X1018520Y198250D03*
D10*
X975520Y222500D03*
X1031520Y222500D03*
X1158180Y14050D03*
X1214180Y14050D03*
D11*
X1171180Y50800D03*
X1181180Y50800D03*
X1191180Y50800D03*
X1201180Y50800D03*
D10*
X1214180Y595550D03*
X1158180Y595550D03*
D11*
X1201180Y558800D03*
X1191180Y558800D03*
X1181180Y558800D03*
X1171180Y558800D03*
D12*
X1200960Y525650D03*
X1190960Y525650D03*
X1180960Y525650D03*
X1170960Y525650D03*
D10*
X1213960Y501400D03*
X1157960Y501400D03*
D13*
X1127506Y8128D03*
X1244600Y600456D03*
D14*
X1138428Y536566D03*
X1138428Y519566D03*
X1138174Y556142D03*
X1138174Y573142D03*
D15*
X1186180Y88900D03*
X1160780Y88900D03*
D16*
X1160780Y138500D03*
X1160780Y115500D03*
D17*
X1158240Y438150D03*
X1214120Y438150D03*
X1158240Y400050D03*
X1214120Y400050D03*
D15*
X1109980Y342900D03*
X1109980Y317500D03*
X1109980Y292100D03*
X1109980Y266700D03*
X1109980Y241300D03*
X1109980Y215900D03*
X1109980Y190500D03*
X1109980Y165100D03*
X1109980Y139700D03*
X1109980Y114300D03*
X1109980Y88900D03*
X1109980Y63500D03*
X1109980Y38100D03*
X1109980Y12700D03*
X1262380Y342900D03*
X1262380Y317500D03*
X1262380Y292100D03*
X1262380Y266700D03*
X1262380Y241300D03*
X1262380Y215900D03*
X1262380Y190500D03*
X1262380Y165100D03*
X1262380Y139700D03*
X1262380Y114300D03*
X1262380Y88900D03*
X1262380Y63500D03*
X1262380Y38100D03*
X1262380Y12700D03*
X1135380Y469900D03*
X1160780Y469900D03*
X1186180Y469900D03*
X1211580Y469900D03*
X1236980Y469900D03*
X1224280Y152400D03*
X1224280Y127000D03*
X1224280Y101600D03*
X1224280Y76200D03*
X1262380Y393700D03*
X1262380Y419100D03*
X1262380Y444500D03*
X1262380Y469900D03*
X1262380Y495300D03*
X1262380Y520700D03*
X1262380Y546100D03*
X1262380Y571500D03*
X1262380Y596900D03*
X1109980Y596900D03*
X1109980Y571500D03*
X1109980Y546100D03*
X1109980Y520700D03*
X1109980Y495300D03*
X1109980Y469900D03*
X1109980Y444500D03*
X1109980Y419100D03*
X1109980Y393700D03*
X1109980Y368300D03*
X1262380Y368300D03*
X1224280Y177800D03*
D12*
X1171400Y198250D03*
X1181400Y198250D03*
X1191400Y198250D03*
X1201400Y198250D03*
D10*
X1158400Y222500D03*
X1214400Y222500D03*
X1341060Y14050D03*
X1397060Y14050D03*
D11*
X1354060Y50800D03*
X1364060Y50800D03*
X1374060Y50800D03*
X1384060Y50800D03*
D10*
X1397060Y595550D03*
X1341060Y595550D03*
D11*
X1384060Y558800D03*
X1374060Y558800D03*
X1364060Y558800D03*
X1354060Y558800D03*
D12*
X1383840Y525650D03*
X1373840Y525650D03*
X1363840Y525650D03*
X1353840Y525650D03*
D10*
X1396840Y501400D03*
X1340840Y501400D03*
D13*
X1310386Y8128D03*
X1427480Y600456D03*
D14*
X1321308Y536566D03*
X1321308Y519566D03*
X1321054Y556142D03*
X1321054Y573142D03*
D15*
X1369060Y88900D03*
X1343660Y88900D03*
D16*
X1343660Y138500D03*
X1343660Y115500D03*
D17*
X1341120Y438150D03*
X1397000Y438150D03*
X1341120Y400050D03*
X1397000Y400050D03*
D15*
X1292860Y342900D03*
X1292860Y317500D03*
X1292860Y292100D03*
X1292860Y266700D03*
X1292860Y241300D03*
X1292860Y215900D03*
X1292860Y190500D03*
X1292860Y165100D03*
X1292860Y139700D03*
X1292860Y114300D03*
X1292860Y88900D03*
X1292860Y63500D03*
X1292860Y38100D03*
X1292860Y12700D03*
X1445260Y342900D03*
X1445260Y317500D03*
X1445260Y292100D03*
X1445260Y266700D03*
X1445260Y241300D03*
X1445260Y215900D03*
X1445260Y190500D03*
X1445260Y165100D03*
X1445260Y139700D03*
X1445260Y114300D03*
X1445260Y88900D03*
X1445260Y63500D03*
X1445260Y38100D03*
X1445260Y12700D03*
X1318260Y469900D03*
X1343660Y469900D03*
X1369060Y469900D03*
X1394460Y469900D03*
X1419860Y469900D03*
X1407160Y152400D03*
X1407160Y127000D03*
X1407160Y101600D03*
X1407160Y76200D03*
X1445260Y393700D03*
X1445260Y419100D03*
X1445260Y444500D03*
X1445260Y469900D03*
X1445260Y495300D03*
X1445260Y520700D03*
X1445260Y546100D03*
X1445260Y571500D03*
X1445260Y596900D03*
X1292860Y596900D03*
X1292860Y571500D03*
X1292860Y546100D03*
X1292860Y520700D03*
X1292860Y495300D03*
X1292860Y469900D03*
X1292860Y444500D03*
X1292860Y419100D03*
X1292860Y393700D03*
X1292860Y368300D03*
X1445260Y368300D03*
X1407160Y177800D03*
D12*
X1354280Y198250D03*
X1364280Y198250D03*
X1374280Y198250D03*
X1384280Y198250D03*
D10*
X1341280Y222500D03*
X1397280Y222500D03*
X1523940Y14050D03*
X1579940Y14050D03*
D11*
X1536940Y50800D03*
X1546940Y50800D03*
X1556940Y50800D03*
X1566940Y50800D03*
D10*
X1579940Y595550D03*
X1523940Y595550D03*
D11*
X1566940Y558800D03*
X1556940Y558800D03*
X1546940Y558800D03*
X1536940Y558800D03*
D12*
X1566720Y525650D03*
X1556720Y525650D03*
X1546720Y525650D03*
X1536720Y525650D03*
D10*
X1579720Y501400D03*
X1523720Y501400D03*
D13*
X1493266Y8128D03*
X1610360Y600456D03*
D14*
X1504188Y536566D03*
X1504188Y519566D03*
X1503934Y556142D03*
X1503934Y573142D03*
D15*
X1551940Y88900D03*
X1526540Y88900D03*
D16*
X1526540Y138500D03*
X1526540Y115500D03*
D17*
X1524000Y438150D03*
X1579880Y438150D03*
X1524000Y400050D03*
X1579880Y400050D03*
D15*
X1475740Y342900D03*
X1475740Y317500D03*
X1475740Y292100D03*
X1475740Y266700D03*
X1475740Y241300D03*
X1475740Y215900D03*
X1475740Y190500D03*
X1475740Y165100D03*
X1475740Y139700D03*
X1475740Y114300D03*
X1475740Y88900D03*
X1475740Y63500D03*
X1475740Y38100D03*
X1475740Y12700D03*
X1628140Y342900D03*
X1628140Y317500D03*
X1628140Y292100D03*
X1628140Y266700D03*
X1628140Y241300D03*
X1628140Y215900D03*
X1628140Y190500D03*
X1628140Y165100D03*
X1628140Y139700D03*
X1628140Y114300D03*
X1628140Y88900D03*
X1628140Y63500D03*
X1628140Y38100D03*
X1628140Y12700D03*
X1501140Y469900D03*
X1526540Y469900D03*
X1551940Y469900D03*
X1577340Y469900D03*
X1602740Y469900D03*
X1590040Y152400D03*
X1590040Y127000D03*
X1590040Y101600D03*
X1590040Y76200D03*
X1628140Y393700D03*
X1628140Y419100D03*
X1628140Y444500D03*
X1628140Y469900D03*
X1628140Y495300D03*
X1628140Y520700D03*
X1628140Y546100D03*
X1628140Y571500D03*
X1628140Y596900D03*
X1475740Y596900D03*
X1475740Y571500D03*
X1475740Y546100D03*
X1475740Y520700D03*
X1475740Y495300D03*
X1475740Y469900D03*
X1475740Y444500D03*
X1475740Y419100D03*
X1475740Y393700D03*
X1475740Y368300D03*
X1628140Y368300D03*
X1590040Y177800D03*
D12*
X1537160Y198250D03*
X1547160Y198250D03*
X1557160Y198250D03*
X1567160Y198250D03*
D10*
X1524160Y222500D03*
X1580160Y222500D03*
X60900Y628730D03*
X116900Y628730D03*
D11*
X73900Y665480D03*
X83900Y665480D03*
X93900Y665480D03*
X103900Y665480D03*
D10*
X116900Y1210230D03*
X60900Y1210230D03*
D11*
X103900Y1173480D03*
X93900Y1173480D03*
X83900Y1173480D03*
X73900Y1173480D03*
D12*
X103680Y1140330D03*
X93680Y1140330D03*
X83680Y1140330D03*
X73680Y1140330D03*
D10*
X116680Y1116080D03*
X60680Y1116080D03*
D13*
X30226Y622808D03*
X147320Y1215136D03*
D14*
X41148Y1151246D03*
X41148Y1134246D03*
X40894Y1170822D03*
X40894Y1187822D03*
D15*
X88900Y703580D03*
X63500Y703580D03*
D16*
X63500Y753180D03*
X63500Y730180D03*
D17*
X60960Y1052830D03*
X116840Y1052830D03*
X60960Y1014730D03*
X116840Y1014730D03*
D15*
X12700Y957580D03*
X12700Y932180D03*
X12700Y906780D03*
X12700Y881380D03*
X12700Y855980D03*
X12700Y830580D03*
X12700Y805180D03*
X12700Y779780D03*
X12700Y754380D03*
X12700Y728980D03*
X12700Y703580D03*
X12700Y678180D03*
X12700Y652780D03*
X12700Y627380D03*
X165100Y957580D03*
X165100Y932180D03*
X165100Y906780D03*
X165100Y881380D03*
X165100Y855980D03*
X165100Y830580D03*
X165100Y805180D03*
X165100Y779780D03*
X165100Y754380D03*
X165100Y728980D03*
X165100Y703580D03*
X165100Y678180D03*
X165100Y652780D03*
X165100Y627380D03*
X38100Y1084580D03*
X63500Y1084580D03*
X88900Y1084580D03*
X114300Y1084580D03*
X139700Y1084580D03*
X127000Y767080D03*
X127000Y741680D03*
X127000Y716280D03*
X127000Y690880D03*
X165100Y1008380D03*
X165100Y1033780D03*
X165100Y1059180D03*
X165100Y1084580D03*
X165100Y1109980D03*
X165100Y1135380D03*
X165100Y1160780D03*
X165100Y1186180D03*
X165100Y1211580D03*
X12700Y1211580D03*
X12700Y1186180D03*
X12700Y1160780D03*
X12700Y1135380D03*
X12700Y1109980D03*
X12700Y1084580D03*
X12700Y1059180D03*
X12700Y1033780D03*
X12700Y1008380D03*
X12700Y982980D03*
X165100Y982980D03*
X127000Y792480D03*
D12*
X74120Y812930D03*
X84120Y812930D03*
X94120Y812930D03*
X104120Y812930D03*
D10*
X61120Y837180D03*
X117120Y837180D03*
X243780Y628730D03*
X299780Y628730D03*
D11*
X256780Y665480D03*
X266780Y665480D03*
X276780Y665480D03*
X286780Y665480D03*
D10*
X299780Y1210230D03*
X243780Y1210230D03*
D11*
X286780Y1173480D03*
X276780Y1173480D03*
X266780Y1173480D03*
X256780Y1173480D03*
D12*
X286560Y1140330D03*
X276560Y1140330D03*
X266560Y1140330D03*
X256560Y1140330D03*
D10*
X299560Y1116080D03*
X243560Y1116080D03*
D13*
X213106Y622808D03*
X330200Y1215136D03*
D14*
X224028Y1151246D03*
X224028Y1134246D03*
X223774Y1170822D03*
X223774Y1187822D03*
D15*
X271780Y703580D03*
X246380Y703580D03*
D16*
X246380Y753180D03*
X246380Y730180D03*
D17*
X243840Y1052830D03*
X299720Y1052830D03*
X243840Y1014730D03*
X299720Y1014730D03*
D15*
X195580Y957580D03*
X195580Y932180D03*
X195580Y906780D03*
X195580Y881380D03*
X195580Y855980D03*
X195580Y830580D03*
X195580Y805180D03*
X195580Y779780D03*
X195580Y754380D03*
X195580Y728980D03*
X195580Y703580D03*
X195580Y678180D03*
X195580Y652780D03*
X195580Y627380D03*
X347980Y957580D03*
X347980Y932180D03*
X347980Y906780D03*
X347980Y881380D03*
X347980Y855980D03*
X347980Y830580D03*
X347980Y805180D03*
X347980Y779780D03*
X347980Y754380D03*
X347980Y728980D03*
X347980Y703580D03*
X347980Y678180D03*
X347980Y652780D03*
X347980Y627380D03*
X220980Y1084580D03*
X246380Y1084580D03*
X271780Y1084580D03*
X297180Y1084580D03*
X322580Y1084580D03*
X309880Y767080D03*
X309880Y741680D03*
X309880Y716280D03*
X309880Y690880D03*
X347980Y1008380D03*
X347980Y1033780D03*
X347980Y1059180D03*
X347980Y1084580D03*
X347980Y1109980D03*
X347980Y1135380D03*
X347980Y1160780D03*
X347980Y1186180D03*
X347980Y1211580D03*
X195580Y1211580D03*
X195580Y1186180D03*
X195580Y1160780D03*
X195580Y1135380D03*
X195580Y1109980D03*
X195580Y1084580D03*
X195580Y1059180D03*
X195580Y1033780D03*
X195580Y1008380D03*
X195580Y982980D03*
X347980Y982980D03*
X309880Y792480D03*
D12*
X257000Y812930D03*
X267000Y812930D03*
X277000Y812930D03*
X287000Y812930D03*
D10*
X244000Y837180D03*
X300000Y837180D03*
X426660Y628730D03*
X482660Y628730D03*
D11*
X439660Y665480D03*
X449660Y665480D03*
X459660Y665480D03*
X469660Y665480D03*
D10*
X482660Y1210230D03*
X426660Y1210230D03*
D11*
X469660Y1173480D03*
X459660Y1173480D03*
X449660Y1173480D03*
X439660Y1173480D03*
D12*
X469440Y1140330D03*
X459440Y1140330D03*
X449440Y1140330D03*
X439440Y1140330D03*
D10*
X482440Y1116080D03*
X426440Y1116080D03*
D13*
X395986Y622808D03*
X513080Y1215136D03*
D14*
X406908Y1151246D03*
X406908Y1134246D03*
X406654Y1170822D03*
X406654Y1187822D03*
D15*
X454660Y703580D03*
X429260Y703580D03*
D16*
X429260Y753180D03*
X429260Y730180D03*
D17*
X426720Y1052830D03*
X482600Y1052830D03*
X426720Y1014730D03*
X482600Y1014730D03*
D15*
X378460Y957580D03*
X378460Y932180D03*
X378460Y906780D03*
X378460Y881380D03*
X378460Y855980D03*
X378460Y830580D03*
X378460Y805180D03*
X378460Y779780D03*
X378460Y754380D03*
X378460Y728980D03*
X378460Y703580D03*
X378460Y678180D03*
X378460Y652780D03*
X378460Y627380D03*
X530860Y957580D03*
X530860Y932180D03*
X530860Y906780D03*
X530860Y881380D03*
X530860Y855980D03*
X530860Y830580D03*
X530860Y805180D03*
X530860Y779780D03*
X530860Y754380D03*
X530860Y728980D03*
X530860Y703580D03*
X530860Y678180D03*
X530860Y652780D03*
X530860Y627380D03*
X403860Y1084580D03*
X429260Y1084580D03*
X454660Y1084580D03*
X480060Y1084580D03*
X505460Y1084580D03*
X492760Y767080D03*
X492760Y741680D03*
X492760Y716280D03*
X492760Y690880D03*
X530860Y1008380D03*
X530860Y1033780D03*
X530860Y1059180D03*
X530860Y1084580D03*
X530860Y1109980D03*
X530860Y1135380D03*
X530860Y1160780D03*
X530860Y1186180D03*
X530860Y1211580D03*
X378460Y1211580D03*
X378460Y1186180D03*
X378460Y1160780D03*
X378460Y1135380D03*
X378460Y1109980D03*
X378460Y1084580D03*
X378460Y1059180D03*
X378460Y1033780D03*
X378460Y1008380D03*
X378460Y982980D03*
X530860Y982980D03*
X492760Y792480D03*
D12*
X439880Y812930D03*
X449880Y812930D03*
X459880Y812930D03*
X469880Y812930D03*
D10*
X426880Y837180D03*
X482880Y837180D03*
X609540Y628730D03*
X665540Y628730D03*
D11*
X622540Y665480D03*
X632540Y665480D03*
X642540Y665480D03*
X652540Y665480D03*
D10*
X665540Y1210230D03*
X609540Y1210230D03*
D11*
X652540Y1173480D03*
X642540Y1173480D03*
X632540Y1173480D03*
X622540Y1173480D03*
D12*
X652320Y1140330D03*
X642320Y1140330D03*
X632320Y1140330D03*
X622320Y1140330D03*
D10*
X665320Y1116080D03*
X609320Y1116080D03*
D13*
X578866Y622808D03*
X695960Y1215136D03*
D14*
X589788Y1151246D03*
X589788Y1134246D03*
X589534Y1170822D03*
X589534Y1187822D03*
D15*
X637540Y703580D03*
X612140Y703580D03*
D16*
X612140Y753180D03*
X612140Y730180D03*
D17*
X609600Y1052830D03*
X665480Y1052830D03*
X609600Y1014730D03*
X665480Y1014730D03*
D15*
X561340Y957580D03*
X561340Y932180D03*
X561340Y906780D03*
X561340Y881380D03*
X561340Y855980D03*
X561340Y830580D03*
X561340Y805180D03*
X561340Y779780D03*
X561340Y754380D03*
X561340Y728980D03*
X561340Y703580D03*
X561340Y678180D03*
X561340Y652780D03*
X561340Y627380D03*
X713740Y957580D03*
X713740Y932180D03*
X713740Y906780D03*
X713740Y881380D03*
X713740Y855980D03*
X713740Y830580D03*
X713740Y805180D03*
X713740Y779780D03*
X713740Y754380D03*
X713740Y728980D03*
X713740Y703580D03*
X713740Y678180D03*
X713740Y652780D03*
X713740Y627380D03*
X586740Y1084580D03*
X612140Y1084580D03*
X637540Y1084580D03*
X662940Y1084580D03*
X688340Y1084580D03*
X675640Y767080D03*
X675640Y741680D03*
X675640Y716280D03*
X675640Y690880D03*
X713740Y1008380D03*
X713740Y1033780D03*
X713740Y1059180D03*
X713740Y1084580D03*
X713740Y1109980D03*
X713740Y1135380D03*
X713740Y1160780D03*
X713740Y1186180D03*
X713740Y1211580D03*
X561340Y1211580D03*
X561340Y1186180D03*
X561340Y1160780D03*
X561340Y1135380D03*
X561340Y1109980D03*
X561340Y1084580D03*
X561340Y1059180D03*
X561340Y1033780D03*
X561340Y1008380D03*
X561340Y982980D03*
X713740Y982980D03*
X675640Y792480D03*
D12*
X622760Y812930D03*
X632760Y812930D03*
X642760Y812930D03*
X652760Y812930D03*
D10*
X609760Y837180D03*
X665760Y837180D03*
X792420Y628730D03*
X848420Y628730D03*
D11*
X805420Y665480D03*
X815420Y665480D03*
X825420Y665480D03*
X835420Y665480D03*
D10*
X848420Y1210230D03*
X792420Y1210230D03*
D11*
X835420Y1173480D03*
X825420Y1173480D03*
X815420Y1173480D03*
X805420Y1173480D03*
D12*
X835200Y1140330D03*
X825200Y1140330D03*
X815200Y1140330D03*
X805200Y1140330D03*
D10*
X848200Y1116080D03*
X792200Y1116080D03*
D13*
X761746Y622808D03*
X878840Y1215136D03*
D14*
X772668Y1151246D03*
X772668Y1134246D03*
X772414Y1170822D03*
X772414Y1187822D03*
D15*
X820420Y703580D03*
X795020Y703580D03*
D16*
X795020Y753180D03*
X795020Y730180D03*
D17*
X792480Y1052830D03*
X848360Y1052830D03*
X792480Y1014730D03*
X848360Y1014730D03*
D15*
X744220Y957580D03*
X744220Y932180D03*
X744220Y906780D03*
X744220Y881380D03*
X744220Y855980D03*
X744220Y830580D03*
X744220Y805180D03*
X744220Y779780D03*
X744220Y754380D03*
X744220Y728980D03*
X744220Y703580D03*
X744220Y678180D03*
X744220Y652780D03*
X744220Y627380D03*
X896620Y957580D03*
X896620Y932180D03*
X896620Y906780D03*
X896620Y881380D03*
X896620Y855980D03*
X896620Y830580D03*
X896620Y805180D03*
X896620Y779780D03*
X896620Y754380D03*
X896620Y728980D03*
X896620Y703580D03*
X896620Y678180D03*
X896620Y652780D03*
X896620Y627380D03*
X769620Y1084580D03*
X795020Y1084580D03*
X820420Y1084580D03*
X845820Y1084580D03*
X871220Y1084580D03*
X858520Y767080D03*
X858520Y741680D03*
X858520Y716280D03*
X858520Y690880D03*
X896620Y1008380D03*
X896620Y1033780D03*
X896620Y1059180D03*
X896620Y1084580D03*
X896620Y1109980D03*
X896620Y1135380D03*
X896620Y1160780D03*
X896620Y1186180D03*
X896620Y1211580D03*
X744220Y1211580D03*
X744220Y1186180D03*
X744220Y1160780D03*
X744220Y1135380D03*
X744220Y1109980D03*
X744220Y1084580D03*
X744220Y1059180D03*
X744220Y1033780D03*
X744220Y1008380D03*
X744220Y982980D03*
X896620Y982980D03*
X858520Y792480D03*
D12*
X805640Y812930D03*
X815640Y812930D03*
X825640Y812930D03*
X835640Y812930D03*
D10*
X792640Y837180D03*
X848640Y837180D03*
X975300Y628730D03*
X1031300Y628730D03*
D11*
X988300Y665480D03*
X998300Y665480D03*
X1008300Y665480D03*
X1018300Y665480D03*
D10*
X1031300Y1210230D03*
X975300Y1210230D03*
D11*
X1018300Y1173480D03*
X1008300Y1173480D03*
X998300Y1173480D03*
X988300Y1173480D03*
D12*
X1018080Y1140330D03*
X1008080Y1140330D03*
X998080Y1140330D03*
X988080Y1140330D03*
D10*
X1031080Y1116080D03*
X975080Y1116080D03*
D13*
X944626Y622808D03*
X1061720Y1215136D03*
D14*
X955548Y1151246D03*
X955548Y1134246D03*
X955294Y1170822D03*
X955294Y1187822D03*
D15*
X1003300Y703580D03*
X977900Y703580D03*
D16*
X977900Y753180D03*
X977900Y730180D03*
D17*
X975360Y1052830D03*
X1031240Y1052830D03*
X975360Y1014730D03*
X1031240Y1014730D03*
D15*
X927100Y957580D03*
X927100Y932180D03*
X927100Y906780D03*
X927100Y881380D03*
X927100Y855980D03*
X927100Y830580D03*
X927100Y805180D03*
X927100Y779780D03*
X927100Y754380D03*
X927100Y728980D03*
X927100Y703580D03*
X927100Y678180D03*
X927100Y652780D03*
X927100Y627380D03*
X1079500Y957580D03*
X1079500Y932180D03*
X1079500Y906780D03*
X1079500Y881380D03*
X1079500Y855980D03*
X1079500Y830580D03*
X1079500Y805180D03*
X1079500Y779780D03*
X1079500Y754380D03*
X1079500Y728980D03*
X1079500Y703580D03*
X1079500Y678180D03*
X1079500Y652780D03*
X1079500Y627380D03*
X952500Y1084580D03*
X977900Y1084580D03*
X1003300Y1084580D03*
X1028700Y1084580D03*
X1054100Y1084580D03*
X1041400Y767080D03*
X1041400Y741680D03*
X1041400Y716280D03*
X1041400Y690880D03*
X1079500Y1008380D03*
X1079500Y1033780D03*
X1079500Y1059180D03*
X1079500Y1084580D03*
X1079500Y1109980D03*
X1079500Y1135380D03*
X1079500Y1160780D03*
X1079500Y1186180D03*
X1079500Y1211580D03*
X927100Y1211580D03*
X927100Y1186180D03*
X927100Y1160780D03*
X927100Y1135380D03*
X927100Y1109980D03*
X927100Y1084580D03*
X927100Y1059180D03*
X927100Y1033780D03*
X927100Y1008380D03*
X927100Y982980D03*
X1079500Y982980D03*
X1041400Y792480D03*
D12*
X988520Y812930D03*
X998520Y812930D03*
X1008520Y812930D03*
X1018520Y812930D03*
D10*
X975520Y837180D03*
X1031520Y837180D03*
X1158180Y628730D03*
X1214180Y628730D03*
D11*
X1171180Y665480D03*
X1181180Y665480D03*
X1191180Y665480D03*
X1201180Y665480D03*
D10*
X1214180Y1210230D03*
X1158180Y1210230D03*
D11*
X1201180Y1173480D03*
X1191180Y1173480D03*
X1181180Y1173480D03*
X1171180Y1173480D03*
D12*
X1200960Y1140330D03*
X1190960Y1140330D03*
X1180960Y1140330D03*
X1170960Y1140330D03*
D10*
X1213960Y1116080D03*
X1157960Y1116080D03*
D13*
X1127506Y622808D03*
X1244600Y1215136D03*
D14*
X1138428Y1151246D03*
X1138428Y1134246D03*
X1138174Y1170822D03*
X1138174Y1187822D03*
D15*
X1186180Y703580D03*
X1160780Y703580D03*
D16*
X1160780Y753180D03*
X1160780Y730180D03*
D17*
X1158240Y1052830D03*
X1214120Y1052830D03*
X1158240Y1014730D03*
X1214120Y1014730D03*
D15*
X1109980Y957580D03*
X1109980Y932180D03*
X1109980Y906780D03*
X1109980Y881380D03*
X1109980Y855980D03*
X1109980Y830580D03*
X1109980Y805180D03*
X1109980Y779780D03*
X1109980Y754380D03*
X1109980Y728980D03*
X1109980Y703580D03*
X1109980Y678180D03*
X1109980Y652780D03*
X1109980Y627380D03*
X1262380Y957580D03*
X1262380Y932180D03*
X1262380Y906780D03*
X1262380Y881380D03*
X1262380Y855980D03*
X1262380Y830580D03*
X1262380Y805180D03*
X1262380Y779780D03*
X1262380Y754380D03*
X1262380Y728980D03*
X1262380Y703580D03*
X1262380Y678180D03*
X1262380Y652780D03*
X1262380Y627380D03*
X1135380Y1084580D03*
X1160780Y1084580D03*
X1186180Y1084580D03*
X1211580Y1084580D03*
X1236980Y1084580D03*
X1224280Y767080D03*
X1224280Y741680D03*
X1224280Y716280D03*
X1224280Y690880D03*
X1262380Y1008380D03*
X1262380Y1033780D03*
X1262380Y1059180D03*
X1262380Y1084580D03*
X1262380Y1109980D03*
X1262380Y1135380D03*
X1262380Y1160780D03*
X1262380Y1186180D03*
X1262380Y1211580D03*
X1109980Y1211580D03*
X1109980Y1186180D03*
X1109980Y1160780D03*
X1109980Y1135380D03*
X1109980Y1109980D03*
X1109980Y1084580D03*
X1109980Y1059180D03*
X1109980Y1033780D03*
X1109980Y1008380D03*
X1109980Y982980D03*
X1262380Y982980D03*
X1224280Y792480D03*
D12*
X1171400Y812930D03*
X1181400Y812930D03*
X1191400Y812930D03*
X1201400Y812930D03*
D10*
X1158400Y837180D03*
X1214400Y837180D03*
X1341060Y628730D03*
X1397060Y628730D03*
D11*
X1354060Y665480D03*
X1364060Y665480D03*
X1374060Y665480D03*
X1384060Y665480D03*
D10*
X1397060Y1210230D03*
X1341060Y1210230D03*
D11*
X1384060Y1173480D03*
X1374060Y1173480D03*
X1364060Y1173480D03*
X1354060Y1173480D03*
D12*
X1383840Y1140330D03*
X1373840Y1140330D03*
X1363840Y1140330D03*
X1353840Y1140330D03*
D10*
X1396840Y1116080D03*
X1340840Y1116080D03*
D13*
X1310386Y622808D03*
X1427480Y1215136D03*
D14*
X1321308Y1151246D03*
X1321308Y1134246D03*
X1321054Y1170822D03*
X1321054Y1187822D03*
D15*
X1369060Y703580D03*
X1343660Y703580D03*
D16*
X1343660Y753180D03*
X1343660Y730180D03*
D17*
X1341120Y1052830D03*
X1397000Y1052830D03*
X1341120Y1014730D03*
X1397000Y1014730D03*
D15*
X1292860Y957580D03*
X1292860Y932180D03*
X1292860Y906780D03*
X1292860Y881380D03*
X1292860Y855980D03*
X1292860Y830580D03*
X1292860Y805180D03*
X1292860Y779780D03*
X1292860Y754380D03*
X1292860Y728980D03*
X1292860Y703580D03*
X1292860Y678180D03*
X1292860Y652780D03*
X1292860Y627380D03*
X1445260Y957580D03*
X1445260Y932180D03*
X1445260Y906780D03*
X1445260Y881380D03*
X1445260Y855980D03*
X1445260Y830580D03*
X1445260Y805180D03*
X1445260Y779780D03*
X1445260Y754380D03*
X1445260Y728980D03*
X1445260Y703580D03*
X1445260Y678180D03*
X1445260Y652780D03*
X1445260Y627380D03*
X1318260Y1084580D03*
X1343660Y1084580D03*
X1369060Y1084580D03*
X1394460Y1084580D03*
X1419860Y1084580D03*
X1407160Y767080D03*
X1407160Y741680D03*
X1407160Y716280D03*
X1407160Y690880D03*
X1445260Y1008380D03*
X1445260Y1033780D03*
X1445260Y1059180D03*
X1445260Y1084580D03*
X1445260Y1109980D03*
X1445260Y1135380D03*
X1445260Y1160780D03*
X1445260Y1186180D03*
X1445260Y1211580D03*
X1292860Y1211580D03*
X1292860Y1186180D03*
X1292860Y1160780D03*
X1292860Y1135380D03*
X1292860Y1109980D03*
X1292860Y1084580D03*
X1292860Y1059180D03*
X1292860Y1033780D03*
X1292860Y1008380D03*
X1292860Y982980D03*
X1445260Y982980D03*
X1407160Y792480D03*
D12*
X1354280Y812930D03*
X1364280Y812930D03*
X1374280Y812930D03*
X1384280Y812930D03*
D10*
X1341280Y837180D03*
X1397280Y837180D03*
X1523940Y628730D03*
X1579940Y628730D03*
D11*
X1536940Y665480D03*
X1546940Y665480D03*
X1556940Y665480D03*
X1566940Y665480D03*
D10*
X1579940Y1210230D03*
X1523940Y1210230D03*
D11*
X1566940Y1173480D03*
X1556940Y1173480D03*
X1546940Y1173480D03*
X1536940Y1173480D03*
D12*
X1566720Y1140330D03*
X1556720Y1140330D03*
X1546720Y1140330D03*
X1536720Y1140330D03*
D10*
X1579720Y1116080D03*
X1523720Y1116080D03*
D13*
X1493266Y622808D03*
X1610360Y1215136D03*
D14*
X1504188Y1151246D03*
X1504188Y1134246D03*
X1503934Y1170822D03*
X1503934Y1187822D03*
D15*
X1551940Y703580D03*
X1526540Y703580D03*
D16*
X1526540Y753180D03*
X1526540Y730180D03*
D17*
X1524000Y1052830D03*
X1579880Y1052830D03*
X1524000Y1014730D03*
X1579880Y1014730D03*
D15*
X1475740Y957580D03*
X1475740Y932180D03*
X1475740Y906780D03*
X1475740Y881380D03*
X1475740Y855980D03*
X1475740Y830580D03*
X1475740Y805180D03*
X1475740Y779780D03*
X1475740Y754380D03*
X1475740Y728980D03*
X1475740Y703580D03*
X1475740Y678180D03*
X1475740Y652780D03*
X1475740Y627380D03*
X1628140Y957580D03*
X1628140Y932180D03*
X1628140Y906780D03*
X1628140Y881380D03*
X1628140Y855980D03*
X1628140Y830580D03*
X1628140Y805180D03*
X1628140Y779780D03*
X1628140Y754380D03*
X1628140Y728980D03*
X1628140Y703580D03*
X1628140Y678180D03*
X1628140Y652780D03*
X1628140Y627380D03*
X1501140Y1084580D03*
X1526540Y1084580D03*
X1551940Y1084580D03*
X1577340Y1084580D03*
X1602740Y1084580D03*
X1590040Y767080D03*
X1590040Y741680D03*
X1590040Y716280D03*
X1590040Y690880D03*
X1628140Y1008380D03*
X1628140Y1033780D03*
X1628140Y1059180D03*
X1628140Y1084580D03*
X1628140Y1109980D03*
X1628140Y1135380D03*
X1628140Y1160780D03*
X1628140Y1186180D03*
X1628140Y1211580D03*
X1475740Y1211580D03*
X1475740Y1186180D03*
X1475740Y1160780D03*
X1475740Y1135380D03*
X1475740Y1109980D03*
X1475740Y1084580D03*
X1475740Y1059180D03*
X1475740Y1033780D03*
X1475740Y1008380D03*
X1475740Y982980D03*
X1628140Y982980D03*
X1590040Y792480D03*
D12*
X1537160Y812930D03*
X1547160Y812930D03*
X1557160Y812930D03*
X1567160Y812930D03*
D10*
X1524160Y837180D03*
X1580160Y837180D03*
D13*
X68580Y1245235D03*
X1571625Y1245235D03*
D18*
X59525Y-20955D02*
X59528Y-20733D01*
X59536Y-20511D01*
X59550Y-20289D01*
X59569Y-20067D01*
X59593Y-19847D01*
X59623Y-19626D01*
X59658Y-19407D01*
X59699Y-19188D01*
X59745Y-18971D01*
X59796Y-18755D01*
X59853Y-18540D01*
X59915Y-18326D01*
X59982Y-18115D01*
X60054Y-17904D01*
X60132Y-17696D01*
X60214Y-17490D01*
X60302Y-17286D01*
X60394Y-17083D01*
X60492Y-16884D01*
X60594Y-16687D01*
X60701Y-16492D01*
X60813Y-16300D01*
X60930Y-16111D01*
X61051Y-15924D01*
X61177Y-15741D01*
X61307Y-15561D01*
X61442Y-15384D01*
X61580Y-15211D01*
X61723Y-15041D01*
X61871Y-14874D01*
X62022Y-14711D01*
X62177Y-14552D01*
X62336Y-14397D01*
X62499Y-14246D01*
X62666Y-14098D01*
X62836Y-13955D01*
X63009Y-13817D01*
X63186Y-13682D01*
X63366Y-13552D01*
X63549Y-13426D01*
X63736Y-13305D01*
X63925Y-13188D01*
X64117Y-13076D01*
X64312Y-12969D01*
X64509Y-12867D01*
X64708Y-12769D01*
X64911Y-12677D01*
X65115Y-12589D01*
X65321Y-12507D01*
X65529Y-12429D01*
X65740Y-12357D01*
X65951Y-12290D01*
X66165Y-12228D01*
X66380Y-12171D01*
X66596Y-12120D01*
X66813Y-12074D01*
X67032Y-12033D01*
X67251Y-11998D01*
X67472Y-11968D01*
X67692Y-11944D01*
X67914Y-11925D01*
X68136Y-11911D01*
X68358Y-11903D01*
X68580Y-11900D01*
X68802Y-11903D01*
X69024Y-11911D01*
X69246Y-11925D01*
X69468Y-11944D01*
X69688Y-11968D01*
X69909Y-11998D01*
X70128Y-12033D01*
X70347Y-12074D01*
X70564Y-12120D01*
X70780Y-12171D01*
X70995Y-12228D01*
X71209Y-12290D01*
X71420Y-12357D01*
X71631Y-12429D01*
X71839Y-12507D01*
X72045Y-12589D01*
X72249Y-12677D01*
X72452Y-12769D01*
X72651Y-12867D01*
X72848Y-12969D01*
X73043Y-13076D01*
X73235Y-13188D01*
X73424Y-13305D01*
X73611Y-13426D01*
X73794Y-13552D01*
X73974Y-13682D01*
X74151Y-13817D01*
X74324Y-13955D01*
X74494Y-14098D01*
X74661Y-14246D01*
X74824Y-14397D01*
X74983Y-14552D01*
X75138Y-14711D01*
X75289Y-14874D01*
X75437Y-15041D01*
X75580Y-15211D01*
X75718Y-15384D01*
X75853Y-15561D01*
X75983Y-15741D01*
X76109Y-15924D01*
X76230Y-16111D01*
X76347Y-16300D01*
X76459Y-16492D01*
X76566Y-16687D01*
X76668Y-16884D01*
X76766Y-17083D01*
X76858Y-17286D01*
X76946Y-17490D01*
X77028Y-17696D01*
X77106Y-17904D01*
X77178Y-18115D01*
X77245Y-18326D01*
X77307Y-18540D01*
X77364Y-18755D01*
X77415Y-18971D01*
X77461Y-19188D01*
X77502Y-19407D01*
X77537Y-19626D01*
X77567Y-19847D01*
X77591Y-20067D01*
X77610Y-20289D01*
X77624Y-20511D01*
X77632Y-20733D01*
X77635Y-20955D01*
X77632Y-21177D01*
X77624Y-21399D01*
X77610Y-21621D01*
X77591Y-21843D01*
X77567Y-22063D01*
X77537Y-22284D01*
X77502Y-22503D01*
X77461Y-22722D01*
X77415Y-22939D01*
X77364Y-23155D01*
X77307Y-23370D01*
X77245Y-23584D01*
X77178Y-23795D01*
X77106Y-24006D01*
X77028Y-24214D01*
X76946Y-24420D01*
X76858Y-24624D01*
X76766Y-24827D01*
X76668Y-25026D01*
X76566Y-25223D01*
X76459Y-25418D01*
X76347Y-25610D01*
X76230Y-25799D01*
X76109Y-25986D01*
X75983Y-26169D01*
X75853Y-26349D01*
X75718Y-26526D01*
X75580Y-26699D01*
X75437Y-26869D01*
X75289Y-27036D01*
X75138Y-27199D01*
X74983Y-27358D01*
X74824Y-27513D01*
X74661Y-27664D01*
X74494Y-27812D01*
X74324Y-27955D01*
X74151Y-28093D01*
X73974Y-28228D01*
X73794Y-28358D01*
X73611Y-28484D01*
X73424Y-28605D01*
X73235Y-28722D01*
X73043Y-28834D01*
X72848Y-28941D01*
X72651Y-29043D01*
X72452Y-29141D01*
X72249Y-29233D01*
X72045Y-29321D01*
X71839Y-29403D01*
X71631Y-29481D01*
X71420Y-29553D01*
X71209Y-29620D01*
X70995Y-29682D01*
X70780Y-29739D01*
X70564Y-29790D01*
X70347Y-29836D01*
X70128Y-29877D01*
X69909Y-29912D01*
X69688Y-29942D01*
X69468Y-29966D01*
X69246Y-29985D01*
X69024Y-29999D01*
X68802Y-30007D01*
X68580Y-30010D01*
X68358Y-30007D01*
X68136Y-29999D01*
X67914Y-29985D01*
X67692Y-29966D01*
X67472Y-29942D01*
X67251Y-29912D01*
X67032Y-29877D01*
X66813Y-29836D01*
X66596Y-29790D01*
X66380Y-29739D01*
X66165Y-29682D01*
X65951Y-29620D01*
X65740Y-29553D01*
X65529Y-29481D01*
X65321Y-29403D01*
X65115Y-29321D01*
X64911Y-29233D01*
X64708Y-29141D01*
X64509Y-29043D01*
X64312Y-28941D01*
X64117Y-28834D01*
X63925Y-28722D01*
X63736Y-28605D01*
X63549Y-28484D01*
X63366Y-28358D01*
X63186Y-28228D01*
X63009Y-28093D01*
X62836Y-27955D01*
X62666Y-27812D01*
X62499Y-27664D01*
X62336Y-27513D01*
X62177Y-27358D01*
X62022Y-27199D01*
X61871Y-27036D01*
X61723Y-26869D01*
X61580Y-26699D01*
X61442Y-26526D01*
X61307Y-26349D01*
X61177Y-26169D01*
X61051Y-25986D01*
X60930Y-25799D01*
X60813Y-25610D01*
X60701Y-25418D01*
X60594Y-25223D01*
X60492Y-25026D01*
X60394Y-24827D01*
X60302Y-24624D01*
X60214Y-24420D01*
X60132Y-24214D01*
X60054Y-24006D01*
X59982Y-23795D01*
X59915Y-23584D01*
X59853Y-23370D01*
X59796Y-23155D01*
X59745Y-22939D01*
X59699Y-22722D01*
X59658Y-22503D01*
X59623Y-22284D01*
X59593Y-22063D01*
X59569Y-21843D01*
X59550Y-21621D01*
X59536Y-21399D01*
X59528Y-21177D01*
X59525Y-20955D01*
D19*
X68580Y-20955D03*
M02*
