G04 EAGLE Gerber RS-274X export*
G75*
%MOMM*%
%FSLAX34Y34*%
%LPD*%
%INSoldermask Bottom*%
%IPPOS*%
%AMOC8*
5,1,8,0,0,1.08239X$1,22.5*%
G01*
%ADD10C,1.203200*%
%ADD11R,1.473200X0.838200*%
%ADD12C,2.082800*%
%ADD13R,1.473200X0.863600*%
%ADD14R,0.838200X1.473200*%
%ADD15C,1.270000*%
%ADD16C,1.703200*%

G36*
X600013Y649490D02*
X600013Y649490D01*
X600079Y649492D01*
X600122Y649510D01*
X600169Y649518D01*
X600226Y649552D01*
X600286Y649577D01*
X600321Y649608D01*
X600362Y649633D01*
X600404Y649684D01*
X600452Y649728D01*
X600474Y649770D01*
X600503Y649807D01*
X600524Y649869D01*
X600555Y649928D01*
X600563Y649982D01*
X600575Y650019D01*
X600574Y650059D01*
X600582Y650113D01*
X600582Y653923D01*
X600571Y653988D01*
X600569Y654054D01*
X600551Y654097D01*
X600543Y654144D01*
X600509Y654201D01*
X600484Y654261D01*
X600453Y654296D01*
X600428Y654337D01*
X600377Y654379D01*
X600333Y654427D01*
X600291Y654449D01*
X600254Y654478D01*
X600192Y654499D01*
X600133Y654530D01*
X600079Y654538D01*
X600042Y654550D01*
X600002Y654549D01*
X599948Y654557D01*
X597408Y654557D01*
X597343Y654546D01*
X597277Y654544D01*
X597234Y654526D01*
X597187Y654518D01*
X597130Y654484D01*
X597070Y654459D01*
X597035Y654428D01*
X596994Y654403D01*
X596953Y654352D01*
X596904Y654308D01*
X596882Y654266D01*
X596853Y654229D01*
X596832Y654167D01*
X596801Y654108D01*
X596793Y654054D01*
X596781Y654017D01*
X596781Y654013D01*
X596781Y654012D01*
X596782Y653977D01*
X596774Y653923D01*
X596774Y650113D01*
X596785Y650048D01*
X596787Y649982D01*
X596805Y649939D01*
X596813Y649892D01*
X596847Y649835D01*
X596872Y649775D01*
X596903Y649740D01*
X596928Y649699D01*
X596979Y649658D01*
X597023Y649609D01*
X597065Y649587D01*
X597102Y649558D01*
X597164Y649537D01*
X597223Y649506D01*
X597277Y649498D01*
X597314Y649486D01*
X597354Y649487D01*
X597408Y649479D01*
X599948Y649479D01*
X600013Y649490D01*
G37*
G36*
X965773Y649490D02*
X965773Y649490D01*
X965839Y649492D01*
X965882Y649510D01*
X965929Y649518D01*
X965986Y649552D01*
X966046Y649577D01*
X966081Y649608D01*
X966122Y649633D01*
X966164Y649684D01*
X966212Y649728D01*
X966234Y649770D01*
X966263Y649807D01*
X966284Y649869D01*
X966315Y649928D01*
X966323Y649982D01*
X966335Y650019D01*
X966334Y650059D01*
X966342Y650113D01*
X966342Y653923D01*
X966331Y653988D01*
X966329Y654054D01*
X966311Y654097D01*
X966303Y654144D01*
X966269Y654201D01*
X966244Y654261D01*
X966213Y654296D01*
X966188Y654337D01*
X966137Y654379D01*
X966093Y654427D01*
X966051Y654449D01*
X966014Y654478D01*
X965952Y654499D01*
X965893Y654530D01*
X965839Y654538D01*
X965802Y654550D01*
X965762Y654549D01*
X965708Y654557D01*
X963168Y654557D01*
X963103Y654546D01*
X963037Y654544D01*
X962994Y654526D01*
X962947Y654518D01*
X962890Y654484D01*
X962830Y654459D01*
X962795Y654428D01*
X962754Y654403D01*
X962713Y654352D01*
X962664Y654308D01*
X962642Y654266D01*
X962613Y654229D01*
X962592Y654167D01*
X962561Y654108D01*
X962553Y654054D01*
X962541Y654017D01*
X962541Y654013D01*
X962541Y654012D01*
X962542Y653977D01*
X962534Y653923D01*
X962534Y650113D01*
X962545Y650048D01*
X962547Y649982D01*
X962565Y649939D01*
X962573Y649892D01*
X962607Y649835D01*
X962632Y649775D01*
X962663Y649740D01*
X962688Y649699D01*
X962739Y649658D01*
X962783Y649609D01*
X962825Y649587D01*
X962862Y649558D01*
X962924Y649537D01*
X962983Y649506D01*
X963037Y649498D01*
X963074Y649486D01*
X963114Y649487D01*
X963168Y649479D01*
X965708Y649479D01*
X965773Y649490D01*
G37*
G36*
X782893Y649490D02*
X782893Y649490D01*
X782959Y649492D01*
X783002Y649510D01*
X783049Y649518D01*
X783106Y649552D01*
X783166Y649577D01*
X783201Y649608D01*
X783242Y649633D01*
X783284Y649684D01*
X783332Y649728D01*
X783354Y649770D01*
X783383Y649807D01*
X783404Y649869D01*
X783435Y649928D01*
X783443Y649982D01*
X783455Y650019D01*
X783454Y650059D01*
X783462Y650113D01*
X783462Y653923D01*
X783451Y653988D01*
X783449Y654054D01*
X783431Y654097D01*
X783423Y654144D01*
X783389Y654201D01*
X783364Y654261D01*
X783333Y654296D01*
X783308Y654337D01*
X783257Y654379D01*
X783213Y654427D01*
X783171Y654449D01*
X783134Y654478D01*
X783072Y654499D01*
X783013Y654530D01*
X782959Y654538D01*
X782922Y654550D01*
X782882Y654549D01*
X782828Y654557D01*
X780288Y654557D01*
X780223Y654546D01*
X780157Y654544D01*
X780114Y654526D01*
X780067Y654518D01*
X780010Y654484D01*
X779950Y654459D01*
X779915Y654428D01*
X779874Y654403D01*
X779833Y654352D01*
X779784Y654308D01*
X779762Y654266D01*
X779733Y654229D01*
X779712Y654167D01*
X779681Y654108D01*
X779673Y654054D01*
X779661Y654017D01*
X779661Y654013D01*
X779661Y654012D01*
X779662Y653977D01*
X779654Y653923D01*
X779654Y650113D01*
X779665Y650048D01*
X779667Y649982D01*
X779685Y649939D01*
X779693Y649892D01*
X779727Y649835D01*
X779752Y649775D01*
X779783Y649740D01*
X779808Y649699D01*
X779859Y649658D01*
X779903Y649609D01*
X779945Y649587D01*
X779982Y649558D01*
X780044Y649537D01*
X780103Y649506D01*
X780157Y649498D01*
X780194Y649486D01*
X780234Y649487D01*
X780288Y649479D01*
X782828Y649479D01*
X782893Y649490D01*
G37*
G36*
X51373Y649490D02*
X51373Y649490D01*
X51439Y649492D01*
X51482Y649510D01*
X51529Y649518D01*
X51586Y649552D01*
X51646Y649577D01*
X51681Y649608D01*
X51722Y649633D01*
X51764Y649684D01*
X51812Y649728D01*
X51834Y649770D01*
X51863Y649807D01*
X51884Y649869D01*
X51915Y649928D01*
X51923Y649982D01*
X51935Y650019D01*
X51934Y650059D01*
X51942Y650113D01*
X51942Y653923D01*
X51931Y653988D01*
X51929Y654054D01*
X51911Y654097D01*
X51903Y654144D01*
X51869Y654201D01*
X51844Y654261D01*
X51813Y654296D01*
X51788Y654337D01*
X51737Y654379D01*
X51693Y654427D01*
X51651Y654449D01*
X51614Y654478D01*
X51552Y654499D01*
X51493Y654530D01*
X51439Y654538D01*
X51402Y654550D01*
X51362Y654549D01*
X51308Y654557D01*
X48768Y654557D01*
X48703Y654546D01*
X48637Y654544D01*
X48594Y654526D01*
X48547Y654518D01*
X48490Y654484D01*
X48430Y654459D01*
X48395Y654428D01*
X48354Y654403D01*
X48313Y654352D01*
X48264Y654308D01*
X48242Y654266D01*
X48213Y654229D01*
X48192Y654167D01*
X48161Y654108D01*
X48153Y654054D01*
X48141Y654017D01*
X48141Y654013D01*
X48141Y654012D01*
X48142Y653977D01*
X48134Y653923D01*
X48134Y650113D01*
X48145Y650048D01*
X48147Y649982D01*
X48165Y649939D01*
X48173Y649892D01*
X48207Y649835D01*
X48232Y649775D01*
X48263Y649740D01*
X48288Y649699D01*
X48339Y649658D01*
X48383Y649609D01*
X48425Y649587D01*
X48462Y649558D01*
X48524Y649537D01*
X48583Y649506D01*
X48637Y649498D01*
X48674Y649486D01*
X48714Y649487D01*
X48768Y649479D01*
X51308Y649479D01*
X51373Y649490D01*
G37*
G36*
X1514413Y649490D02*
X1514413Y649490D01*
X1514479Y649492D01*
X1514522Y649510D01*
X1514569Y649518D01*
X1514626Y649552D01*
X1514686Y649577D01*
X1514721Y649608D01*
X1514762Y649633D01*
X1514804Y649684D01*
X1514852Y649728D01*
X1514874Y649770D01*
X1514903Y649807D01*
X1514924Y649869D01*
X1514955Y649928D01*
X1514963Y649982D01*
X1514975Y650019D01*
X1514974Y650059D01*
X1514982Y650113D01*
X1514982Y653923D01*
X1514971Y653988D01*
X1514969Y654054D01*
X1514951Y654097D01*
X1514943Y654144D01*
X1514909Y654201D01*
X1514884Y654261D01*
X1514853Y654296D01*
X1514828Y654337D01*
X1514777Y654379D01*
X1514733Y654427D01*
X1514691Y654449D01*
X1514654Y654478D01*
X1514592Y654499D01*
X1514533Y654530D01*
X1514479Y654538D01*
X1514442Y654550D01*
X1514402Y654549D01*
X1514348Y654557D01*
X1511808Y654557D01*
X1511743Y654546D01*
X1511677Y654544D01*
X1511634Y654526D01*
X1511587Y654518D01*
X1511530Y654484D01*
X1511470Y654459D01*
X1511435Y654428D01*
X1511394Y654403D01*
X1511353Y654352D01*
X1511304Y654308D01*
X1511282Y654266D01*
X1511253Y654229D01*
X1511232Y654167D01*
X1511201Y654108D01*
X1511193Y654054D01*
X1511181Y654017D01*
X1511181Y654013D01*
X1511181Y654012D01*
X1511182Y653977D01*
X1511174Y653923D01*
X1511174Y650113D01*
X1511185Y650048D01*
X1511187Y649982D01*
X1511205Y649939D01*
X1511213Y649892D01*
X1511247Y649835D01*
X1511272Y649775D01*
X1511303Y649740D01*
X1511328Y649699D01*
X1511379Y649658D01*
X1511423Y649609D01*
X1511465Y649587D01*
X1511502Y649558D01*
X1511564Y649537D01*
X1511623Y649506D01*
X1511677Y649498D01*
X1511714Y649486D01*
X1511754Y649487D01*
X1511808Y649479D01*
X1514348Y649479D01*
X1514413Y649490D01*
G37*
G36*
X417133Y649490D02*
X417133Y649490D01*
X417199Y649492D01*
X417242Y649510D01*
X417289Y649518D01*
X417346Y649552D01*
X417406Y649577D01*
X417441Y649608D01*
X417482Y649633D01*
X417524Y649684D01*
X417572Y649728D01*
X417594Y649770D01*
X417623Y649807D01*
X417644Y649869D01*
X417675Y649928D01*
X417683Y649982D01*
X417695Y650019D01*
X417694Y650059D01*
X417702Y650113D01*
X417702Y653923D01*
X417691Y653988D01*
X417689Y654054D01*
X417671Y654097D01*
X417663Y654144D01*
X417629Y654201D01*
X417604Y654261D01*
X417573Y654296D01*
X417548Y654337D01*
X417497Y654379D01*
X417453Y654427D01*
X417411Y654449D01*
X417374Y654478D01*
X417312Y654499D01*
X417253Y654530D01*
X417199Y654538D01*
X417162Y654550D01*
X417122Y654549D01*
X417068Y654557D01*
X414528Y654557D01*
X414463Y654546D01*
X414397Y654544D01*
X414354Y654526D01*
X414307Y654518D01*
X414250Y654484D01*
X414190Y654459D01*
X414155Y654428D01*
X414114Y654403D01*
X414073Y654352D01*
X414024Y654308D01*
X414002Y654266D01*
X413973Y654229D01*
X413952Y654167D01*
X413921Y654108D01*
X413913Y654054D01*
X413901Y654017D01*
X413901Y654013D01*
X413901Y654012D01*
X413902Y653977D01*
X413894Y653923D01*
X413894Y650113D01*
X413905Y650048D01*
X413907Y649982D01*
X413925Y649939D01*
X413933Y649892D01*
X413967Y649835D01*
X413992Y649775D01*
X414023Y649740D01*
X414048Y649699D01*
X414099Y649658D01*
X414143Y649609D01*
X414185Y649587D01*
X414222Y649558D01*
X414284Y649537D01*
X414343Y649506D01*
X414397Y649498D01*
X414434Y649486D01*
X414474Y649487D01*
X414528Y649479D01*
X417068Y649479D01*
X417133Y649490D01*
G37*
G36*
X234253Y649490D02*
X234253Y649490D01*
X234319Y649492D01*
X234362Y649510D01*
X234409Y649518D01*
X234466Y649552D01*
X234526Y649577D01*
X234561Y649608D01*
X234602Y649633D01*
X234644Y649684D01*
X234692Y649728D01*
X234714Y649770D01*
X234743Y649807D01*
X234764Y649869D01*
X234795Y649928D01*
X234803Y649982D01*
X234815Y650019D01*
X234814Y650059D01*
X234822Y650113D01*
X234822Y653923D01*
X234811Y653988D01*
X234809Y654054D01*
X234791Y654097D01*
X234783Y654144D01*
X234749Y654201D01*
X234724Y654261D01*
X234693Y654296D01*
X234668Y654337D01*
X234617Y654379D01*
X234573Y654427D01*
X234531Y654449D01*
X234494Y654478D01*
X234432Y654499D01*
X234373Y654530D01*
X234319Y654538D01*
X234282Y654550D01*
X234242Y654549D01*
X234188Y654557D01*
X231648Y654557D01*
X231583Y654546D01*
X231517Y654544D01*
X231474Y654526D01*
X231427Y654518D01*
X231370Y654484D01*
X231310Y654459D01*
X231275Y654428D01*
X231234Y654403D01*
X231193Y654352D01*
X231144Y654308D01*
X231122Y654266D01*
X231093Y654229D01*
X231072Y654167D01*
X231041Y654108D01*
X231033Y654054D01*
X231021Y654017D01*
X231021Y654013D01*
X231021Y654012D01*
X231022Y653977D01*
X231014Y653923D01*
X231014Y650113D01*
X231025Y650048D01*
X231027Y649982D01*
X231045Y649939D01*
X231053Y649892D01*
X231087Y649835D01*
X231112Y649775D01*
X231143Y649740D01*
X231168Y649699D01*
X231219Y649658D01*
X231263Y649609D01*
X231305Y649587D01*
X231342Y649558D01*
X231404Y649537D01*
X231463Y649506D01*
X231517Y649498D01*
X231554Y649486D01*
X231594Y649487D01*
X231648Y649479D01*
X234188Y649479D01*
X234253Y649490D01*
G37*
G36*
X1148653Y649490D02*
X1148653Y649490D01*
X1148719Y649492D01*
X1148762Y649510D01*
X1148809Y649518D01*
X1148866Y649552D01*
X1148926Y649577D01*
X1148961Y649608D01*
X1149002Y649633D01*
X1149044Y649684D01*
X1149092Y649728D01*
X1149114Y649770D01*
X1149143Y649807D01*
X1149164Y649869D01*
X1149195Y649928D01*
X1149203Y649982D01*
X1149215Y650019D01*
X1149214Y650059D01*
X1149222Y650113D01*
X1149222Y653923D01*
X1149211Y653988D01*
X1149209Y654054D01*
X1149191Y654097D01*
X1149183Y654144D01*
X1149149Y654201D01*
X1149124Y654261D01*
X1149093Y654296D01*
X1149068Y654337D01*
X1149017Y654379D01*
X1148973Y654427D01*
X1148931Y654449D01*
X1148894Y654478D01*
X1148832Y654499D01*
X1148773Y654530D01*
X1148719Y654538D01*
X1148682Y654550D01*
X1148642Y654549D01*
X1148588Y654557D01*
X1146048Y654557D01*
X1145983Y654546D01*
X1145917Y654544D01*
X1145874Y654526D01*
X1145827Y654518D01*
X1145770Y654484D01*
X1145710Y654459D01*
X1145675Y654428D01*
X1145634Y654403D01*
X1145593Y654352D01*
X1145544Y654308D01*
X1145522Y654266D01*
X1145493Y654229D01*
X1145472Y654167D01*
X1145441Y654108D01*
X1145433Y654054D01*
X1145421Y654017D01*
X1145421Y654013D01*
X1145421Y654012D01*
X1145422Y653977D01*
X1145414Y653923D01*
X1145414Y650113D01*
X1145425Y650048D01*
X1145427Y649982D01*
X1145445Y649939D01*
X1145453Y649892D01*
X1145487Y649835D01*
X1145512Y649775D01*
X1145543Y649740D01*
X1145568Y649699D01*
X1145619Y649658D01*
X1145663Y649609D01*
X1145705Y649587D01*
X1145742Y649558D01*
X1145804Y649537D01*
X1145863Y649506D01*
X1145917Y649498D01*
X1145954Y649486D01*
X1145994Y649487D01*
X1146048Y649479D01*
X1148588Y649479D01*
X1148653Y649490D01*
G37*
G36*
X1331533Y649490D02*
X1331533Y649490D01*
X1331599Y649492D01*
X1331642Y649510D01*
X1331689Y649518D01*
X1331746Y649552D01*
X1331806Y649577D01*
X1331841Y649608D01*
X1331882Y649633D01*
X1331924Y649684D01*
X1331972Y649728D01*
X1331994Y649770D01*
X1332023Y649807D01*
X1332044Y649869D01*
X1332075Y649928D01*
X1332083Y649982D01*
X1332095Y650019D01*
X1332094Y650059D01*
X1332102Y650113D01*
X1332102Y653923D01*
X1332091Y653988D01*
X1332089Y654054D01*
X1332071Y654097D01*
X1332063Y654144D01*
X1332029Y654201D01*
X1332004Y654261D01*
X1331973Y654296D01*
X1331948Y654337D01*
X1331897Y654379D01*
X1331853Y654427D01*
X1331811Y654449D01*
X1331774Y654478D01*
X1331712Y654499D01*
X1331653Y654530D01*
X1331599Y654538D01*
X1331562Y654550D01*
X1331522Y654549D01*
X1331468Y654557D01*
X1328928Y654557D01*
X1328863Y654546D01*
X1328797Y654544D01*
X1328754Y654526D01*
X1328707Y654518D01*
X1328650Y654484D01*
X1328590Y654459D01*
X1328555Y654428D01*
X1328514Y654403D01*
X1328473Y654352D01*
X1328424Y654308D01*
X1328402Y654266D01*
X1328373Y654229D01*
X1328352Y654167D01*
X1328321Y654108D01*
X1328313Y654054D01*
X1328301Y654017D01*
X1328301Y654013D01*
X1328301Y654012D01*
X1328302Y653977D01*
X1328294Y653923D01*
X1328294Y650113D01*
X1328305Y650048D01*
X1328307Y649982D01*
X1328325Y649939D01*
X1328333Y649892D01*
X1328367Y649835D01*
X1328392Y649775D01*
X1328423Y649740D01*
X1328448Y649699D01*
X1328499Y649658D01*
X1328543Y649609D01*
X1328585Y649587D01*
X1328622Y649558D01*
X1328684Y649537D01*
X1328743Y649506D01*
X1328797Y649498D01*
X1328834Y649486D01*
X1328874Y649487D01*
X1328928Y649479D01*
X1331468Y649479D01*
X1331533Y649490D01*
G37*
G36*
X965773Y34810D02*
X965773Y34810D01*
X965839Y34812D01*
X965882Y34830D01*
X965929Y34838D01*
X965986Y34872D01*
X966046Y34897D01*
X966081Y34928D01*
X966122Y34953D01*
X966164Y35004D01*
X966212Y35048D01*
X966234Y35090D01*
X966263Y35127D01*
X966284Y35189D01*
X966315Y35248D01*
X966323Y35302D01*
X966335Y35339D01*
X966334Y35379D01*
X966342Y35433D01*
X966342Y39243D01*
X966331Y39308D01*
X966329Y39374D01*
X966311Y39417D01*
X966303Y39464D01*
X966269Y39521D01*
X966244Y39581D01*
X966213Y39616D01*
X966188Y39657D01*
X966137Y39699D01*
X966093Y39747D01*
X966051Y39769D01*
X966014Y39798D01*
X965952Y39819D01*
X965893Y39850D01*
X965839Y39858D01*
X965802Y39870D01*
X965762Y39869D01*
X965708Y39877D01*
X963168Y39877D01*
X963103Y39866D01*
X963037Y39864D01*
X962994Y39846D01*
X962947Y39838D01*
X962890Y39804D01*
X962830Y39779D01*
X962795Y39748D01*
X962754Y39723D01*
X962713Y39672D01*
X962664Y39628D01*
X962642Y39586D01*
X962613Y39549D01*
X962592Y39487D01*
X962561Y39428D01*
X962553Y39374D01*
X962541Y39337D01*
X962541Y39333D01*
X962541Y39332D01*
X962542Y39297D01*
X962534Y39243D01*
X962534Y35433D01*
X962545Y35368D01*
X962547Y35302D01*
X962565Y35259D01*
X962573Y35212D01*
X962607Y35155D01*
X962632Y35095D01*
X962663Y35060D01*
X962688Y35019D01*
X962739Y34978D01*
X962783Y34929D01*
X962825Y34907D01*
X962862Y34878D01*
X962924Y34857D01*
X962983Y34826D01*
X963037Y34818D01*
X963074Y34806D01*
X963114Y34807D01*
X963168Y34799D01*
X965708Y34799D01*
X965773Y34810D01*
G37*
G36*
X1514413Y34810D02*
X1514413Y34810D01*
X1514479Y34812D01*
X1514522Y34830D01*
X1514569Y34838D01*
X1514626Y34872D01*
X1514686Y34897D01*
X1514721Y34928D01*
X1514762Y34953D01*
X1514804Y35004D01*
X1514852Y35048D01*
X1514874Y35090D01*
X1514903Y35127D01*
X1514924Y35189D01*
X1514955Y35248D01*
X1514963Y35302D01*
X1514975Y35339D01*
X1514974Y35379D01*
X1514982Y35433D01*
X1514982Y39243D01*
X1514971Y39308D01*
X1514969Y39374D01*
X1514951Y39417D01*
X1514943Y39464D01*
X1514909Y39521D01*
X1514884Y39581D01*
X1514853Y39616D01*
X1514828Y39657D01*
X1514777Y39699D01*
X1514733Y39747D01*
X1514691Y39769D01*
X1514654Y39798D01*
X1514592Y39819D01*
X1514533Y39850D01*
X1514479Y39858D01*
X1514442Y39870D01*
X1514402Y39869D01*
X1514348Y39877D01*
X1511808Y39877D01*
X1511743Y39866D01*
X1511677Y39864D01*
X1511634Y39846D01*
X1511587Y39838D01*
X1511530Y39804D01*
X1511470Y39779D01*
X1511435Y39748D01*
X1511394Y39723D01*
X1511353Y39672D01*
X1511304Y39628D01*
X1511282Y39586D01*
X1511253Y39549D01*
X1511232Y39487D01*
X1511201Y39428D01*
X1511193Y39374D01*
X1511181Y39337D01*
X1511181Y39333D01*
X1511181Y39332D01*
X1511182Y39297D01*
X1511174Y39243D01*
X1511174Y35433D01*
X1511185Y35368D01*
X1511187Y35302D01*
X1511205Y35259D01*
X1511213Y35212D01*
X1511247Y35155D01*
X1511272Y35095D01*
X1511303Y35060D01*
X1511328Y35019D01*
X1511379Y34978D01*
X1511423Y34929D01*
X1511465Y34907D01*
X1511502Y34878D01*
X1511564Y34857D01*
X1511623Y34826D01*
X1511677Y34818D01*
X1511714Y34806D01*
X1511754Y34807D01*
X1511808Y34799D01*
X1514348Y34799D01*
X1514413Y34810D01*
G37*
G36*
X782893Y34810D02*
X782893Y34810D01*
X782959Y34812D01*
X783002Y34830D01*
X783049Y34838D01*
X783106Y34872D01*
X783166Y34897D01*
X783201Y34928D01*
X783242Y34953D01*
X783284Y35004D01*
X783332Y35048D01*
X783354Y35090D01*
X783383Y35127D01*
X783404Y35189D01*
X783435Y35248D01*
X783443Y35302D01*
X783455Y35339D01*
X783454Y35379D01*
X783462Y35433D01*
X783462Y39243D01*
X783451Y39308D01*
X783449Y39374D01*
X783431Y39417D01*
X783423Y39464D01*
X783389Y39521D01*
X783364Y39581D01*
X783333Y39616D01*
X783308Y39657D01*
X783257Y39699D01*
X783213Y39747D01*
X783171Y39769D01*
X783134Y39798D01*
X783072Y39819D01*
X783013Y39850D01*
X782959Y39858D01*
X782922Y39870D01*
X782882Y39869D01*
X782828Y39877D01*
X780288Y39877D01*
X780223Y39866D01*
X780157Y39864D01*
X780114Y39846D01*
X780067Y39838D01*
X780010Y39804D01*
X779950Y39779D01*
X779915Y39748D01*
X779874Y39723D01*
X779833Y39672D01*
X779784Y39628D01*
X779762Y39586D01*
X779733Y39549D01*
X779712Y39487D01*
X779681Y39428D01*
X779673Y39374D01*
X779661Y39337D01*
X779661Y39333D01*
X779661Y39332D01*
X779662Y39297D01*
X779654Y39243D01*
X779654Y35433D01*
X779665Y35368D01*
X779667Y35302D01*
X779685Y35259D01*
X779693Y35212D01*
X779727Y35155D01*
X779752Y35095D01*
X779783Y35060D01*
X779808Y35019D01*
X779859Y34978D01*
X779903Y34929D01*
X779945Y34907D01*
X779982Y34878D01*
X780044Y34857D01*
X780103Y34826D01*
X780157Y34818D01*
X780194Y34806D01*
X780234Y34807D01*
X780288Y34799D01*
X782828Y34799D01*
X782893Y34810D01*
G37*
G36*
X600013Y34810D02*
X600013Y34810D01*
X600079Y34812D01*
X600122Y34830D01*
X600169Y34838D01*
X600226Y34872D01*
X600286Y34897D01*
X600321Y34928D01*
X600362Y34953D01*
X600404Y35004D01*
X600452Y35048D01*
X600474Y35090D01*
X600503Y35127D01*
X600524Y35189D01*
X600555Y35248D01*
X600563Y35302D01*
X600575Y35339D01*
X600574Y35379D01*
X600582Y35433D01*
X600582Y39243D01*
X600571Y39308D01*
X600569Y39374D01*
X600551Y39417D01*
X600543Y39464D01*
X600509Y39521D01*
X600484Y39581D01*
X600453Y39616D01*
X600428Y39657D01*
X600377Y39699D01*
X600333Y39747D01*
X600291Y39769D01*
X600254Y39798D01*
X600192Y39819D01*
X600133Y39850D01*
X600079Y39858D01*
X600042Y39870D01*
X600002Y39869D01*
X599948Y39877D01*
X597408Y39877D01*
X597343Y39866D01*
X597277Y39864D01*
X597234Y39846D01*
X597187Y39838D01*
X597130Y39804D01*
X597070Y39779D01*
X597035Y39748D01*
X596994Y39723D01*
X596953Y39672D01*
X596904Y39628D01*
X596882Y39586D01*
X596853Y39549D01*
X596832Y39487D01*
X596801Y39428D01*
X596793Y39374D01*
X596781Y39337D01*
X596781Y39333D01*
X596781Y39332D01*
X596782Y39297D01*
X596774Y39243D01*
X596774Y35433D01*
X596785Y35368D01*
X596787Y35302D01*
X596805Y35259D01*
X596813Y35212D01*
X596847Y35155D01*
X596872Y35095D01*
X596903Y35060D01*
X596928Y35019D01*
X596979Y34978D01*
X597023Y34929D01*
X597065Y34907D01*
X597102Y34878D01*
X597164Y34857D01*
X597223Y34826D01*
X597277Y34818D01*
X597314Y34806D01*
X597354Y34807D01*
X597408Y34799D01*
X599948Y34799D01*
X600013Y34810D01*
G37*
G36*
X1331533Y34810D02*
X1331533Y34810D01*
X1331599Y34812D01*
X1331642Y34830D01*
X1331689Y34838D01*
X1331746Y34872D01*
X1331806Y34897D01*
X1331841Y34928D01*
X1331882Y34953D01*
X1331924Y35004D01*
X1331972Y35048D01*
X1331994Y35090D01*
X1332023Y35127D01*
X1332044Y35189D01*
X1332075Y35248D01*
X1332083Y35302D01*
X1332095Y35339D01*
X1332094Y35379D01*
X1332102Y35433D01*
X1332102Y39243D01*
X1332091Y39308D01*
X1332089Y39374D01*
X1332071Y39417D01*
X1332063Y39464D01*
X1332029Y39521D01*
X1332004Y39581D01*
X1331973Y39616D01*
X1331948Y39657D01*
X1331897Y39699D01*
X1331853Y39747D01*
X1331811Y39769D01*
X1331774Y39798D01*
X1331712Y39819D01*
X1331653Y39850D01*
X1331599Y39858D01*
X1331562Y39870D01*
X1331522Y39869D01*
X1331468Y39877D01*
X1328928Y39877D01*
X1328863Y39866D01*
X1328797Y39864D01*
X1328754Y39846D01*
X1328707Y39838D01*
X1328650Y39804D01*
X1328590Y39779D01*
X1328555Y39748D01*
X1328514Y39723D01*
X1328473Y39672D01*
X1328424Y39628D01*
X1328402Y39586D01*
X1328373Y39549D01*
X1328352Y39487D01*
X1328321Y39428D01*
X1328313Y39374D01*
X1328301Y39337D01*
X1328301Y39333D01*
X1328301Y39332D01*
X1328302Y39297D01*
X1328294Y39243D01*
X1328294Y35433D01*
X1328305Y35368D01*
X1328307Y35302D01*
X1328325Y35259D01*
X1328333Y35212D01*
X1328367Y35155D01*
X1328392Y35095D01*
X1328423Y35060D01*
X1328448Y35019D01*
X1328499Y34978D01*
X1328543Y34929D01*
X1328585Y34907D01*
X1328622Y34878D01*
X1328684Y34857D01*
X1328743Y34826D01*
X1328797Y34818D01*
X1328834Y34806D01*
X1328874Y34807D01*
X1328928Y34799D01*
X1331468Y34799D01*
X1331533Y34810D01*
G37*
G36*
X417133Y34810D02*
X417133Y34810D01*
X417199Y34812D01*
X417242Y34830D01*
X417289Y34838D01*
X417346Y34872D01*
X417406Y34897D01*
X417441Y34928D01*
X417482Y34953D01*
X417524Y35004D01*
X417572Y35048D01*
X417594Y35090D01*
X417623Y35127D01*
X417644Y35189D01*
X417675Y35248D01*
X417683Y35302D01*
X417695Y35339D01*
X417694Y35379D01*
X417702Y35433D01*
X417702Y39243D01*
X417691Y39308D01*
X417689Y39374D01*
X417671Y39417D01*
X417663Y39464D01*
X417629Y39521D01*
X417604Y39581D01*
X417573Y39616D01*
X417548Y39657D01*
X417497Y39699D01*
X417453Y39747D01*
X417411Y39769D01*
X417374Y39798D01*
X417312Y39819D01*
X417253Y39850D01*
X417199Y39858D01*
X417162Y39870D01*
X417122Y39869D01*
X417068Y39877D01*
X414528Y39877D01*
X414463Y39866D01*
X414397Y39864D01*
X414354Y39846D01*
X414307Y39838D01*
X414250Y39804D01*
X414190Y39779D01*
X414155Y39748D01*
X414114Y39723D01*
X414073Y39672D01*
X414024Y39628D01*
X414002Y39586D01*
X413973Y39549D01*
X413952Y39487D01*
X413921Y39428D01*
X413913Y39374D01*
X413901Y39337D01*
X413901Y39333D01*
X413901Y39332D01*
X413902Y39297D01*
X413894Y39243D01*
X413894Y35433D01*
X413905Y35368D01*
X413907Y35302D01*
X413925Y35259D01*
X413933Y35212D01*
X413967Y35155D01*
X413992Y35095D01*
X414023Y35060D01*
X414048Y35019D01*
X414099Y34978D01*
X414143Y34929D01*
X414185Y34907D01*
X414222Y34878D01*
X414284Y34857D01*
X414343Y34826D01*
X414397Y34818D01*
X414434Y34806D01*
X414474Y34807D01*
X414528Y34799D01*
X417068Y34799D01*
X417133Y34810D01*
G37*
G36*
X234253Y34810D02*
X234253Y34810D01*
X234319Y34812D01*
X234362Y34830D01*
X234409Y34838D01*
X234466Y34872D01*
X234526Y34897D01*
X234561Y34928D01*
X234602Y34953D01*
X234644Y35004D01*
X234692Y35048D01*
X234714Y35090D01*
X234743Y35127D01*
X234764Y35189D01*
X234795Y35248D01*
X234803Y35302D01*
X234815Y35339D01*
X234814Y35379D01*
X234822Y35433D01*
X234822Y39243D01*
X234811Y39308D01*
X234809Y39374D01*
X234791Y39417D01*
X234783Y39464D01*
X234749Y39521D01*
X234724Y39581D01*
X234693Y39616D01*
X234668Y39657D01*
X234617Y39699D01*
X234573Y39747D01*
X234531Y39769D01*
X234494Y39798D01*
X234432Y39819D01*
X234373Y39850D01*
X234319Y39858D01*
X234282Y39870D01*
X234242Y39869D01*
X234188Y39877D01*
X231648Y39877D01*
X231583Y39866D01*
X231517Y39864D01*
X231474Y39846D01*
X231427Y39838D01*
X231370Y39804D01*
X231310Y39779D01*
X231275Y39748D01*
X231234Y39723D01*
X231193Y39672D01*
X231144Y39628D01*
X231122Y39586D01*
X231093Y39549D01*
X231072Y39487D01*
X231041Y39428D01*
X231033Y39374D01*
X231021Y39337D01*
X231021Y39333D01*
X231021Y39332D01*
X231022Y39297D01*
X231014Y39243D01*
X231014Y35433D01*
X231025Y35368D01*
X231027Y35302D01*
X231045Y35259D01*
X231053Y35212D01*
X231087Y35155D01*
X231112Y35095D01*
X231143Y35060D01*
X231168Y35019D01*
X231219Y34978D01*
X231263Y34929D01*
X231305Y34907D01*
X231342Y34878D01*
X231404Y34857D01*
X231463Y34826D01*
X231517Y34818D01*
X231554Y34806D01*
X231594Y34807D01*
X231648Y34799D01*
X234188Y34799D01*
X234253Y34810D01*
G37*
G36*
X1148653Y34810D02*
X1148653Y34810D01*
X1148719Y34812D01*
X1148762Y34830D01*
X1148809Y34838D01*
X1148866Y34872D01*
X1148926Y34897D01*
X1148961Y34928D01*
X1149002Y34953D01*
X1149044Y35004D01*
X1149092Y35048D01*
X1149114Y35090D01*
X1149143Y35127D01*
X1149164Y35189D01*
X1149195Y35248D01*
X1149203Y35302D01*
X1149215Y35339D01*
X1149214Y35379D01*
X1149222Y35433D01*
X1149222Y39243D01*
X1149211Y39308D01*
X1149209Y39374D01*
X1149191Y39417D01*
X1149183Y39464D01*
X1149149Y39521D01*
X1149124Y39581D01*
X1149093Y39616D01*
X1149068Y39657D01*
X1149017Y39699D01*
X1148973Y39747D01*
X1148931Y39769D01*
X1148894Y39798D01*
X1148832Y39819D01*
X1148773Y39850D01*
X1148719Y39858D01*
X1148682Y39870D01*
X1148642Y39869D01*
X1148588Y39877D01*
X1146048Y39877D01*
X1145983Y39866D01*
X1145917Y39864D01*
X1145874Y39846D01*
X1145827Y39838D01*
X1145770Y39804D01*
X1145710Y39779D01*
X1145675Y39748D01*
X1145634Y39723D01*
X1145593Y39672D01*
X1145544Y39628D01*
X1145522Y39586D01*
X1145493Y39549D01*
X1145472Y39487D01*
X1145441Y39428D01*
X1145433Y39374D01*
X1145421Y39337D01*
X1145421Y39333D01*
X1145421Y39332D01*
X1145422Y39297D01*
X1145414Y39243D01*
X1145414Y35433D01*
X1145425Y35368D01*
X1145427Y35302D01*
X1145445Y35259D01*
X1145453Y35212D01*
X1145487Y35155D01*
X1145512Y35095D01*
X1145543Y35060D01*
X1145568Y35019D01*
X1145619Y34978D01*
X1145663Y34929D01*
X1145705Y34907D01*
X1145742Y34878D01*
X1145804Y34857D01*
X1145863Y34826D01*
X1145917Y34818D01*
X1145954Y34806D01*
X1145994Y34807D01*
X1146048Y34799D01*
X1148588Y34799D01*
X1148653Y34810D01*
G37*
G36*
X51373Y34810D02*
X51373Y34810D01*
X51439Y34812D01*
X51482Y34830D01*
X51529Y34838D01*
X51586Y34872D01*
X51646Y34897D01*
X51681Y34928D01*
X51722Y34953D01*
X51764Y35004D01*
X51812Y35048D01*
X51834Y35090D01*
X51863Y35127D01*
X51884Y35189D01*
X51915Y35248D01*
X51923Y35302D01*
X51935Y35339D01*
X51934Y35379D01*
X51942Y35433D01*
X51942Y39243D01*
X51931Y39308D01*
X51929Y39374D01*
X51911Y39417D01*
X51903Y39464D01*
X51869Y39521D01*
X51844Y39581D01*
X51813Y39616D01*
X51788Y39657D01*
X51737Y39699D01*
X51693Y39747D01*
X51651Y39769D01*
X51614Y39798D01*
X51552Y39819D01*
X51493Y39850D01*
X51439Y39858D01*
X51402Y39870D01*
X51362Y39869D01*
X51308Y39877D01*
X48768Y39877D01*
X48703Y39866D01*
X48637Y39864D01*
X48594Y39846D01*
X48547Y39838D01*
X48490Y39804D01*
X48430Y39779D01*
X48395Y39748D01*
X48354Y39723D01*
X48313Y39672D01*
X48264Y39628D01*
X48242Y39586D01*
X48213Y39549D01*
X48192Y39487D01*
X48161Y39428D01*
X48153Y39374D01*
X48141Y39337D01*
X48141Y39333D01*
X48141Y39332D01*
X48142Y39297D01*
X48134Y39243D01*
X48134Y35433D01*
X48145Y35368D01*
X48147Y35302D01*
X48165Y35259D01*
X48173Y35212D01*
X48207Y35155D01*
X48232Y35095D01*
X48263Y35060D01*
X48288Y35019D01*
X48339Y34978D01*
X48383Y34929D01*
X48425Y34907D01*
X48462Y34878D01*
X48524Y34857D01*
X48583Y34826D01*
X48637Y34818D01*
X48674Y34806D01*
X48714Y34807D01*
X48768Y34799D01*
X51308Y34799D01*
X51373Y34810D01*
G37*
D10*
X30226Y8128D03*
X147320Y600456D03*
D11*
X47752Y539496D03*
X47752Y547624D03*
X47752Y555752D03*
D12*
X88900Y88900D03*
X63500Y88900D03*
D13*
X50038Y32131D03*
X50038Y42545D03*
D14*
X43942Y88900D03*
X35814Y88900D03*
D12*
X12700Y342900D03*
X12700Y317500D03*
X12700Y292100D03*
X12700Y266700D03*
X12700Y241300D03*
X12700Y215900D03*
X12700Y190500D03*
X12700Y165100D03*
X12700Y139700D03*
X12700Y114300D03*
X12700Y88900D03*
X12700Y63500D03*
X12700Y38100D03*
X12700Y12700D03*
X165100Y342900D03*
X165100Y317500D03*
X165100Y292100D03*
X165100Y266700D03*
X165100Y241300D03*
X165100Y215900D03*
X165100Y190500D03*
X165100Y165100D03*
X165100Y139700D03*
X165100Y114300D03*
X165100Y88900D03*
X165100Y63500D03*
X165100Y38100D03*
X165100Y12700D03*
X38100Y469900D03*
X63500Y469900D03*
X88900Y469900D03*
X114300Y469900D03*
X139700Y469900D03*
X127000Y152400D03*
X127000Y127000D03*
X127000Y101600D03*
X127000Y76200D03*
X165100Y393700D03*
X165100Y419100D03*
X165100Y444500D03*
X165100Y469900D03*
X165100Y495300D03*
X165100Y520700D03*
X165100Y546100D03*
X165100Y571500D03*
X165100Y596900D03*
X12700Y596900D03*
X12700Y571500D03*
X12700Y546100D03*
X12700Y520700D03*
X12700Y495300D03*
X12700Y469900D03*
X12700Y444500D03*
X12700Y419100D03*
X12700Y393700D03*
X12700Y368300D03*
X165100Y368300D03*
X127000Y177800D03*
D10*
X213106Y8128D03*
X330200Y600456D03*
D11*
X230632Y539496D03*
X230632Y547624D03*
X230632Y555752D03*
D12*
X271780Y88900D03*
X246380Y88900D03*
D13*
X232918Y32131D03*
X232918Y42545D03*
D14*
X226822Y88900D03*
X218694Y88900D03*
D12*
X195580Y342900D03*
X195580Y317500D03*
X195580Y292100D03*
X195580Y266700D03*
X195580Y241300D03*
X195580Y215900D03*
X195580Y190500D03*
X195580Y165100D03*
X195580Y139700D03*
X195580Y114300D03*
X195580Y88900D03*
X195580Y63500D03*
X195580Y38100D03*
X195580Y12700D03*
X347980Y342900D03*
X347980Y317500D03*
X347980Y292100D03*
X347980Y266700D03*
X347980Y241300D03*
X347980Y215900D03*
X347980Y190500D03*
X347980Y165100D03*
X347980Y139700D03*
X347980Y114300D03*
X347980Y88900D03*
X347980Y63500D03*
X347980Y38100D03*
X347980Y12700D03*
X220980Y469900D03*
X246380Y469900D03*
X271780Y469900D03*
X297180Y469900D03*
X322580Y469900D03*
X309880Y152400D03*
X309880Y127000D03*
X309880Y101600D03*
X309880Y76200D03*
X347980Y393700D03*
X347980Y419100D03*
X347980Y444500D03*
X347980Y469900D03*
X347980Y495300D03*
X347980Y520700D03*
X347980Y546100D03*
X347980Y571500D03*
X347980Y596900D03*
X195580Y596900D03*
X195580Y571500D03*
X195580Y546100D03*
X195580Y520700D03*
X195580Y495300D03*
X195580Y469900D03*
X195580Y444500D03*
X195580Y419100D03*
X195580Y393700D03*
X195580Y368300D03*
X347980Y368300D03*
X309880Y177800D03*
D10*
X395986Y8128D03*
X513080Y600456D03*
D11*
X413512Y539496D03*
X413512Y547624D03*
X413512Y555752D03*
D12*
X454660Y88900D03*
X429260Y88900D03*
D13*
X415798Y32131D03*
X415798Y42545D03*
D14*
X409702Y88900D03*
X401574Y88900D03*
D12*
X378460Y342900D03*
X378460Y317500D03*
X378460Y292100D03*
X378460Y266700D03*
X378460Y241300D03*
X378460Y215900D03*
X378460Y190500D03*
X378460Y165100D03*
X378460Y139700D03*
X378460Y114300D03*
X378460Y88900D03*
X378460Y63500D03*
X378460Y38100D03*
X378460Y12700D03*
X530860Y342900D03*
X530860Y317500D03*
X530860Y292100D03*
X530860Y266700D03*
X530860Y241300D03*
X530860Y215900D03*
X530860Y190500D03*
X530860Y165100D03*
X530860Y139700D03*
X530860Y114300D03*
X530860Y88900D03*
X530860Y63500D03*
X530860Y38100D03*
X530860Y12700D03*
X403860Y469900D03*
X429260Y469900D03*
X454660Y469900D03*
X480060Y469900D03*
X505460Y469900D03*
X492760Y152400D03*
X492760Y127000D03*
X492760Y101600D03*
X492760Y76200D03*
X530860Y393700D03*
X530860Y419100D03*
X530860Y444500D03*
X530860Y469900D03*
X530860Y495300D03*
X530860Y520700D03*
X530860Y546100D03*
X530860Y571500D03*
X530860Y596900D03*
X378460Y596900D03*
X378460Y571500D03*
X378460Y546100D03*
X378460Y520700D03*
X378460Y495300D03*
X378460Y469900D03*
X378460Y444500D03*
X378460Y419100D03*
X378460Y393700D03*
X378460Y368300D03*
X530860Y368300D03*
X492760Y177800D03*
D10*
X578866Y8128D03*
X695960Y600456D03*
D11*
X596392Y539496D03*
X596392Y547624D03*
X596392Y555752D03*
D12*
X637540Y88900D03*
X612140Y88900D03*
D13*
X598678Y32131D03*
X598678Y42545D03*
D14*
X592582Y88900D03*
X584454Y88900D03*
D12*
X561340Y342900D03*
X561340Y317500D03*
X561340Y292100D03*
X561340Y266700D03*
X561340Y241300D03*
X561340Y215900D03*
X561340Y190500D03*
X561340Y165100D03*
X561340Y139700D03*
X561340Y114300D03*
X561340Y88900D03*
X561340Y63500D03*
X561340Y38100D03*
X561340Y12700D03*
X713740Y342900D03*
X713740Y317500D03*
X713740Y292100D03*
X713740Y266700D03*
X713740Y241300D03*
X713740Y215900D03*
X713740Y190500D03*
X713740Y165100D03*
X713740Y139700D03*
X713740Y114300D03*
X713740Y88900D03*
X713740Y63500D03*
X713740Y38100D03*
X713740Y12700D03*
X586740Y469900D03*
X612140Y469900D03*
X637540Y469900D03*
X662940Y469900D03*
X688340Y469900D03*
X675640Y152400D03*
X675640Y127000D03*
X675640Y101600D03*
X675640Y76200D03*
X713740Y393700D03*
X713740Y419100D03*
X713740Y444500D03*
X713740Y469900D03*
X713740Y495300D03*
X713740Y520700D03*
X713740Y546100D03*
X713740Y571500D03*
X713740Y596900D03*
X561340Y596900D03*
X561340Y571500D03*
X561340Y546100D03*
X561340Y520700D03*
X561340Y495300D03*
X561340Y469900D03*
X561340Y444500D03*
X561340Y419100D03*
X561340Y393700D03*
X561340Y368300D03*
X713740Y368300D03*
X675640Y177800D03*
D10*
X761746Y8128D03*
X878840Y600456D03*
D11*
X779272Y539496D03*
X779272Y547624D03*
X779272Y555752D03*
D12*
X820420Y88900D03*
X795020Y88900D03*
D13*
X781558Y32131D03*
X781558Y42545D03*
D14*
X775462Y88900D03*
X767334Y88900D03*
D12*
X744220Y342900D03*
X744220Y317500D03*
X744220Y292100D03*
X744220Y266700D03*
X744220Y241300D03*
X744220Y215900D03*
X744220Y190500D03*
X744220Y165100D03*
X744220Y139700D03*
X744220Y114300D03*
X744220Y88900D03*
X744220Y63500D03*
X744220Y38100D03*
X744220Y12700D03*
X896620Y342900D03*
X896620Y317500D03*
X896620Y292100D03*
X896620Y266700D03*
X896620Y241300D03*
X896620Y215900D03*
X896620Y190500D03*
X896620Y165100D03*
X896620Y139700D03*
X896620Y114300D03*
X896620Y88900D03*
X896620Y63500D03*
X896620Y38100D03*
X896620Y12700D03*
X769620Y469900D03*
X795020Y469900D03*
X820420Y469900D03*
X845820Y469900D03*
X871220Y469900D03*
X858520Y152400D03*
X858520Y127000D03*
X858520Y101600D03*
X858520Y76200D03*
X896620Y393700D03*
X896620Y419100D03*
X896620Y444500D03*
X896620Y469900D03*
X896620Y495300D03*
X896620Y520700D03*
X896620Y546100D03*
X896620Y571500D03*
X896620Y596900D03*
X744220Y596900D03*
X744220Y571500D03*
X744220Y546100D03*
X744220Y520700D03*
X744220Y495300D03*
X744220Y469900D03*
X744220Y444500D03*
X744220Y419100D03*
X744220Y393700D03*
X744220Y368300D03*
X896620Y368300D03*
X858520Y177800D03*
D10*
X944626Y8128D03*
X1061720Y600456D03*
D11*
X962152Y539496D03*
X962152Y547624D03*
X962152Y555752D03*
D12*
X1003300Y88900D03*
X977900Y88900D03*
D13*
X964438Y32131D03*
X964438Y42545D03*
D14*
X958342Y88900D03*
X950214Y88900D03*
D12*
X927100Y342900D03*
X927100Y317500D03*
X927100Y292100D03*
X927100Y266700D03*
X927100Y241300D03*
X927100Y215900D03*
X927100Y190500D03*
X927100Y165100D03*
X927100Y139700D03*
X927100Y114300D03*
X927100Y88900D03*
X927100Y63500D03*
X927100Y38100D03*
X927100Y12700D03*
X1079500Y342900D03*
X1079500Y317500D03*
X1079500Y292100D03*
X1079500Y266700D03*
X1079500Y241300D03*
X1079500Y215900D03*
X1079500Y190500D03*
X1079500Y165100D03*
X1079500Y139700D03*
X1079500Y114300D03*
X1079500Y88900D03*
X1079500Y63500D03*
X1079500Y38100D03*
X1079500Y12700D03*
X952500Y469900D03*
X977900Y469900D03*
X1003300Y469900D03*
X1028700Y469900D03*
X1054100Y469900D03*
X1041400Y152400D03*
X1041400Y127000D03*
X1041400Y101600D03*
X1041400Y76200D03*
X1079500Y393700D03*
X1079500Y419100D03*
X1079500Y444500D03*
X1079500Y469900D03*
X1079500Y495300D03*
X1079500Y520700D03*
X1079500Y546100D03*
X1079500Y571500D03*
X1079500Y596900D03*
X927100Y596900D03*
X927100Y571500D03*
X927100Y546100D03*
X927100Y520700D03*
X927100Y495300D03*
X927100Y469900D03*
X927100Y444500D03*
X927100Y419100D03*
X927100Y393700D03*
X927100Y368300D03*
X1079500Y368300D03*
X1041400Y177800D03*
D10*
X1127506Y8128D03*
X1244600Y600456D03*
D11*
X1145032Y539496D03*
X1145032Y547624D03*
X1145032Y555752D03*
D12*
X1186180Y88900D03*
X1160780Y88900D03*
D13*
X1147318Y32131D03*
X1147318Y42545D03*
D14*
X1141222Y88900D03*
X1133094Y88900D03*
D12*
X1109980Y342900D03*
X1109980Y317500D03*
X1109980Y292100D03*
X1109980Y266700D03*
X1109980Y241300D03*
X1109980Y215900D03*
X1109980Y190500D03*
X1109980Y165100D03*
X1109980Y139700D03*
X1109980Y114300D03*
X1109980Y88900D03*
X1109980Y63500D03*
X1109980Y38100D03*
X1109980Y12700D03*
X1262380Y342900D03*
X1262380Y317500D03*
X1262380Y292100D03*
X1262380Y266700D03*
X1262380Y241300D03*
X1262380Y215900D03*
X1262380Y190500D03*
X1262380Y165100D03*
X1262380Y139700D03*
X1262380Y114300D03*
X1262380Y88900D03*
X1262380Y63500D03*
X1262380Y38100D03*
X1262380Y12700D03*
X1135380Y469900D03*
X1160780Y469900D03*
X1186180Y469900D03*
X1211580Y469900D03*
X1236980Y469900D03*
X1224280Y152400D03*
X1224280Y127000D03*
X1224280Y101600D03*
X1224280Y76200D03*
X1262380Y393700D03*
X1262380Y419100D03*
X1262380Y444500D03*
X1262380Y469900D03*
X1262380Y495300D03*
X1262380Y520700D03*
X1262380Y546100D03*
X1262380Y571500D03*
X1262380Y596900D03*
X1109980Y596900D03*
X1109980Y571500D03*
X1109980Y546100D03*
X1109980Y520700D03*
X1109980Y495300D03*
X1109980Y469900D03*
X1109980Y444500D03*
X1109980Y419100D03*
X1109980Y393700D03*
X1109980Y368300D03*
X1262380Y368300D03*
X1224280Y177800D03*
D10*
X1310386Y8128D03*
X1427480Y600456D03*
D11*
X1327912Y539496D03*
X1327912Y547624D03*
X1327912Y555752D03*
D12*
X1369060Y88900D03*
X1343660Y88900D03*
D13*
X1330198Y32131D03*
X1330198Y42545D03*
D14*
X1324102Y88900D03*
X1315974Y88900D03*
D12*
X1292860Y342900D03*
X1292860Y317500D03*
X1292860Y292100D03*
X1292860Y266700D03*
X1292860Y241300D03*
X1292860Y215900D03*
X1292860Y190500D03*
X1292860Y165100D03*
X1292860Y139700D03*
X1292860Y114300D03*
X1292860Y88900D03*
X1292860Y63500D03*
X1292860Y38100D03*
X1292860Y12700D03*
X1445260Y342900D03*
X1445260Y317500D03*
X1445260Y292100D03*
X1445260Y266700D03*
X1445260Y241300D03*
X1445260Y215900D03*
X1445260Y190500D03*
X1445260Y165100D03*
X1445260Y139700D03*
X1445260Y114300D03*
X1445260Y88900D03*
X1445260Y63500D03*
X1445260Y38100D03*
X1445260Y12700D03*
X1318260Y469900D03*
X1343660Y469900D03*
X1369060Y469900D03*
X1394460Y469900D03*
X1419860Y469900D03*
X1407160Y152400D03*
X1407160Y127000D03*
X1407160Y101600D03*
X1407160Y76200D03*
X1445260Y393700D03*
X1445260Y419100D03*
X1445260Y444500D03*
X1445260Y469900D03*
X1445260Y495300D03*
X1445260Y520700D03*
X1445260Y546100D03*
X1445260Y571500D03*
X1445260Y596900D03*
X1292860Y596900D03*
X1292860Y571500D03*
X1292860Y546100D03*
X1292860Y520700D03*
X1292860Y495300D03*
X1292860Y469900D03*
X1292860Y444500D03*
X1292860Y419100D03*
X1292860Y393700D03*
X1292860Y368300D03*
X1445260Y368300D03*
X1407160Y177800D03*
D10*
X1493266Y8128D03*
X1610360Y600456D03*
D11*
X1510792Y539496D03*
X1510792Y547624D03*
X1510792Y555752D03*
D12*
X1551940Y88900D03*
X1526540Y88900D03*
D13*
X1513078Y32131D03*
X1513078Y42545D03*
D14*
X1506982Y88900D03*
X1498854Y88900D03*
D12*
X1475740Y342900D03*
X1475740Y317500D03*
X1475740Y292100D03*
X1475740Y266700D03*
X1475740Y241300D03*
X1475740Y215900D03*
X1475740Y190500D03*
X1475740Y165100D03*
X1475740Y139700D03*
X1475740Y114300D03*
X1475740Y88900D03*
X1475740Y63500D03*
X1475740Y38100D03*
X1475740Y12700D03*
X1628140Y342900D03*
X1628140Y317500D03*
X1628140Y292100D03*
X1628140Y266700D03*
X1628140Y241300D03*
X1628140Y215900D03*
X1628140Y190500D03*
X1628140Y165100D03*
X1628140Y139700D03*
X1628140Y114300D03*
X1628140Y88900D03*
X1628140Y63500D03*
X1628140Y38100D03*
X1628140Y12700D03*
X1501140Y469900D03*
X1526540Y469900D03*
X1551940Y469900D03*
X1577340Y469900D03*
X1602740Y469900D03*
X1590040Y152400D03*
X1590040Y127000D03*
X1590040Y101600D03*
X1590040Y76200D03*
X1628140Y393700D03*
X1628140Y419100D03*
X1628140Y444500D03*
X1628140Y469900D03*
X1628140Y495300D03*
X1628140Y520700D03*
X1628140Y546100D03*
X1628140Y571500D03*
X1628140Y596900D03*
X1475740Y596900D03*
X1475740Y571500D03*
X1475740Y546100D03*
X1475740Y520700D03*
X1475740Y495300D03*
X1475740Y469900D03*
X1475740Y444500D03*
X1475740Y419100D03*
X1475740Y393700D03*
X1475740Y368300D03*
X1628140Y368300D03*
X1590040Y177800D03*
D10*
X30226Y622808D03*
X147320Y1215136D03*
D11*
X47752Y1154176D03*
X47752Y1162304D03*
X47752Y1170432D03*
D12*
X88900Y703580D03*
X63500Y703580D03*
D13*
X50038Y646811D03*
X50038Y657225D03*
D14*
X43942Y703580D03*
X35814Y703580D03*
D12*
X12700Y957580D03*
X12700Y932180D03*
X12700Y906780D03*
X12700Y881380D03*
X12700Y855980D03*
X12700Y830580D03*
X12700Y805180D03*
X12700Y779780D03*
X12700Y754380D03*
X12700Y728980D03*
X12700Y703580D03*
X12700Y678180D03*
X12700Y652780D03*
X12700Y627380D03*
X165100Y957580D03*
X165100Y932180D03*
X165100Y906780D03*
X165100Y881380D03*
X165100Y855980D03*
X165100Y830580D03*
X165100Y805180D03*
X165100Y779780D03*
X165100Y754380D03*
X165100Y728980D03*
X165100Y703580D03*
X165100Y678180D03*
X165100Y652780D03*
X165100Y627380D03*
X38100Y1084580D03*
X63500Y1084580D03*
X88900Y1084580D03*
X114300Y1084580D03*
X139700Y1084580D03*
X127000Y767080D03*
X127000Y741680D03*
X127000Y716280D03*
X127000Y690880D03*
X165100Y1008380D03*
X165100Y1033780D03*
X165100Y1059180D03*
X165100Y1084580D03*
X165100Y1109980D03*
X165100Y1135380D03*
X165100Y1160780D03*
X165100Y1186180D03*
X165100Y1211580D03*
X12700Y1211580D03*
X12700Y1186180D03*
X12700Y1160780D03*
X12700Y1135380D03*
X12700Y1109980D03*
X12700Y1084580D03*
X12700Y1059180D03*
X12700Y1033780D03*
X12700Y1008380D03*
X12700Y982980D03*
X165100Y982980D03*
X127000Y792480D03*
D10*
X213106Y622808D03*
X330200Y1215136D03*
D11*
X230632Y1154176D03*
X230632Y1162304D03*
X230632Y1170432D03*
D12*
X271780Y703580D03*
X246380Y703580D03*
D13*
X232918Y646811D03*
X232918Y657225D03*
D14*
X226822Y703580D03*
X218694Y703580D03*
D12*
X195580Y957580D03*
X195580Y932180D03*
X195580Y906780D03*
X195580Y881380D03*
X195580Y855980D03*
X195580Y830580D03*
X195580Y805180D03*
X195580Y779780D03*
X195580Y754380D03*
X195580Y728980D03*
X195580Y703580D03*
X195580Y678180D03*
X195580Y652780D03*
X195580Y627380D03*
X347980Y957580D03*
X347980Y932180D03*
X347980Y906780D03*
X347980Y881380D03*
X347980Y855980D03*
X347980Y830580D03*
X347980Y805180D03*
X347980Y779780D03*
X347980Y754380D03*
X347980Y728980D03*
X347980Y703580D03*
X347980Y678180D03*
X347980Y652780D03*
X347980Y627380D03*
X220980Y1084580D03*
X246380Y1084580D03*
X271780Y1084580D03*
X297180Y1084580D03*
X322580Y1084580D03*
X309880Y767080D03*
X309880Y741680D03*
X309880Y716280D03*
X309880Y690880D03*
X347980Y1008380D03*
X347980Y1033780D03*
X347980Y1059180D03*
X347980Y1084580D03*
X347980Y1109980D03*
X347980Y1135380D03*
X347980Y1160780D03*
X347980Y1186180D03*
X347980Y1211580D03*
X195580Y1211580D03*
X195580Y1186180D03*
X195580Y1160780D03*
X195580Y1135380D03*
X195580Y1109980D03*
X195580Y1084580D03*
X195580Y1059180D03*
X195580Y1033780D03*
X195580Y1008380D03*
X195580Y982980D03*
X347980Y982980D03*
X309880Y792480D03*
D10*
X395986Y622808D03*
X513080Y1215136D03*
D11*
X413512Y1154176D03*
X413512Y1162304D03*
X413512Y1170432D03*
D12*
X454660Y703580D03*
X429260Y703580D03*
D13*
X415798Y646811D03*
X415798Y657225D03*
D14*
X409702Y703580D03*
X401574Y703580D03*
D12*
X378460Y957580D03*
X378460Y932180D03*
X378460Y906780D03*
X378460Y881380D03*
X378460Y855980D03*
X378460Y830580D03*
X378460Y805180D03*
X378460Y779780D03*
X378460Y754380D03*
X378460Y728980D03*
X378460Y703580D03*
X378460Y678180D03*
X378460Y652780D03*
X378460Y627380D03*
X530860Y957580D03*
X530860Y932180D03*
X530860Y906780D03*
X530860Y881380D03*
X530860Y855980D03*
X530860Y830580D03*
X530860Y805180D03*
X530860Y779780D03*
X530860Y754380D03*
X530860Y728980D03*
X530860Y703580D03*
X530860Y678180D03*
X530860Y652780D03*
X530860Y627380D03*
X403860Y1084580D03*
X429260Y1084580D03*
X454660Y1084580D03*
X480060Y1084580D03*
X505460Y1084580D03*
X492760Y767080D03*
X492760Y741680D03*
X492760Y716280D03*
X492760Y690880D03*
X530860Y1008380D03*
X530860Y1033780D03*
X530860Y1059180D03*
X530860Y1084580D03*
X530860Y1109980D03*
X530860Y1135380D03*
X530860Y1160780D03*
X530860Y1186180D03*
X530860Y1211580D03*
X378460Y1211580D03*
X378460Y1186180D03*
X378460Y1160780D03*
X378460Y1135380D03*
X378460Y1109980D03*
X378460Y1084580D03*
X378460Y1059180D03*
X378460Y1033780D03*
X378460Y1008380D03*
X378460Y982980D03*
X530860Y982980D03*
X492760Y792480D03*
D10*
X578866Y622808D03*
X695960Y1215136D03*
D11*
X596392Y1154176D03*
X596392Y1162304D03*
X596392Y1170432D03*
D12*
X637540Y703580D03*
X612140Y703580D03*
D13*
X598678Y646811D03*
X598678Y657225D03*
D14*
X592582Y703580D03*
X584454Y703580D03*
D12*
X561340Y957580D03*
X561340Y932180D03*
X561340Y906780D03*
X561340Y881380D03*
X561340Y855980D03*
X561340Y830580D03*
X561340Y805180D03*
X561340Y779780D03*
X561340Y754380D03*
X561340Y728980D03*
X561340Y703580D03*
X561340Y678180D03*
X561340Y652780D03*
X561340Y627380D03*
X713740Y957580D03*
X713740Y932180D03*
X713740Y906780D03*
X713740Y881380D03*
X713740Y855980D03*
X713740Y830580D03*
X713740Y805180D03*
X713740Y779780D03*
X713740Y754380D03*
X713740Y728980D03*
X713740Y703580D03*
X713740Y678180D03*
X713740Y652780D03*
X713740Y627380D03*
X586740Y1084580D03*
X612140Y1084580D03*
X637540Y1084580D03*
X662940Y1084580D03*
X688340Y1084580D03*
X675640Y767080D03*
X675640Y741680D03*
X675640Y716280D03*
X675640Y690880D03*
X713740Y1008380D03*
X713740Y1033780D03*
X713740Y1059180D03*
X713740Y1084580D03*
X713740Y1109980D03*
X713740Y1135380D03*
X713740Y1160780D03*
X713740Y1186180D03*
X713740Y1211580D03*
X561340Y1211580D03*
X561340Y1186180D03*
X561340Y1160780D03*
X561340Y1135380D03*
X561340Y1109980D03*
X561340Y1084580D03*
X561340Y1059180D03*
X561340Y1033780D03*
X561340Y1008380D03*
X561340Y982980D03*
X713740Y982980D03*
X675640Y792480D03*
D10*
X761746Y622808D03*
X878840Y1215136D03*
D11*
X779272Y1154176D03*
X779272Y1162304D03*
X779272Y1170432D03*
D12*
X820420Y703580D03*
X795020Y703580D03*
D13*
X781558Y646811D03*
X781558Y657225D03*
D14*
X775462Y703580D03*
X767334Y703580D03*
D12*
X744220Y957580D03*
X744220Y932180D03*
X744220Y906780D03*
X744220Y881380D03*
X744220Y855980D03*
X744220Y830580D03*
X744220Y805180D03*
X744220Y779780D03*
X744220Y754380D03*
X744220Y728980D03*
X744220Y703580D03*
X744220Y678180D03*
X744220Y652780D03*
X744220Y627380D03*
X896620Y957580D03*
X896620Y932180D03*
X896620Y906780D03*
X896620Y881380D03*
X896620Y855980D03*
X896620Y830580D03*
X896620Y805180D03*
X896620Y779780D03*
X896620Y754380D03*
X896620Y728980D03*
X896620Y703580D03*
X896620Y678180D03*
X896620Y652780D03*
X896620Y627380D03*
X769620Y1084580D03*
X795020Y1084580D03*
X820420Y1084580D03*
X845820Y1084580D03*
X871220Y1084580D03*
X858520Y767080D03*
X858520Y741680D03*
X858520Y716280D03*
X858520Y690880D03*
X896620Y1008380D03*
X896620Y1033780D03*
X896620Y1059180D03*
X896620Y1084580D03*
X896620Y1109980D03*
X896620Y1135380D03*
X896620Y1160780D03*
X896620Y1186180D03*
X896620Y1211580D03*
X744220Y1211580D03*
X744220Y1186180D03*
X744220Y1160780D03*
X744220Y1135380D03*
X744220Y1109980D03*
X744220Y1084580D03*
X744220Y1059180D03*
X744220Y1033780D03*
X744220Y1008380D03*
X744220Y982980D03*
X896620Y982980D03*
X858520Y792480D03*
D10*
X944626Y622808D03*
X1061720Y1215136D03*
D11*
X962152Y1154176D03*
X962152Y1162304D03*
X962152Y1170432D03*
D12*
X1003300Y703580D03*
X977900Y703580D03*
D13*
X964438Y646811D03*
X964438Y657225D03*
D14*
X958342Y703580D03*
X950214Y703580D03*
D12*
X927100Y957580D03*
X927100Y932180D03*
X927100Y906780D03*
X927100Y881380D03*
X927100Y855980D03*
X927100Y830580D03*
X927100Y805180D03*
X927100Y779780D03*
X927100Y754380D03*
X927100Y728980D03*
X927100Y703580D03*
X927100Y678180D03*
X927100Y652780D03*
X927100Y627380D03*
X1079500Y957580D03*
X1079500Y932180D03*
X1079500Y906780D03*
X1079500Y881380D03*
X1079500Y855980D03*
X1079500Y830580D03*
X1079500Y805180D03*
X1079500Y779780D03*
X1079500Y754380D03*
X1079500Y728980D03*
X1079500Y703580D03*
X1079500Y678180D03*
X1079500Y652780D03*
X1079500Y627380D03*
X952500Y1084580D03*
X977900Y1084580D03*
X1003300Y1084580D03*
X1028700Y1084580D03*
X1054100Y1084580D03*
X1041400Y767080D03*
X1041400Y741680D03*
X1041400Y716280D03*
X1041400Y690880D03*
X1079500Y1008380D03*
X1079500Y1033780D03*
X1079500Y1059180D03*
X1079500Y1084580D03*
X1079500Y1109980D03*
X1079500Y1135380D03*
X1079500Y1160780D03*
X1079500Y1186180D03*
X1079500Y1211580D03*
X927100Y1211580D03*
X927100Y1186180D03*
X927100Y1160780D03*
X927100Y1135380D03*
X927100Y1109980D03*
X927100Y1084580D03*
X927100Y1059180D03*
X927100Y1033780D03*
X927100Y1008380D03*
X927100Y982980D03*
X1079500Y982980D03*
X1041400Y792480D03*
D10*
X1127506Y622808D03*
X1244600Y1215136D03*
D11*
X1145032Y1154176D03*
X1145032Y1162304D03*
X1145032Y1170432D03*
D12*
X1186180Y703580D03*
X1160780Y703580D03*
D13*
X1147318Y646811D03*
X1147318Y657225D03*
D14*
X1141222Y703580D03*
X1133094Y703580D03*
D12*
X1109980Y957580D03*
X1109980Y932180D03*
X1109980Y906780D03*
X1109980Y881380D03*
X1109980Y855980D03*
X1109980Y830580D03*
X1109980Y805180D03*
X1109980Y779780D03*
X1109980Y754380D03*
X1109980Y728980D03*
X1109980Y703580D03*
X1109980Y678180D03*
X1109980Y652780D03*
X1109980Y627380D03*
X1262380Y957580D03*
X1262380Y932180D03*
X1262380Y906780D03*
X1262380Y881380D03*
X1262380Y855980D03*
X1262380Y830580D03*
X1262380Y805180D03*
X1262380Y779780D03*
X1262380Y754380D03*
X1262380Y728980D03*
X1262380Y703580D03*
X1262380Y678180D03*
X1262380Y652780D03*
X1262380Y627380D03*
X1135380Y1084580D03*
X1160780Y1084580D03*
X1186180Y1084580D03*
X1211580Y1084580D03*
X1236980Y1084580D03*
X1224280Y767080D03*
X1224280Y741680D03*
X1224280Y716280D03*
X1224280Y690880D03*
X1262380Y1008380D03*
X1262380Y1033780D03*
X1262380Y1059180D03*
X1262380Y1084580D03*
X1262380Y1109980D03*
X1262380Y1135380D03*
X1262380Y1160780D03*
X1262380Y1186180D03*
X1262380Y1211580D03*
X1109980Y1211580D03*
X1109980Y1186180D03*
X1109980Y1160780D03*
X1109980Y1135380D03*
X1109980Y1109980D03*
X1109980Y1084580D03*
X1109980Y1059180D03*
X1109980Y1033780D03*
X1109980Y1008380D03*
X1109980Y982980D03*
X1262380Y982980D03*
X1224280Y792480D03*
D10*
X1310386Y622808D03*
X1427480Y1215136D03*
D11*
X1327912Y1154176D03*
X1327912Y1162304D03*
X1327912Y1170432D03*
D12*
X1369060Y703580D03*
X1343660Y703580D03*
D13*
X1330198Y646811D03*
X1330198Y657225D03*
D14*
X1324102Y703580D03*
X1315974Y703580D03*
D12*
X1292860Y957580D03*
X1292860Y932180D03*
X1292860Y906780D03*
X1292860Y881380D03*
X1292860Y855980D03*
X1292860Y830580D03*
X1292860Y805180D03*
X1292860Y779780D03*
X1292860Y754380D03*
X1292860Y728980D03*
X1292860Y703580D03*
X1292860Y678180D03*
X1292860Y652780D03*
X1292860Y627380D03*
X1445260Y957580D03*
X1445260Y932180D03*
X1445260Y906780D03*
X1445260Y881380D03*
X1445260Y855980D03*
X1445260Y830580D03*
X1445260Y805180D03*
X1445260Y779780D03*
X1445260Y754380D03*
X1445260Y728980D03*
X1445260Y703580D03*
X1445260Y678180D03*
X1445260Y652780D03*
X1445260Y627380D03*
X1318260Y1084580D03*
X1343660Y1084580D03*
X1369060Y1084580D03*
X1394460Y1084580D03*
X1419860Y1084580D03*
X1407160Y767080D03*
X1407160Y741680D03*
X1407160Y716280D03*
X1407160Y690880D03*
X1445260Y1008380D03*
X1445260Y1033780D03*
X1445260Y1059180D03*
X1445260Y1084580D03*
X1445260Y1109980D03*
X1445260Y1135380D03*
X1445260Y1160780D03*
X1445260Y1186180D03*
X1445260Y1211580D03*
X1292860Y1211580D03*
X1292860Y1186180D03*
X1292860Y1160780D03*
X1292860Y1135380D03*
X1292860Y1109980D03*
X1292860Y1084580D03*
X1292860Y1059180D03*
X1292860Y1033780D03*
X1292860Y1008380D03*
X1292860Y982980D03*
X1445260Y982980D03*
X1407160Y792480D03*
D10*
X1493266Y622808D03*
X1610360Y1215136D03*
D11*
X1510792Y1154176D03*
X1510792Y1162304D03*
X1510792Y1170432D03*
D12*
X1551940Y703580D03*
X1526540Y703580D03*
D13*
X1513078Y646811D03*
X1513078Y657225D03*
D14*
X1506982Y703580D03*
X1498854Y703580D03*
D12*
X1475740Y957580D03*
X1475740Y932180D03*
X1475740Y906780D03*
X1475740Y881380D03*
X1475740Y855980D03*
X1475740Y830580D03*
X1475740Y805180D03*
X1475740Y779780D03*
X1475740Y754380D03*
X1475740Y728980D03*
X1475740Y703580D03*
X1475740Y678180D03*
X1475740Y652780D03*
X1475740Y627380D03*
X1628140Y957580D03*
X1628140Y932180D03*
X1628140Y906780D03*
X1628140Y881380D03*
X1628140Y855980D03*
X1628140Y830580D03*
X1628140Y805180D03*
X1628140Y779780D03*
X1628140Y754380D03*
X1628140Y728980D03*
X1628140Y703580D03*
X1628140Y678180D03*
X1628140Y652780D03*
X1628140Y627380D03*
X1501140Y1084580D03*
X1526540Y1084580D03*
X1551940Y1084580D03*
X1577340Y1084580D03*
X1602740Y1084580D03*
X1590040Y767080D03*
X1590040Y741680D03*
X1590040Y716280D03*
X1590040Y690880D03*
X1628140Y1008380D03*
X1628140Y1033780D03*
X1628140Y1059180D03*
X1628140Y1084580D03*
X1628140Y1109980D03*
X1628140Y1135380D03*
X1628140Y1160780D03*
X1628140Y1186180D03*
X1628140Y1211580D03*
X1475740Y1211580D03*
X1475740Y1186180D03*
X1475740Y1160780D03*
X1475740Y1135380D03*
X1475740Y1109980D03*
X1475740Y1084580D03*
X1475740Y1059180D03*
X1475740Y1033780D03*
X1475740Y1008380D03*
X1475740Y982980D03*
X1628140Y982980D03*
X1590040Y792480D03*
D10*
X68580Y1245235D03*
X1571625Y1245235D03*
D15*
X59525Y-20955D02*
X59528Y-20733D01*
X59536Y-20511D01*
X59550Y-20289D01*
X59569Y-20067D01*
X59593Y-19847D01*
X59623Y-19626D01*
X59658Y-19407D01*
X59699Y-19188D01*
X59745Y-18971D01*
X59796Y-18755D01*
X59853Y-18540D01*
X59915Y-18326D01*
X59982Y-18115D01*
X60054Y-17904D01*
X60132Y-17696D01*
X60214Y-17490D01*
X60302Y-17286D01*
X60394Y-17083D01*
X60492Y-16884D01*
X60594Y-16687D01*
X60701Y-16492D01*
X60813Y-16300D01*
X60930Y-16111D01*
X61051Y-15924D01*
X61177Y-15741D01*
X61307Y-15561D01*
X61442Y-15384D01*
X61580Y-15211D01*
X61723Y-15041D01*
X61871Y-14874D01*
X62022Y-14711D01*
X62177Y-14552D01*
X62336Y-14397D01*
X62499Y-14246D01*
X62666Y-14098D01*
X62836Y-13955D01*
X63009Y-13817D01*
X63186Y-13682D01*
X63366Y-13552D01*
X63549Y-13426D01*
X63736Y-13305D01*
X63925Y-13188D01*
X64117Y-13076D01*
X64312Y-12969D01*
X64509Y-12867D01*
X64708Y-12769D01*
X64911Y-12677D01*
X65115Y-12589D01*
X65321Y-12507D01*
X65529Y-12429D01*
X65740Y-12357D01*
X65951Y-12290D01*
X66165Y-12228D01*
X66380Y-12171D01*
X66596Y-12120D01*
X66813Y-12074D01*
X67032Y-12033D01*
X67251Y-11998D01*
X67472Y-11968D01*
X67692Y-11944D01*
X67914Y-11925D01*
X68136Y-11911D01*
X68358Y-11903D01*
X68580Y-11900D01*
X68802Y-11903D01*
X69024Y-11911D01*
X69246Y-11925D01*
X69468Y-11944D01*
X69688Y-11968D01*
X69909Y-11998D01*
X70128Y-12033D01*
X70347Y-12074D01*
X70564Y-12120D01*
X70780Y-12171D01*
X70995Y-12228D01*
X71209Y-12290D01*
X71420Y-12357D01*
X71631Y-12429D01*
X71839Y-12507D01*
X72045Y-12589D01*
X72249Y-12677D01*
X72452Y-12769D01*
X72651Y-12867D01*
X72848Y-12969D01*
X73043Y-13076D01*
X73235Y-13188D01*
X73424Y-13305D01*
X73611Y-13426D01*
X73794Y-13552D01*
X73974Y-13682D01*
X74151Y-13817D01*
X74324Y-13955D01*
X74494Y-14098D01*
X74661Y-14246D01*
X74824Y-14397D01*
X74983Y-14552D01*
X75138Y-14711D01*
X75289Y-14874D01*
X75437Y-15041D01*
X75580Y-15211D01*
X75718Y-15384D01*
X75853Y-15561D01*
X75983Y-15741D01*
X76109Y-15924D01*
X76230Y-16111D01*
X76347Y-16300D01*
X76459Y-16492D01*
X76566Y-16687D01*
X76668Y-16884D01*
X76766Y-17083D01*
X76858Y-17286D01*
X76946Y-17490D01*
X77028Y-17696D01*
X77106Y-17904D01*
X77178Y-18115D01*
X77245Y-18326D01*
X77307Y-18540D01*
X77364Y-18755D01*
X77415Y-18971D01*
X77461Y-19188D01*
X77502Y-19407D01*
X77537Y-19626D01*
X77567Y-19847D01*
X77591Y-20067D01*
X77610Y-20289D01*
X77624Y-20511D01*
X77632Y-20733D01*
X77635Y-20955D01*
X77632Y-21177D01*
X77624Y-21399D01*
X77610Y-21621D01*
X77591Y-21843D01*
X77567Y-22063D01*
X77537Y-22284D01*
X77502Y-22503D01*
X77461Y-22722D01*
X77415Y-22939D01*
X77364Y-23155D01*
X77307Y-23370D01*
X77245Y-23584D01*
X77178Y-23795D01*
X77106Y-24006D01*
X77028Y-24214D01*
X76946Y-24420D01*
X76858Y-24624D01*
X76766Y-24827D01*
X76668Y-25026D01*
X76566Y-25223D01*
X76459Y-25418D01*
X76347Y-25610D01*
X76230Y-25799D01*
X76109Y-25986D01*
X75983Y-26169D01*
X75853Y-26349D01*
X75718Y-26526D01*
X75580Y-26699D01*
X75437Y-26869D01*
X75289Y-27036D01*
X75138Y-27199D01*
X74983Y-27358D01*
X74824Y-27513D01*
X74661Y-27664D01*
X74494Y-27812D01*
X74324Y-27955D01*
X74151Y-28093D01*
X73974Y-28228D01*
X73794Y-28358D01*
X73611Y-28484D01*
X73424Y-28605D01*
X73235Y-28722D01*
X73043Y-28834D01*
X72848Y-28941D01*
X72651Y-29043D01*
X72452Y-29141D01*
X72249Y-29233D01*
X72045Y-29321D01*
X71839Y-29403D01*
X71631Y-29481D01*
X71420Y-29553D01*
X71209Y-29620D01*
X70995Y-29682D01*
X70780Y-29739D01*
X70564Y-29790D01*
X70347Y-29836D01*
X70128Y-29877D01*
X69909Y-29912D01*
X69688Y-29942D01*
X69468Y-29966D01*
X69246Y-29985D01*
X69024Y-29999D01*
X68802Y-30007D01*
X68580Y-30010D01*
X68358Y-30007D01*
X68136Y-29999D01*
X67914Y-29985D01*
X67692Y-29966D01*
X67472Y-29942D01*
X67251Y-29912D01*
X67032Y-29877D01*
X66813Y-29836D01*
X66596Y-29790D01*
X66380Y-29739D01*
X66165Y-29682D01*
X65951Y-29620D01*
X65740Y-29553D01*
X65529Y-29481D01*
X65321Y-29403D01*
X65115Y-29321D01*
X64911Y-29233D01*
X64708Y-29141D01*
X64509Y-29043D01*
X64312Y-28941D01*
X64117Y-28834D01*
X63925Y-28722D01*
X63736Y-28605D01*
X63549Y-28484D01*
X63366Y-28358D01*
X63186Y-28228D01*
X63009Y-28093D01*
X62836Y-27955D01*
X62666Y-27812D01*
X62499Y-27664D01*
X62336Y-27513D01*
X62177Y-27358D01*
X62022Y-27199D01*
X61871Y-27036D01*
X61723Y-26869D01*
X61580Y-26699D01*
X61442Y-26526D01*
X61307Y-26349D01*
X61177Y-26169D01*
X61051Y-25986D01*
X60930Y-25799D01*
X60813Y-25610D01*
X60701Y-25418D01*
X60594Y-25223D01*
X60492Y-25026D01*
X60394Y-24827D01*
X60302Y-24624D01*
X60214Y-24420D01*
X60132Y-24214D01*
X60054Y-24006D01*
X59982Y-23795D01*
X59915Y-23584D01*
X59853Y-23370D01*
X59796Y-23155D01*
X59745Y-22939D01*
X59699Y-22722D01*
X59658Y-22503D01*
X59623Y-22284D01*
X59593Y-22063D01*
X59569Y-21843D01*
X59550Y-21621D01*
X59536Y-21399D01*
X59528Y-21177D01*
X59525Y-20955D01*
D16*
X68580Y-20955D03*
M02*
